<svg width="509" height="512" viewBox="0 0 509 512" fill="none" xmlns="http://www.w3.org/2000/svg">
<path d="M242.977 511.778C163.04 511.778 98.2388 501.84 98.2388 489.581C98.2388 477.321 163.04 467.383 242.977 467.383C322.913 467.383 387.715 477.321 387.715 489.581C387.715 501.84 322.913 511.778 242.977 511.778Z" fill="#EBEBEB"/>
<path d="M327.856 469.355C327.856 478.062 362.459 485.131 405.139 485.131C447.82 485.131 482.423 478.062 482.423 469.355C482.423 460.648 447.82 453.58 405.139 453.58C362.459 453.58 327.856 460.672 327.856 469.355Z" fill="#EBEBEB"/>
<path d="M108.371 306.508H142.009V423.357H108.371V306.508Z" fill="#F48C06"/>
<g opacity="0.1">
<path d="M108.382 306.508H116.079V423.357H108.382V306.508Z" fill="black"/>
</g>
<path d="M64.0636 268.488H97.7012V423.346H64.0636V268.488Z" fill="#F48C06"/>
<g opacity="0.1">
<path d="M64.0628 268.488H71.7598V423.346H64.0628V268.488Z" fill="black"/>
</g>
<path d="M152.589 329.16H186.227V423.357H152.589V329.16Z" fill="#F48C06"/>
<g opacity="0.1">
<path d="M152.6 329.16H160.297V423.357H152.6V329.16Z" fill="black"/>
</g>
<path d="M19.7443 217.873H53.3818V423.346H19.7443V217.873Z" fill="#F48C06"/>
<g opacity="0.1">
<path d="M19.7552 217.873H27.4521V423.346H19.7552V217.873Z" fill="black"/>
</g>
<path d="M186.227 362.517V344.397C186.227 344.397 71.7826 334.004 25.5113 198.832H20.6082C20.6082 198.832 51.6314 338.68 186.227 362.517Z" fill="#C7C7C7"/>
<path d="M16.6253 204.645L31.0879 199.538L19.1049 186.812L16.6253 204.645Z" fill="#C7C7C7"/>
<path d="M508.51 423.344L445.005 423.057L381.499 422.949L254.5 422.758L127.501 422.949L63.9958 423.057L0.49057 423.344L63.9958 423.643L127.501 423.751L254.5 423.942L381.499 423.751L445.005 423.643L508.51 423.344Z" fill="#263238"/>
<path d="M142.467 473.457H213.131V490.105H142.467V473.457Z" fill="#F48C06"/>
<g opacity="0.1">
<path d="M210.214 475.023C209.466 479.425 209.466 483.934 210.214 488.335C210.962 483.934 210.962 479.425 210.214 475.023Z" fill="black"/>
<path d="M204.953 475.023C204.205 479.425 204.205 483.934 204.953 488.335C205.701 483.934 205.701 479.425 204.953 475.023Z" fill="black"/>
<path d="M202.383 475.023C201.635 479.425 201.635 483.934 202.383 488.335C202.787 486.141 202.975 483.909 202.944 481.673C202.969 479.442 202.781 477.214 202.383 475.023Z" fill="black"/>
<path d="M188.301 475.023C187.553 479.425 187.553 483.934 188.301 488.335C189.049 483.934 189.049 479.425 188.301 475.023Z" fill="black"/>
<path d="M184.453 475.023C184.061 477.215 183.873 479.442 183.892 481.673C183.867 483.908 184.055 486.14 184.453 488.335C184.857 486.141 185.045 483.909 185.014 481.673C185.039 479.442 184.851 477.214 184.453 475.023Z" fill="black"/>
<path d="M168.667 475.023C168.275 477.215 168.087 479.442 168.106 481.673C168.081 483.908 168.269 486.14 168.667 488.335C169.071 486.141 169.259 483.909 169.228 481.673C169.248 479.442 169.06 477.215 168.667 475.023Z" fill="black"/>
<path d="M165.02 475.023C164.627 477.215 164.439 479.442 164.459 481.673C164.428 483.909 164.616 486.141 165.02 488.335C165.418 486.14 165.606 483.908 165.581 481.673C165.6 479.442 165.412 477.215 165.02 475.023Z" fill="black"/>
<path d="M158.322 475.023C157.929 477.215 157.741 479.442 157.761 481.673C157.736 483.908 157.924 486.14 158.322 488.335C158.725 486.141 158.913 483.909 158.883 481.673C158.902 479.442 158.714 477.215 158.322 475.023Z" fill="black"/>
<path d="M171.719 475.023C171.321 477.214 171.133 479.442 171.158 481.673C171.127 483.909 171.315 486.141 171.719 488.335C172.117 486.14 172.305 483.908 172.28 481.673C172.299 479.442 172.111 477.215 171.719 475.023Z" fill="black"/>
<path d="M197.715 475.023C196.982 479.426 196.982 483.932 197.715 488.335C198.463 483.934 198.463 479.425 197.715 475.023Z" fill="black"/>
<path d="M179.426 475.023C178.678 479.425 178.678 483.934 179.426 488.335C180.174 483.934 180.174 479.425 179.426 475.023Z" fill="black"/>
<path d="M176.801 475.023C176.403 477.214 176.215 479.442 176.24 481.673C176.209 483.909 176.398 486.141 176.801 488.335C177.199 486.14 177.387 483.908 177.362 481.673C177.381 479.442 177.193 477.215 176.801 475.023Z" fill="black"/>
<path d="M149.593 475.023C149.195 477.214 149.007 479.442 149.032 481.673C149.001 483.909 149.19 486.141 149.593 488.335C149.991 486.14 150.179 483.908 150.154 481.673C150.173 479.442 149.985 477.215 149.593 475.023Z" fill="black"/>
<path d="M145.665 475.023C145.273 477.215 145.085 479.442 145.104 481.673C145.079 483.908 145.267 486.14 145.665 488.335C146.069 486.141 146.257 483.909 146.226 481.673C146.251 479.442 146.063 477.214 145.665 475.023Z" fill="black"/>
<path d="M155.214 475.023C154.816 477.214 154.628 479.442 154.653 481.673C154.623 483.909 154.811 486.141 155.214 488.335C155.612 486.14 155.8 483.908 155.775 481.673C155.794 479.442 155.607 477.215 155.214 475.023Z" fill="black"/>
<path d="M191.32 475.023C190.572 479.425 190.572 483.934 191.32 488.335C191.723 486.141 191.911 483.909 191.881 481.673C191.906 479.442 191.718 477.214 191.32 475.023Z" fill="black"/>
</g>
<path opacity="0.1" d="M142.467 473.457V476.997L213.131 479.365V473.457H142.467Z" fill="black"/>
<path d="M148.358 456.82H219.021V473.469H148.358V456.82Z" fill="#F48C06"/>
<g opacity="0.1">
<path d="M151.544 471.663C152.292 467.258 152.292 462.745 151.544 458.34C150.796 462.745 150.796 467.258 151.544 471.663Z" fill="black"/>
<path d="M156.806 471.663C157.554 467.258 157.554 462.745 156.806 458.34C156.058 462.745 156.058 467.258 156.806 471.663Z" fill="black"/>
<path d="M159.376 471.663C159.768 469.468 159.956 467.236 159.937 465.002C159.962 462.766 159.774 460.534 159.376 458.34C158.973 460.534 158.785 462.766 158.815 465.002C158.791 467.237 158.979 469.469 159.376 471.663Z" fill="black"/>
<path d="M173.491 471.663C174.239 467.258 174.239 462.745 173.491 458.34C172.743 462.745 172.743 467.258 173.491 471.663Z" fill="black"/>
<path d="M177.306 471.663C177.698 469.468 177.886 467.236 177.867 465.002C177.892 462.766 177.704 460.534 177.306 458.34C176.902 460.534 176.714 462.766 176.745 465.002C176.726 467.236 176.914 469.468 177.306 471.663Z" fill="black"/>
<path d="M193.092 471.663C193.484 469.468 193.672 467.236 193.653 465.002C193.684 462.766 193.496 460.534 193.092 458.34C192.689 460.534 192.5 462.766 192.531 465.002C192.512 467.236 192.7 469.468 193.092 471.663Z" fill="black"/>
<path d="M196.739 471.663C197.136 469.469 197.324 467.237 197.3 465.002C197.33 462.766 197.142 460.534 196.739 458.34C196.34 460.534 196.153 462.766 196.178 465.002C196.159 467.236 196.347 469.468 196.739 471.663Z" fill="black"/>
<path d="M203.437 471.663C203.829 469.468 204.017 467.236 203.998 465.002C204.028 462.766 203.84 460.534 203.437 458.34C203.039 460.534 202.851 462.766 202.876 465.002C202.857 467.236 203.045 469.468 203.437 471.663Z" fill="black"/>
<path d="M190.04 471.663C190.438 469.469 190.626 467.237 190.601 465.002C190.632 462.766 190.444 460.534 190.04 458.34C189.292 462.745 189.292 467.258 190.04 471.663Z" fill="black"/>
<path d="M164.043 471.663C164.792 467.258 164.792 462.745 164.043 458.34C163.295 462.745 163.295 467.258 164.043 471.663Z" fill="black"/>
<path d="M182.332 471.663C183.081 467.258 183.081 462.745 182.332 458.34C181.584 462.745 181.584 467.258 182.332 471.663Z" fill="black"/>
<path d="M184.935 471.663C185.332 469.469 185.52 467.237 185.496 465.002C185.526 462.766 185.338 460.534 184.935 458.34C184.187 462.745 184.187 467.258 184.935 471.663Z" fill="black"/>
<path d="M212.166 471.663C212.564 469.469 212.752 467.237 212.727 465.002C212.758 462.766 212.57 460.534 212.166 458.34C211.418 462.745 211.418 467.258 212.166 471.663Z" fill="black"/>
<path d="M216.116 471.663C216.507 469.468 216.695 467.236 216.677 465.002C216.702 462.766 216.514 460.534 216.116 458.34C215.712 460.534 215.524 462.766 215.555 465.002C215.53 467.237 215.718 469.469 216.116 471.663Z" fill="black"/>
<path d="M206.545 471.663C206.943 469.469 207.131 467.237 207.106 465.002C207.137 462.766 206.949 460.534 206.545 458.34C205.797 462.745 205.797 467.258 206.545 471.663Z" fill="black"/>
<path d="M170.439 471.663C170.831 469.468 171.019 467.236 171 465.002C171.025 462.766 170.837 460.534 170.439 458.34C170.035 460.534 169.847 462.766 169.878 465.002C169.853 467.237 170.041 469.469 170.439 471.663Z" fill="black"/>
</g>
<path opacity="0.1" d="M148.37 456.82V460.349L219.033 462.729V456.82H148.37Z" fill="black"/>
<path d="M142.917 440.305H213.58V456.953H142.917V440.305Z" fill="#F48C06"/>
<g opacity="0.1">
<path d="M210.674 441.834C209.926 446.235 209.926 450.744 210.674 455.145C211.422 450.744 211.422 446.235 210.674 441.834Z" fill="black"/>
<path d="M205.413 441.834C204.665 446.235 204.665 450.744 205.413 455.145C206.161 450.744 206.161 446.235 205.413 441.834Z" fill="black"/>
<path d="M202.832 441.834C202.099 446.237 202.099 450.743 202.832 455.145C203.58 450.744 203.58 446.235 202.832 441.834Z" fill="black"/>
<path d="M188.728 441.834C187.98 446.235 187.98 450.744 188.728 455.145C189.476 450.744 189.476 446.235 188.728 441.834Z" fill="black"/>
<path d="M184.936 441.834C184.188 446.235 184.188 450.744 184.936 455.145C185.684 450.744 185.684 446.235 184.936 441.834Z" fill="black"/>
<path d="M169.116 441.834C168.368 446.235 168.368 450.744 169.116 455.145C169.864 450.744 169.864 446.235 169.116 441.834Z" fill="black"/>
<path d="M165.469 441.834C164.721 446.235 164.721 450.744 165.469 455.145C166.217 450.744 166.217 446.235 165.469 441.834Z" fill="black"/>
<path d="M158.771 441.834C158.023 446.235 158.023 450.744 158.771 455.145C159.519 450.744 159.519 446.235 158.771 441.834Z" fill="black"/>
<path d="M172.167 441.834C171.419 446.235 171.419 450.744 172.167 455.145C172.571 452.956 172.759 450.727 172.728 448.496C172.754 446.261 172.566 444.029 172.167 441.834Z" fill="black"/>
<path d="M198.175 441.834C197.777 444.029 197.589 446.261 197.614 448.496C197.584 450.727 197.772 452.956 198.175 455.145C198.923 450.744 198.923 446.235 198.175 441.834Z" fill="black"/>
<path d="M179.886 441.834C179.138 446.235 179.138 450.744 179.886 455.145C180.634 450.744 180.634 446.235 179.886 441.834Z" fill="black"/>
<path d="M177.25 441.834C176.502 446.235 176.502 450.744 177.25 455.145C177.654 452.956 177.842 450.727 177.811 448.496C177.837 446.261 177.649 444.029 177.25 441.834Z" fill="black"/>
<path d="M150.042 441.834C149.294 446.235 149.294 450.744 150.042 455.145C150.79 450.744 150.79 446.235 150.042 441.834Z" fill="black"/>
<path d="M146.092 441.834C145.344 446.235 145.344 450.744 146.092 455.145C146.84 450.744 146.84 446.235 146.092 441.834Z" fill="black"/>
<path d="M155.662 441.834C154.914 446.235 154.914 450.744 155.662 455.145C156.066 452.956 156.254 450.727 156.223 448.496C156.249 446.261 156.061 444.029 155.662 441.834Z" fill="black"/>
<path d="M191.779 441.834C191.031 446.235 191.031 450.744 191.779 455.145C192.512 450.743 192.512 446.237 191.779 441.834Z" fill="black"/>
</g>
<path opacity="0.1" d="M142.928 440.305V443.845L213.58 446.225V440.305H142.928Z" fill="black"/>
<path d="M353.011 453.029H423.675V469.678H353.011V453.029Z" fill="#F48C06"/>
<g opacity="0.1">
<path d="M420.757 454.549C420.009 458.954 420.009 463.467 420.757 467.872C421.505 463.467 421.505 458.954 420.757 454.549Z" fill="black"/>
<path d="M415.496 454.549C414.747 458.954 414.747 463.467 415.496 467.872C416.244 463.467 416.244 458.954 415.496 454.549Z" fill="black"/>
<path d="M412.925 454.549C412.177 458.954 412.177 463.467 412.925 467.872C413.673 463.467 413.673 458.954 412.925 454.549Z" fill="black"/>
<path d="M398.811 454.549C398.078 458.956 398.078 463.465 398.811 467.872C399.559 463.467 399.559 458.954 398.811 454.549Z" fill="black"/>
<path d="M394.996 454.549C394.248 458.954 394.248 463.467 394.996 467.872C395.4 465.678 395.588 463.446 395.557 461.211C395.582 458.975 395.394 456.744 394.996 454.549Z" fill="black"/>
<path d="M379.209 454.549C378.461 458.954 378.461 463.467 379.209 467.872C379.613 465.678 379.801 463.446 379.77 461.211C379.795 458.975 379.607 456.744 379.209 454.549Z" fill="black"/>
<path d="M375.563 454.549C375.171 456.744 374.983 458.976 375.002 461.211C374.977 463.446 375.165 465.678 375.563 467.872C375.966 465.678 376.154 463.446 376.124 461.211C376.143 458.976 375.955 456.744 375.563 454.549Z" fill="black"/>
<path d="M368.865 454.549C368.473 456.744 368.285 458.976 368.304 461.211C368.279 463.446 368.466 465.678 368.865 467.872C369.268 465.678 369.456 463.446 369.426 461.211C369.45 458.975 369.262 456.744 368.865 454.549Z" fill="black"/>
<path d="M382.261 454.549C381.869 456.744 381.681 458.976 381.7 461.211C381.669 463.446 381.857 465.678 382.261 467.872C382.659 465.678 382.847 463.446 382.822 461.211C382.841 458.976 382.653 456.744 382.261 454.549Z" fill="black"/>
<path d="M408.213 454.549C407.468 458.947 407.468 463.451 408.213 467.849C408.961 463.443 408.961 458.931 408.213 454.525V454.549Z" fill="black"/>
<path d="M389.969 454.549C389.236 458.956 389.236 463.465 389.969 467.872C390.717 463.467 390.717 458.954 389.969 454.549Z" fill="black"/>
<path d="M387.344 454.549C386.952 456.744 386.764 458.976 386.783 461.211C386.752 463.446 386.94 465.678 387.344 467.872C387.742 465.678 387.93 463.446 387.905 461.211C387.924 458.976 387.736 456.744 387.344 454.549Z" fill="black"/>
<path d="M360.136 454.549C359.744 456.744 359.556 458.976 359.575 461.211C359.544 463.446 359.732 465.678 360.136 467.872C360.54 465.678 360.728 463.446 360.697 461.211C360.716 458.976 360.528 456.744 360.136 454.549Z" fill="black"/>
<path d="M356.186 454.549C355.438 458.954 355.438 463.467 356.186 467.872C356.934 463.467 356.934 458.954 356.186 454.549Z" fill="black"/>
<path d="M365.757 454.549C365.365 456.744 365.177 458.976 365.196 461.211C365.166 463.446 365.354 465.678 365.757 467.872C366.155 465.678 366.343 463.446 366.318 461.211C366.337 458.976 366.149 456.744 365.757 454.549Z" fill="black"/>
<path d="M401.863 454.549C401.115 458.954 401.115 463.467 401.863 467.872C402.611 463.467 402.611 458.954 401.863 454.549Z" fill="black"/>
</g>
<path opacity="0.1" d="M353.022 453.029V456.569L423.675 458.938V453.029H353.022Z" fill="black"/>
<path d="M357.847 436.381H428.511V453.029H357.847V436.381Z" fill="#F48C06"/>
<g opacity="0.1">
<path d="M425.593 437.947C424.845 442.349 424.845 446.857 425.593 451.259C425.997 449.069 426.185 446.84 426.154 444.609C426.179 442.374 425.992 440.142 425.593 437.947Z" fill="black"/>
<path d="M420.331 437.947C419.583 442.349 419.583 446.857 420.331 451.259C420.735 449.069 420.923 446.84 420.892 444.609C420.918 442.374 420.73 440.142 420.331 437.947Z" fill="black"/>
<path d="M417.761 437.947C417.368 440.143 417.18 442.374 417.2 444.609C417.169 446.84 417.358 449.069 417.761 451.259C418.164 449.069 418.353 446.84 418.322 444.609C418.342 442.374 418.154 440.143 417.761 437.947Z" fill="black"/>
<path d="M403.647 437.947C402.899 442.349 402.899 446.857 403.647 451.259C404.395 446.857 404.395 442.349 403.647 437.947Z" fill="black"/>
<path d="M399.832 437.947C399.434 440.142 399.246 442.374 399.271 444.609C399.241 446.84 399.429 449.069 399.832 451.259C400.23 449.068 400.418 446.84 400.393 444.609C400.413 442.374 400.225 440.143 399.832 437.947Z" fill="black"/>
<path d="M384.045 437.947C383.647 440.142 383.459 442.374 383.484 444.609C383.454 446.84 383.642 449.069 384.045 451.259C384.443 449.068 384.631 446.84 384.606 444.609C384.626 442.374 384.438 440.143 384.045 437.947Z" fill="black"/>
<path d="M380.399 437.947C379.651 442.349 379.651 446.857 380.399 451.259C381.147 446.857 381.147 442.349 380.399 437.947Z" fill="black"/>
<path d="M373.701 437.947C373.302 440.142 373.114 442.374 373.14 444.609C373.109 446.84 373.297 449.069 373.701 451.259C374.449 446.857 374.449 442.349 373.701 437.947Z" fill="black"/>
<path d="M387.097 437.947C386.349 442.349 386.349 446.857 387.097 451.259C387.845 446.857 387.845 442.349 387.097 437.947Z" fill="black"/>
<path d="M413.094 437.947C412.346 442.349 412.346 446.857 413.094 451.259C413.842 446.857 413.842 442.349 413.094 437.947Z" fill="black"/>
<path d="M394.749 437.947C394.001 442.349 394.001 446.857 394.749 451.259C395.153 449.069 395.341 446.84 395.31 444.609C395.336 442.374 395.148 440.142 394.749 437.947Z" fill="black"/>
<path d="M392.18 437.947C391.432 442.349 391.432 446.857 392.18 451.259C392.928 446.857 392.928 442.349 392.18 437.947Z" fill="black"/>
<path d="M364.971 437.947C364.223 442.349 364.223 446.857 364.971 451.259C365.719 446.857 365.719 442.349 364.971 437.947Z" fill="black"/>
<path d="M361.022 437.947C360.629 440.143 360.441 442.374 360.461 444.609C360.43 446.84 360.618 449.069 361.022 451.259C361.42 449.068 361.608 446.84 361.583 444.609C361.603 442.374 361.415 440.143 361.022 437.947Z" fill="black"/>
<path d="M370.592 437.947C369.844 442.349 369.844 446.857 370.592 451.259C371.34 446.857 371.34 442.349 370.592 437.947Z" fill="black"/>
<path d="M406.698 437.947C406.306 440.143 406.118 442.374 406.137 444.609C406.113 446.84 406.301 449.068 406.698 451.259C407.102 449.069 407.29 446.84 407.259 444.609C407.279 442.374 407.091 440.143 406.698 437.947Z" fill="black"/>
</g>
<path opacity="0.1" d="M357.847 436.381V439.921L428.511 442.301V436.381H357.847Z" fill="black"/>
<path d="M346.93 403.24H417.594V419.889H346.93V403.24Z" fill="#F48C06"/>
<g opacity="0.1">
<path d="M414.676 404.76C413.928 409.161 413.928 413.67 414.676 418.071C415.424 413.67 415.424 409.161 414.676 404.76Z" fill="black"/>
<path d="M409.415 404.76C408.667 409.161 408.667 413.67 409.415 418.071C410.163 413.67 410.163 409.161 409.415 404.76Z" fill="black"/>
<path d="M406.845 404.76C406.453 406.955 406.265 409.187 406.284 411.421C406.259 413.653 406.447 415.881 406.845 418.071C407.248 415.882 407.436 413.653 407.406 411.421C407.425 409.187 407.237 406.955 406.845 404.76Z" fill="black"/>
<path d="M392.73 404.76C391.982 409.161 391.982 413.67 392.73 418.071C393.478 413.67 393.478 409.161 392.73 404.76Z" fill="black"/>
<path d="M388.915 404.76C388.523 406.955 388.335 409.187 388.354 411.421C388.324 413.653 388.512 415.882 388.915 418.071C389.313 415.881 389.501 413.653 389.476 411.421C389.496 409.187 389.308 406.955 388.915 404.76Z" fill="black"/>
<path d="M373.128 404.76C372.73 406.954 372.542 409.186 372.567 411.421C372.537 413.653 372.725 415.882 373.128 418.071C373.526 415.881 373.714 413.653 373.689 411.421C373.709 409.187 373.521 406.955 373.128 404.76Z" fill="black"/>
<path d="M369.482 404.76C369.084 406.954 368.896 409.186 368.921 411.421C368.89 413.653 369.078 415.882 369.482 418.071C370.23 413.67 370.23 409.161 369.482 404.76Z" fill="black"/>
<path d="M362.783 404.76C362.385 406.954 362.197 409.186 362.222 411.421C362.192 413.653 362.38 415.882 362.783 418.071C363.181 415.881 363.369 413.653 363.344 411.421C363.364 409.187 363.176 406.955 362.783 404.76Z" fill="black"/>
<path d="M376.18 404.76C375.432 409.161 375.432 413.67 376.18 418.071C376.928 413.67 376.928 409.161 376.18 404.76Z" fill="black"/>
<path d="M402.177 404.76C401.429 409.161 401.429 413.67 402.177 418.071C402.925 413.67 402.925 409.161 402.177 404.76Z" fill="black"/>
<path d="M383.888 404.76C383.14 409.161 383.14 413.67 383.888 418.071C384.636 413.67 384.636 409.161 383.888 404.76Z" fill="black"/>
<path d="M381.286 404.76C380.538 409.161 380.538 413.67 381.286 418.071C382.034 413.67 382.034 409.161 381.286 404.76Z" fill="black"/>
<path d="M354.054 404.76C353.306 409.161 353.306 413.67 354.054 418.071C354.802 413.67 354.802 409.161 354.054 404.76Z" fill="black"/>
<path d="M350.105 404.76C349.712 406.955 349.524 409.187 349.544 411.421C349.513 413.653 349.701 415.882 350.105 418.071C350.508 415.882 350.696 413.653 350.666 411.421C350.685 409.187 350.497 406.955 350.105 404.76Z" fill="black"/>
<path d="M359.676 404.76C358.928 409.161 358.928 413.67 359.676 418.071C360.424 413.67 360.424 409.161 359.676 404.76Z" fill="black"/>
<path d="M395.782 404.76C395.389 406.955 395.201 409.187 395.221 411.421C395.196 413.653 395.384 415.881 395.782 418.071C396.185 415.882 396.373 413.653 396.343 411.421C396.368 409.186 396.18 406.954 395.782 404.76Z" fill="black"/>
</g>
<path opacity="0.1" d="M346.93 403.24V406.768L417.594 409.148V403.24H346.93Z" fill="black"/>
<path d="M348.713 386.592H419.377V403.24H348.713V386.592Z" fill="#F48C06"/>
<g opacity="0.1">
<path d="M351.889 401.435C352.282 399.239 352.469 397.008 352.45 394.773C352.48 392.538 352.292 390.305 351.889 388.111C351.486 390.305 351.298 392.538 351.328 394.773C351.309 397.008 351.497 399.239 351.889 401.435Z" fill="black"/>
<path d="M357.152 401.435C357.544 399.239 357.732 397.008 357.713 394.773C357.743 392.538 357.555 390.305 357.152 388.111C356.749 390.305 356.561 392.538 356.591 394.773C356.571 397.008 356.759 399.239 357.152 401.435Z" fill="black"/>
<path d="M359.721 401.435C360.119 399.24 360.307 397.008 360.282 394.773C360.312 392.538 360.124 390.305 359.721 388.111C358.973 392.517 358.973 397.029 359.721 401.435Z" fill="black"/>
<path d="M373.835 401.435C374.228 399.239 374.416 397.008 374.396 394.773C374.421 392.538 374.233 390.306 373.835 388.111C373.433 390.305 373.244 392.538 373.274 394.773C373.255 397.008 373.443 399.239 373.835 401.435Z" fill="black"/>
<path d="M377.651 401.435C378.399 397.029 378.399 392.517 377.651 388.111C376.903 392.517 376.903 397.029 377.651 401.435Z" fill="black"/>
<path d="M393.437 401.435C394.185 397.029 394.185 392.517 393.437 388.111C392.689 392.517 392.689 397.029 393.437 401.435Z" fill="black"/>
<path d="M397.083 401.435C397.832 397.029 397.832 392.517 397.083 388.111C396.335 392.517 396.335 397.029 397.083 401.435Z" fill="black"/>
<path d="M403.726 401.435C404.474 397.029 404.474 392.517 403.726 388.111C402.978 392.517 402.978 397.029 403.726 401.435Z" fill="black"/>
<path d="M390.385 401.435C391.133 397.029 391.133 392.517 390.385 388.111C389.652 392.518 389.652 397.028 390.385 401.435Z" fill="black"/>
<path d="M364.388 401.435C364.78 399.239 364.968 397.008 364.949 394.773C364.974 392.538 364.786 390.306 364.388 388.111C363.985 390.305 363.797 392.538 363.827 394.773C363.802 397.008 363.99 399.24 364.388 401.435Z" fill="black"/>
<path d="M382.677 401.435C383.07 399.239 383.257 397.008 383.238 394.773C383.263 392.538 383.075 390.306 382.677 388.111C382.274 390.305 382.086 392.538 382.116 394.773C382.097 397.008 382.285 399.239 382.677 401.435Z" fill="black"/>
<path d="M385.302 401.435C386.05 397.029 386.05 392.517 385.302 388.111C384.569 392.518 384.569 397.028 385.302 401.435Z" fill="black"/>
<path d="M412.511 401.435C413.259 397.029 413.259 392.517 412.511 388.111C411.763 392.517 411.763 397.029 412.511 401.435Z" fill="black"/>
<path d="M416.46 401.435C417.209 397.029 417.209 392.517 416.46 388.111C415.712 392.517 415.712 397.029 416.46 401.435Z" fill="black"/>
<path d="M406.89 401.435C407.638 397.029 407.638 392.517 406.89 388.111C406.157 392.518 406.157 397.028 406.89 401.435Z" fill="black"/>
<path d="M370.784 401.435C371.182 399.24 371.37 397.008 371.345 394.773C371.374 392.538 371.186 390.305 370.784 388.111C370.035 392.517 370.035 397.029 370.784 401.435Z" fill="black"/>
</g>
<path opacity="0.1" d="M348.713 386.592V390.132L419.377 392.5V386.592H348.713Z" fill="black"/>
<path d="M353.011 369.943H423.675V386.592H353.011V369.943Z" fill="#F48C06"/>
<g opacity="0.1">
<path d="M420.757 371.475C420.009 375.876 420.009 380.385 420.757 384.786C421.505 380.385 421.505 375.876 420.757 371.475Z" fill="black"/>
<path d="M415.496 371.475C414.748 375.876 414.748 380.385 415.496 384.786C416.244 380.385 416.244 375.876 415.496 371.475Z" fill="black"/>
<path d="M412.926 371.475C412.533 373.67 412.345 375.901 412.365 378.136C412.34 380.367 412.528 382.595 412.926 384.786C413.33 382.596 413.518 380.368 413.487 378.136C413.513 375.901 413.325 373.669 412.926 371.475Z" fill="black"/>
<path d="M398.811 371.475C398.063 375.876 398.063 380.385 398.811 384.786C399.559 380.385 399.559 375.876 398.811 371.475Z" fill="black"/>
<path d="M394.996 371.475C394.603 373.67 394.415 375.901 394.435 378.136C394.41 380.367 394.598 382.595 394.996 384.786C395.4 382.596 395.588 380.368 395.557 378.136C395.577 375.901 395.389 373.67 394.996 371.475Z" fill="black"/>
<path d="M379.209 371.475C378.816 373.67 378.628 375.901 378.648 378.136C378.623 380.367 378.811 382.595 379.209 384.786C379.613 382.596 379.801 380.368 379.77 378.136C379.79 375.901 379.602 373.67 379.209 371.475Z" fill="black"/>
<path d="M375.563 371.475C375.164 373.669 374.976 375.901 375.002 378.136C374.971 380.368 375.159 382.596 375.563 384.786C375.961 382.595 376.149 380.367 376.124 378.136C376.144 375.901 375.956 373.67 375.563 371.475Z" fill="black"/>
<path d="M368.865 371.475C368.472 373.67 368.284 375.901 368.304 378.136C368.273 380.368 368.461 382.596 368.865 384.786C369.263 382.595 369.45 380.367 369.426 378.136C369.445 375.901 369.257 373.67 368.865 371.475Z" fill="black"/>
<path d="M382.261 371.475C381.863 373.669 381.675 375.901 381.7 378.136C381.67 380.368 381.858 382.596 382.261 384.786C383.009 380.385 383.009 375.876 382.261 371.475Z" fill="black"/>
<path d="M408.213 371.475C407.465 375.876 407.465 380.385 408.213 384.786C408.961 380.385 408.961 375.876 408.213 371.475Z" fill="black"/>
<path d="M389.969 371.475C389.221 375.876 389.221 380.385 389.969 384.786C390.717 380.385 390.717 375.876 389.969 371.475Z" fill="black"/>
<path d="M387.344 371.475C386.946 373.669 386.758 375.901 386.783 378.136C386.753 380.368 386.941 382.596 387.344 384.786C388.092 380.385 388.092 375.876 387.344 371.475Z" fill="black"/>
<path d="M360.136 371.475C359.738 373.669 359.55 375.901 359.575 378.136C359.545 380.368 359.733 382.596 360.136 384.786C360.534 382.595 360.722 380.367 360.697 378.136C360.717 375.901 360.529 373.67 360.136 371.475Z" fill="black"/>
<path d="M356.186 371.475C355.793 373.67 355.605 375.901 355.625 378.136C355.6 380.367 355.788 382.595 356.186 384.786C356.589 382.596 356.777 380.368 356.747 378.136C356.772 375.901 356.584 373.669 356.186 371.475Z" fill="black"/>
<path d="M365.757 371.475C365.359 373.669 365.171 375.901 365.196 378.136C365.166 380.368 365.354 382.596 365.757 384.786C366.505 380.385 366.505 375.876 365.757 371.475Z" fill="black"/>
<path d="M401.863 371.475C401.115 375.876 401.115 380.385 401.863 384.786C402.266 382.596 402.454 380.368 402.424 378.136C402.449 375.901 402.261 373.669 401.863 371.475Z" fill="black"/>
</g>
<path opacity="0.1" d="M353.011 369.943V373.484L423.675 375.864V369.943H353.011Z" fill="black"/>
<path d="M353.011 419.877H423.675V436.525H353.011V419.877Z" fill="#F48C06"/>
<g opacity="0.1">
<path d="M356.186 434.72C356.584 432.525 356.772 430.293 356.747 428.058C356.777 425.827 356.589 423.598 356.186 421.408C355.438 425.81 355.438 430.318 356.186 434.72Z" fill="black"/>
<path d="M361.448 434.72C361.847 432.525 362.035 430.293 362.009 428.058C362.04 425.827 361.852 423.598 361.448 421.408C360.701 425.81 360.701 430.318 361.448 434.72Z" fill="black"/>
<path d="M364.018 434.72C364.766 430.318 364.766 425.81 364.018 421.408C363.27 425.81 363.27 430.318 364.018 434.72Z" fill="black"/>
<path d="M378.133 434.72C378.532 432.525 378.72 430.293 378.694 428.058C378.725 425.827 378.537 423.598 378.133 421.408C377.735 423.599 377.547 425.827 377.572 428.058C377.552 430.293 377.74 432.524 378.133 434.72Z" fill="black"/>
<path d="M381.948 434.72C382.696 430.318 382.696 425.81 381.948 421.408C381.2 425.81 381.2 430.318 381.948 434.72Z" fill="black"/>
<path d="M397.734 434.72C398.482 430.318 398.482 425.81 397.734 421.408C397.001 425.811 397.001 430.317 397.734 434.72Z" fill="black"/>
<path d="M401.392 434.72C402.14 430.318 402.14 425.81 401.392 421.408C400.644 425.81 400.644 430.318 401.392 434.72Z" fill="black"/>
<path d="M408.09 434.72C408.823 430.317 408.823 425.811 408.09 421.408C407.342 425.81 407.342 430.318 408.09 434.72Z" fill="black"/>
<path d="M394.693 434.72C395.441 430.318 395.441 425.81 394.693 421.408C393.945 425.81 393.945 430.318 394.693 434.72Z" fill="black"/>
<path d="M368.686 434.72C369.084 432.525 369.272 430.293 369.247 428.058C369.277 425.827 369.089 423.598 368.686 421.408C368.288 423.599 368.1 425.827 368.125 428.058C368.105 430.293 368.293 432.524 368.686 434.72Z" fill="black"/>
<path d="M386.974 434.72C387.372 432.525 387.56 430.293 387.535 428.058C387.565 425.827 387.377 423.598 386.974 421.408C386.576 423.599 386.388 425.827 386.413 428.058C386.393 430.293 386.581 432.524 386.974 434.72Z" fill="black"/>
<path d="M389.611 434.72C390.359 430.318 390.359 425.81 389.611 421.408C388.863 425.81 388.863 430.318 389.611 434.72Z" fill="black"/>
<path d="M416.819 434.72C417.567 430.318 417.567 425.81 416.819 421.408C416.071 425.81 416.071 430.318 416.819 434.72Z" fill="black"/>
<path d="M420.757 434.72C421.505 430.318 421.505 425.81 420.757 421.408C420.009 425.81 420.009 430.318 420.757 434.72Z" fill="black"/>
<path d="M411.198 434.72C411.946 430.318 411.946 425.81 411.198 421.408C410.45 425.81 410.45 430.318 411.198 434.72Z" fill="black"/>
<path d="M375.081 434.72C375.829 430.318 375.829 425.81 375.081 421.408C374.333 425.81 374.333 430.318 375.081 434.72Z" fill="black"/>
</g>
<path opacity="0.1" d="M353.011 419.877V423.417L423.675 425.797V419.877H353.011Z" fill="black"/>
<path d="M428.499 405.656C381.992 414.554 394.267 488.001 440.841 479.09C487.415 470.18 475.095 396.71 428.499 405.656Z" fill="#F48C06"/>
<path opacity="0.1" d="M428.499 405.656C381.992 414.554 394.267 488.001 440.841 479.09C487.415 470.18 475.095 396.71 428.499 405.656Z" fill="black"/>
<path d="M432.897 404.784C388.567 413.263 400.864 486.71 445.239 478.218C489.615 469.727 477.273 396.292 432.897 404.784Z" fill="#F48C06"/>
<path opacity="0.1" d="M467.163 443.223C466.927 456.319 459.825 469.045 444.117 471.975C407.271 479.019 397.072 418.059 433.862 410.979C434.098 410.979 434.345 410.883 434.58 410.859C400.09 418.215 409.975 475.91 445.105 469.188C459.489 466.497 466.4 455.195 467.163 443.223Z" fill="black"/>
<g opacity="0.1">
<path d="M435.22 418.645C435.068 418.678 434.924 418.744 434.797 418.839C434.67 418.935 434.563 419.057 434.483 419.199C434.403 419.34 434.351 419.498 434.331 419.662C434.311 419.826 434.323 419.993 434.367 420.152L434.838 422.173C431.839 423.25 429.209 425.257 427.287 427.938C427.122 428.106 427.001 428.316 426.934 428.548C426.867 428.781 426.857 429.028 426.906 429.265C426.992 429.604 427.201 429.893 427.488 430.068C427.774 430.243 428.113 430.29 428.431 430.198C428.59 430.166 428.74 430.099 428.872 430C429.003 429.901 429.113 429.772 429.194 429.624C430.784 427.279 432.984 425.482 435.522 424.457L438.821 438.57C432.011 442.158 429.654 445.746 430.821 450.709C432.067 456.056 437.161 458.711 443.163 457.347L444.083 461.27C444.12 461.427 444.186 461.575 444.276 461.705C444.367 461.835 444.48 461.945 444.61 462.028C444.741 462.112 444.885 462.167 445.035 462.191C445.185 462.214 445.338 462.206 445.486 462.167C445.633 462.128 445.772 462.058 445.894 461.962C446.016 461.865 446.119 461.744 446.197 461.605C446.275 461.467 446.327 461.313 446.349 461.153C446.372 460.992 446.364 460.829 446.327 460.672L445.396 456.689C449.28 455.322 452.623 452.606 454.888 448.975C455.064 448.768 455.173 448.506 455.199 448.228C455.225 447.95 455.166 447.671 455.032 447.431C454.897 447.191 454.694 447.004 454.452 446.896C454.21 446.789 453.942 446.767 453.688 446.834C453.368 446.909 453.09 447.115 452.913 447.409C451.032 450.679 448.158 453.165 444.768 454.453L441.402 440.101C448.134 436.513 450.378 432.997 449.256 427.962C448.134 422.926 442.995 420.092 437.194 421.479L436.745 419.566C436.719 419.388 436.655 419.22 436.559 419.072C436.463 418.925 436.337 418.802 436.19 418.714C436.044 418.625 435.88 418.573 435.712 418.561C435.544 418.549 435.376 418.578 435.22 418.645ZM440.751 437.518L437.531 423.752C442.142 422.639 445.845 424.756 446.698 428.38C447.483 431.813 446.473 434.36 440.751 437.518ZM439.393 441.106L442.647 455.015C437.89 456.211 434.131 454.07 433.245 450.231C432.415 446.799 433.57 444.239 439.382 441.141L439.393 441.106Z" fill="black"/>
</g>
<path d="M163.551 440.519C166.12 441.404 239.465 440.387 242.237 438.45C243.302 437.744 243.785 426.346 243.998 412.545V412.114C244.054 409.268 244.088 406.349 244.088 403.383C244.088 402.965 244.088 402.558 244.088 402.187L240.531 361.631L191.466 362.157L196.313 402.331L196.369 403.921L196.661 412.293V413.143C196.661 413.143 168.746 426.92 165.907 429.384C163.068 431.848 160.97 439.646 163.551 440.519Z" fill="#F7A9A0"/>
<path d="M163.551 440.519C166.12 441.404 239.465 440.388 242.237 438.45C243.302 437.745 243.785 426.347 243.998 412.545V412.114C244.054 409.268 244.088 406.35 244.088 403.383C244.088 402.965 244.088 402.558 244.088 402.188L196.313 402.331L196.369 403.922L196.661 412.294V413.143C196.661 413.143 168.746 426.921 165.907 429.385C163.068 431.848 160.97 439.646 163.551 440.519Z" fill="#EBEBEB"/>
<path d="M163.539 440.508C164.863 440.963 184.79 440.915 204.268 440.508C208.184 440.425 212.122 440.329 215.791 440.221C229.681 439.815 241.159 439.205 242.225 438.463C243.291 437.722 243.762 426.671 243.976 413.132C243.976 412.94 243.976 412.749 243.976 412.558C243.976 412.366 243.976 412.259 243.976 412.115H243.919L196.65 412.211V413.072C196.65 413.072 168.734 426.838 165.907 429.302C163.079 431.766 160.97 439.635 163.539 440.508Z" fill="#37474F"/>
<path d="M164.336 437.47C176.678 436.98 226.596 436.274 238.848 436.741C238.949 436.741 238.949 436.812 238.848 436.824C226.607 437.602 176.712 437.913 164.347 437.685C164.078 437.685 164.078 437.482 164.336 437.47Z" fill="#263238"/>
<path d="M191.41 412.425C196.257 411.385 202.226 412.103 205.996 415.75C206.141 415.882 205.996 416.109 205.794 416.049C201.123 414.517 196.312 413.523 191.443 413.083C191.37 413.073 191.303 413.037 191.253 412.979C191.203 412.922 191.173 412.848 191.169 412.769C191.165 412.691 191.187 412.614 191.231 412.551C191.275 412.488 191.338 412.444 191.41 412.425Z" fill="#263238"/>
<path d="M187.92 414.721C192.779 413.693 198.736 414.41 202.506 418.046C202.652 418.19 202.506 418.405 202.304 418.357C197.638 416.822 192.831 415.823 187.965 415.379C187.892 415.371 187.823 415.336 187.772 415.279C187.72 415.223 187.689 415.149 187.684 415.07C187.679 414.992 187.699 414.914 187.743 414.85C187.786 414.786 187.849 414.74 187.92 414.721Z" fill="#263238"/>
<path d="M184.443 417.03C189.29 416.001 195.259 416.707 199.029 420.355C199.175 420.498 199.029 420.713 198.827 420.666C194.157 419.13 189.346 418.132 184.476 417.687C184.404 417.678 184.336 417.641 184.286 417.583C184.236 417.526 184.207 417.452 184.203 417.374C184.198 417.295 184.22 417.218 184.264 417.155C184.308 417.092 184.371 417.048 184.443 417.03Z" fill="#263238"/>
<path d="M193.452 412.39H251.011C251.011 412.39 238.512 291.283 238.927 288.987C239.14 287.791 249.485 271.142 261.782 251.659C268.66 240.752 276.144 228.935 282.797 218.506C293.793 201.236 302.533 187.602 302.533 187.602H246.175C246.175 187.602 238.59 197.361 228.649 211.175C214.58 230.741 195.786 258.429 187.135 278.019C180.448 293.232 193.452 412.39 193.452 412.39Z" fill="#455A64"/>
<path d="M201.508 286.116C202.63 279.371 205.738 273.462 208.868 267.602C215.342 255.475 244.525 209.249 252.626 198.354L255.734 194.215C255.802 194.12 255.947 194.215 255.88 194.311C247.948 205.231 219.034 251.037 212.548 262.95C209.351 268.81 205.816 274.73 203.718 281.2C201.553 288.018 201.856 295.265 202.192 302.358C202.888 316.989 203.718 331.612 204.683 346.227C205.663 361.002 206.785 375.752 208.049 390.479C208.206 392.285 208.363 394.067 208.509 395.909C208.565 396.483 208.027 396.543 207.971 395.909C206.647 381.21 205.188 366.655 204.156 351.932C203.124 337.209 202.215 322.295 201.463 307.465C201.093 300.408 200.386 293.16 201.508 286.116Z" fill="#263238"/>
<path d="M195.797 402.774C203.865 402.595 201.542 402.523 209.609 402.439C213.559 402.439 239.51 402.164 243.202 402.81C243.28 402.81 243.28 402.977 243.202 402.989C239.51 403.635 213.559 403.396 209.609 403.36C201.542 403.276 203.865 403.204 195.797 403.025C195.766 403.025 195.736 403.012 195.714 402.988C195.692 402.965 195.68 402.933 195.68 402.9C195.68 402.866 195.692 402.834 195.714 402.811C195.736 402.787 195.766 402.774 195.797 402.774Z" fill="#263238"/>
<path d="M243.662 280.722C258.405 256.467 302.533 187.602 302.533 187.602H273.002L243.662 280.722Z" fill="#263238"/>
<path d="M363.413 491.924C360.832 492.785 287.498 490.967 284.749 489.006C283.694 488.276 283.324 476.878 283.234 463.077V462.646C283.234 459.811 277.086 412.031 277.086 412.031L325.018 413.072L330.56 463.304V464.165C330.56 464.165 358.307 478.194 361.09 480.682C363.873 483.169 365.993 491.075 363.413 491.924Z" fill="#F7A9A0"/>
<path d="M363.413 491.925C360.832 492.786 287.498 490.968 284.749 489.006C283.694 488.277 283.324 476.879 283.234 463.077V462.647C283.234 462.647 282.112 453.079 282.112 452.672L329.438 453.569L330.504 463.256V464.118C330.504 464.118 358.307 478.195 361.09 480.682C363.873 483.17 365.993 491.075 363.413 491.925Z" fill="#EBEBEB"/>
<path d="M363.413 491.925C360.832 492.786 287.498 490.968 284.749 489.006C283.694 488.277 283.324 476.879 283.234 463.077V462.646L330.56 463.256V464.118C330.56 464.118 358.307 478.195 361.09 480.682C363.873 483.17 365.993 491.075 363.413 491.925Z" fill="#37474F"/>
<path d="M362.649 488.874C350.307 488.24 300.412 486.949 288.148 487.331C288.047 487.331 288.047 487.403 288.148 487.415C300.378 488.324 350.274 489.185 362.649 489.089C362.907 489.089 362.907 488.886 362.649 488.874Z" fill="#263238"/>
<path d="M335.823 463.531C330.976 462.442 325.018 463.088 321.237 466.688C321.091 466.831 321.237 467.059 321.439 466.999C326.122 465.519 330.94 464.577 335.811 464.188C335.883 464.175 335.949 464.136 335.996 464.076C336.044 464.017 336.071 463.942 336.072 463.864C336.074 463.786 336.049 463.71 336.004 463.649C335.958 463.589 335.894 463.546 335.823 463.531Z" fill="#263238"/>
<path d="M339.289 465.874C334.442 464.786 328.473 465.432 324.703 469.032C324.557 469.175 324.703 469.39 324.905 469.343C329.587 467.856 334.406 466.914 339.278 466.532C339.35 466.519 339.416 466.479 339.463 466.42C339.511 466.361 339.538 466.286 339.539 466.208C339.54 466.13 339.516 466.054 339.471 465.993C339.425 465.932 339.361 465.89 339.289 465.874Z" fill="#263238"/>
<path d="M342.746 468.218C337.91 467.13 331.941 467.776 328.16 471.375C328.014 471.519 328.16 471.734 328.362 471.686C333.045 470.203 337.863 469.257 342.734 468.864C342.815 468.865 342.892 468.833 342.95 468.773C343.008 468.714 343.041 468.633 343.043 468.547C343.044 468.461 343.014 468.378 342.958 468.317C342.902 468.255 342.826 468.22 342.746 468.218Z" fill="#263238"/>
<path d="M246.174 187.602C246.174 187.602 252.907 231.483 253.389 232.894C253.389 232.894 255.902 234.162 260.435 236.386L280.44 463.937L333.253 464.165L303.812 187.602H246.174Z" fill="#455A64"/>
<path d="M282.248 453.927C290.315 453.783 287.992 453.699 296.071 453.652C300.009 453.652 325.961 453.508 329.652 454.178C329.731 454.178 329.731 454.333 329.652 454.357C325.949 454.991 300.009 454.632 296.059 454.572C287.992 454.453 290.315 454.393 282.248 454.178C282.229 454.184 282.209 454.185 282.19 454.182C282.171 454.179 282.153 454.17 282.138 454.158C282.122 454.146 282.109 454.13 282.101 454.112C282.092 454.093 282.087 454.073 282.087 454.052C282.087 454.032 282.092 454.011 282.101 453.993C282.109 453.974 282.122 453.958 282.138 453.946C282.153 453.934 282.171 453.926 282.19 453.922C282.209 453.919 282.229 453.92 282.248 453.927Z" fill="#263238"/>
<path d="M290.628 196.092C292.682 227.439 294.802 258.786 297.203 290.11C299.604 321.433 302.477 352.936 306.033 384.247C308.019 401.732 310.185 426.37 312.563 443.796C312.563 443.915 312.406 443.963 312.395 443.796C307.47 412.819 304.003 374.428 301.029 343.14C298.056 311.853 295.689 280.566 293.602 249.23C292.48 231.506 291.358 213.769 290.236 196.044C290.247 195.829 290.617 195.841 290.628 196.092Z" fill="#263238"/>
<path d="M251.134 231.53C256.39 233.864 261.443 236.685 266.236 239.962C266.256 239.973 266.274 239.988 266.288 240.006C266.302 240.025 266.313 240.046 266.32 240.069C266.327 240.091 266.329 240.115 266.328 240.139C266.326 240.163 266.319 240.186 266.309 240.207C266.299 240.228 266.285 240.247 266.267 240.263C266.25 240.278 266.23 240.29 266.209 240.297C266.188 240.304 266.165 240.307 266.143 240.305C266.121 240.303 266.099 240.296 266.079 240.285C260.985 237.654 255.779 235.106 250.831 232.176C250.751 232.133 250.69 232.058 250.661 231.967C250.633 231.877 250.639 231.777 250.68 231.692C250.72 231.606 250.79 231.541 250.875 231.511C250.961 231.48 251.054 231.487 251.134 231.53Z" fill="#263238"/>
<path d="M253.142 206.391C253.972 211.642 254.432 216.976 254.982 222.262C255.117 223.53 255.263 224.81 255.386 226.077C255.422 227.247 255.718 228.391 256.25 229.414C257.316 231.184 259.234 232.01 260.974 232.823C261.175 232.919 261.097 233.253 260.873 233.182C259 232.701 257.272 231.726 255.846 230.347C254.264 228.565 254.32 225.862 254.073 223.566C253.38 217.878 253.006 212.151 252.951 206.415C252.918 206.284 253.12 206.248 253.142 206.391Z" fill="#263238"/>
<path d="M259.123 208.006C259.303 211.785 259.695 215.565 259.998 219.344C260.144 221.198 260.267 223.076 260.368 224.941C260.469 226.807 260.683 228.78 260.626 230.67C260.619 230.694 260.605 230.715 260.586 230.73C260.567 230.744 260.544 230.752 260.52 230.752C260.496 230.752 260.473 230.744 260.454 230.73C260.435 230.715 260.421 230.694 260.413 230.67C260.122 228.876 260.077 227.01 259.942 225.192C259.807 223.375 259.673 221.365 259.572 219.452C259.37 215.636 259.28 211.785 258.955 207.97C258.988 207.874 259.123 207.886 259.123 208.006Z" fill="#263238"/>
<path d="M228.694 211.175L250.338 214.105L282.876 218.506L307.56 221.843L303.913 187.602H246.276C246.276 187.602 238.59 197.361 228.694 211.175Z" fill="#263238"/>
<path d="M255.779 127.24C245.861 148.983 224.913 171.791 212.975 171.791C201.755 171.791 173.548 148.23 160.353 134.38C157.346 131.223 184.779 106.262 187.73 109.922C194.619 118.473 210.731 137.035 215.892 137.035C220.492 137.035 234.966 125.913 247.633 114.885C262.982 101.502 259.729 118.617 255.779 127.24Z" fill="#F7A9A0"/>
<path d="M160.353 134.38C156.842 132.275 146.239 122.671 139.641 113.773C136.444 109.444 128.489 96.0005 131.406 93.1301C134.323 90.2597 137.016 93.9673 137.016 93.9673C137.016 93.9673 134.458 87.7481 137.644 85.1408C140.831 82.5336 144.78 88.4537 144.78 88.4537C144.78 88.4537 142.536 81.8638 145.902 79.5077C149.268 77.1516 152.298 83.8133 152.298 83.8133C152.298 83.8133 150.054 77.8333 153.554 77.1874C157.807 76.3383 160.836 87.772 164.595 92.3527C165.459 93.4052 183.332 112.158 183.332 112.158L160.353 134.38Z" fill="#F7A9A0"/>
<path d="M152.398 83.9322C154.642 92.3042 156.987 95.5813 163.001 101.31C163.113 101.43 163.001 101.645 162.855 101.537C156.482 96.4902 152.993 92.8544 152.006 84.016C151.972 83.5256 152.297 83.4658 152.398 83.9322Z" fill="#263238"/>
<path d="M144.544 88.1541C147.596 96.6577 150.154 100.222 155.989 106.716C156.078 106.8 155.989 106.967 155.843 106.883C149.571 101.023 146.16 97.3155 144.163 88.3813C144.084 87.9747 144.421 87.7594 144.544 88.1541Z" fill="#263238"/>
<path d="M137.274 94.6954C140.774 102.709 143.378 106.739 149.851 112.265C149.874 112.293 149.887 112.329 149.889 112.367C149.89 112.404 149.879 112.441 149.859 112.471C149.838 112.502 149.808 112.524 149.774 112.534C149.741 112.544 149.704 112.542 149.672 112.528C142.558 107.576 139.282 102.577 137.049 94.8389C136.904 94.2648 137.049 94.1452 137.274 94.6954Z" fill="#263238"/>
<path d="M88.8676 53.7547L171.689 54.6484L171.085 118.332L88.2628 117.438L88.8676 53.7547Z" fill="#EBEBEB"/>
<path d="M150.448 67.5149L156.484 67.5801L156.149 102.86L150.113 102.795L150.448 67.5149Z" fill="#F48C06"/>
<path d="M140.202 102.662L146.238 102.734L146.451 77.175L140.426 77.1152L140.202 102.662Z" fill="#F48C06"/>
<path d="M130.5 82.8958L136.536 82.9609L136.349 102.646L130.313 102.581L130.5 82.8958Z" fill="#F48C06"/>
<path d="M120.568 86.7005L126.604 86.7656L126.455 102.54L120.419 102.475L120.568 86.7005Z" fill="#F48C06"/>
<path d="M110.767 76.8099L116.803 76.875L116.56 102.432L110.524 102.367L110.767 76.8099Z" fill="#F48C06"/>
<path d="M100.898 71.7794L106.934 71.8457L106.64 102.27L100.604 102.204L100.898 71.7794Z" fill="#F48C06"/>
<path d="M160.589 63.6719C160.375 70.202 160.185 76.7322 160.061 83.2743C159.938 89.8164 159.781 96.3466 159.713 102.877L160.218 102.339L144.297 102.123L128.387 102.016C123.08 102.016 117.773 102.016 112.455 102.016C107.136 102.016 101.841 102.087 96.5335 102.183C101.844 102.382 107.151 102.55 112.455 102.685C117.762 102.805 123.069 102.972 128.376 103.044L144.286 103.283L160.252 103.427H160.768V102.889C160.824 96.3466 160.768 89.8164 160.768 83.2743C160.768 76.7322 160.689 70.202 160.589 63.6719Z" fill="#C7C7C7"/>
<path d="M162.496 67.1883C161.842 67.0846 161.182 67.0286 160.521 67.0209C159.865 67.0111 159.208 67.0551 158.558 67.1524C159.864 67.3518 161.19 67.3518 162.496 67.1524V67.1883Z" fill="#C7C7C7"/>
<path d="M162.496 70.7762C161.842 70.6728 161.182 70.6168 160.521 70.6088C159.865 70.599 159.208 70.6429 158.558 70.7403C159.864 70.9397 161.19 70.9397 162.496 70.7403V70.7762Z" fill="#C7C7C7"/>
<path d="M162.496 74.4364C161.843 74.3272 161.183 74.2712 160.521 74.2689C159.865 74.2591 159.208 74.3031 158.558 74.4005C159.864 74.5999 161.19 74.5999 162.496 74.4005V74.4364Z" fill="#C7C7C7"/>
<path d="M162.429 78.048C161.119 77.8486 159.789 77.8486 158.479 78.048C159.789 78.2474 161.119 78.2474 162.429 78.048Z" fill="#C7C7C7"/>
<path d="M162.396 81.6593C161.086 81.4599 159.756 81.4599 158.446 81.6593C159.756 81.8587 161.086 81.8587 162.396 81.6593Z" fill="#C7C7C7"/>
<path d="M162.361 85.2726C161.051 85.0732 159.722 85.0732 158.412 85.2726C159.722 85.472 161.051 85.472 162.361 85.2726Z" fill="#C7C7C7"/>
<path d="M162.316 88.8836C161.667 88.774 161.01 88.718 160.353 88.7162C159.692 88.7064 159.032 88.7504 158.378 88.8477C159.031 88.957 159.692 89.0129 160.353 89.0152C161.01 89.025 161.666 88.981 162.316 88.8836Z" fill="#C7C7C7"/>
<path d="M162.283 92.4952C160.977 92.2959 159.651 92.2959 158.345 92.4952C158.998 92.6044 159.658 92.6604 160.32 92.6627C160.977 92.6606 161.634 92.6046 162.283 92.4952Z" fill="#C7C7C7"/>
<path d="M162.249 96.1066C160.943 95.9072 159.617 95.9072 158.311 96.1066C158.964 96.2158 159.624 96.2717 160.286 96.274C160.943 96.2719 161.6 96.216 162.249 96.1066Z" fill="#C7C7C7"/>
<path d="M162.216 99.7198C160.91 99.5205 159.584 99.5205 158.278 99.7198C158.928 99.8231 159.584 99.8791 160.241 99.8873C160.902 99.8856 161.563 99.8296 162.216 99.7198Z" fill="#C7C7C7"/>
<path d="M143.152 62.571C140.987 62.3557 138.833 62.2481 136.678 62.1524C134.524 62.0567 132.359 62.0089 130.193 61.973C128.028 61.9371 125.874 61.973 123.719 61.973C121.565 61.973 119.4 62.0806 117.234 62.2481C119.4 62.4633 121.554 62.571 123.708 62.6667C125.862 62.7623 128.028 62.7982 130.193 62.8341C132.359 62.87 134.513 62.8341 136.667 62.8341C138.821 62.8341 140.987 62.7265 143.152 62.571Z" fill="#C7C7C7"/>
<path d="M138.261 65.7165C132.884 65.0589 127.458 64.9988 122.07 65.5371C124.754 65.8896 127.456 66.0693 130.16 66.0753C132.864 66.123 135.569 66.0032 138.261 65.7165Z" fill="#C7C7C7"/>
<path d="M160.432 110.029V105.902H156.561V110.041L160.432 110.029ZM159.904 106.441V109.383H157.155V106.453L159.904 106.441Z" fill="#C7C7C7"/>
<path d="M153.767 106.13C150.479 105.974 147.192 105.866 143.893 105.783L134.031 105.615H124.168C120.87 105.615 117.582 105.615 114.295 105.747C117.582 105.89 120.87 106.01 124.157 106.082L134.031 106.261H143.893C147.184 106.245 150.475 106.201 153.767 106.13Z" fill="#C7C7C7"/>
<path d="M153.744 107.852C150.03 107.565 146.316 107.517 142.603 107.433C138.889 107.349 135.164 107.433 131.45 107.612C135.164 107.899 138.878 107.959 142.591 108.031C146.305 108.103 150.03 108.103 153.744 107.852Z" fill="#C7C7C7"/>
<path d="M153.733 109.657C149.178 109.37 144.612 109.299 140.056 109.215C135.501 109.131 130.946 109.215 126.379 109.358C130.934 109.657 135.49 109.729 140.056 109.813C144.623 109.897 149.167 109.861 153.733 109.657Z" fill="#C7C7C7"/>
<path d="M160.319 68.9816C158.905 68.3838 157.415 68.013 155.899 67.8813C154.355 67.6815 152.79 67.8952 151.343 68.5032C149.97 69.2698 148.735 70.2903 147.697 71.5171C146.631 72.7131 145.655 73.9091 144.712 75.2008C142.805 77.7004 141.032 80.3077 138.99 82.616C137.088 85.0021 134.631 86.8128 131.865 87.8664C130.503 88.3092 129.061 88.4035 127.658 88.1415C126.229 87.8226 124.855 87.2698 123.585 86.503C121.015 84.8879 118.585 83.0306 116.326 80.9535C113.992 78.9203 111.737 76.7675 109.324 74.8061C108.125 73.8104 106.853 72.9185 105.521 72.139C104.854 71.7428 104.156 71.4106 103.434 71.1463C102.707 70.9078 101.951 70.7869 101.19 70.7875C102.689 70.9551 104.126 71.5138 105.375 72.4141C106.647 73.2614 107.855 74.2131 108.988 75.2606C111.299 77.3057 113.476 79.5183 115.72 81.6472C117.968 83.8538 120.427 85.8021 123.058 87.4598C124.411 88.3011 125.88 88.9105 127.411 89.2657C128.986 89.5778 130.608 89.4918 132.146 89.0146C135.087 87.8716 137.692 85.9199 139.697 83.3575C141.687 80.9295 143.56 78.3947 145.307 75.7629C146.216 74.4832 147.136 73.2154 148.134 72.0314C149.084 70.8296 150.223 69.8137 151.5 69.0294C152.844 68.3834 154.316 68.1 155.786 68.2042C157.323 68.2461 158.848 68.5075 160.319 68.9816Z" fill="#263238"/>
<path d="M189.749 112.396C189.749 112.396 183.488 103.761 179.887 100.687C176.285 97.6137 158.883 91.4065 157.447 95.3413C155.55 100.412 164.93 106.105 169.867 108.246C169.867 108.246 165.469 119.967 171.371 125.6C177.272 131.233 189.749 112.396 189.749 112.396Z" fill="#F7A9A0"/>
<path d="M157.324 96.9202C158.726 102.9 165.38 105.292 170.013 107.684C170.083 107.717 170.145 107.767 170.193 107.831C170.24 107.895 170.273 107.97 170.287 108.05C170.301 108.13 170.297 108.213 170.275 108.291C170.253 108.368 170.213 108.439 170.159 108.497C168.633 113.545 167.837 121.139 171.012 125.6C171.022 125.612 171.03 125.626 171.036 125.641C171.041 125.656 171.043 125.672 171.043 125.688C171.042 125.704 171.039 125.72 171.033 125.735C171.026 125.749 171.017 125.763 171.006 125.774C170.995 125.785 170.982 125.793 170.968 125.799C170.954 125.805 170.939 125.807 170.924 125.807C170.909 125.806 170.894 125.802 170.88 125.796C170.866 125.789 170.854 125.779 170.844 125.768C166.827 121.474 167.029 113.951 169.037 108.533C164.246 106.141 157.671 103.402 157.268 96.9082L157.324 96.9202Z" fill="#263238"/>
<path d="M250.158 112.505C241.867 118.414 221.614 137.239 216.083 135.732C210.552 134.225 192.79 114.072 192.79 114.072L164.808 142.286C164.808 142.286 196.527 174.434 214.063 173.25C231.6 172.066 249.788 143.35 255.577 130.984C261.367 118.617 263.97 102.686 250.158 112.505Z" fill="#F48C06"/>
<path d="M214.781 151.554C215.155 150.452 215.155 149.246 214.781 148.145C214.407 149.246 214.407 150.452 214.781 151.554ZM188.302 130.683C188.291 130.103 188.386 129.526 188.582 128.985C188.778 129.526 188.874 130.103 188.863 130.683C188.868 131.263 188.773 131.839 188.582 132.382C188.392 131.839 188.297 131.263 188.302 130.683ZM184.936 157.282C184.931 156.703 185.026 156.127 185.216 155.584C185.59 156.681 185.59 157.884 185.216 158.981C185.026 158.438 184.931 157.862 184.936 157.282ZM242.921 144.808C242.903 144.227 242.999 143.649 243.201 143.11C243.575 144.207 243.575 145.409 243.201 146.506C243.005 145.965 242.91 145.388 242.921 144.808ZM193.272 153.383C193.262 152.803 193.357 152.226 193.553 151.685C193.927 152.782 193.927 153.985 193.553 155.082C193.357 154.54 193.262 153.964 193.272 153.383ZM224.688 134.056C224.145 134.06 223.605 133.959 223.095 133.757C223.602 133.543 224.144 133.441 224.688 133.458C225.233 133.445 225.774 133.547 226.282 133.757C225.766 133.964 225.217 134.066 224.666 134.056H224.688ZM222.669 158.753C222.125 158.759 221.585 158.658 221.076 158.454C222.105 158.056 223.233 158.056 224.262 158.454C223.746 158.662 223.198 158.763 222.646 158.753H222.669ZM202.607 146.793C202.063 146.804 201.522 146.702 201.014 146.494C201.522 146.286 202.063 146.185 202.607 146.195C203.155 146.19 203.699 146.291 204.212 146.494C203.692 146.705 203.141 146.81 202.585 146.805L202.607 146.793ZM178.473 149.317C177.929 149.328 177.388 149.227 176.88 149.018C177.909 148.62 179.037 148.62 180.066 149.018C179.553 149.235 179.003 149.341 178.451 149.329L178.473 149.317ZM191.937 120.613C191.393 120.62 190.853 120.518 190.344 120.314C190.85 120.098 191.392 119.996 191.937 120.015C192.481 120.004 193.022 120.106 193.53 120.314C193.03 120.525 192.498 120.639 191.96 120.649L191.937 120.613ZM243.818 125.469C244.202 125.052 244.654 124.715 245.154 124.476C244.932 125.006 244.616 125.486 244.222 125.887C243.846 126.308 243.397 126.645 242.898 126.88C243.129 126.363 243.449 125.896 243.841 125.505L243.818 125.469ZM232.262 151.936C232.641 151.52 233.09 151.183 233.586 150.944C233.12 151.993 232.327 152.839 231.342 153.336C231.574 152.823 231.894 152.361 232.284 151.972L232.262 151.936ZM204.694 157.916C205.075 157.497 205.529 157.16 206.03 156.924C205.575 157.982 204.778 158.831 203.786 159.316C204.017 158.802 204.332 158.336 204.717 157.94L204.694 157.916ZM189.547 142.536C189.923 142.115 190.373 141.778 190.871 141.543C190.405 142.593 189.612 143.438 188.627 143.935C188.85 143.412 189.162 142.937 189.547 142.536ZM210.125 136.687C210.504 136.274 210.954 135.942 211.449 135.707C210.983 136.756 210.19 137.602 209.205 138.099C209.431 137.584 209.742 137.118 210.125 136.723V136.687ZM214.108 166.36C214.499 166.764 214.815 167.243 215.039 167.771C214.542 167.535 214.092 167.198 213.715 166.779C213.321 166.378 213.005 165.898 212.784 165.367C213.28 165.607 213.729 165.943 214.108 166.36ZM197.02 164.147C197.41 164.55 197.722 165.029 197.94 165.559C196.955 165.062 196.162 164.217 195.696 163.167C196.198 163.401 196.655 163.734 197.042 164.147H197.02ZM225.967 143.815C226.362 144.216 226.678 144.696 226.899 145.227C226.401 144.992 225.951 144.654 225.575 144.234C225.182 143.832 224.865 143.353 224.644 142.823C225.143 143.032 225.6 143.34 225.99 143.732L225.967 143.815ZM177.082 136.125C177.473 136.526 177.786 137.006 178.002 137.536C177.506 137.297 177.057 136.96 176.678 136.544C176.29 136.137 175.974 135.659 175.747 135.132C176.246 135.372 176.699 135.708 177.082 136.125ZM236.211 136.125C236.602 136.529 236.918 137.008 237.143 137.536C236.158 137.04 235.365 136.194 234.899 135.144C235.382 135.384 235.819 135.716 236.189 136.125H236.211ZM200.588 131.676C200.979 132.08 201.295 132.559 201.519 133.087C201.018 132.851 200.565 132.514 200.184 132.095C199.796 131.688 199.48 131.21 199.253 130.683C199.744 130.925 200.189 131.262 200.565 131.676H200.588ZM251.28 118.066C251.274 117.486 251.37 116.91 251.56 116.367C251.762 116.907 251.857 117.485 251.841 118.066C251.853 118.646 251.757 119.223 251.56 119.764C251.361 119.223 251.258 118.647 251.257 118.066H251.28ZM250.73 136.34C250.183 136.346 249.639 136.245 249.126 136.041C249.636 135.827 250.182 135.725 250.73 135.742C251.274 135.732 251.815 135.833 252.323 136.041C251.806 136.246 251.259 136.347 250.708 136.34H250.73Z" fill="white"/>
<path d="M172.93 145.466C173.783 144.27 174.849 143.349 175.802 142.297C176.756 141.244 177.755 140.227 178.753 139.223C180.683 137.273 182.635 135.348 184.588 133.446L190.489 127.741C192.52 125.78 194.506 123.675 196.683 121.893C196.701 121.875 196.724 121.866 196.749 121.867C196.773 121.868 196.796 121.88 196.812 121.899C196.828 121.918 196.837 121.943 196.836 121.969C196.835 121.995 196.824 122.019 196.806 122.036C194.989 124.213 192.879 126.174 190.893 128.196L185.025 134.176C183.073 136.161 181.098 138.13 179.101 140.084C178.114 141.041 177.126 141.974 176.117 142.895C175.107 143.815 174.131 144.832 173.031 145.633C172.941 145.693 172.863 145.55 172.93 145.466Z" fill="#263238"/>
<path d="M216.352 172.926C233.182 169.565 250.012 142.811 255.622 130.994C259.347 123.089 261.703 113.736 259.313 110.566C252.502 120.421 228.694 155.034 216.352 172.926Z" fill="#263238"/>
<path d="M231.252 207.347C232.374 208.699 308.064 208.818 308.446 208.328C309.489 206.988 291.56 124.488 274.786 110.136C271.184 107.051 257.361 107.517 255.476 108.306C253.322 109.179 247.241 120.147 244.469 129.081C238.949 146.961 230.265 206.163 231.252 207.347Z" fill="#F48C06"/>
<path d="M260.558 157.284C260.749 156.741 260.844 156.165 260.839 155.585C260.851 155.005 260.755 154.428 260.558 153.887C260.361 154.428 260.266 155.005 260.278 155.585C260.273 156.165 260.368 156.741 260.558 157.284ZM250.977 174.984C250.971 174.401 251.066 173.821 251.257 173.274C251.458 173.818 251.554 174.4 251.538 174.984C251.547 175.565 251.452 176.141 251.257 176.683C251.068 176.139 250.973 175.564 250.977 174.984ZM251.257 118.067C251.252 117.487 251.347 116.911 251.538 116.368C251.739 116.908 251.834 117.486 251.818 118.067C251.83 118.647 251.735 119.224 251.538 119.765C251.346 119.223 251.251 118.647 251.257 118.067ZM274.393 175.63C274.386 175.051 274.481 174.475 274.673 173.932C274.876 174.471 274.971 175.05 274.954 175.63C274.964 176.21 274.869 176.787 274.673 177.329C274.482 176.786 274.387 176.21 274.393 175.63ZM234.865 183.679C234.854 183.095 234.949 182.515 235.145 181.969C235.341 182.515 235.436 183.095 235.426 183.679C235.429 184.259 235.334 184.834 235.145 185.378C234.95 184.836 234.855 184.259 234.865 183.679ZM262.163 195.304C262.152 194.724 262.247 194.148 262.443 193.606C262.639 194.148 262.735 194.724 262.724 195.304C262.73 195.884 262.635 196.46 262.443 197.003C262.246 196.462 262.151 195.885 262.163 195.304ZM284.378 203.306C284.373 202.726 284.468 202.15 284.659 201.607C285.033 202.705 285.033 203.907 284.659 205.004C284.468 204.461 284.373 203.885 284.378 203.306ZM266.157 133.423C266.147 132.843 266.243 132.267 266.438 131.725C266.811 132.826 266.811 134.032 266.438 135.134C266.242 134.588 266.146 134.007 266.157 133.423ZM280.53 123.76C280.524 123.18 280.619 122.604 280.81 122.061C281.184 123.159 281.184 124.361 280.81 125.458C280.62 124.915 280.525 124.339 280.53 123.76ZM280.81 152.643C280.807 152.064 280.902 151.488 281.091 150.945C281.465 152.046 281.465 153.252 281.091 154.353C280.9 153.806 280.805 153.227 280.81 152.643ZM295.935 183.739C295.918 183.158 296.013 182.58 296.216 182.041C296.407 182.583 296.502 183.159 296.496 183.739C296.5 184.319 296.405 184.894 296.216 185.437C296.013 184.877 295.918 184.279 295.935 183.679V183.739ZM242.921 144.869C242.903 144.288 242.999 143.71 243.201 143.171C243.575 144.268 243.575 145.47 243.201 146.567C242.998 146.007 242.902 145.41 242.921 144.809V144.869ZM270.511 150.096C269.967 150.1 269.427 149.998 268.917 149.797C269.95 149.398 271.082 149.398 272.115 149.797C271.598 149.98 271.055 150.061 270.511 150.036V150.096ZM272.115 187.961C271.568 187.967 271.024 187.865 270.511 187.662C271.544 187.264 272.675 187.264 273.708 187.662C273.195 187.843 272.655 187.924 272.115 187.901V187.961ZM263.476 207.121C262.931 207.134 262.39 207.032 261.882 206.822C262.391 206.618 262.932 206.516 263.476 206.523C264.019 206.519 264.559 206.62 265.069 206.822C264.561 207.03 264.02 207.131 263.476 207.121ZM243.627 156.614C243.084 156.62 242.543 156.518 242.034 156.315C243.063 155.916 244.191 155.916 245.221 156.315C244.724 156.523 244.195 156.632 243.661 156.638L243.627 156.614ZM282.897 135.911C282.353 135.923 281.812 135.821 281.304 135.612C281.812 135.403 282.353 135.302 282.897 135.313C283.441 135.307 283.981 135.409 284.491 135.612C284.002 135.822 283.48 135.931 282.954 135.935L282.897 135.911ZM263.173 120.363C262.629 120.369 262.089 120.267 261.579 120.064C262.086 119.849 262.628 119.748 263.173 119.765C263.717 119.752 264.258 119.854 264.766 120.064C264.274 120.257 263.753 120.354 263.229 120.351L263.173 120.363ZM283.066 165.261C282.522 165.267 281.982 165.165 281.472 164.962C281.979 164.747 282.521 164.645 283.066 164.663C283.61 164.65 284.151 164.752 284.659 164.962C284.15 165.166 283.61 165.268 283.066 165.261ZM294.196 195.293C293.652 195.303 293.111 195.202 292.603 194.994C293.636 194.595 294.767 194.595 295.8 194.994C295.289 195.207 294.745 195.312 294.196 195.304V195.293ZM250.707 136.33C250.16 136.335 249.616 136.234 249.103 136.031C249.613 135.816 250.159 135.714 250.707 135.732C251.251 135.721 251.792 135.823 252.3 136.031C251.791 136.237 251.252 136.342 250.707 136.342V136.33ZM261.131 168C260.586 168.012 260.045 167.911 259.537 167.701C260.567 167.302 261.695 167.302 262.724 167.701C262.217 167.914 261.676 168.019 261.131 168.012V168ZM238.354 204.729C237.81 204.742 237.268 204.64 236.761 204.43C237.79 204.032 238.918 204.032 239.947 204.43C239.439 204.639 238.898 204.74 238.354 204.729ZM251.538 188.248C250.994 188.252 250.454 188.151 249.944 187.949C250.977 187.551 252.109 187.551 253.142 187.949C252.626 188.136 252.082 188.221 251.538 188.2V188.248ZM251.347 201.751C251.726 201.334 252.175 200.997 252.671 200.758C252.449 201.288 252.133 201.768 251.739 202.17C251.364 202.59 250.914 202.927 250.416 203.162C250.635 202.617 250.951 202.121 251.347 201.703V201.751ZM293.983 171.624C294.362 171.207 294.811 170.87 295.307 170.631C295.085 171.161 294.769 171.641 294.375 172.042C293.997 172.459 293.547 172.796 293.052 173.035C293.278 172.487 293.602 171.992 294.005 171.576L293.983 171.624ZM270.757 161.793C271.135 161.37 271.589 161.032 272.093 160.8C271.868 161.329 271.552 161.807 271.161 162.211C270.778 162.628 270.325 162.965 269.826 163.204C270.056 162.658 270.379 162.163 270.78 161.745L270.757 161.793ZM283.526 187.734C283.905 187.317 284.354 186.98 284.85 186.741C284.384 187.791 283.591 188.636 282.606 189.133C282.83 188.591 283.15 188.099 283.548 187.686L283.526 187.734ZM304.013 201.835C304.395 201.419 304.848 201.086 305.349 200.854C305.124 201.383 304.808 201.861 304.417 202.265C304.034 202.682 303.581 203.019 303.082 203.258C303.313 202.709 303.636 202.211 304.036 201.787L304.013 201.835ZM286.914 144.642C287.291 144.223 287.741 143.886 288.238 143.649C288.014 144.181 287.698 144.664 287.307 145.072C286.927 145.485 286.478 145.818 285.983 146.053C286.205 145.503 286.529 145.007 286.937 144.594L286.914 144.642ZM260.356 142.537C260.734 142.114 261.189 141.776 261.692 141.544C261.467 142.073 261.151 142.552 260.76 142.956C260.377 143.372 259.924 143.709 259.425 143.948C259.653 143.422 259.968 142.943 260.356 142.537ZM242.719 181.766C243.097 181.349 243.547 181.012 244.043 180.773C243.821 181.303 243.504 181.783 243.111 182.184C242.735 182.605 242.285 182.942 241.787 183.177C242.012 182.648 242.328 182.17 242.719 181.766ZM271.891 126.75C272.267 126.329 272.716 125.992 273.215 125.757C272.748 126.807 271.955 127.652 270.971 128.149C271.196 127.611 271.516 127.124 271.913 126.714L271.891 126.75ZM250.864 162.426C251.243 162.01 251.692 161.673 252.188 161.434C251.967 161.968 251.651 162.451 251.257 162.857C250.876 163.271 250.427 163.607 249.933 163.85C250.16 163.303 250.484 162.807 250.887 162.391L250.864 162.426ZM251.257 148.864C251.65 149.266 251.966 149.745 252.188 150.275C251.203 149.778 250.41 148.933 249.944 147.883C250.443 148.103 250.896 148.424 251.279 148.828L251.257 148.864ZM286.174 177.149C286.568 177.55 286.884 178.029 287.105 178.56C286.61 178.325 286.16 177.993 285.781 177.58C285.39 177.171 285.074 176.689 284.85 176.157C285.351 176.382 285.808 176.707 286.196 177.113L286.174 177.149ZM242.247 170.416C242.641 170.817 242.957 171.297 243.179 171.827C242.679 171.588 242.226 171.251 241.843 170.834C241.456 170.43 241.144 169.951 240.923 169.423C241.425 169.648 241.882 169.972 242.27 170.38L242.247 170.416ZM272.9 199.945C273.291 200.349 273.607 200.828 273.832 201.356C273.331 201.124 272.878 200.791 272.496 200.376C272.109 199.964 271.794 199.482 271.565 198.952C272.064 199.191 272.517 199.528 272.9 199.945ZM274.875 141.951C275.268 142.353 275.585 142.832 275.806 143.362C274.821 142.865 274.028 142.02 273.562 140.97C274.049 141.189 274.494 141.501 274.875 141.891V141.951ZM262.926 181.826C263.313 182.23 263.625 182.709 263.846 183.237C263.348 183.002 262.898 182.664 262.522 182.244C262.129 181.842 261.812 181.363 261.591 180.833C262.085 181.054 262.538 181.37 262.926 181.766V181.826ZM242.73 194.659C243.124 195.059 243.441 195.539 243.661 196.07C242.676 195.573 241.883 194.728 241.417 193.678C241.904 193.897 242.349 194.209 242.73 194.599V194.659ZM291.436 158.468C291.827 158.872 292.143 159.35 292.367 159.879C291.868 159.64 291.415 159.303 291.032 158.886C290.645 158.482 290.333 158.003 290.112 157.475C290.603 157.696 291.052 158.013 291.436 158.408V158.468ZM257.675 129.178C258.066 129.582 258.382 130.06 258.606 130.589C257.621 130.092 256.828 129.247 256.362 128.197C256.849 128.416 257.294 128.728 257.675 129.118V129.178ZM274.37 114.67C274.761 115.076 275.074 115.559 275.29 116.093C274.794 115.854 274.345 115.517 273.966 115.101C273.578 114.694 273.263 114.216 273.035 113.689C273.529 113.906 273.982 114.219 274.37 114.61V114.67Z" fill="white"/>
<path d="M254.612 131.139L253.512 125.972L257.978 120.781L261.434 127.299L259.01 131.749L261.119 184.54L251.841 202.002L247.016 182.351L254.612 131.139Z" fill="#263238"/>
<path d="M269.187 108.188L303.476 183.679C297.136 157.762 285.726 119.49 274.82 110.137C273.115 109.017 271.184 108.348 269.187 108.188Z" fill="#263238"/>
<path d="M275.515 125.791C280.284 134.905 308.547 168.847 309.265 172.208C309.983 175.569 303.767 184.467 303.722 185.807C303.565 191.26 309.254 227.344 314.056 224.258C320.373 220.18 347.514 189.825 345.741 174.445C343.968 159.064 289.125 117.886 280.418 113.604C271.712 109.322 270.803 116.75 275.515 125.791Z" fill="#F7A9A0"/>
<path d="M294.242 230.335C291.594 227.094 296.699 225.622 296.699 225.622C296.699 225.622 288.845 225.85 287.352 221.377C285.86 216.904 292.132 215.516 292.581 215.397C292.166 215.397 284.963 215.397 283.874 210.756C282.786 206.116 289.249 205.506 289.664 205.482C289.271 205.362 284.054 203.64 284.054 199.896C283.93 193.462 299.133 197.038 303.296 194.311C303.296 194.311 303.801 186.011 303.745 185.76C304.28 187.803 305.446 189.594 307.055 190.843C310.062 192.744 312.844 194.144 313.787 196.177C314.222 197.079 314.372 198.106 314.214 199.107C314.057 200.107 313.6 201.026 312.912 201.726C312.912 201.726 317.153 202.384 318.118 206.032C318.611 207.898 316.244 210.397 316.244 210.397C316.244 210.397 319.61 211.079 320.283 214.368C320.822 216.999 318.365 219.152 318.365 219.152C318.365 219.152 321.315 221.401 321.046 224.283C320.474 230.036 299.919 237.283 294.242 230.335Z" fill="#F7A9A0"/>
<path d="M317.96 219.498C317.967 219.494 317.974 219.492 317.982 219.491C317.989 219.49 317.997 219.49 318.004 219.493C318.011 219.495 318.018 219.499 318.024 219.504C318.03 219.509 318.035 219.515 318.039 219.522C318.042 219.529 318.045 219.537 318.046 219.545C318.046 219.553 318.046 219.561 318.044 219.569C318.042 219.576 318.038 219.584 318.033 219.59C318.029 219.596 318.023 219.602 318.016 219.606C311.57 223.934 304.041 226.07 296.429 225.729C296.193 225.729 296.115 225.287 296.429 225.251C303.83 224.456 311.083 222.518 317.96 219.498Z" fill="#263238"/>
<path d="M316.3 210.41C316.378 210.41 316.434 210.506 316.3 210.566C309.871 214.788 300.771 217.359 292.356 215.685C292.076 215.685 291.862 215.266 292.199 215.302C297.932 215.972 309.871 213.352 316.3 210.41Z" fill="#263238"/>
<path d="M289.114 205.147C297.237 206.427 304.934 204.8 312.609 201.918C312.709 201.918 312.743 202.038 312.665 202.097C309.299 204.597 304.205 205.889 300.177 206.535C296.452 207.214 292.626 206.838 289.08 205.446C288.934 205.398 288.946 205.123 289.114 205.147Z" fill="#263238"/>
<path d="M318.521 219.141C320.07 217.945 321.36 216.175 321.057 213.998C320.912 213.007 320.433 212.106 319.711 211.462C318.817 210.813 317.789 210.403 316.715 210.266C317.514 209.557 318.092 208.604 318.371 207.536C318.649 206.467 318.616 205.334 318.275 204.286C317.838 203.386 317.102 202.69 316.21 202.337C315.164 201.92 314.069 201.658 312.956 201.559C313.538 201.135 314.018 200.571 314.357 199.912C314.696 199.254 314.885 198.519 314.909 197.768C314.904 196.941 314.715 196.128 314.358 195.394C314.002 194.66 313.486 194.027 312.855 193.546C311.368 192.447 309.763 191.54 308.076 190.843C307.222 190.449 306.416 189.947 305.675 189.348C304.938 188.66 304.404 187.758 304.137 186.753C304.137 186.562 303.891 186.621 303.935 186.753C304.114 187.482 304.423 188.169 304.844 188.774C305.258 189.41 305.748 189.985 306.303 190.484C307.731 191.564 309.231 192.532 310.791 193.379C312.137 194.189 313.194 195.45 313.798 196.967C314.046 197.752 314.084 198.595 313.907 199.402C313.731 200.209 313.347 200.948 312.799 201.536C312.732 201.595 312.799 201.715 312.878 201.727C313.844 202.004 314.774 202.406 315.649 202.923C316.371 203.361 316.953 204.019 317.321 204.813C317.61 205.767 317.658 206.785 317.461 207.765C317.264 208.746 316.829 209.654 316.199 210.398C317.215 210.782 318.161 211.352 318.993 212.084C319.507 212.662 319.857 213.384 320.002 214.165C320.166 215.065 320.092 215.995 319.789 216.852C319.486 217.709 318.965 218.46 318.286 219.021C318.281 219.03 318.278 219.04 318.278 219.051C318.278 219.061 318.281 219.072 318.286 219.081C318.281 219.104 318.281 219.129 318.286 219.153C318.286 219.153 319.217 219.906 319.273 219.93C319.329 219.954 319.273 219.93 319.273 219.87C319.039 219.609 318.787 219.365 318.521 219.141Z" fill="#263238"/>
<path d="M327.52 215.133L305.08 180.795C305.08 180.795 308.794 174.098 308.446 171.921C308.098 169.744 279.442 136.304 274.247 124.787C269.053 113.269 267.841 106.213 280.037 112.312C292.233 118.412 343.284 160.38 346.235 171.455C349.186 182.53 337.035 200.087 327.52 215.133Z" fill="#F48C06"/>
<path d="M294.196 141.747C294.57 140.645 294.57 139.439 294.196 138.338C293.822 139.439 293.822 140.645 294.196 141.747ZM280.53 123.807C280.524 123.227 280.619 122.651 280.811 122.108C281.184 123.205 281.184 124.408 280.811 125.505C280.614 124.947 280.519 124.355 280.53 123.759V123.807ZM312.249 152.69C312.239 152.11 312.334 151.533 312.529 150.992C312.903 152.093 312.903 153.299 312.529 154.4C312.328 153.84 312.232 153.242 312.249 152.642V152.69ZM334.487 164.351C334.476 163.771 334.572 163.194 334.768 162.653C335.141 163.75 335.141 164.952 334.768 166.049C334.565 165.493 334.469 164.899 334.487 164.303V164.351ZM315.828 172.783C315.823 172.203 315.918 171.627 316.109 171.085C316.482 172.182 316.482 173.384 316.109 174.481C315.912 173.923 315.817 173.331 315.828 172.735V172.783ZM333.926 184.528C333.915 183.944 334.01 183.363 334.207 182.817C334.58 183.919 334.58 185.125 334.207 186.226C334.006 185.669 333.91 185.076 333.926 184.48V184.528ZM315.828 190.34C315.823 189.76 315.918 189.185 316.109 188.642C316.482 189.739 316.482 190.941 316.109 192.038C315.912 191.481 315.817 190.888 315.828 190.292V190.34ZM284.94 117.384C284.395 117.395 283.854 117.293 283.346 117.085C283.856 116.883 284.396 116.782 284.94 116.786C285.483 116.779 286.024 116.881 286.533 117.085C286.028 117.307 285.486 117.421 284.94 117.42V117.384ZM282.954 135.958C282.409 135.969 281.868 135.868 281.36 135.659C281.868 135.45 282.409 135.349 282.954 135.36C283.497 135.354 284.037 135.456 284.547 135.659C284.037 135.86 283.496 135.953 282.954 135.934V135.958ZM303.475 134.487C302.931 134.498 302.39 134.397 301.882 134.188C302.39 133.979 302.931 133.877 303.475 133.889C304.019 133.882 304.559 133.984 305.068 134.188C304.559 134.39 304.018 134.483 303.475 134.463V134.487ZM295.935 149.712C295.388 149.717 294.844 149.616 294.331 149.413C295.364 149.015 296.495 149.015 297.528 149.413C297.019 149.615 296.479 149.716 295.935 149.712ZM320.182 148.408C319.638 148.414 319.098 148.313 318.588 148.109C319.618 147.711 320.745 147.711 321.775 148.109C321.267 148.322 320.727 148.431 320.182 148.432V148.408ZM324.198 168.286C323.654 168.297 323.113 168.196 322.605 167.987C323.634 167.588 324.762 167.588 325.792 167.987C325.286 168.205 324.744 168.315 324.198 168.31V168.286ZM329.674 206.558C329.129 206.576 328.586 206.475 328.08 206.259C329.11 205.86 330.238 205.86 331.267 206.259C330.761 206.48 330.22 206.594 329.674 206.594V206.558ZM325.792 188.163C325.248 188.167 324.708 188.066 324.198 187.864C324.706 187.656 325.247 187.555 325.792 187.565C326.336 187.553 326.877 187.654 327.385 187.864C326.878 188.081 326.338 188.195 325.792 188.199V188.163ZM342.532 181.334C341.984 181.346 341.439 181.244 340.927 181.035C341.96 180.637 343.092 180.637 344.125 181.035C343.619 181.256 343.078 181.369 342.532 181.37V181.334ZM312.608 140.419C312.987 140.002 313.436 139.666 313.932 139.426C313.712 139.961 313.395 140.445 313.001 140.85C312.621 141.262 312.172 141.595 311.677 141.83C311.905 141.315 312.221 140.848 312.608 140.455V140.419ZM319.98 159.113C320.363 158.696 320.815 158.359 321.315 158.12C320.849 159.17 320.056 160.015 319.071 160.512C319.293 160.002 319.601 159.54 319.98 159.148V159.113ZM335.979 195.052C336.357 194.637 336.806 194.304 337.303 194.072C336.837 195.122 336.044 195.967 335.059 196.464C335.281 195.947 335.593 195.48 335.979 195.088V195.052ZM319.688 197.959C320.065 197.54 320.514 197.202 321.012 196.966C320.79 197.496 320.474 197.975 320.081 198.377C319.705 198.798 319.255 199.135 318.757 199.37C318.985 198.854 319.3 198.388 319.688 197.994V197.959ZM341.197 172.185C341.578 171.765 342.031 171.428 342.532 171.192C342.31 171.722 341.994 172.202 341.601 172.603C341.223 173.021 340.773 173.358 340.277 173.596C340.501 173.081 340.813 172.615 341.197 172.221V172.185ZM322.403 177.95C322.783 177.537 323.232 177.204 323.727 176.969C323.511 177.499 323.198 177.979 322.807 178.38C322.424 178.797 321.971 179.134 321.472 179.373C321.704 178.856 322.019 178.386 322.403 177.985V177.95ZM296.721 127.873C297.104 127.456 297.556 127.12 298.056 126.88C297.831 127.413 297.515 127.895 297.124 128.304C296.745 128.716 296.296 129.049 295.8 129.284C296.025 128.769 296.337 128.303 296.721 127.909V127.873ZM302.331 157.905C302.707 157.485 303.157 157.148 303.654 156.912C303.43 157.444 303.114 157.927 302.723 158.335C302.344 158.748 301.895 159.081 301.399 159.316C301.627 158.797 301.947 158.33 302.342 157.94L302.331 157.905ZM288.766 129.081C289.16 129.482 289.476 129.961 289.697 130.492C288.712 129.995 287.919 129.15 287.453 128.1C287.952 128.344 288.402 128.689 288.777 129.117L288.766 129.081ZM304.137 144.557C304.531 144.958 304.848 145.437 305.068 145.969C304.573 145.733 304.124 145.401 303.744 144.988C303.353 144.579 303.037 144.097 302.813 143.565C303.316 143.813 303.769 144.162 304.148 144.593L304.137 144.557ZM329.864 156.386C330.252 156.79 330.564 157.269 330.784 157.797C330.289 157.562 329.84 157.229 329.46 156.816C329.069 156.408 328.754 155.925 328.529 155.393C329.035 155.642 329.492 155.991 329.876 156.422L329.864 156.386ZM332.31 174.936C332.704 175.342 333.02 175.825 333.242 176.359C332.249 175.874 331.452 175.025 330.998 173.967C331.49 174.217 331.938 174.557 332.322 174.972L332.31 174.936ZM312.99 181.729C313.406 182.143 313.738 182.643 313.966 183.2C313.467 182.965 313.018 182.628 312.642 182.207C312.254 181.808 311.941 181.333 311.722 180.808C312.199 181.042 312.632 181.366 313.001 181.765L312.99 181.729ZM328.26 196.763C328.657 197.161 328.974 197.641 329.191 198.174C328.206 197.677 327.413 196.832 326.947 195.782C327.445 196.028 327.894 196.373 328.271 196.799L328.26 196.763ZM310.88 164.471C311.271 164.874 311.587 165.353 311.811 165.882C310.826 165.385 310.033 164.54 309.567 163.49C310.062 163.722 310.511 164.051 310.891 164.459L310.88 164.471ZM274.359 114.621C274.75 115.027 275.063 115.511 275.279 116.045C274.783 115.805 274.334 115.469 273.955 115.052C273.567 114.646 273.251 114.167 273.024 113.641C273.526 113.871 273.982 114.199 274.37 114.609L274.359 114.621Z" fill="white"/>
<path d="M329.506 206.63C328.552 205.578 327.789 204.322 326.937 203.186C326.084 202.05 325.265 200.794 324.457 199.598C322.909 197.302 321.383 194.981 319.868 192.661C318.353 190.341 316.839 188.009 315.38 185.677C313.921 183.344 312.126 180.893 310.757 178.369C310.745 178.359 310.735 178.346 310.728 178.33C310.721 178.315 310.718 178.299 310.718 178.282C310.718 178.265 310.722 178.248 310.729 178.233C310.737 178.218 310.747 178.206 310.76 178.196C310.773 178.186 310.788 178.18 310.803 178.177C310.819 178.174 310.835 178.176 310.85 178.181C310.865 178.186 310.879 178.195 310.89 178.207C310.901 178.219 310.91 178.233 310.915 178.249C312.699 180.462 314.281 182.95 315.851 185.306C317.422 187.662 319.049 189.958 320.631 192.29C322.213 194.623 323.795 196.979 325.343 199.335C326.106 200.531 326.847 201.727 327.587 202.923C328.328 204.119 329.125 205.315 329.73 206.511C329.674 206.654 329.573 206.702 329.506 206.63Z" fill="#263238"/>
<path d="M257.002 119.058C260.974 120.577 268.682 114.776 272.025 109.729C272.25 109.382 272.126 105.424 272.205 100.604C272.261 97.6854 272.384 94.4323 272.699 91.4781C272.766 90.8682 270.701 91.7413 270.701 91.7413L267.01 92.2316L254.803 93.8701C255.404 97.6901 255.562 101.574 255.274 105.435C255.229 105.842 255.146 106.243 255.027 106.631C255.027 106.631 255.027 106.751 255.027 106.823C254.388 109.107 253.165 117.587 257.002 119.058Z" fill="#F7A9A0"/>
<path d="M255.028 106.656C255.028 106.656 255.028 106.776 255.028 106.847C255.612 107.012 256.209 107.12 256.812 107.17C268.559 108.366 271.712 92.591 271.712 92.591L267.056 92.2441L254.848 93.8827C255.45 97.7026 255.608 101.587 255.319 105.448C255.261 105.86 255.163 106.265 255.028 106.656Z" fill="#263238"/>
<path d="M276.715 68.6479C278.353 75.3455 274.314 94.3141 269.725 98.3685C263.083 104.265 252.581 104.348 247.981 95.9765C243.493 87.8078 249.193 63.1941 254.287 59.5463C261.77 54.1404 274.314 58.745 276.715 68.6479Z" fill="#F7A9A0"/>
<path d="M261.445 79.9863C261.445 79.9863 261.535 80.07 261.513 80.1179C261.21 81.3856 261.064 82.8926 262.062 83.5743C262.062 83.5743 262.062 83.6581 262.062 83.6461C260.75 83.1318 260.974 81.1345 261.445 79.9863Z" fill="#263238"/>
<path d="M262.802 78.8976C264.755 79.1966 264.048 83.3587 262.23 83.0836C260.412 82.8086 261.153 78.6465 262.802 78.8976Z" fill="#263238"/>
<path d="M254.141 78.334C254.141 78.334 254.04 78.334 254.029 78.4297C253.849 79.7213 253.434 81.1805 252.278 81.3957V81.4675C253.636 81.5393 254.163 79.5898 254.141 78.334Z" fill="#263238"/>
<path d="M253.288 76.7553C251.38 76.2171 250.517 80.3433 252.289 80.8457C254.062 81.348 254.904 77.2218 253.288 76.7553Z" fill="#263238"/>
<path d="M264.665 77.2949C264.178 77.0384 263.706 76.7509 263.252 76.4338C262.713 76.0989 262.242 75.8956 261.961 75.2378C261.898 75.0537 261.894 74.852 261.951 74.6654C262.008 74.4788 262.122 74.3181 262.275 74.2093C262.607 74.0353 262.977 73.9592 263.346 73.9886C263.715 74.018 264.07 74.152 264.374 74.3767C265.058 74.7317 265.594 75.3456 265.877 76.0989C265.936 76.2755 265.946 76.4668 265.904 76.649C265.862 76.8312 265.771 76.9963 265.642 77.1237C265.513 77.2511 265.351 77.3353 265.178 77.3658C265.004 77.3962 264.826 77.3716 264.665 77.2949Z" fill="#263238"/>
<path d="M252.144 74.3633C252.684 74.3533 253.223 74.3134 253.76 74.2437C254.34 74.2831 254.917 74.1147 255.398 73.7653C255.529 73.6274 255.614 73.4467 255.638 73.2517C255.663 73.0568 255.625 72.8588 255.532 72.6889C255.302 72.3811 254.998 72.1446 254.653 72.0037C254.308 71.8628 253.934 71.8227 253.569 71.8876C252.808 71.8951 252.077 72.2017 251.516 72.7487C251.396 72.883 251.316 73.0512 251.285 73.2331C251.253 73.4149 251.272 73.6026 251.338 73.7735C251.405 73.9443 251.516 74.0909 251.659 74.1956C251.802 74.3003 251.971 74.3586 252.144 74.3633Z" fill="#263238"/>
<path d="M260.211 91.9213C259.864 92.1725 259.505 92.5313 259.089 92.4834C258.644 92.3902 258.222 92.1942 257.855 91.9094C257.855 91.9094 257.765 91.9094 257.788 91.9094C257.916 92.1964 258.116 92.4405 258.365 92.6154C258.614 92.7904 258.903 92.8895 259.202 92.902C259.456 92.8761 259.697 92.7717 259.896 92.6018C260.096 92.4319 260.244 92.2037 260.324 91.9452C260.346 91.9333 260.256 91.8854 260.211 91.9213Z" fill="#263238"/>
<path d="M259.594 87.82C259.201 88.2735 258.724 88.6344 258.192 88.8795C257.661 89.1246 257.087 89.2485 256.508 89.2432C256.004 89.2483 255.501 89.1758 255.016 89.028L254.736 88.9442L254.489 88.8486C254.425 88.8248 254.37 88.7789 254.334 88.7182C254.297 88.6575 254.28 88.5855 254.287 88.5137V88.3821V88.2745C254.421 87.2698 254.769 85.7868 254.769 85.7868C254.399 85.8944 252.525 86.3968 252.637 85.8825C253.511 81.4295 254.804 77.082 256.497 72.9059C256.508 72.8782 256.528 72.8559 256.553 72.8432C256.579 72.8306 256.608 72.8286 256.635 72.8376C256.661 72.8466 256.684 72.866 256.698 72.8919C256.712 72.9178 256.716 72.9484 256.71 72.9776C255.936 77.1038 254.466 81.0506 253.625 85.1768C254.294 84.9878 254.986 84.9033 255.678 84.9257C255.801 84.9257 254.96 87.7961 254.926 88.2506C255.673 88.4781 256.455 88.5435 257.226 88.4429C257.997 88.3422 258.741 88.0775 259.414 87.6645C259.605 87.6286 259.684 87.7363 259.594 87.82Z" fill="#263238"/>
<path d="M255.622 88.8003C256.043 89.5879 256.65 90.2437 257.384 90.7019C257.788 90.949 258.256 91.0497 258.719 90.989C259.717 90.8574 259.841 89.9126 259.841 89.0754C259.793 88.6273 259.698 88.1861 259.56 87.7598C258.388 88.5523 257.006 88.9174 255.622 88.8003Z" fill="#263238"/>
<path d="M257.417 90.701C257.821 90.9481 258.29 91.0488 258.752 90.9881C259.751 90.8565 259.874 89.9117 259.874 89.0745C259.352 89.0072 258.824 89.1317 258.377 89.4274C257.931 89.7231 257.592 90.1724 257.417 90.701Z" fill="#FF9ABB"/>
<path d="M275.077 83.083C270.96 82.2219 271.588 74.1011 271.588 74.1011C271.588 74.1011 264.744 71.434 264.732 65.5497C264.732 65.5497 257.215 68.755 252.301 65.6454C247.386 62.5358 249.384 55.6946 250.225 54.4628C252.144 51.6402 255.835 56.5199 255.835 56.5199C255.835 56.5199 263.251 53.5777 270.645 55.9099C276.671 57.8116 278.645 64.5929 278.645 64.5929C278.645 64.5929 281.809 66.0161 282.438 68.6952C283.066 71.3742 277.692 83.6212 275.077 83.083Z" fill="#263238"/>
<path d="M273.238 74.495C267.628 74.1601 264.71 69.5435 264.912 63.8027H264.811C264.037 69.0412 267.549 75.7627 273.249 74.782C273.285 74.7804 273.318 74.7638 273.342 74.7358C273.367 74.7077 273.379 74.6706 273.378 74.6325C273.376 74.5945 273.361 74.5586 273.334 74.5328C273.308 74.507 273.273 74.4934 273.238 74.495Z" fill="#263238"/>
<path d="M278.489 64.4609C278.489 64.4609 278.388 64.5327 278.489 64.5686C279.891 65.633 281.541 66.5539 282.348 68.2642C283.324 70.3213 282.618 72.6177 281.776 74.5671C280.452 77.5691 278.197 81.3604 275.212 82.676C275.033 82.7597 275.212 83.0229 275.325 82.9631C278.859 81.6116 281.664 76.6601 282.775 73.0243C283.953 68.9579 281.944 66.0995 278.489 64.4609Z" fill="#263238"/>
<path d="M258.471 65.8496C257.064 66.4392 255.524 66.5709 254.046 66.2282C252.569 65.8855 251.219 65.0837 250.169 63.9241C247.7 60.9819 248.979 57.2623 250.775 54.3561C250.864 54.2125 250.696 53.9973 250.573 54.1288C248.385 56.5926 247.51 60.8503 249.451 63.7805C251.392 66.7107 255.666 67.6077 258.64 66.3161C258.875 66.1725 258.718 65.742 258.471 65.8496Z" fill="#263238"/>
<path d="M272.262 84.0516C272.262 84.0516 276.682 78.1434 279.218 79.8537C281.754 81.5639 278.186 90.3187 275.022 91.3353C274.625 91.4952 274.203 91.5681 273.779 91.5493C273.356 91.5306 272.94 91.4207 272.558 91.2263C272.175 91.0319 271.833 90.7569 271.553 90.418C271.273 90.0791 271.06 89.6832 270.926 89.2542L272.262 84.0516Z" fill="#F7A9A0"/>
<path d="M278.141 82.3418C278.141 82.3418 278.141 82.4136 278.141 82.4255C275.897 83.2149 274.651 85.284 273.72 87.4487C273.859 87.2258 274.042 87.0378 274.257 86.8976C274.471 86.7573 274.711 86.6682 274.96 86.6364C275.21 86.6046 275.463 86.6308 275.702 86.7132C275.941 86.7956 276.161 86.9323 276.345 87.1138C276.402 87.1138 276.345 87.2454 276.278 87.2334C275.906 87.0783 275.498 87.0502 275.11 87.153C274.722 87.2559 274.373 87.4846 274.113 87.8075C273.677 88.3459 273.3 88.9358 272.991 89.5656C272.878 89.769 272.531 89.6374 272.62 89.4102C272.766 86.4082 275.156 82.4375 278.141 82.3418Z" fill="#263238"/>
<path d="M254.837 107.337L258.629 118.819L272.351 105.148L275.896 109.932C275.896 109.932 262.118 132.011 262.073 130.982L258.113 121.067L251.538 127.538L252.738 110.59L254.837 107.337Z" fill="#F48C06"/>
<path d="M251.684 119.094C251.976 116.296 252.189 113.473 252.593 110.722C252.593 110.627 252.761 110.591 252.772 110.722C253.187 113.449 252.043 124.118 251.953 126.689C252.222 126.414 258.023 121.008 258.079 121.104C258.954 122.694 261.872 129.918 262.062 130.564C264.25 127.06 272.564 114.322 275.111 111.033C275.125 111.011 275.146 110.996 275.17 110.99C275.194 110.984 275.219 110.989 275.24 111.004C275.261 111.018 275.276 111.04 275.281 111.066C275.286 111.092 275.282 111.119 275.268 111.141C273.316 114.861 262.287 132.011 262.141 131.963C260.586 128.547 259.201 125.046 257.99 121.475C257.002 122.671 251.112 128.794 251.112 128.375C251.154 125.273 251.345 122.176 251.684 119.094Z" fill="#263238"/>
<path d="M176.633 25.0536C176.625 29.5559 177.793 33.9716 180.006 37.8061C182.22 41.6406 185.391 44.7423 189.165 46.7637C192.939 48.7851 197.167 49.6463 201.374 49.2508C205.581 48.8553 209.602 47.2188 212.986 44.5245L224.139 47.5624L219.494 36.4994C221.126 33.2483 222.042 29.6433 222.171 25.9584C222.3 22.2735 221.639 18.6057 220.238 15.234C218.838 11.8622 216.734 8.87525 214.088 6.50015C211.442 4.12506 208.323 2.42436 204.967 1.52738C201.612 0.630389 198.109 0.560723 194.724 1.32368C191.34 2.08663 188.163 3.66211 185.436 5.93034C182.708 8.19857 180.502 11.0998 178.984 14.4136C177.467 17.7273 176.678 21.3662 176.678 25.0536H176.633Z" fill="white"/>
<path d="M176.633 25.0528C176.633 29.5482 177.798 33.9563 179.999 37.7902C180.549 38.7454 181.152 39.664 181.806 40.541C182.483 41.3868 183.21 42.1857 183.983 42.933C187.079 46.0175 190.916 48.1286 195.068 49.0326C196.104 49.255 197.154 49.3949 198.209 49.4512C199.266 49.5409 200.328 49.5409 201.385 49.4512C205.651 49.1119 209.743 47.5088 213.199 44.8227L212.863 44.8945L223.971 48.0519L224.958 48.339L224.543 47.3343L219.943 36.2474V36.7617C221.609 33.4757 222.55 29.8278 222.694 26.0956C222.839 22.3634 222.182 18.6453 220.775 15.2244C219.368 11.8035 217.247 8.76995 214.573 6.35468C211.9 3.9394 208.745 2.20608 205.349 1.28666C201.953 0.367243 198.404 0.285971 194.974 1.04903C191.543 1.81209 188.322 3.39936 185.554 5.69001C182.786 7.98066 180.544 10.9143 179.001 14.2676C177.457 17.6209 176.651 21.3055 176.645 25.0409L176.633 25.0528ZM176.633 25.0528C176.623 21.3814 177.405 17.7566 178.92 14.4592C180.435 11.1618 182.641 8.28042 185.369 6.03814C188.096 3.79586 191.271 2.25289 194.648 1.52877C198.024 0.80465 201.512 0.918807 204.841 1.8624C208.15 2.77443 211.22 4.48026 213.817 6.84971C216.34 9.23121 218.353 12.1641 219.718 15.449C221.072 18.7511 221.709 22.3367 221.581 25.9379C221.432 29.53 220.539 33.0426 218.966 36.2235L218.843 36.4746L218.944 36.7258L223.634 47.7768L224.206 47.0473L212.986 44.1171H212.795L212.65 44.2486C209.346 46.9354 205.407 48.5916 201.273 49.0326C200.24 49.1422 199.2 49.1622 198.165 49.0924C197.13 49.0545 196.099 48.9386 195.079 48.7456C193.031 48.3521 191.045 47.6557 189.177 46.6765C187.298 45.7097 185.562 44.4523 184.027 42.945C183.256 42.1926 182.526 41.394 181.84 40.553C181.182 39.6843 180.575 38.7737 180.022 37.8261C177.807 33.984 176.634 29.5626 176.633 25.0528Z" fill="#263238"/>
<path d="M198.568 23.916V14.9579C196.876 15.2587 195.278 15.9934 193.912 17.0988C193.627 17.355 193.264 17.4912 192.891 17.4815C192.502 17.4945 192.124 17.3437 191.838 17.0616C191.553 16.7796 191.383 16.3891 191.365 15.9745C191.376 15.7009 191.453 15.435 191.589 15.2024C191.724 14.9698 191.914 14.7785 192.139 14.647C194.014 13.2211 196.201 12.3316 198.49 12.0636V11.1666C198.522 10.7793 198.689 10.4189 198.958 10.1563C199.227 9.8937 199.578 9.74805 199.943 9.74805C200.308 9.74805 200.659 9.8937 200.928 10.1563C201.197 10.4189 201.364 10.7793 201.396 11.1666V11.9679C205.94 12.2909 209.171 15.2211 209.171 19.1439C209.171 23.0668 206.815 25.1239 201.317 26.4276V35.577C203.66 35.2449 205.855 34.1745 207.623 32.5033C207.912 32.2348 208.283 32.0899 208.666 32.0966C209.047 32.0991 209.412 32.2565 209.688 32.5366C209.963 32.8168 210.127 33.1984 210.147 33.6036C210.142 33.841 210.083 34.0736 209.976 34.2817C209.868 34.4899 209.716 34.6675 209.53 34.7996C207.216 36.828 204.389 38.0769 201.407 38.3876V40.6959C201.375 41.0831 201.208 41.4436 200.939 41.7062C200.67 41.9688 200.319 42.1144 199.954 42.1144C199.589 42.1144 199.238 41.9688 198.969 41.7062C198.7 41.4436 198.533 41.0831 198.501 40.6959V38.4833C193.8 38.1364 190.569 35.2062 190.569 31.2235C190.546 27.3844 193.037 25.1359 198.568 23.916ZM201.329 23.2941C205.379 22.2296 206.176 20.9021 206.176 18.9406C206.176 16.728 204.167 15.0536 201.329 14.8025V23.2941ZM193.576 31.3073C193.576 33.6993 195.606 35.3497 198.568 35.6009V26.9897C194.417 28.0063 193.576 29.3578 193.576 31.3073Z" fill="#F48C06"/>
</svg>
