<svg width="1441" height="376" viewBox="0 0 1441 376" fill="none" xmlns="http://www.w3.org/2000/svg">
<path fill-rule="evenodd" clip-rule="evenodd" d="M1440.9 93.3457L1380.92 124.553C1320.94 155.761 1200.97 218.176 1080.89 210.582C960.819 202.988 840.635 125.385 720.572 125.57C600.508 125.755 480.565 203.727 360.585 258.363C240.606 312.999 120.59 344.299 60.5822 359.949L0.574471 375.599L-0.000405525 2.21894L60.0313 2.12651C120.063 2.03408 240.127 1.84922 360.19 1.66437C480.253 1.47951 600.317 1.29465 720.38 1.1098C840.444 0.924941 960.507 0.740084 1080.57 0.555228C1200.63 0.370371 1320.7 0.185515 1380.73 0.0930869L1440.76 0.000658727L1440.9 93.3457Z" fill="white"/>
</svg>
