<svg width="901" height="905" viewBox="0 0 901 905" fill="none" xmlns="http://www.w3.org/2000/svg">
<path d="M178.83 794.518C203.77 772.016 206.995 734.203 203.464 700.798C202.869 695.218 202.995 689.28 200.184 684.593C197.373 679.906 191.426 677.066 186.993 679.846C183.389 682.15 182.02 687.135 180.182 691.325C177.711 696.955 173.851 701.704 169.045 705.029C165.91 707.174 161.945 708.663 158.558 707.015C153.927 704.751 152.917 698.137 152.539 692.576C151.818 682.21 151.109 671.836 150.413 661.456C150.294 655.865 149.357 650.333 147.638 645.071C145.655 639.947 141.781 635.36 136.826 634.327C131.87 633.294 126.014 636.869 125.437 642.41C125.414 644.733 125.534 647.056 125.797 649.361C125.9 650.514 125.695 651.674 125.209 652.7C124.722 653.727 123.975 654.575 123.058 655.14C121.076 655.974 118.914 654.584 117.256 653.154C111.562 648.03 107.435 641.119 103.561 634.228C99.6864 627.336 95.8842 620.326 90.6404 614.566C85.3965 608.807 78.4048 604.636 71.0526 604.835C63.7005 605.034 56.2582 610.694 54.9968 618.737C53.7354 626.78 58.5107 634.327 63.5563 640.245C71.0711 648.988 79.689 656.493 89.1447 662.528C90.9568 663.419 92.4651 664.921 93.4515 666.818C94.839 670.433 91.8837 674.405 88.6221 675.934C84.91 677.662 80.7294 677.602 76.783 678.476C72.8366 679.35 68.656 681.653 67.4486 685.884C65.7908 691.842 70.6021 697.323 75.1792 700.838C84.4033 707.877 94.6466 713.136 105.471 716.389C109.345 717.54 113.4 718.494 116.643 721.095C119.887 723.697 122.049 728.523 120.554 732.614C119.058 736.705 114.409 738.374 110.408 737.937C106.408 737.5 102.714 735.494 98.8395 734.302C91.6315 732.058 82.6215 733.409 78.5489 740.419C77.3447 742.81 76.6667 745.478 76.5697 748.21C76.4727 750.942 76.9593 753.661 77.9903 756.148C80.0879 761.094 83.0661 765.524 86.748 769.176C99.0135 782.752 114.32 792.509 131.113 797.457C147.872 802.124 163.099 802.422 178.83 794.518Z" fill="#EBEBEB"/>
<path d="M181.011 819.324C178.421 803.919 174.48 788.827 169.244 774.261C162.774 756.469 155.367 739.109 147.061 722.268L140.556 709.001C138.43 704.632 136.321 700.303 134.015 696.212C129.595 688.369 124.782 680.804 119.599 673.551C114.679 666.58 109.76 660.146 105.183 654.188C100.606 648.23 96.1728 642.768 91.9021 637.962C85.2566 630.364 78.0806 623.352 70.4403 616.99C67.7373 614.726 65.5749 613.018 64.1152 611.946L62.4394 610.675C62.248 610.53 62.0495 610.397 61.8447 610.277C61.8447 610.277 62.0249 610.456 62.3853 610.754L64.0251 612.085C65.4667 613.236 67.6291 614.944 70.2601 617.248C77.8131 623.694 84.915 630.758 91.5056 638.379C95.7043 643.185 100.101 648.667 104.714 654.645C109.327 660.622 114.193 667.057 119.13 674.028C124.311 681.269 129.124 688.82 133.546 696.648C135.835 700.72 137.925 705.029 140.052 709.399L146.503 722.685C154.739 739.502 162.115 756.814 168.595 774.539C173.837 789.053 177.819 804.081 180.488 819.423" fill="#E0E0E0"/>
<path d="M133.87 696.113C134.039 695.318 134.136 694.506 134.158 693.69C134.302 692.141 134.447 689.857 134.591 687.056C134.897 681.456 135.077 673.711 135.257 665.21C135.438 656.71 135.726 648.925 136.14 643.364C136.321 640.564 136.519 638.32 136.663 636.751C136.768 635.949 136.816 635.139 136.807 634.328C136.584 635.104 136.434 635.902 136.357 636.711C136.122 638.26 135.852 640.524 135.6 643.305C135.041 648.905 134.663 656.651 134.483 665.151C134.302 673.651 134.176 681.297 134.068 686.997C133.978 689.678 133.924 691.922 133.87 693.63C133.797 694.456 133.797 695.287 133.87 696.113Z" fill="#E0E0E0"/>
<path d="M67.1426 688.725H67.8273H69.7915C71.4854 688.725 73.9361 688.725 76.9995 688.824C83.0723 688.963 91.4155 689.48 100.696 690.532C109.976 691.585 118.229 692.935 124.212 694.107C127.203 694.683 129.618 695.199 131.294 695.557L133.204 695.974C133.654 695.974 133.889 696.093 133.889 695.974C133.686 695.856 133.467 695.775 133.24 695.736L131.348 695.16C129.708 694.703 127.293 694.087 124.302 693.452C118.337 692.121 110.012 690.671 100.768 689.599C91.5236 688.527 83.1083 688.129 76.9995 688.149C73.9541 688.149 71.5935 688.149 69.7915 688.328L67.8454 688.467C67.6002 688.512 67.363 688.599 67.1426 688.725Z" fill="#E0E0E0"/>
<path d="M168.415 772.99C168.557 772.69 168.677 772.378 168.775 772.057C169.028 771.362 169.316 770.468 169.694 769.376C170.487 767.032 171.496 763.596 172.83 759.446C175.371 750.966 178.56 739.129 181.948 726.001C185.336 712.874 188.417 701.038 190.832 692.518C192.039 688.347 193.012 684.931 193.733 682.429C194.058 681.316 194.31 680.443 194.508 679.688C194.619 679.374 194.697 679.048 194.742 678.715C194.582 679 194.454 679.307 194.364 679.628C194.13 680.343 193.823 681.237 193.445 682.329C192.652 684.673 191.643 688.089 190.327 692.259C187.769 700.74 184.579 712.576 181.209 725.704C177.839 738.831 174.794 750.707 172.307 759.188C171.118 763.358 170.127 766.774 169.424 769.257C169.1 770.389 168.848 771.243 168.631 772.017C168.531 772.333 168.458 772.659 168.415 772.99Z" fill="#E0E0E0"/>
<path d="M78.7832 750.291C79.0623 750.439 79.3599 750.539 79.6662 750.589L82.2791 751.264L91.9018 753.687C100.011 755.673 111.183 758.712 123.527 762.048C135.871 765.385 147.061 768.284 155.206 770.191C159.279 771.144 162.576 771.879 164.865 772.336L167.496 772.852C167.804 772.93 168.117 772.976 168.433 772.991C168.146 772.846 167.843 772.746 167.532 772.693L164.919 772.018L155.314 769.595C147.205 767.609 136.033 764.57 123.707 761.234C111.381 757.897 100.173 754.998 92.0279 753.091C87.9554 752.138 84.6577 751.403 82.3692 750.946L79.7202 750.41C79.4114 750.342 79.098 750.302 78.7832 750.291Z" fill="#E0E0E0"/>
<path d="M415.559 227.027L285.273 270.215L311.687 366.999L441.972 323.811L415.559 227.027Z" fill="white"/>
<path d="M441.994 323.717C441.994 323.717 441.796 323.102 441.472 321.95C441.147 320.798 440.661 319.05 440.03 316.826C438.787 312.338 436.949 305.764 434.624 297.383C429.975 280.562 423.326 256.432 415.217 227.059L415.685 227.337L285.437 270.691L285.761 270.036L312.142 366.833L311.602 366.516L405.45 335.633L432.318 326.875L439.526 324.551L441.328 323.956L441.976 323.777L441.4 323.995L439.598 324.631L432.534 327.014L405.828 336.011L311.836 367.409L311.421 367.548L311.295 367.092C303.24 337.599 294.266 304.811 284.842 270.314L284.716 269.817L285.148 269.678L415.451 226.582L415.811 226.463L415.919 226.86C423.902 256.392 430.444 280.641 435.021 297.542C437.255 305.923 439.021 312.477 440.21 316.985C440.805 319.169 441.238 320.857 441.562 322.049C441.886 323.241 441.994 323.717 441.994 323.717Z" fill="#E0E0E0"/>
<path d="M415.577 227C415.529 227.151 415.469 227.298 415.396 227.437L414.784 228.668C414.189 229.8 413.378 231.369 412.369 233.355L403.269 250.574L372.743 307.631L372.527 308.009L372.166 307.85L368.184 306.162L309.493 280.92L291.743 273.174L286.95 271.01L285.706 270.434C285.558 270.379 285.418 270.299 285.292 270.195C285.449 270.21 285.602 270.258 285.742 270.334L287.004 270.811L291.887 272.797L309.727 280.245L368.508 305.189L372.509 306.897L371.932 307.115C384.006 284.773 394.854 264.754 402.71 250.196L412.063 233.157C413.144 231.171 414.009 229.681 414.622 228.549L415.324 227.377C415.468 227.119 415.559 226.98 415.577 227Z" fill="#E0E0E0"/>
<path d="M794.681 613.674C794.681 613.674 786.23 604.459 769.76 627.476C761.125 639.128 753.197 651.395 746.027 664.197C746.027 664.197 741.919 668.884 739.216 664.634C736.513 660.384 733.72 649.422 727.701 649.978C721.682 650.534 718.222 657.366 717.412 668.269C716.601 679.172 714.06 703.024 713.808 705.169C713.555 707.313 712.006 710.114 709.681 707.552C707.356 704.99 695.661 683.184 686.561 689.896C677.461 696.609 679.768 727.471 679.966 730.828C680.164 734.184 679.335 735.455 677.822 735.932C676.308 736.408 672.974 728.663 669.388 722.606C665.802 716.548 660.703 710.173 655.765 714.562C650.828 718.951 645.584 740.539 658.054 780.2L664.919 798.074L682.489 800.834C720.457 804.191 738.117 793.208 740.729 786.833C743.342 780.458 736.495 776.605 730.26 774.301C724.025 771.997 716.384 770.329 716.438 768.641C716.493 766.953 717.376 765.722 720.385 765.086C723.394 764.451 751.019 759.128 754.623 747.788C758.227 736.448 736.152 729.338 733.323 727.551C730.494 725.763 732.584 723.321 734.386 722.546C736.188 721.772 756.515 713.053 765.903 709.478C775.292 705.903 780.464 700.7 779.4 693.908C778.337 687.116 768.048 687.136 763.633 685.289C759.218 683.442 762.317 677.921 762.317 677.921C771.81 667.091 780.642 655.58 788.753 643.464C804.845 620.108 794.357 613.296 794.357 613.296" fill="#EBEBEB"/>
<path d="M779.833 634.17C779.752 634.345 779.656 634.512 779.545 634.666L778.626 636.096C777.761 637.367 776.553 639.174 775.022 641.478C771.868 646.145 767.273 652.858 761.543 661.12C750.1 677.643 734.098 700.323 716.331 725.267L670.884 789.236L657.171 808.679L653.423 813.942L652.432 815.293C652.197 815.591 652.089 815.75 652.071 815.73C652.152 815.554 652.249 815.388 652.36 815.233L653.279 813.823L656.883 808.421C660.018 803.754 664.631 797.042 670.344 788.78C681.786 772.256 697.806 749.576 715.592 724.632C733.378 699.688 749.361 677.087 761.02 660.663C766.769 652.5 771.454 645.887 774.733 641.24C776.319 638.996 777.581 637.268 778.464 635.957L779.473 634.607C779.689 634.309 779.815 634.15 779.833 634.17Z" fill="#E0E0E0"/>
<path d="M731.053 665.488C731.445 667.191 731.669 668.936 731.72 670.692C731.99 673.909 732.225 678.377 732.387 683.323C732.549 688.268 732.621 692.359 732.711 695.954C732.844 697.698 732.844 699.452 732.711 701.197C732.321 699.494 732.103 697.749 732.062 695.993C731.828 692.756 731.63 688.288 731.468 683.362C731.306 678.437 731.198 674.326 731.071 670.731C730.928 668.988 730.922 667.233 731.053 665.488Z" fill="#E0E0E0"/>
<path d="M734.225 701.892C740.391 700.795 746.604 700.046 752.839 699.648C763.129 698.714 771.508 698.178 771.526 698.456C765.359 699.542 759.146 700.284 752.911 700.681C742.622 701.634 734.261 702.17 734.225 701.892Z" fill="#E0E0E0"/>
<path d="M704.329 740.182C705.946 740.319 707.549 740.605 709.122 741.036C712.078 741.651 716.132 742.505 720.637 743.3C725.142 744.094 729.233 744.69 732.206 745.107C733.828 745.249 735.437 745.535 737.017 745.961C735.396 746.114 733.765 746.074 732.152 745.842C729.143 745.603 724.944 745.127 720.493 744.312C716.042 743.498 711.898 742.545 708.978 741.751C707.382 741.412 705.823 740.886 704.329 740.182Z" fill="#E0E0E0"/>
<path d="M694.887 707.969C695.635 709.409 696.239 710.933 696.689 712.517C697.644 715.396 698.923 719.368 700.293 723.777C701.662 728.186 702.816 732.198 703.626 735.137C704.134 736.691 704.508 738.293 704.744 739.923C703.985 738.483 703.38 736.95 702.942 735.356C701.969 732.496 700.707 728.524 699.338 724.115C697.968 719.706 696.815 715.674 696.004 712.755C695.475 711.209 695.1 709.604 694.887 707.969Z" fill="#E0E0E0"/>
<path d="M664.596 738.076C665.463 739.964 666.198 741.923 666.794 743.935C668.038 747.609 669.695 752.693 671.479 758.333C673.263 763.974 674.813 769.097 675.912 772.811C676.59 774.798 677.114 776.844 677.48 778.928C676.597 777.013 675.862 775.02 675.282 772.97C674.038 769.316 672.38 764.232 670.596 758.592C668.812 752.951 667.245 747.827 666.163 744.094C665.489 742.14 664.964 740.127 664.596 738.076Z" fill="#E0E0E0"/>
<path d="M677.426 777.855C679.478 777.985 681.52 778.277 683.535 778.729C687.283 779.385 692.545 780.278 698.221 781.112C703.897 781.947 709.177 782.582 712.943 783.098C714.995 783.247 717.036 783.545 719.052 783.992C716.997 784.13 714.936 784.077 712.889 783.833C709.087 783.555 703.879 783.039 698.095 782.185C692.31 781.331 687.139 780.338 683.408 779.524C681.376 779.148 679.375 778.59 677.426 777.855Z" fill="#E0E0E0"/>
<path d="M715.141 418.275L710.871 572.297L812.997 575.736L817.267 421.714L715.141 418.275Z" fill="#F5F5F5"/>
<path d="M696.339 438.75L692.069 592.771L794.195 596.21L798.465 442.188L696.339 438.75Z" fill="white"/>
<path d="M794.177 596.177C794.165 595.926 794.165 595.674 794.177 595.423C794.177 594.906 794.177 594.191 794.177 593.258C794.177 591.272 794.267 588.492 794.357 584.837C794.537 577.469 794.789 566.765 795.114 553.2C795.817 526.091 796.808 487.662 797.979 442.163L798.393 442.64L696.274 439.244L696.761 438.747C695.121 496.341 693.625 549.546 692.4 592.761L692.021 592.325L766.192 595.045L786.825 595.84L792.231 596.078L794.123 596.177H792.321L786.915 596.038L766.372 595.462L691.967 593.178H691.589V592.761C692.76 549.526 694.202 496.262 695.769 438.727V438.211H696.256L798.357 441.706H798.79V442.183C797.438 487.861 796.303 526.35 795.492 553.518C795.078 567.023 794.735 577.708 794.519 585.036C794.393 588.65 794.303 591.431 794.231 593.357C794.231 594.271 794.231 594.986 794.141 595.482C794.051 595.979 794.177 596.177 794.177 596.177Z" fill="#E0E0E0"/>
<path d="M758.642 474.376C758.642 474.674 747.523 474.515 733.828 474.058C720.133 473.601 709.015 472.985 709.015 472.707C709.015 472.429 720.151 472.568 733.846 473.025C747.541 473.482 758.642 474.098 758.642 474.376Z" fill="#E0E0E0"/>
<path d="M785.023 488.675C785.023 488.953 767.904 488.675 746.785 487.901C725.665 487.126 708.546 486.372 708.564 486.093C708.582 485.815 725.683 486.093 746.821 486.868C767.958 487.643 785.041 488.377 785.023 488.675Z" fill="#E0E0E0"/>
<path d="M784.645 502.636C784.645 502.914 767.508 502.636 746.388 501.862C725.269 501.087 708.168 500.332 708.168 500.054C708.168 499.776 725.305 500.054 746.424 500.829C767.544 501.604 784.645 502.338 784.645 502.636Z" fill="#E0E0E0"/>
<path d="M784.248 516.597C784.248 516.875 767.129 516.597 746.009 515.823C724.89 515.048 707.789 514.293 707.789 514.015C707.789 513.737 724.926 514.015 746.046 514.79C767.165 515.564 784.266 516.359 784.248 516.597Z" fill="#E0E0E0"/>
<path d="M783.869 530.56C783.869 530.838 766.732 530.56 745.631 529.786C724.53 529.011 707.393 528.256 707.393 527.978C707.393 527.7 724.53 527.978 745.649 528.753C766.768 529.527 783.869 530.262 783.869 530.56Z" fill="#E0E0E0"/>
<path d="M783.492 544.521C783.492 544.799 766.354 544.521 745.235 543.746C724.116 542.972 707.015 542.217 707.015 541.939C707.015 541.661 724.152 541.939 745.271 542.714C766.391 543.488 783.492 544.164 783.492 544.521Z" fill="#E0E0E0"/>
<path d="M783.095 558.482C783.095 558.76 765.958 558.482 744.856 557.707C723.755 556.933 706.618 556.178 706.636 555.9C706.654 555.622 723.755 555.9 744.874 556.675C765.994 557.449 783.113 558.184 783.095 558.482Z" fill="#E0E0E0"/>
<path d="M747.343 571.253C747.343 571.531 738.135 571.452 726.782 571.075C715.429 570.697 706.239 570.141 706.239 569.863C706.239 569.585 715.447 569.665 726.8 570.042C738.153 570.419 747.343 570.955 747.343 571.253Z" fill="#E0E0E0"/>
<path d="M491.682 297.834L459.727 386.289L560.11 430.338L592.066 341.883L491.682 297.834Z" fill="white"/>
<path d="M592.047 341.888L591.56 341.69L590.155 341.094L584.749 338.711L564.152 329.674L491.603 297.898L491.82 297.799L459.888 386.236L459.78 385.958L560.151 430.047H559.953C569.612 403.395 577.631 381.31 583.217 365.879C586.028 358.174 588.227 352.116 589.722 348.005L591.524 343.298L592.119 341.67L591.56 343.279C591.182 344.351 590.623 345.92 589.884 347.966C588.407 352.096 586.28 358.154 583.469 365.84C577.901 381.291 569.918 403.435 560.314 430.146V430.305H560.169L459.654 386.474H459.474V386.275C471.024 354.341 481.927 324.153 491.441 297.839V297.66H491.585L564.314 329.674L584.803 338.731L590.209 341.114L591.596 341.73L592.047 341.888Z" fill="#E0E0E0"/>
<path d="M493.055 305.019L465.126 382.33L558.462 423.286L586.391 345.975L493.055 305.019Z" fill="#EBEBEB"/>
<path d="M465.492 382.563L515.462 348.801L524.796 387.726L544.294 377.677L558.836 423.514L465.492 382.563Z" fill="#E0E0E0"/>
<path d="M546.348 355.493C545.769 357.096 544.772 358.473 543.483 359.451C542.194 360.429 540.67 360.964 539.105 360.987C537.54 361.01 536.004 360.522 534.691 359.583C533.378 358.644 532.348 357.297 531.73 355.712C531.112 354.128 530.934 352.376 531.219 350.68C531.505 348.984 532.24 347.42 533.332 346.185C534.424 344.949 535.825 344.099 537.356 343.741C538.887 343.383 540.479 343.533 541.933 344.173C542.898 344.595 543.778 345.224 544.523 346.021C545.268 346.819 545.862 347.772 546.272 348.823C546.683 349.875 546.9 351.005 546.913 352.15C546.926 353.295 546.734 354.431 546.348 355.493Z" fill="#E0E0E0"/>
<path d="M233.269 478.347C233.947 478.655 234.682 478.785 235.414 478.724C236.29 478.614 237.105 478.171 237.72 477.473C238.433 476.385 239.066 475.237 239.612 474.037L251.307 451.556L255.199 444.128L257.272 440.156C257.632 439.523 257.946 438.859 258.209 438.17C258.398 437.484 258.398 436.751 258.209 436.065C258.047 435.359 257.687 434.727 257.182 434.258C256.604 433.807 256.002 433.396 255.38 433.026L251.361 430.564L243 425.4L205.771 402.383C205.036 401.95 204.182 401.832 203.374 402.052C202.565 402.272 201.859 402.814 201.392 403.574L198.599 408.857C196.797 412.352 194.995 415.828 193.193 419.224L182.741 438.905C182.327 439.68 181.912 440.454 181.516 441.229C181.114 441.9 180.907 442.689 180.921 443.493C180.949 444.277 181.209 445.03 181.66 445.638C182.172 446.222 182.784 446.688 183.462 447.008L191.337 451.933L205.428 460.751L225.827 473.6L231.359 477.136L232.783 478.069C233.107 478.287 233.269 478.407 233.251 478.426L232.747 478.168L231.269 477.314L225.665 473.938L205.104 461.387L191.012 452.589L183.119 447.723C182.355 447.351 181.663 446.818 181.083 446.154C180.52 445.387 180.198 444.439 180.164 443.453C180.126 442.47 180.365 441.499 180.849 440.673C181.245 439.898 181.66 439.124 182.074 438.349L192.4 418.707L197.806 408.341L200.635 402.998C201.231 402.024 202.135 401.328 203.17 401.045C204.205 400.763 205.299 400.914 206.239 401.469L243.432 424.566L251.794 429.769L255.776 432.272C256.464 432.657 257.126 433.095 257.758 433.583C258.387 434.174 258.834 434.964 259.038 435.847C259.254 436.691 259.254 437.584 259.038 438.428C258.751 439.18 258.407 439.904 258.011 440.593L255.902 444.565L251.974 451.973C246.946 461.347 242.874 468.953 240.027 474.296C239.435 475.497 238.761 476.645 238.008 477.731C237.338 478.456 236.458 478.899 235.522 478.983C234.955 479.029 234.387 478.926 233.864 478.685C233.652 478.603 233.452 478.489 233.269 478.347Z" fill="#E0E0E0"/>
<path d="M223.754 437.634L228.295 446.511L218.925 446.71L209.555 446.888L214.384 437.812L219.213 428.736L223.754 437.634Z" fill="#E0E0E0"/>
<path d="M834.866 816.246C834.866 816.543 662.505 816.782 449.959 816.782C237.413 816.782 64.998 816.583 64.998 816.246C64.998 815.908 237.323 815.689 449.959 815.689C662.595 815.689 834.866 815.987 834.866 816.246Z" fill="#263238"/>
<path d="M255.542 690.116L201.14 629.88L228.494 574.511C255.848 535.903 313.765 538.385 313.765 538.385C342.337 536.245 371.041 538.188 399.161 544.165C445.167 554.095 441.454 587.579 441.454 587.579L447.617 711.843L454.231 813.029L284.572 816.803L255.542 690.195" fill="#FF9500"/>
<path d="M346.94 810.884L194.977 812.87C186.606 812.978 178.347 810.738 170.976 806.362C163.606 801.986 157.366 795.617 152.842 787.853C148.318 780.09 145.659 771.186 145.114 761.979C144.57 752.772 146.158 743.563 149.729 735.218L214.709 602.414L273.904 646.503L233.522 738.793L356.526 741.216L346.94 810.884Z" fill="#FF9500"/>
<path d="M436.085 567.322L558.026 774.82L486.883 779.943C486.883 779.943 444.392 706.163 445.347 707.673C447.041 710.453 436.085 567.322 436.085 567.322Z" fill="#FF9500"/>
<path d="M270.841 658.439C270.846 658.075 270.9 657.713 271.004 657.367C271.184 656.572 271.382 655.58 271.652 654.348C272.211 651.747 273.04 647.973 273.887 643.286C274.734 638.599 275.689 632.959 276.283 626.683C277.015 619.882 277.015 613.009 276.283 606.208C275.306 599.463 273.171 592.986 269.994 587.122C267.441 582.294 264.42 577.786 260.984 573.677C258.669 570.868 256.201 568.215 253.596 565.733C252.603 564.876 251.653 563.962 250.749 562.992C251.042 563.153 251.32 563.346 251.578 563.568C252.083 563.985 252.893 564.561 253.83 565.415C256.54 567.773 259.094 570.342 261.471 573.101C265.023 577.18 268.142 581.69 270.769 586.546C274.058 592.501 276.261 599.105 277.256 605.989C277.97 612.875 277.922 619.83 277.112 626.703C276.504 632.295 275.638 637.85 274.517 643.346C273.58 648.053 272.715 651.806 271.977 654.388C271.652 655.679 271.364 656.672 271.166 657.347C271.09 657.722 270.981 658.088 270.841 658.439Z" fill="#263238"/>
<path d="M265.94 665.588C265.68 666.622 265.33 667.626 264.895 668.587C264.174 670.573 263.093 673.234 261.705 676.531C258.948 683.263 255.038 692.518 250.533 702.647C246.028 712.775 241.775 721.851 238.622 728.465C237.036 731.722 235.738 734.423 234.819 736.15C234.381 737.113 233.874 738.035 233.306 738.911C233.629 737.897 234.027 736.914 234.495 735.972C235.414 733.986 236.603 731.324 238.099 728.127L249.758 702.309C254.173 692.24 258.191 683.144 261.183 676.332C262.588 673.135 263.741 670.473 264.642 668.388C265.003 667.416 265.437 666.48 265.94 665.588Z" fill="#263238"/>
<path d="M346.94 810.884C346.94 810.884 346.94 810.765 346.94 810.546C346.94 810.328 346.94 809.931 346.94 809.514C347.03 808.56 347.156 807.23 347.3 805.542C347.661 802.006 348.165 796.982 348.796 790.647C350.129 777.797 352.039 759.725 354.202 738.415L354.634 738.931H309.747L231.342 738.792L207.555 738.633L201.086 738.534H199.392H198.815C199.007 738.508 199.201 738.508 199.392 738.534H201.086L207.555 738.435L231.342 738.276L309.873 738.137H354.761H355.247V738.653C352.868 759.943 350.868 778.016 349.427 790.845C348.706 797.161 348.111 802.185 347.625 805.72C347.432 807.389 347.27 808.713 347.138 809.692L346.994 810.705C346.976 810.765 346.958 810.884 346.94 810.884Z" fill="#263238"/>
<path d="M234.585 740.262C233.497 738.937 232.486 737.537 231.558 736.071C226.701 729.352 220.687 723.756 213.862 719.607C212.404 718.829 210.985 717.968 209.609 717.025C211.209 717.438 212.745 718.107 214.168 719.011C221.277 722.882 227.425 728.601 232.08 735.674C233.103 737.068 233.946 738.612 234.585 740.262Z" fill="#263238"/>
<path d="M450.14 753.409C450.008 752.843 449.924 752.265 449.888 751.681C449.762 750.47 449.6 748.822 449.383 746.736C448.969 742.446 448.41 736.23 447.816 728.544C446.572 713.153 445.149 691.863 443.887 668.349C442.626 644.835 441.743 623.505 441.238 608.074C440.986 600.348 440.806 594.172 440.734 589.783C440.734 587.697 440.734 586.049 440.644 584.818C440.616 584.242 440.616 583.665 440.644 583.09C440.743 583.659 440.798 584.238 440.806 584.818C440.806 586.029 440.95 587.697 441.058 589.783C441.256 594.192 441.527 600.408 441.869 608.034C442.536 623.465 443.527 644.755 444.788 668.289C446.05 691.823 447.383 713.074 448.392 728.485C448.933 736.091 449.365 742.387 449.672 746.716C449.816 748.702 449.924 750.45 450.014 751.662C450.104 752.239 450.146 752.824 450.14 753.409Z" fill="#263238"/>
<path d="M314.485 640.506C314.493 639.595 314.559 638.686 314.684 637.785C314.9 635.899 315.17 633.376 315.513 630.278C316.305 623.724 317.315 614.748 318.648 604.341L319.333 604.818L307.674 613.814L295.817 622.91L294.97 623.566L295.114 622.434C296.555 612.126 297.781 603.229 298.718 596.616C299.186 593.577 299.547 591.075 299.835 589.208C299.932 588.313 300.101 587.429 300.34 586.566C300.341 587.472 300.269 588.376 300.123 589.267C299.907 591.134 299.637 593.637 299.277 596.715C298.466 603.229 297.33 612.146 296.033 622.533L295.348 622.056L307.187 612.921L318.864 603.964L319.711 603.308L319.567 604.44C318.179 614.807 316.972 623.784 316.107 630.258C315.657 633.337 315.296 635.859 315.026 637.726C314.922 638.668 314.741 639.599 314.485 640.506Z" fill="#E0E0E0"/>
<path d="M382.313 648.548C381.664 647.978 381.061 647.347 380.511 646.661C379.34 645.271 377.754 643.424 375.808 641.16L359.716 621.936L360.491 621.638C360.112 626.504 359.716 631.786 359.301 637.268C358.887 642.749 358.454 648.191 358.076 653.156L357.986 654.308L357.301 653.454L341.642 633.991L337.173 628.311C336.604 627.661 336.097 626.949 335.659 626.186C336.307 626.793 336.91 627.458 337.461 628.172L342.11 633.653L358.004 652.858L357.229 653.156C357.608 648.211 358.004 642.848 358.436 637.268C358.869 631.687 359.265 626.504 359.644 621.638L359.734 620.506L360.419 621.34L376.276 640.823L380.799 646.522C381.351 647.153 381.857 647.83 382.313 648.548Z" fill="#E0E0E0"/>
<path d="M416.443 645.887C416.107 646.724 415.697 647.522 415.218 648.27L411.614 654.665L398.747 676.67L398.315 675.915L412.298 673.254L426.534 670.612L427.561 670.414L427.075 671.268L413.92 692.836L409.956 699.072C409.516 699.835 409.022 700.559 408.478 701.237C408.834 700.423 409.243 699.64 409.704 698.893L413.308 692.538L426.192 670.692L426.642 671.447L412.407 674.167L398.369 676.789L397.342 676.968L397.918 676.034L411.055 654.188L414.911 647.932C415.384 647.217 415.896 646.534 416.443 645.887Z" fill="#E0E0E0"/>
<path d="M371.051 684.377C370.712 685.206 370.301 685.998 369.825 686.74L366.221 693.155L353.373 715.14L352.922 714.385L366.942 711.724L381.196 709.063L382.223 708.884L381.628 709.818L368.474 731.405L364.599 737.602C364.169 738.366 363.674 739.085 363.122 739.747C363.482 738.936 363.892 738.153 364.347 737.403C365.284 735.814 366.509 733.689 367.951 731.068L380.835 709.222L381.286 709.976L367.05 712.697L353.012 715.299L351.985 715.498L352.562 714.544L365.699 692.698C367.284 690.116 368.582 688.011 369.573 686.442C370.019 685.715 370.513 685.025 371.051 684.377Z" fill="#E0E0E0"/>
<path d="M469.134 645.451C468.776 646.27 468.367 647.06 467.908 647.815L464.304 654.229L451.456 676.214L451.005 675.46L465.025 672.798L479.279 670.137L480.306 669.958L479.729 670.892L466.557 692.48C464.971 695.022 463.674 697.107 462.682 698.656C462.256 699.43 461.761 700.155 461.205 700.821C461.568 700.008 461.984 699.225 462.448 698.477L466.052 692.142L478.936 670.296L479.387 671.051L465.151 673.752L451.114 676.373L450.104 676.572L450.663 675.619L463.8 653.773L467.674 647.517C468.098 646.777 468.587 646.086 469.134 645.451Z" fill="#E0E0E0"/>
<path d="M525.716 745.426C525.071 744.886 524.469 744.288 523.914 743.638L518.976 738.395L502.019 720.085L502.776 719.747C502.632 724.632 502.488 729.915 502.326 735.416C502.163 740.918 501.965 746.379 501.803 751.304V752.456L501.064 751.642L484.558 733.073L479.837 727.651C479.25 727.037 478.708 726.373 478.215 725.665C478.857 726.209 479.459 726.806 480.017 727.453L484.918 732.676L501.677 750.987L500.902 751.324C501.046 746.359 501.208 740.997 501.371 735.436C501.533 729.876 501.731 724.652 501.893 719.767V718.635L502.614 719.429L519.318 738.018L524.094 743.46C524.683 744.064 525.226 744.722 525.716 745.426Z" fill="#E0E0E0"/>
<path d="M239.469 613.555C239.116 614.376 238.706 615.166 238.243 615.918L234.639 622.333L221.791 644.338L221.34 643.583L235.36 640.902L249.614 638.261L250.641 638.062L250.064 639.015L236.892 660.583L233.035 666.779C232.598 667.538 232.103 668.256 231.558 668.924C231.903 668.111 232.313 667.334 232.783 666.601L236.387 660.246C239.649 654.744 244.118 647.198 249.271 638.4L249.722 639.154L235.486 641.875L221.449 644.497L220.439 644.675L220.998 643.742C226.278 635.004 230.819 627.457 234.135 621.896L238.009 615.64C238.445 614.904 238.933 614.206 239.469 613.555Z" fill="#E0E0E0"/>
<path d="M168.217 762.069C168.824 762.673 169.379 763.338 169.875 764.055L174.272 769.874L189.21 790.191L188.417 790.429C189.066 785.603 189.751 780.36 190.49 774.899C191.228 769.437 191.949 764.055 192.616 759.15L192.76 758.018L193.409 758.931L207.933 779.427L212.059 785.385C212.584 786.074 213.054 786.812 213.465 787.589C212.873 786.974 212.325 786.31 211.825 785.603L207.5 779.804L192.814 759.527L193.607 759.308C192.958 764.214 192.255 769.536 191.517 775.057C190.778 780.579 190.075 785.742 189.408 790.568L189.264 791.7L188.615 790.806L173.911 770.271L169.712 764.313C169.169 763.603 168.669 762.853 168.217 762.069Z" fill="#E0E0E0"/>
<path d="M330.938 665.906C330.131 666.097 329.312 666.217 328.487 666.264L321.64 666.919L297.961 668.905L298.25 668.071L308.629 678.796L319.135 689.719L319.892 690.513H318.847L295.295 691.943L288.483 692.261C287.668 692.339 286.848 692.339 286.032 692.261C286.835 692.083 287.648 691.97 288.465 691.923L295.258 691.327L318.793 689.54L318.522 690.374L307.981 679.491L297.637 668.727L296.88 667.932H297.907L321.604 666.363L328.451 665.986C329.277 665.89 330.109 665.864 330.938 665.906Z" fill="#E0E0E0"/>
<path d="M291.006 766.001C291.607 766.624 292.173 767.288 292.7 767.987L297.187 773.707L312.522 793.686L311.729 793.925C312.287 789.079 312.9 783.836 313.531 778.374C314.162 772.913 314.81 767.491 315.333 762.586L315.477 761.434L316.126 762.327L331.046 782.485L335.281 788.443C335.806 789.135 336.288 789.864 336.723 790.628C336.115 790.018 335.554 789.354 335.047 788.642L330.614 782.942L315.477 763.082L316.252 762.824C315.693 767.749 315.081 773.072 314.45 778.612C313.819 784.153 313.188 789.337 312.648 794.183L312.504 795.315L311.855 794.441L296.772 774.223L292.483 768.265C291.924 767.566 291.43 766.808 291.006 766.001Z" fill="#E0E0E0"/>
<path d="M219.629 692.599C218.822 692.794 218.003 692.914 217.178 692.956L210.348 693.592L186.67 695.578L186.94 694.724L197.338 705.468L207.844 716.391L208.6 717.186H207.555L184.003 718.615L177.192 718.933C176.394 719.008 175.592 719.008 174.795 718.933C175.595 718.743 176.409 718.63 177.228 718.596L184.021 718L207.555 716.193L207.285 717.047L196.743 706.163L186.382 695.399L185.643 694.605H186.67L210.366 693.016L217.214 692.658C218.016 692.572 218.824 692.552 219.629 692.599Z" fill="#E0E0E0"/>
<path d="M280.951 763.757C280.144 763.945 279.324 764.058 278.5 764.094L271.652 764.75L247.974 766.736L248.262 765.882L258.642 776.626L269.148 787.549L269.904 788.343H268.877L245.307 789.754L238.496 790.091C237.68 790.169 236.86 790.169 236.045 790.091C236.845 789.901 237.659 789.788 238.478 789.754L245.271 789.158L268.805 787.35L268.535 788.204L257.993 777.321L247.65 766.597L246.893 765.822H247.92L271.616 764.233L278.482 763.876C279.3 763.754 280.126 763.714 280.951 763.757Z" fill="#E0E0E0"/>
<path d="M419.362 582.714C418.555 582.904 417.735 583.024 416.911 583.071L410.064 583.707L386.403 585.693L386.674 584.859L397.053 595.583L407.559 606.506L408.316 607.3H407.288L383.718 608.73L376.907 609.048C376.091 609.126 375.271 609.126 374.456 609.048C375.257 608.858 376.07 608.745 376.889 608.711L383.682 608.115L407.234 606.327L406.946 607.161L396.44 596.298L386.097 585.534L385.34 584.739H386.367L410.064 583.151L416.929 582.793C417.737 582.7 418.55 582.673 419.362 582.714Z" fill="#E0E0E0"/>
<path d="M352.039 763.757C352.039 763.757 382.349 754.125 392.386 751.305C396.296 750.213 413.037 759.944 424.606 768.047C424.606 768.047 440.535 778.454 439.256 781.651C437.832 785.186 432.048 784.471 422.587 779.665C422.587 779.665 425.867 790.131 419.434 789.893C419.434 789.893 422.623 801.213 416.605 802.385C410.586 803.557 409.18 789.119 403.883 788.344C398.585 787.569 387.665 786.775 387.665 786.775C387.665 786.775 378.528 803.457 371.447 804.649C364.365 805.841 348.021 803.716 348.021 803.716L352.039 763.757Z" fill="#FFBE9D"/>
<path d="M403.774 766.061C406.742 767.517 409.577 769.279 412.244 771.323C415.073 773.087 417.74 775.149 420.209 777.48C414.404 774.276 408.9 770.451 403.774 766.061Z" fill="#EB996E"/>
<path d="M401.99 772.555C405.452 773.756 408.816 775.277 412.045 777.103C415.384 778.598 418.602 780.398 421.668 782.485C418.204 781.297 414.84 779.782 411.613 777.957C408.268 776.469 405.048 774.662 401.99 772.555Z" fill="#EB996E"/>
<path d="M405.234 788.065C409.812 788.046 414.371 788.714 418.785 790.051C414.208 790.065 409.65 789.397 405.234 788.065Z" fill="#EB996E"/>
<path d="M312.593 419.047C312.95 420.334 312.955 421.708 312.608 422.998C312.26 424.288 311.576 425.437 310.64 426.301C309.704 427.165 308.558 427.707 307.345 427.858C306.131 428.008 304.904 427.762 303.817 427.15C299.709 424.866 299.186 418.61 299.997 413.625C300.808 408.64 302.34 403.298 300.448 398.67C298.988 395.135 295.834 392.891 293.384 390.111C291.221 387.694 289.596 384.758 288.636 381.532C287.676 378.307 287.408 374.881 287.852 371.522C288.371 368.173 289.719 365.047 291.748 362.489C293.776 359.931 296.407 358.04 299.348 357.024C305.385 355.177 312.827 357.223 317.368 352.397C320.63 348.901 320.828 343.201 323.351 339.031C327.261 332.556 335.532 331.524 342.524 332.576C349.516 333.629 356.616 336.111 363.463 334.225C369.176 332.656 373.861 328.267 379.231 325.566C385.084 322.617 391.626 321.758 397.943 323.109C404.261 324.46 410.037 327.953 414.464 333.099C418.892 338.246 421.749 344.789 422.637 351.813C423.525 358.838 422.399 365.992 419.416 372.276C417.427 376.875 414.042 380.563 409.847 382.703" fill="#263238"/>
<path d="M347.372 583.109C351.968 583.099 356.515 582.084 360.752 580.123C364.989 578.162 368.83 575.293 372.053 571.683C375.276 568.074 377.818 563.795 379.529 559.095C381.241 554.395 382.089 549.367 382.025 544.303L381.574 507.8C381.574 507.8 409.397 504.722 411.235 474.336C413.073 443.951 411.758 373.825 411.758 373.825C396.449 365.455 379.391 361.736 362.343 363.052C345.296 364.368 328.875 370.671 314.774 381.312L310.521 384.549L312.594 545.296C312.703 555.377 316.417 565.003 322.929 572.083C329.441 579.164 338.225 583.126 347.372 583.109Z" fill="#FFBE9D"/>
<path d="M404.477 428.978C403.471 428.85 402.543 428.319 401.869 427.486C401.195 426.653 400.822 425.576 400.822 424.459C400.822 423.343 401.195 422.266 401.869 421.433C402.543 420.6 403.471 420.069 404.477 419.941C404.696 419.882 404.925 419.882 405.144 419.941C406.15 420.069 407.079 420.6 407.753 421.433C408.427 422.266 408.799 423.343 408.799 424.459C408.799 425.576 408.427 426.653 407.753 427.486C407.079 428.319 406.15 428.85 405.144 428.978C404.923 429.017 404.698 429.017 404.477 428.978Z" fill="#263238"/>
<path d="M409.884 419.166C409.433 419.683 406.838 417.18 403.036 416.962C399.234 416.744 396.369 418.71 395.99 418.154C395.612 417.598 396.26 416.982 397.522 416.048C399.207 414.856 401.196 414.292 403.194 414.439C405.192 414.585 407.095 415.435 408.622 416.863C409.757 417.975 410.118 419.047 409.884 419.166Z" fill="#263238"/>
<path d="M365.933 420.198C366.587 420.697 367.091 421.398 367.383 422.213C367.675 423.028 367.741 423.921 367.573 424.777C367.404 425.633 367.009 426.416 366.437 427.024C365.865 427.633 365.142 428.041 364.36 428.197C363.577 428.353 362.77 428.249 362.041 427.9C361.312 427.55 360.694 426.969 360.264 426.232C359.834 425.495 359.613 424.633 359.628 423.757C359.642 422.881 359.893 422.029 360.347 421.31C360.954 420.347 361.884 419.689 362.931 419.481C363.978 419.272 365.058 419.53 365.933 420.198Z" fill="#263238"/>
<path d="M368.438 420.377C367.969 420.894 365.374 418.391 361.59 418.173C357.806 417.954 354.923 419.921 354.526 419.365C354.328 419.106 354.815 418.193 356.058 417.259C357.743 416.067 359.732 415.503 361.73 415.65C363.728 415.796 365.631 416.646 367.158 418.074C368.293 419.186 368.654 420.159 368.438 420.377Z" fill="#263238"/>
<path d="M382.024 455.848C382.024 455.53 384.385 455.133 388.241 454.776C389.232 454.776 390.043 454.517 390.133 453.942C390.206 452.846 390.013 451.75 389.575 450.764C388.728 447.924 387.881 445.064 386.98 442.065C383.376 429.692 381.015 419.504 381.574 419.306C382.133 419.107 385.484 428.977 389.034 441.35C389.863 444.369 390.674 447.308 391.449 450.089C392.021 451.535 392.135 453.15 391.773 454.676C391.612 455.088 391.365 455.453 391.052 455.739C390.739 456.026 390.368 456.226 389.971 456.325C389.41 456.463 388.833 456.51 388.259 456.464C384.367 456.384 382.024 456.186 382.024 455.848Z" fill="#263238"/>
<path d="M369.411 459.74C375.203 463.017 381.375 465.403 387.755 466.83C386.356 468.948 384.348 470.481 382.058 471.181C379.767 471.881 377.33 471.705 375.141 470.683C367.014 466.85 369.411 459.74 369.411 459.74Z" fill="white"/>
<path d="M381.682 507.365C368.926 506.863 356.593 502.19 346.255 493.939C346.255 493.939 353.679 516.322 381.34 515.249L381.682 507.365Z" fill="#EB996E"/>
<path d="M411.991 381.512C411.991 381.512 395.323 390.846 373.248 379.288C358.832 371.701 341.948 368.186 338.308 371.463C334.668 374.74 334.181 391.025 320.053 396.089C320.053 396.089 321.585 427.19 310.304 426.316C299.024 425.442 305.223 377.123 305.223 377.123L332.487 361.712L362.418 354.82L390.8 358.614L412.82 364.75L411.991 381.512Z" fill="#263238"/>
<path d="M312.359 416.325C311.908 416.067 293.708 408.997 293.294 429.83C292.879 450.663 311.926 446.83 311.962 446.234C311.999 445.638 312.359 416.325 312.359 416.325Z" fill="#FFBE9D"/>
<path d="M306.34 438.192C306.34 438.192 305.998 438.451 305.439 438.709C304.648 439.063 303.762 439.063 302.97 438.709C300.988 437.855 299.366 434.32 299.366 430.566C299.364 428.777 299.714 427.008 300.393 425.383C300.587 424.738 300.92 424.154 301.362 423.68C301.804 423.206 302.344 422.857 302.934 422.662C303.316 422.585 303.709 422.647 304.056 422.836C304.404 423.026 304.686 423.334 304.862 423.714C305.097 424.29 304.97 424.707 305.061 424.747C305.151 424.787 305.475 424.41 305.349 423.556C305.25 423.036 304.996 422.568 304.628 422.225C304.118 421.783 303.472 421.576 302.826 421.649C302.046 421.797 301.313 422.164 300.698 422.713C300.083 423.262 299.606 423.976 299.312 424.787C298.48 426.575 298.047 428.556 298.051 430.566C298.051 434.757 299.961 438.748 302.664 439.682C303.169 439.852 303.703 439.897 304.226 439.815C304.749 439.733 305.249 439.524 305.691 439.205C306.34 438.709 306.34 438.232 306.34 438.192Z" fill="#EB996E"/>
<path d="M302.736 351.125C304.893 350.428 307.196 350.52 309.301 351.386C311.406 352.253 313.2 353.847 314.413 355.932C312.733 354.529 310.921 353.331 309.007 352.357C306.961 351.707 304.86 351.295 302.736 351.125Z" fill="#263238"/>
<path d="M314.107 338.654C314.45 338.654 313.927 343.043 314.576 348.247C315.136 351.375 316.025 354.421 317.225 357.323C317.225 357.323 316.432 356.588 315.639 355.039C314.621 352.977 313.95 350.73 313.657 348.406C313.132 345.16 313.286 341.825 314.107 338.654Z" fill="#263238"/>
<path d="M391.756 409.116C391.648 408.878 392.458 408.143 393.99 407.468C398.056 405.735 402.57 405.785 406.604 407.607C408.118 408.322 408.929 409.057 408.821 409.295C408.586 409.851 404.946 408.282 400.279 408.282C395.612 408.282 391.972 409.732 391.756 409.116Z" fill="#263238"/>
<path d="M349.589 404.788C349.481 404.55 350.291 403.835 351.823 403.14C353.84 402.281 355.987 401.856 358.148 401.888C360.319 401.888 362.469 402.36 364.473 403.279C365.987 403.994 366.78 404.728 366.69 404.987C366.6 405.245 362.815 403.974 358.13 403.954C353.445 403.934 349.841 405.344 349.589 404.788Z" fill="#263238"/>
<path d="M388.493 412.454C388.534 412.863 388.534 413.276 388.493 413.685C388.493 414.559 388.493 415.671 388.583 417.042C388.673 418.412 388.583 420.259 388.691 422.245C388.624 424.537 388.929 426.824 389.592 428.997C390.462 431.817 391.965 434.347 393.964 436.351C395.962 438.355 398.389 439.768 401.017 440.456C402.525 440.863 404.081 441.01 405.63 440.893C407.242 440.814 408.83 440.445 410.334 439.801C413.539 438.477 416.27 436.046 418.118 432.87C419.867 429.837 420.747 426.293 420.641 422.702C420.641 419.147 420.641 415.731 420.641 412.454L421.073 412.93L397.647 412.692L390.854 412.553H389.052H388.385C389.157 412.459 389.933 412.419 390.71 412.434L397.395 412.295L421.073 412.057H421.668V412.553C421.668 415.83 421.668 419.246 421.668 422.801C421.789 426.589 420.865 430.328 419.019 433.525C417.06 436.888 414.164 439.459 410.766 440.854C409.17 441.53 407.483 441.912 405.774 441.986C404.145 442.092 402.511 441.925 400.927 441.489C398.17 440.755 395.632 439.251 393.555 437.122C391.478 434.994 389.934 432.312 389.07 429.335C388.423 427.063 388.154 424.681 388.277 422.304C388.277 420.318 388.277 418.471 388.367 416.962C388.457 415.453 388.367 414.519 388.457 413.645C388.44 413.248 388.452 412.849 388.493 412.454Z" fill="#263238"/>
<path d="M344.327 411.42C344.327 411.42 344.327 411.877 344.327 412.651V416.008C344.327 417.477 344.327 419.225 344.417 421.231C344.37 423.522 344.675 425.805 345.318 427.983C346.148 430.598 347.511 432.969 349.301 434.914C351.368 437.128 353.939 438.686 356.743 439.423C359.843 440.246 363.097 440.017 366.077 438.767C369.274 437.445 371.998 435.021 373.844 431.856C375.6 428.825 376.485 425.282 376.385 421.688C376.385 418.133 376.385 414.697 376.385 411.42L376.817 411.897L353.391 411.658L346.616 411.539H344.814H344.147C344.913 411.445 345.683 411.405 346.453 411.42L353.139 411.301L376.817 411.062H377.25V411.539C377.25 414.816 377.25 418.252 377.25 421.807C377.358 425.596 376.429 429.333 374.583 432.531C372.624 435.882 369.736 438.445 366.348 439.84C364.751 440.514 363.065 440.896 361.356 440.972C359.721 441.078 358.08 440.911 356.491 440.475C353.546 439.676 350.855 438.008 348.706 435.649C346.847 433.591 345.452 431.081 344.633 428.321C343.986 426.049 343.718 423.667 343.841 421.29C343.841 419.304 343.841 417.457 343.949 415.948C344.057 414.439 343.949 413.505 343.949 412.631C344.014 412.208 344.142 411.799 344.327 411.42Z" fill="#263238"/>
<path d="M388.89 413.903C384.769 414.592 380.577 414.592 376.456 413.903C380.575 413.188 384.771 413.188 388.89 413.903Z" fill="#263238"/>
<path d="M309.944 414.161C315.673 413.634 321.424 413.442 327.171 413.585C332.923 413.405 338.679 413.557 344.417 414.041C338.689 414.592 332.937 414.785 327.189 414.617C321.438 414.82 315.68 414.667 309.944 414.161Z" fill="#263238"/>
<path d="M495.316 788.94C499.366 797.222 505.499 804.041 512.979 808.575C520.459 813.109 528.968 815.166 537.483 814.499C547.544 813.723 557.063 809.19 564.47 801.647C571.878 794.104 576.73 784.004 578.226 773.012L588.678 641.161L546.818 629.762L529.717 733.034C529.717 733.034 520.779 776.309 495.316 788.94Z" fill="#FFBE9D"/>
<path d="M546.439 639.313L547.827 616.176C547.827 616.176 553.756 564.262 553.756 559.178C553.756 553.339 556.296 551.909 558.261 552.068C561.306 552.287 563.468 556.437 563.667 561.462C563.667 563.19 563.522 590.636 563.522 590.636C564.962 588.043 566.57 585.567 568.334 583.229C571.938 578.085 580.659 575.146 589.543 575.463C598.427 575.781 600.86 576.734 600.914 580.528C600.883 581.252 600.704 581.96 600.393 582.6C600.081 583.239 599.643 583.793 599.112 584.222C597.472 585.728 595.389 586.519 593.255 586.446C579.038 586.168 575.235 594.529 575.235 594.529L575.055 597.567C575.055 597.567 583.687 590.756 590.57 593.595C591.587 594.01 592.519 594.645 593.309 595.462C595.248 595.471 597.15 596.038 598.828 597.107C600.506 598.175 601.902 599.709 602.876 601.556C603.851 603.403 604.37 605.498 604.383 607.634C604.396 609.77 603.902 611.873 602.95 613.734C602.58 614.688 601.953 615.495 601.154 616.045C600.355 616.596 599.422 616.863 598.481 616.812C597.528 616.497 596.665 615.915 595.976 615.124C595.573 614.746 595.145 614.401 594.697 614.091L593.111 622.492C593.111 622.492 588.624 641.16 587.507 649.541" fill="#FFBE9D"/>
<path d="M550.53 637.506C553.125 638.301 555.81 636.196 557.215 633.653C558.621 631.111 559.215 628.113 560.441 625.451C564.153 617.507 573.055 613.734 576.46 605.591C576.929 604.459 577.181 602.91 576.28 602.156C575.379 601.401 574.262 602.017 573.343 602.573L549.917 616.872" fill="#FFBE9D"/>
<path d="M549.898 616.833C550.628 616.12 551.432 615.506 552.295 615.006C553.881 613.913 556.205 612.404 559.089 610.557L569.27 604.142L572.207 602.315C573.302 601.361 574.695 600.925 576.081 601.104C576.51 601.256 576.886 601.549 577.159 601.943C577.433 602.336 577.591 602.813 577.613 603.308C577.66 604.124 577.53 604.941 577.235 605.691C576.693 607.016 576.016 608.269 575.217 609.425C571.973 614.072 567.774 616.992 564.747 620.388C563.275 621.925 562.023 623.699 561.035 625.651C560.152 627.478 559.593 629.384 558.908 631.112C558.488 632.554 557.786 633.877 556.852 634.989C555.918 636.101 554.775 636.973 553.502 637.547C551.574 638.182 550.493 637.547 550.565 637.428C551.499 637.459 552.429 637.291 553.304 636.931C554.431 636.297 555.426 635.412 556.227 634.331C557.027 633.251 557.615 631.999 557.953 630.655C558.53 628.731 559.198 626.842 559.954 624.995C560.948 622.881 562.244 620.956 563.792 619.295C566.891 615.721 571 612.722 574.027 608.412C574.74 607.371 575.345 606.246 575.829 605.056C576.28 603.924 576.208 602.792 575.631 602.673C575.054 602.553 573.919 603.09 572.928 603.705L569.937 605.493L559.611 611.689C556.656 613.417 554.205 614.767 552.583 615.661C551.743 616.189 550.839 616.584 549.898 616.833Z" fill="#EB996E"/>
<path d="M574.73 597.787C574.889 595.907 575.451 594.097 576.37 592.504C577.437 590.87 578.954 589.658 580.695 589.048C582.875 588.258 585.156 587.856 587.452 587.857C589.809 587.882 592.163 587.656 594.48 587.181C596.421 586.745 598.224 585.751 599.706 584.302C600.198 583.801 600.581 583.183 600.824 582.494C601.068 581.806 601.166 581.066 601.111 580.33C601.085 579.788 600.923 579.266 600.643 578.82C600.553 578.82 600.643 579.396 600.733 580.35C600.724 581.015 600.585 581.671 600.323 582.271C600.062 582.871 599.685 583.401 599.219 583.825C597.779 585.075 596.084 585.92 594.282 586.288C592.013 586.699 589.715 586.885 587.416 586.844C585.035 586.815 582.665 587.224 580.406 588.055C578.517 588.78 576.9 590.178 575.811 592.027C575.106 593.272 574.696 594.693 574.622 596.158C574.52 596.701 574.557 597.265 574.73 597.787Z" fill="#EB996E"/>
<path d="M563.54 559.516C563.387 561.332 563.387 563.161 563.54 564.977C563.54 568.711 563.54 573.179 563.666 578.105C563.792 583.03 563.666 587.498 563.666 591.232C563.558 593.053 563.594 594.88 563.774 596.694C564.168 594.912 564.368 593.085 564.369 591.252C564.585 587.896 564.729 583.308 564.711 578.105C564.693 572.901 564.513 568.294 564.296 564.937C564.221 563.105 563.968 561.288 563.54 559.516Z" fill="#EB996E"/>
<path d="M580.352 603.884C580.856 603.75 581.341 603.543 581.794 603.268C582.381 602.937 583.026 602.748 583.685 602.714C584.344 602.679 585.001 602.801 585.614 603.069C585.991 603.295 586.308 603.623 586.535 604.023C586.763 604.423 586.892 604.882 586.912 605.353C586.969 606.538 586.891 607.725 586.677 608.888C586.379 610.35 586.592 611.881 587.272 613.178C587.703 613.844 588.27 614.389 588.927 614.769C589.585 615.149 590.314 615.352 591.056 615.363C591.786 615.357 592.507 615.189 593.176 614.868C593.845 614.547 594.448 614.08 594.949 613.496C595.888 612.457 596.517 611.126 596.751 609.683C597.033 607.347 597.003 604.978 596.66 602.652C596.474 601.079 596.041 599.554 595.381 598.144C594.877 597.151 594.408 596.774 594.372 596.813C594.336 596.853 594.66 597.35 595.039 598.323C595.533 599.751 595.843 601.248 595.958 602.771C596.194 605.01 596.164 607.274 595.868 609.504C595.638 610.767 595.044 611.914 594.173 612.773C593.302 613.633 592.203 614.158 591.038 614.27C590.452 614.266 589.875 614.112 589.352 613.819C588.83 613.526 588.377 613.102 588.029 612.582C587.484 611.493 587.312 610.225 587.542 609.007C587.743 607.756 587.792 606.48 587.687 605.214C587.634 604.609 587.441 604.03 587.125 603.532C586.809 603.035 586.382 602.636 585.885 602.374C585.184 602.08 584.429 601.974 583.684 602.063C582.938 602.153 582.223 602.437 581.596 602.891C580.749 603.447 580.244 603.744 580.352 603.884Z" fill="#EB996E"/>
<path d="M594.534 612.662C594.408 613.18 594.46 613.732 594.679 614.211C594.932 614.892 595.324 615.501 595.824 615.99C596.323 616.478 596.918 616.835 597.562 617.031C598.533 617.261 599.541 617.21 600.488 616.883C601.435 616.555 602.29 615.963 602.968 615.164C604.592 613.197 605.464 610.614 605.401 607.955C605.401 605.328 604.657 602.766 603.274 600.627C602.145 598.882 600.607 597.509 598.823 596.655C597.653 596.073 596.393 595.743 595.111 595.682C594.21 595.682 593.724 595.682 593.724 595.84C595.387 596.077 597.008 596.586 598.535 597.35C600.135 598.226 601.511 599.53 602.535 601.143C603.733 603.146 604.361 605.497 604.337 607.896C604.397 610.277 603.652 612.599 602.247 614.41C601.676 615.122 600.949 615.663 600.136 615.979C599.322 616.295 598.448 616.377 597.598 616.217C597.031 616.077 596.497 615.804 596.034 615.417C595.571 615.03 595.188 614.537 594.913 613.973C594.661 613.218 594.661 612.662 594.534 612.662Z" fill="#EB996E"/>
<path d="M577.416 631.013C576.642 630.743 575.811 630.743 575.037 631.013C573.009 631.502 571.184 632.717 569.847 634.468L570.676 634.746C570.567 633.517 570.386 632.296 570.136 631.092C569.418 626.822 567.641 622.856 565 619.633C566.765 623.358 568.166 627.279 569.181 631.33C569.433 632.562 569.613 633.753 569.739 634.865L569.883 636.097L570.586 635.124C571.781 633.5 573.377 632.293 575.181 631.648C576.533 631.191 577.416 631.152 577.416 631.013Z" fill="#EB996E"/>
<path d="M577.866 584.322C577.631 584.441 578.586 586.308 580.785 587.44C582.983 588.572 584.929 587.917 584.839 587.639C584.749 587.36 583.037 587.38 581.235 586.447C579.433 585.513 578.1 584.123 577.866 584.322Z" fill="#EB996E"/>
<path d="M539.231 654.289L591.832 658.44C591.832 658.44 583.741 761.017 582.173 776.925C580.605 792.832 571.361 816.823 539.231 816.823C507.102 816.823 501.119 804.768 486.829 779.943C503.678 767.074 530.437 728.645 530.437 728.645L539.231 654.289Z" fill="#FF9500"/>
<path d="M564.026 668.092C563.756 668.957 563.431 669.799 563.053 670.614L560.116 677.446L549.736 701.059L549.214 700.364L562.855 695.896L576.712 691.407L577.721 691.09L577.235 692.103L566.423 715.239L563.233 721.893C562.88 722.705 562.464 723.483 561.99 724.216C562.266 723.367 562.591 722.537 562.963 721.734C563.72 720.026 564.765 717.762 565.918 714.961L576.388 691.666L576.911 692.361L563.071 696.889L549.412 701.298L548.421 701.615L548.889 700.603L559.647 677.227C560.963 674.467 562.026 672.203 562.819 670.515C563.159 669.671 563.563 668.861 564.026 668.092Z" fill="#E0E0E0"/>
<path d="M559.053 766.756C558.246 766.947 557.427 767.066 556.603 767.114L549.755 767.769L526.077 769.755L526.365 768.901L536.745 779.625L547.25 790.548L548.007 791.343H546.962L523.41 792.773L516.598 793.09C515.783 793.168 514.963 793.168 514.147 793.09C514.95 792.915 515.763 792.809 516.58 792.773L523.374 792.157L546.908 790.37L546.638 791.224L536.096 780.32L525.752 769.556L524.995 768.782H526.023L549.719 767.213L556.585 766.836C557.404 766.74 558.23 766.713 559.053 766.756Z" fill="#E0E0E0"/>
<path d="M652.703 400.318L599.057 379.088L546.006 400.04C539.231 403.555 533.284 405.68 533.284 412.631V447.307C533.159 471.662 539.193 495.574 550.709 516.36C562.217 537.337 579.269 553.934 599.58 563.925C621.204 556.16 637.422 535.426 647.423 517.711C658.971 496.934 665.037 473.022 664.938 448.657V417.477C664.938 407.547 660.145 402.701 652.703 400.318Z" fill="#FF9500"/>
<g opacity="0.3">
<path d="M599.58 543.746C583.485 535.746 569.996 522.509 560.927 505.813C551.797 489.386 546.998 470.482 547.069 451.218V426.989C547.069 421.468 550.097 416.304 556.079 413.226L599.075 395.511V379.166L546.006 400.039C540.438 402.72 533.284 405.679 533.284 412.63V447.306C533.159 471.661 539.193 495.572 550.709 516.359C562.217 537.336 579.269 553.933 599.58 563.924V543.746Z" fill="black"/>
</g>
<g opacity="0.4">
<path d="M599.58 563.865C603.219 562.555 606.747 560.893 610.121 558.9C618.42 553.726 625.965 547.205 632.502 539.556C638.414 532.538 643.616 524.834 648.017 516.578C659.701 495.649 665.583 471.413 664.938 446.85V418.231C664.938 403.972 658.271 402.919 652.685 400.238L599.039 379.008V395.353L642.539 413.366C648.522 416.444 651.549 421.608 651.549 427.109V451.437C651.621 470.695 646.822 489.593 637.692 506.013C628.818 522.631 615.491 535.813 599.544 543.747L599.58 563.865Z" fill="black"/>
</g>
<path opacity="0.5" d="M613.293 449.67V444.983C613.293 440.911 611.825 437.006 609.213 434.127C606.601 431.248 603.058 429.631 599.364 429.631C595.669 429.631 592.126 431.248 589.514 434.127C586.902 437.006 585.434 440.911 585.434 444.983V449.749C583.591 450.053 581.907 451.077 580.69 452.633C579.474 454.189 578.804 456.175 578.803 458.229V485.835C578.803 488.11 579.623 490.292 581.083 491.901C582.543 493.51 584.523 494.414 586.587 494.414H612.68C614.745 494.414 616.725 493.51 618.185 491.901C619.645 490.292 620.465 488.11 620.465 485.835V458.229C620.467 456.07 619.729 453.989 618.399 452.402C617.07 450.815 615.247 449.84 613.293 449.67ZM603.148 478.943H596.336L597.399 473.521C596.654 472.986 596.086 472.2 595.779 471.28C595.472 470.36 595.443 469.356 595.696 468.416C595.949 467.476 596.471 466.652 597.184 466.066C597.897 465.48 598.762 465.163 599.652 465.163C600.541 465.163 601.407 465.48 602.12 466.066C602.833 466.652 603.354 467.476 603.608 468.416C603.861 469.356 603.832 470.36 603.525 471.28C603.218 472.2 602.65 472.986 601.904 473.521C602.373 475.547 603.148 478.943 603.148 478.943ZM610.356 449.63H588.443V444.983C588.558 441.873 589.76 438.932 591.797 436.776C593.834 434.621 596.548 433.417 599.373 433.417C602.197 433.417 604.911 434.621 606.948 436.776C608.986 438.932 610.187 441.873 610.302 444.983L610.356 449.63Z" fill="white"/>
<path d="M555.773 449.333C555.304 447.779 555.031 446.162 554.962 444.527C554.561 440.617 554.416 436.682 554.529 432.75C554.529 430.446 554.728 428.261 554.908 426.275C554.997 424.464 555.407 422.69 556.115 421.052C556.622 419.93 557.444 419.018 558.458 418.45C559.197 418.073 559.647 418.093 559.647 418.152C558.353 418.807 557.311 419.947 556.71 421.37C556.134 422.958 555.817 424.645 555.773 426.355C555.629 428.341 555.52 430.505 555.466 432.789C555.34 437.337 555.466 441.468 555.629 444.467C555.792 446.082 555.84 447.709 555.773 449.333Z" fill="white"/>
<path d="M556.548 464.406C556.296 464.406 556.062 462.996 556.026 461.229C555.99 459.461 556.188 458.031 556.44 458.031C556.692 458.031 556.927 459.441 556.963 461.209C556.999 462.976 556.819 464.406 556.548 464.406Z" fill="white"/>
<path d="M503.335 645.906L443.526 808.917H335.677V816.285H656.919L722.638 645.906H503.335Z" fill="#263238"/>
<path d="M594.768 742.147C592.606 750.349 586.299 755.532 580.677 753.745C575.055 751.958 572.261 743.815 574.424 735.613C576.586 727.411 582.911 722.227 588.534 724.015C594.156 725.802 596.949 733.945 594.768 742.147Z" fill="#FAFAFA"/>
</svg>

