<svg width="282" height="511" viewBox="0 0 282 511" fill="none" xmlns="http://www.w3.org/2000/svg">
<path d="M180.835 70.39C195.35 86.5084 198.306 127.991 180.413 155.891C165.259 179.511 130.074 184.01 114.946 169.928C98.9085 154.967 101.264 130.731 112.988 118.936C125.083 106.774 139.597 110.041 146.931 99.1979C150.438 94.0107 151.743 83.0796 156.632 75.0937C162.149 66.2139 173.412 62.1111 180.835 70.39Z" fill="#263238"/>
<path d="M167.499 67.3286C169.111 66.6399 170.635 56.3535 164.734 51.4593C158.834 46.5652 151.27 52.1627 154.495 60.5882C156.453 65.9073 164.107 68.7792 167.499 67.3286Z" fill="#263238"/>
<path d="M153.189 82.4941C152.13 86.2534 150.799 89.9049 149.209 93.4107C147.617 96.9949 145.369 100.144 142.617 102.642C141.159 103.802 139.541 104.674 137.83 105.221C136.167 105.836 134.503 106.349 132.852 106.877C129.546 107.868 126.286 109.052 123.086 110.423C119.913 111.757 116.902 113.549 114.126 115.757C111.354 117.986 109.014 120.847 107.252 124.16C105.49 127.473 104.344 131.167 103.887 135.011C103.386 138.891 103.288 142.826 103.593 146.733C103.045 142.823 102.937 138.849 103.273 134.908C103.638 130.922 104.709 127.063 106.421 123.567C108.17 120.064 110.558 117.035 113.423 114.687C116.273 112.371 119.37 110.48 122.638 109.06C125.889 107.703 129.2 106.544 132.557 105.587C134.221 105.074 135.872 104.576 137.498 104.005C139.107 103.499 140.642 102.723 142.054 101.704C144.777 99.3989 147.03 96.4442 148.658 93.0443C150.39 89.6578 151.904 86.1318 153.189 82.4941Z" fill="#263238"/>
<path d="M183.612 73.9941C187.828 80.9774 191.079 88.6628 193.25 96.7796C195.48 104.937 196.348 113.502 195.81 122.027C195.499 126.292 194.738 130.499 193.544 134.555C193.276 135.581 192.917 136.563 192.572 137.559C192.226 138.555 191.893 139.552 191.458 140.49C191.023 141.427 190.652 142.424 190.178 143.42L188.732 146.16C184.687 153.293 179.47 159.458 173.373 164.315C174.743 162.85 176.189 161.605 177.507 160.139C178.825 158.674 180.182 157.209 181.347 155.626C183.823 152.542 186.015 149.173 187.887 145.574C191.695 138.385 193.983 130.276 194.568 121.895C195.135 113.542 194.367 105.14 192.303 97.102C191.314 93.0551 190.087 89.0896 188.63 85.233C187.194 81.3544 185.517 77.5985 183.612 73.9941Z" fill="#263238"/>
<path d="M156.478 50.8574C154.737 52.5269 153.538 54.8186 153.073 57.3634C152.84 58.5503 152.883 59.7865 153.198 60.9486C153.512 62.1107 154.087 63.1581 154.865 63.9865C156.525 65.6769 158.556 66.8168 160.74 67.2835C161.848 67.5504 162.974 67.7073 164.106 67.7524C165.25 67.8533 166.4 67.7092 167.498 67.3274C166.46 67.9791 165.312 68.3688 164.132 68.4704C162.946 68.6315 161.747 68.6315 160.561 68.4704C158.118 68.1653 155.819 66.9977 153.982 65.1295C153.046 64.1438 152.374 62.8743 152.043 61.4684C151.712 60.0626 151.737 58.5781 152.113 57.1875C152.423 55.846 152.97 54.5917 153.721 53.5027C154.471 52.4137 155.41 51.5133 156.478 50.8574Z" fill="#263238"/>
<path d="M164.887 121.501C160.344 155.686 134.003 225.288 130.023 234.227C127.322 240.293 99.0104 224.658 101.391 220.863C104.424 215.984 134.861 154.836 149.375 132.71C157.387 120.504 165.822 114.438 164.887 121.501Z" fill="#F7A9A0"/>
<path d="M101.993 219.895C98.6906 224.877 93.5197 239.105 92.3294 243.852C91.1391 248.6 88.6049 262.564 91.7535 264.029C94.902 265.495 95.862 261.421 95.862 261.421C95.862 261.421 95.606 267.502 98.8185 268.601C102.031 269.7 103.465 263.385 103.465 263.385C103.465 263.385 103.593 269.656 106.869 270.477C110.146 271.297 110.709 264.616 110.709 264.616C110.709 264.616 110.594 270.36 113.537 269.744C117.096 268.997 116.251 258.388 117.902 253.259C118.286 252.087 126.977 230.269 126.977 230.269L101.993 219.895Z" fill="#F7A9A0"/>
<path d="M110.005 264.806C109.404 257.011 110.325 253.48 113.41 246.622C113.41 246.49 113.308 246.358 113.231 246.49C109.685 252.879 107.97 257.128 109.673 264.865C109.762 265.246 110.031 265.187 110.005 264.806Z" fill="#263238"/>
<path d="M102.927 263.561C102.927 255.384 103.887 251.545 106.651 244.087C106.651 243.984 106.549 243.896 106.498 243.999C103.247 251.047 101.621 255.326 102.569 263.487C102.607 263.854 102.927 263.927 102.927 263.561Z" fill="#263238"/>
<path d="M95.4272 260.603C95.9135 252.69 96.8223 248.426 100.316 241.554C100.327 241.523 100.327 241.489 100.319 241.458C100.31 241.427 100.293 241.4 100.269 241.381C100.246 241.363 100.217 241.354 100.189 241.356C100.16 241.358 100.133 241.371 100.112 241.392C96.3455 246.787 94.5846 253.661 95.2096 260.529C95.248 261.101 95.3888 261.101 95.4272 260.603Z" fill="#263238"/>
<path d="M131.841 227.543C131.841 227.543 131.457 237.346 130.445 241.61C129.434 245.874 120.616 260.19 117.8 258.183C114.178 255.589 117.8 246.167 120.181 241.83C120.181 241.83 111.784 235.837 113.154 228.423C114.523 221.008 131.841 227.543 131.841 227.543Z" fill="#F7A9A0"/>
<path d="M117.007 257.099C115.189 252 118.568 246.519 120.552 242.109C120.584 242.045 120.602 241.973 120.604 241.9C120.606 241.827 120.593 241.754 120.565 241.687C120.538 241.621 120.496 241.563 120.445 241.519C120.394 241.475 120.334 241.446 120.27 241.435C116.904 238.651 112.847 233.61 112.924 228.584C112.924 228.553 112.913 228.523 112.894 228.501C112.875 228.479 112.848 228.467 112.821 228.467C112.794 228.467 112.768 228.479 112.749 228.501C112.73 228.523 112.719 228.553 112.719 228.584C112.002 233.947 115.637 239.281 119.502 242.065C117.403 246.549 114.229 252.205 116.943 257.128C116.981 257.143 117.019 257.128 117.007 257.099Z" fill="#263238"/>
<path d="M130.394 159.73C130.394 159.73 134.694 162.265 139.686 165.284C146.213 169.196 153.931 173.914 154.75 174.72C154.75 174.72 163.108 143.876 164.989 130.087C166.871 116.299 165.13 113.602 156.35 121.911C152.114 125.94 145.919 134.893 140.658 143.084C134.988 151.847 130.394 159.73 130.394 159.73Z" fill="#FFC100"/>
<path d="M130.394 159.73C130.394 159.73 134.694 162.265 139.686 165.284C146.213 169.196 153.931 173.914 154.75 174.72C154.75 174.72 163.108 143.876 164.989 130.087C166.871 116.299 165.13 113.602 156.35 121.911C152.114 125.94 145.919 134.893 140.658 143.084C134.988 151.847 130.394 159.73 130.394 159.73Z" fill="#FFC100"/>
<path d="M164.964 130.087C163.108 143.875 154.725 174.72 154.725 174.72C153.906 173.914 146.188 169.196 139.66 165.284L136.051 163.115C132.762 161.137 130.368 159.73 130.368 159.73C130.368 159.73 134.963 151.847 140.607 143.084C145.868 134.893 152.063 125.94 156.299 121.911L157.221 121.061C165.22 113.807 166.756 116.797 164.964 130.087Z" fill="#FFC100"/>
<path d="M164.964 130.087C163.108 143.875 154.725 174.72 154.725 174.72C153.906 173.914 146.188 169.196 139.66 165.284L136.051 163.115C132.762 161.137 130.368 159.73 130.368 159.73C130.368 159.73 134.963 151.847 140.607 143.084C145.868 134.893 152.063 125.94 156.299 121.911L157.221 121.061C165.22 113.807 166.756 116.797 164.964 130.087Z" fill="#FFC100"/>
<path d="M164.964 130.087C163.108 143.875 154.725 174.72 154.725 174.72C153.905 173.914 146.188 169.196 139.66 165.284L136.051 163.115C141.234 152.667 150.949 133.457 157.22 121.061C165.22 113.807 166.756 116.797 164.964 130.087Z" fill="#263238"/>
<path d="M155.839 167.834C148.69 163.132 141.329 158.867 133.786 155.057C133.696 155.057 133.645 155.174 133.786 155.218C135.616 156.156 147.378 163.629 155.826 168.01C155.864 168.054 155.928 167.893 155.839 167.834Z" fill="#263238"/>
<path d="M165.643 114.569C165.835 115.887 170.826 124.752 176.061 124.826C177.763 124.826 178.288 114.217 178.288 114.217L178.493 113.44L181.232 102.582L170.391 93.4975L168.817 92.2812C168.817 92.2812 168.241 95.3144 167.537 99.0803C167.537 99.2561 167.473 99.4319 167.447 99.6224C167.422 99.8129 167.358 100.033 167.319 100.238C167.217 100.795 167.102 101.381 166.999 101.952C166.897 102.524 166.846 102.817 166.782 103.271C166.718 103.725 166.641 104.18 166.564 104.648C166.058 107.927 165.75 111.241 165.643 114.569Z" fill="#F7A9A0"/>
<path d="M167.55 99.051C168.355 102.21 169.751 105.131 171.64 107.61C173.53 110.09 175.868 112.069 178.493 113.411L181.232 102.553L170.391 93.4682L168.817 92.252C168.817 92.252 168.241 95.2851 167.55 99.051Z" fill="#263238"/>
<path d="M193.737 83.6215C197.756 102.89 188.207 108.004 184.483 108.81C181.155 109.543 169.866 112.283 164.132 93.5855C158.398 74.8882 164.952 66.6532 172.388 64.1476C179.824 61.6419 189.718 64.3381 193.737 83.6215Z" fill="#F7A9A0"/>
<path d="M192.035 79.6806C191.625 79.6806 191.241 79.6806 190.832 79.6806C190.411 79.7225 189.989 79.6096 189.628 79.3582C189.528 79.2526 189.462 79.1108 189.441 78.9564C189.42 78.802 189.445 78.644 189.513 78.5084C189.673 78.2568 189.89 78.0598 190.14 77.9384C190.39 77.8171 190.665 77.776 190.934 77.8197C191.493 77.802 192.037 78.0271 192.457 78.4498C192.53 78.5544 192.578 78.6794 192.596 78.8121C192.614 78.9448 192.6 79.0804 192.557 79.2053C192.515 79.3302 192.444 79.44 192.352 79.5234C192.26 79.6069 192.151 79.6611 192.035 79.6806Z" fill="#263238"/>
<path d="M181.104 82.4634C181.484 82.3215 181.855 82.1552 182.218 81.9652C182.632 81.8525 183.002 81.5843 183.267 81.2032C183.329 81.0648 183.35 80.9071 183.327 80.7539C183.304 80.6006 183.238 80.46 183.139 80.3534C182.915 80.1808 182.655 80.0792 182.385 80.0586C182.116 80.038 181.846 80.0993 181.604 80.2362C181.068 80.4304 180.613 80.8421 180.324 81.3937C180.267 81.5261 180.244 81.6747 180.26 81.8213C180.275 81.968 180.327 82.1064 180.41 82.2197C180.492 82.3331 180.602 82.4164 180.725 82.4597C180.849 82.503 180.98 82.5042 181.104 82.4634Z" fill="#263238"/>
<path d="M184.317 86.8027C184.317 86.8027 184.24 86.8027 184.317 86.9346C184.573 88.2534 184.675 89.8652 183.689 90.4806C183.689 90.4806 183.689 90.5686 183.689 90.5539C184.893 90.0704 184.739 88.0043 184.317 86.8027Z" fill="#263238"/>
<path d="M183.049 85.6436C181.168 85.878 181.769 90.186 183.484 90.0395C185.2 89.893 184.636 85.4384 183.049 85.6436Z" fill="#263238"/>
<path d="M182.345 85.9961C182.051 86.2891 181.782 86.7727 181.385 86.8899C180.989 87.0071 180.541 86.6262 180.182 86.2452H180.118C180.221 87.0804 180.605 87.8717 181.398 87.8717C182.192 87.8717 182.524 87.0364 182.601 86.1866C182.627 86.084 182.46 85.8789 182.345 85.9961Z" fill="#263238"/>
<path d="M190.486 84.9844C190.486 84.9844 190.588 84.9844 190.588 85.087C190.716 86.4204 191.062 88.0176 192.175 88.208V88.2813C190.857 88.2813 190.422 86.2738 190.486 84.9844Z" fill="#263238"/>
<path d="M191.356 83.4167C193.211 82.9478 193.915 87.2265 192.175 87.6661C190.434 88.1057 189.794 83.7977 191.356 83.4167Z" fill="#263238"/>
<path d="M192.175 83.5334C192.508 83.6946 192.866 84.0463 193.225 84.0023C193.583 83.9583 193.877 83.4162 194.057 82.918C194.057 82.918 194.057 82.918 194.133 82.918C194.274 83.7239 194.133 84.6324 193.519 84.9401C192.905 85.2478 192.341 84.6031 192.034 83.8265C191.983 83.7972 192.047 83.4602 192.175 83.5334Z" fill="#263238"/>
<path d="M185.647 97.1023C185.954 97.3807 186.274 97.791 186.71 97.7763C187.161 97.7188 187.597 97.5542 187.99 97.2928C187.99 97.2928 188.066 97.2928 187.99 97.2928C187.847 97.578 187.64 97.8134 187.39 97.9735C187.139 98.1336 186.855 98.2123 186.569 98.2013C186.325 98.1533 186.098 98.0253 185.917 97.8328C185.735 97.6404 185.606 97.3917 185.545 97.1169C185.545 97.1169 185.596 97.0583 185.647 97.1023Z" fill="#263238"/>
<path d="M189.834 91.3889C189.834 91.3889 190.358 93.3378 190.486 94.3195C190.486 94.4075 190.307 94.4807 190.025 94.554C189.344 94.833 188.608 94.8918 187.899 94.7238C187.19 94.5557 186.535 94.1675 186.007 93.6016C185.994 93.584 185.986 93.562 185.985 93.5391C185.985 93.5161 185.991 93.4935 186.002 93.4749C186.014 93.4563 186.031 93.4428 186.051 93.4366C186.07 93.4303 186.09 93.4317 186.109 93.4404C187.271 94.0605 188.576 94.2401 189.834 93.9532C189.834 93.6748 188.835 90.6563 188.963 90.6123C189.61 90.5624 190.26 90.6117 190.896 90.7589C189.91 86.6707 188.336 82.7876 187.44 78.7141C187.44 78.5675 187.594 78.4796 187.645 78.6115C189.414 82.7061 190.824 86.991 191.856 91.4036C191.971 91.8872 190.179 91.4915 189.834 91.3889Z" fill="#263238"/>
<path d="M189.859 93.8058C189.552 94.6827 189.054 95.4547 188.412 96.0477C188.044 96.3689 187.595 96.5438 187.132 96.5459C186.147 96.5459 185.853 95.6082 185.853 94.729C185.828 94.2375 185.862 93.7444 185.955 93.2637C187.17 93.9239 188.54 94.1142 189.859 93.8058Z" fill="#263238"/>
<path d="M188.412 96.0488C188.044 96.3699 187.595 96.5448 187.132 96.547C186.147 96.547 185.853 95.6092 185.853 94.73C186.347 94.5884 186.868 94.6415 187.332 94.8808C187.797 95.1201 188.177 95.5315 188.412 96.0488Z" fill="#FF9BBC"/>
<path d="M164.414 92.9417C166.27 92.5168 170.43 85.8203 169.29 75.446C169.29 75.446 169.751 84.8386 169.29 86.3039C168.83 87.7692 171.607 82.538 170.801 74.1565C173.332 75.6673 176.039 76.7577 178.838 77.3948C182.409 77.937 184.521 77.556 184.726 77.2336C184.931 76.9113 179.606 75.9002 178.045 74.303C178.045 74.303 187.811 77.6879 192.124 77.3802C192.623 77.3802 191.778 65.7457 184.649 61.9212C177.52 58.0968 167.819 65.0423 165.451 68.559C165.451 68.559 162.251 69.6287 159.384 75.7244C156.517 81.82 162.417 93.4106 164.414 92.9417Z" fill="#263238"/>
<path d="M167.269 93.8783C167.269 93.8783 162.738 88.3834 160.511 90.3323C158.284 92.2811 162.251 100.589 165.259 101.381C165.638 101.504 166.035 101.538 166.426 101.482C166.817 101.425 167.194 101.279 167.535 101.052C167.875 100.825 168.172 100.522 168.408 100.16C168.644 99.7988 168.813 99.3865 168.907 98.9482L167.269 93.8783Z" fill="#F7A9A0"/>
<path d="M70.2388 421.521C70.738 421.242 140.903 381.65 152.511 356.74C173.259 312.194 180.477 255.253 183.088 241.874C188.461 226.461 192.112 210.332 193.955 193.871H137.408C137.408 193.871 122.574 226.357 130.228 249.304C130.919 251.414 117.647 323.521 111.157 332.064C103.939 341.544 48.5828 373.356 47.6484 373.898L70.2388 421.521Z" fill="#37474F"/>
<path d="M167.563 202.106C164.773 218.459 161.598 234.739 158.399 250.989C155.199 267.239 151.833 283.226 148.287 299.241C146.495 307.33 144.652 315.394 142.758 323.434C141.03 330.76 139.341 338.262 134.989 344.168C130.637 350.073 125.083 354.132 119.758 358.352C114.127 362.748 108.341 367.012 102.454 371.012C90.5763 379.1 78.3276 386.442 66.0277 393.636L61.5096 396.259C61.1768 396.45 61.5096 397.021 61.8168 396.831C74.2831 389.739 86.7238 382.5 98.7805 374.529C104.813 370.553 110.735 366.382 116.546 362.015C119.4 359.861 122.216 357.619 125.006 355.363C127.632 353.274 130.157 351.023 132.57 348.622C134.94 346.239 136.97 343.445 138.586 340.343C140.139 337.122 141.358 333.704 142.221 330.159C144.281 322.379 145.996 314.451 147.775 306.583C151.462 290.318 154.875 273.984 158.015 257.583C161.202 241.186 164.158 224.731 166.731 208.187C167.051 206.18 167.358 204.172 167.691 202.165C167.768 202.018 167.576 201.96 167.563 202.106Z" fill="#263238"/>
<path d="M193.954 193.872C192.111 210.333 188.46 226.461 183.087 241.875C182.818 243.223 182.511 245.011 182.153 247.194C182.063 247.722 181.974 248.264 181.871 248.82C181.769 249.377 181.628 250.286 181.487 251.121C181.347 251.956 181.244 252.586 181.116 253.378L180.847 254.945C180.681 255.986 180.489 257.085 180.297 258.213C180.22 258.667 180.143 259.136 180.054 259.59C179.913 260.455 179.747 261.349 179.593 262.257C178.94 265.921 178.211 269.921 177.392 274.185C177.033 275.987 176.662 277.863 176.265 279.768C175.869 281.673 175.472 283.621 174.985 285.629C174.806 286.479 174.614 287.329 174.422 288.179C173.45 292.575 172.362 297.249 171.171 301.952C170.915 302.993 170.647 304.033 170.378 305.088C169.166 309.728 167.852 314.437 166.436 319.214C166.077 320.401 165.706 321.588 165.348 322.789C164.605 325.163 163.833 327.546 163.031 329.94L142.092 193.872C155.748 193.842 193.966 193.842 193.954 193.872Z" fill="#263238"/>
<path d="M28.181 385.431C25.6212 386.896 23.1894 388.479 20.8088 389.974L16.4827 392.714C7.52333 398.428 0.765418 403.088 0.675825 404.29C0.381446 407.953 32.7375 480.764 34.6062 482.888C36.4748 485.013 41.8377 479.02 42.58 475.034C43.0024 472.617 42.58 459.019 42.2472 448.732C41.9912 442.124 41.7737 436.878 41.7737 436.878L49.3251 432.746L83.7674 413.975L62.009 365.342C62.009 365.342 44.4999 375.394 28.181 385.431Z" fill="white"/>
<path d="M75.8955 422.122C75.0252 420.774 52.1788 369.107 52.1788 369.107C52.1788 369.107 1.34091 399.293 0.0354051 403.908C-1.2701 408.524 33.953 484.588 35.4377 485.365C36.9223 486.141 42.7587 480.969 44.4738 473.1C45.7537 467.385 44.1282 439.046 44.1282 439.046L75.8955 422.122Z" fill="#FFC100"/>
<path d="M47.2129 441.112C47.0977 435.632 45.2034 429.39 41.1717 426.122C41.0181 426.005 40.8645 426.254 40.9413 426.415C43.293 431.108 45.2023 436.074 46.6369 441.229C46.6575 441.309 46.7029 441.377 46.7645 441.42C46.826 441.464 46.8994 441.48 46.9706 441.465C47.0418 441.451 47.1059 441.407 47.1505 441.342C47.1952 441.276 47.2174 441.195 47.2129 441.112Z" fill="#455A64"/>
<path d="M50.6944 439.075C50.5792 433.595 48.6722 427.353 44.6405 424.085C44.4869 423.968 44.3333 424.217 44.4101 424.378C46.7722 429.065 48.682 434.032 50.1057 439.192C50.133 439.265 50.1809 439.325 50.2416 439.363C50.3024 439.4 50.3724 439.413 50.4405 439.4C50.5085 439.386 50.5706 439.347 50.6167 439.288C50.6628 439.229 50.6901 439.154 50.6944 439.075Z" fill="#455A64"/>
<path d="M54.1621 437.038C54.0469 431.558 52.1398 425.316 48.1209 422.048C47.9673 421.931 47.8137 422.18 47.8905 422.341C50.2433 427.031 52.1486 431.998 53.5733 437.155C53.6006 437.228 53.6485 437.288 53.7093 437.325C53.77 437.363 53.8401 437.376 53.9081 437.363C53.9762 437.349 54.0383 437.31 54.0843 437.251C54.1304 437.192 54.1578 437.117 54.1621 437.038Z" fill="#455A64"/>
<path d="M57.6446 435.002C57.5166 429.522 55.6224 423.28 51.5907 420.012C51.4371 419.88 51.2835 420.144 51.3603 420.305C53.712 424.998 55.6212 429.964 57.0559 435.12C57.0832 435.192 57.131 435.252 57.1918 435.29C57.2525 435.328 57.3226 435.341 57.3907 435.327C57.4587 435.314 57.5208 435.274 57.5669 435.215C57.613 435.156 57.6403 435.081 57.6446 435.002Z" fill="#455A64"/>
<path d="M61.1124 432.965C60.9972 427.485 59.0902 421.243 55.0713 417.975C54.9049 417.843 54.7513 418.107 54.8409 418.268C57.1937 422.959 59.0989 427.925 60.5237 433.082C60.551 433.155 60.5989 433.215 60.6596 433.253C60.7203 433.29 60.7904 433.304 60.8585 433.29C60.9265 433.276 60.9886 433.237 61.0347 433.178C61.0808 433.119 61.1081 433.044 61.1124 432.965Z" fill="#455A64"/>
<path d="M160.254 251.795C160.254 251.795 165.092 304.311 167.345 330.745C167.921 337.324 168.305 342.306 168.446 344.431C168.446 345.281 168.522 358.996 168.548 376.946C168.548 392.684 168.548 411.645 168.548 427.983V439.705C168.548 454.769 168.548 465.495 168.548 465.495H215.175C215.175 465.495 215.175 464.996 215.175 464.029C215.175 463.531 215.175 462.916 215.175 462.183C215.175 461.45 215.175 460.571 215.175 459.575C215.175 459.003 215.175 458.373 215.175 457.728C215.175 453.23 215.316 447.002 215.405 439.749C215.405 436.027 215.495 432.056 215.546 427.895C215.905 395.57 216.199 352.153 215.393 339.361C215.29 337.896 215.201 336.357 215.111 334.789C213.012 298.582 211.847 245.875 196.335 193.783H137.331C137.331 193.783 137.843 224.379 150.002 246.534C153.502 248.067 156.925 249.824 160.254 251.795Z" fill="#37474F"/>
<path d="M204.155 355.904C203.925 339.024 203.323 322.202 202.171 305.322C201.019 288.441 199.253 272.089 196.898 255.589C194.642 238.988 191.5 222.561 187.49 206.399C186.979 204.377 186.454 202.355 185.916 200.347C185.909 200.319 185.898 200.293 185.882 200.27C185.867 200.248 185.848 200.229 185.826 200.214C185.804 200.2 185.779 200.191 185.754 200.187C185.729 200.184 185.704 200.186 185.679 200.193C185.655 200.201 185.632 200.214 185.612 200.232C185.592 200.25 185.576 200.272 185.563 200.297C185.551 200.322 185.543 200.35 185.54 200.379C185.536 200.408 185.538 200.437 185.545 200.465C189.321 216.583 192.572 232.95 195.042 249.464C197.512 265.978 199.138 282.785 200.366 299.548C201.595 316.312 202.286 333.25 202.657 350.087C203.029 366.923 203.054 383.789 202.913 400.625C202.773 417.461 202.197 434.327 202.158 451.12C202.158 453.23 202.158 455.34 202.158 457.45C202.158 457.596 202.35 457.582 202.35 457.45C202.619 449.009 203.054 440.569 203.297 432.115C203.541 423.66 203.758 415.19 203.937 406.721C204.219 389.782 204.385 372.843 204.155 355.904Z" fill="#263238"/>
<path d="M168.151 255.956C165.245 254.139 162.263 252.498 159.191 251.003C156.12 249.509 153.01 248.161 149.976 246.607C149.861 246.607 149.759 246.739 149.874 246.813C152.869 248.571 155.8 250.461 158.833 252.132C161.805 253.771 164.871 255.176 168.01 256.337C168.228 256.41 168.33 256.059 168.151 255.956Z" fill="#263238"/>
<path d="M168.664 471.649C168.664 474.902 168.766 478.126 168.843 481.233C168.843 483.167 168.945 485.057 168.996 486.874C169.342 498.596 169.905 507.623 170.788 508.267C173.502 510.231 244.856 510.48 247.352 509.542C249.848 508.604 247.659 500.384 244.895 497.82C243.218 496.281 232.48 490.493 224.314 486.171C219.066 483.401 214.881 481.247 214.881 481.247L215.111 471.664L216.225 427.998H168.459C168.459 427.998 168.356 450.461 168.664 471.649Z" fill="white"/>
<path d="M218.951 439.75C217.505 440.028 166.923 439.75 166.923 439.75C166.923 439.75 167.204 505.308 170.199 508.736C173.194 512.165 248.389 510.978 249.656 509.835C250.923 508.693 249.566 500.355 244.242 495.021C240.402 491.153 217.62 479.855 217.62 479.855L218.951 439.75Z" fill="#FFC100"/>
<path d="M220.64 477.641C216.327 475.253 210.58 474.33 206.228 476.967C206.062 477.07 206.228 477.334 206.344 477.334C211.053 477.075 215.773 477.394 220.423 478.286C220.497 478.319 220.58 478.317 220.654 478.28C220.727 478.243 220.784 478.174 220.813 478.088C220.842 478.003 220.84 477.908 220.807 477.824C220.775 477.74 220.715 477.674 220.64 477.641Z" fill="#455A64"/>
<path d="M220.64 473.173C216.327 470.784 210.58 469.861 206.228 472.499C206.062 472.601 206.228 472.865 206.344 472.865C211.053 472.606 215.773 472.926 220.423 473.817C220.497 473.85 220.58 473.848 220.654 473.811C220.727 473.774 220.784 473.705 220.813 473.62C220.842 473.534 220.84 473.439 220.807 473.355C220.775 473.271 220.715 473.206 220.64 473.173Z" fill="#455A64"/>
<path d="M220.64 468.704C216.327 466.315 210.58 465.392 206.228 468.03C206.062 468.132 206.228 468.396 206.344 468.396C211.053 468.137 215.773 468.457 220.423 469.349C220.497 469.382 220.58 469.379 220.654 469.342C220.727 469.305 220.784 469.236 220.813 469.151C220.842 469.065 220.84 468.97 220.807 468.886C220.775 468.803 220.715 468.737 220.64 468.704Z" fill="#455A64"/>
<path d="M220.64 464.235C216.327 461.847 210.58 460.924 206.228 463.561C206.062 463.664 206.228 463.927 206.344 463.927C211.053 463.669 215.773 463.988 220.423 464.88C220.497 464.913 220.58 464.911 220.654 464.874C220.727 464.836 220.784 464.768 220.813 464.682C220.842 464.597 220.84 464.501 220.807 464.418C220.775 464.334 220.715 464.268 220.64 464.235Z" fill="#455A64"/>
<path d="M220.64 459.766C216.327 457.378 210.58 456.455 206.228 459.092C206.062 459.195 206.228 459.459 206.344 459.459C211.053 459.2 215.773 459.519 220.423 460.411C220.497 460.444 220.58 460.442 220.654 460.405C220.727 460.368 220.784 460.299 220.813 460.213C220.842 460.128 220.84 460.033 220.807 459.949C220.775 459.865 220.715 459.799 220.64 459.766Z" fill="#455A64"/>
<path d="M197.883 175.833L203.093 216.862C203.093 216.862 141.363 217.843 126.861 216.686C126.861 216.686 142.015 139.977 157.579 120.606C165.387 110.906 174.538 111.638 180.374 118.408C181.846 120.122 199.458 146.776 201.314 156.96C202.965 165.942 197.883 175.833 197.883 175.833Z" fill="#FFC100"/>
<path d="M169.905 131.831C178.66 133.296 229.958 129.824 239.02 117.632C250.027 102.877 263.338 73.9077 266.704 64.6177C268.906 58.4487 243.436 42.6381 242.002 48.4993C239.762 57.6721 219.949 92.3266 218.413 95.389C216.878 98.4515 194.095 107.419 180.823 115.009C168.919 121.808 163.736 130.761 169.905 131.831Z" fill="#F7A9A0"/>
<path d="M241.708 49.8174C241.708 49.8174 244.601 37.6261 246.828 29.7574C248.108 25.3615 250.783 18.035 252.984 15.3241C256.273 11.2066 272.311 -3.57828 275.523 0.802979C278.441 4.7593 263.249 15.456 263.249 15.456C263.249 15.456 277.75 3.10351 280.476 8.61305C283.203 14.1226 264.644 23.6031 264.644 23.6031C264.644 23.6031 279.798 11.2946 281.833 17.4928C283.369 22.1671 266.973 31.8381 266.973 31.8381C266.973 31.8381 280.054 21.3612 281.82 26.0941C283.779 31.3253 269.124 41.3333 269.124 41.3333C271.85 54.2426 268.535 61.6571 265.629 66.6098C264.913 67.7967 241.708 49.8174 241.708 49.8174Z" fill="#F7A9A0"/>
<path d="M257.976 19.324C259.639 17.8587 261.303 16.2469 263.095 14.9281C264.887 13.6094 266.679 12.3052 268.548 11.1476C270.975 9.58409 273.552 8.34511 276.227 7.45508C271.753 9.67772 267.468 12.3708 263.428 15.4996C261.662 16.833 259.844 18.0785 258.078 19.4266C257.976 19.4706 257.937 19.3973 257.976 19.324Z" fill="#263238"/>
<path d="M262.109 26.7675C264.298 24.9212 266.409 23.0163 268.675 21.2872C270.94 19.5582 273.193 18.1662 275.535 16.6276C275.727 16.5104 275.714 16.6276 275.535 16.7888C273.244 18.4299 271.235 20.1443 268.969 21.8148C266.704 23.4852 264.362 25.0677 262.147 26.8261C262.109 26.8554 262.083 26.7968 262.109 26.7675Z" fill="#263238"/>
<path d="M264.657 33.846C267.96 30.9369 271.516 28.423 275.267 26.3436C275.446 26.2411 275.421 26.4316 275.267 26.5634C271.696 28.9812 268.868 30.8421 264.772 33.9779C264.682 33.9779 264.541 33.9779 264.657 33.846Z" fill="#263238"/>
<path d="M205.575 98.627L218.042 129.501C218.042 129.501 187.17 138.967 172.375 136.696C161.687 135.054 162.046 125.325 176.777 115.287C188.412 107.36 205.575 98.627 205.575 98.627Z" fill="#FFC100"/>
<path d="M212.372 129.793C209.132 120.239 205.445 110.891 201.326 101.792C201.326 101.674 201.134 101.792 201.185 101.879C202.184 104.092 207.675 119.595 212.205 129.881C212.257 129.999 212.41 129.911 212.372 129.793Z" fill="#263238"/>
<path d="M191.765 135.714C186.927 136.52 182.307 138.645 177.686 140.344C177.665 140.357 177.648 140.378 177.638 140.404C177.629 140.43 177.628 140.459 177.636 140.486C177.644 140.512 177.66 140.535 177.681 140.549C177.702 140.564 177.726 140.569 177.75 140.564C179.529 139.978 181.347 139.451 183.164 138.908C182.332 139.48 181.526 140.095 180.694 140.652C180.579 140.652 180.694 140.916 180.797 140.843C182.076 140.007 183.356 139.377 184.636 138.454C187.068 137.755 189.457 136.879 191.791 135.831C191.791 135.831 191.842 135.699 191.765 135.714Z" fill="#263238"/>
</svg>


