<svg width="303" height="262" viewBox="0 0 303 262" fill="none" xmlns="http://www.w3.org/2000/svg">
<path d="M176.35 216.262C160.343 225.119 141.9 229.81 123.086 229.81C104.272 229.81 85.8297 225.119 69.8221 216.262C51.0789 205.881 36.6259 190.306 28.6552 171.9C20.6845 153.494 19.6309 133.261 25.6542 114.271C31.6776 95.2798 44.4492 78.5669 62.0322 66.6667C79.6151 54.7665 101.05 48.3281 123.086 48.3281C145.122 48.3281 166.557 54.7665 184.14 66.6667C201.723 78.5669 214.495 95.2798 220.518 114.271C226.542 133.261 225.488 153.494 217.517 171.9C209.546 190.306 195.094 205.881 176.35 216.262Z" fill="white"/>
<path d="M118.99 118.117C156.563 137.923 205.747 150.778 217.96 143.857C230.173 136.936 249.66 80.9871 248.125 67.6986C247.491 61.9587 203.962 58.8944 199.624 63.6627C195.286 68.431 190.648 102.362 188.296 105.516C186.627 107.788 148.171 102.302 124.112 100.135C108.763 98.73 99.1693 107.669 118.99 118.117Z" fill="#FFF0F3"/>
<path d="M247.642 75.2766C249.126 69.5367 254.315 39.8506 253.581 32.1526C252.847 24.4545 249.093 2.43658 242.47 2.2572C235.846 2.07783 236.363 8.65481 236.363 8.65481C236.363 8.65481 233.126 -0.41843 226.436 0.0150522C219.746 0.448535 220.947 10.4784 220.947 10.4784C220.947 10.4784 216.859 1.39024 210.219 2.22731C203.579 3.06438 206.699 13.0793 206.699 13.0793C206.699 13.0793 203.362 4.60399 198.257 7.36931C192.067 10.6877 200.125 25.6952 200.192 34.2751C200.192 36.2183 197.306 73.6324 197.306 73.6324L247.642 75.2766Z" fill="#FFF0F3"/>
<path d="M206.532 12.3621C212.438 23.4085 212.888 29.1484 211.32 41.1214C211.32 41.3606 211.67 41.4503 211.72 41.2111C214.457 29.6117 215.057 22.3322 207.116 12.0781C206.648 11.5699 206.165 11.824 206.532 12.3621Z" fill="#263238"/>
<path d="M220.462 9.79022C225.468 21.7484 226.018 27.9815 225.468 40.6273C225.468 40.6709 225.487 40.7127 225.521 40.7435C225.556 40.7744 225.602 40.7917 225.651 40.7917C225.7 40.7917 225.747 40.7744 225.781 40.7435C225.815 40.7127 225.835 40.6709 225.835 40.6273C227.587 28.2655 228.004 20.986 221.247 9.6258C220.863 9.10263 220.229 9.20726 220.462 9.79022Z" fill="#263238"/>
<path d="M236.312 9.35708C240.233 21.3152 241.167 28.0566 238.798 40.2689C238.783 40.3283 238.794 40.3909 238.83 40.4427C238.866 40.4946 238.924 40.5315 238.99 40.5454C239.056 40.5593 239.126 40.549 239.184 40.5167C239.242 40.4845 239.283 40.433 239.299 40.3735C243.053 28.1314 241.968 19.6261 236.729 9.29729C236.379 8.5798 236.062 8.6097 236.312 9.35708Z" fill="#263238"/>
<path d="M196.155 81.3753C196.155 81.3753 186.027 68.9987 182.924 62.6758C179.821 56.3529 177.919 28.9987 184.476 28.2961C192.968 27.3843 197.539 42.9748 198.657 50.8821C198.657 50.8821 218.294 48.7595 224.284 59.3275C230.274 69.8955 196.155 81.3753 196.155 81.3753Z" fill="#FFF0F3"/>
<path d="M186.894 28.729C195.236 32.8994 196.037 43.3628 197.772 50.9562C197.794 51.0681 197.845 51.1737 197.922 51.2643C197.998 51.355 198.097 51.4282 198.211 51.4778C198.325 51.5274 198.451 51.5521 198.577 51.5497C198.704 51.5474 198.828 51.5182 198.94 51.4644C207.282 51.0608 219.061 52.6602 224.45 58.9383C224.481 58.9724 224.526 58.995 224.574 59.0018C224.623 59.0085 224.673 58.999 224.714 58.9749C224.755 58.9509 224.785 58.914 224.798 58.8714C224.811 58.8288 224.806 58.7834 224.784 58.7439C220.012 51.3897 208.534 48.9682 199.491 49.9248C197.822 42.1072 196.588 31.6438 186.944 28.729C186.878 28.6393 186.844 28.6991 186.894 28.729Z" fill="#263238"/>
<path d="M177.167 147.982L187.428 103.139C187.428 103.139 148.354 97.3545 124.379 97.6983C100.404 98.0421 92.4785 106.323 122.577 122.437C140.179 131.936 158.409 140.466 177.167 147.982Z" fill="#F35B04"/>
<path d="M177.735 103.827C175.71 109.996 173.864 116.214 172.196 122.482C171.378 125.561 170.527 128.64 169.743 131.75C168.959 134.859 168.425 138.207 167.624 141.406C167.624 141.63 167.958 141.735 168.024 141.51C168.909 138.446 170.027 135.427 170.944 132.362C171.862 129.298 172.613 126.01 173.53 122.841C175.21 116.563 176.717 110.25 178.052 103.902C178.054 103.867 178.043 103.833 178.021 103.805C177.998 103.776 177.965 103.756 177.928 103.747C177.89 103.738 177.85 103.741 177.815 103.756C177.78 103.771 177.751 103.796 177.735 103.827Z" fill="#263238"/>
<path d="M168.459 220.105C162.052 223.011 155.311 225.282 148.354 226.876L146.919 227.205C146.018 227.414 145.084 227.594 144.183 227.773C130.083 230.517 115.489 230.517 101.388 227.773C100.02 227.504 98.6522 227.205 97.3008 226.876C89.1876 224.983 81.3733 222.181 74.0431 218.535C73.4592 218.266 72.8919 217.982 72.3747 217.668C71.4737 217.205 70.5728 216.712 69.6552 216.174C65.9095 214.095 62.3203 211.798 58.9106 209.298C58.4935 209.029 58.0931 208.73 57.6927 208.416C54.2714 205.834 51.0443 203.053 48.0326 200.09L47.1316 199.208C45.4298 197.484 43.8003 195.705 42.2432 193.872C42.5101 192.885 42.7937 191.899 43.0607 190.882C43.1608 190.598 43.2275 190.299 43.3109 190.015C44.0951 187.295 44.9794 184.529 45.8136 181.674C45.897 181.375 46.0138 181.091 46.0972 180.778C46.9648 178.072 47.8824 175.277 48.9001 172.482C48.978 172.183 49.0781 171.884 49.2004 171.585C50.1848 168.849 51.2192 166.054 52.3204 163.244C52.4205 162.975 52.554 162.676 52.6707 162.377C53.7719 159.627 54.9064 156.846 56.1244 154.051C56.2412 153.782 56.3579 153.498 56.4914 153.214C57.7094 150.434 59.0107 147.683 60.3621 144.903C60.4956 144.589 60.6457 144.305 60.7959 144.006C62.1807 141.211 63.6322 138.446 65.1505 135.68C65.2839 135.411 65.4341 135.127 65.5843 134.873C67.1414 132.063 68.7709 129.288 70.4727 126.547C70.5405 126.413 70.6186 126.283 70.7063 126.159L71.0399 125.636C72.8085 122.825 74.6604 120.045 76.6125 117.34C76.8127 117.041 77.0295 116.742 77.2464 116.443C79.2986 113.603 81.4675 110.822 83.7199 108.132C83.8787 107.909 84.0514 107.695 84.2371 107.489L84.454 107.25C86.4394 104.888 88.5249 102.571 90.6772 100.359C91.1941 99.8269 91.7516 99.3275 92.3456 98.8643L92.5959 98.6849C92.8962 98.4756 93.1798 98.2813 93.5135 98.087C93.568 98.0436 93.63 98.0083 93.697 97.9824C103.908 91.8837 123.361 94.3351 125.847 97.5788C125.959 97.7062 126.059 97.8411 126.148 97.9824L126.481 98.4158C128.54 101.245 130.412 104.18 132.087 107.205C133.756 110.045 135.257 113.184 136.792 116.398C138.177 119.313 139.512 122.377 140.83 125.561C140.83 125.725 140.963 125.875 141.013 126.024C141.092 126.168 141.153 126.318 141.197 126.473C142.431 129.462 143.633 132.452 144.817 135.651C145.818 138.386 146.836 141.166 147.787 143.976C147.887 144.29 148.004 144.559 148.104 144.873C149.105 147.758 150.089 150.688 151.024 153.618C151.058 153.769 151.103 153.919 151.157 154.066C152.075 156.846 152.926 159.627 153.777 162.392C153.777 162.646 153.893 162.87 153.977 163.109C154.844 165.964 155.645 168.804 156.463 171.6L156.73 172.497C157.53 175.292 158.298 178.072 159.032 180.792C159.032 180.882 159.032 180.957 159.032 181.032C159.032 181.106 159.149 181.465 159.199 181.689C159.966 184.529 160.7 187.31 161.401 190.03C162.202 193.199 162.969 196.278 163.67 199.223C163.754 199.537 163.82 199.821 163.887 200.105C164.605 203.094 165.289 205.964 165.906 208.685C165.906 208.894 165.906 209.103 166.039 209.313C166.757 212.497 167.391 215.441 167.941 218.087C167.941 218.236 167.941 218.371 168.025 218.505L168.459 220.105Z" fill="#FDD073" fill-opacity="0.9"/>
<path opacity="0.1" d="M97.3013 226.876C98.6528 227.204 100.021 227.503 101.389 227.772H144.184C145.085 227.593 146.019 227.414 146.92 227.204L148.355 226.876H97.3013ZM168.159 218.116C168.159 217.967 168.075 217.817 168.042 217.668H72.3085C72.8925 217.982 73.4597 218.266 73.977 218.535H168.159C168.159 218.4 168.159 218.266 168.159 218.116ZM166.123 208.714C166.09 208.631 166.062 208.546 166.04 208.46H57.6265C58.0269 208.774 58.4273 209.073 58.8444 209.342H166.173C166.123 209.133 166.073 208.923 166.04 208.714H166.123ZM163.888 199.252H47.0988L47.9998 200.134H164.055C163.954 199.85 163.888 199.626 163.804 199.252H163.888ZM40.8423 199.252C40.8267 199.404 40.7931 199.555 40.7422 199.701C40.7422 199.551 40.7422 199.402 40.859 199.252H40.8423ZM161.485 190.059H43.2281C43.2281 190.343 43.0779 190.642 42.9945 190.926H161.735L161.485 190.059ZM159.116 181.091C159.116 181.016 159.116 180.941 159.116 180.852H46.0311C45.9476 181.166 45.8308 181.45 45.7474 181.748H159.35C159.283 181.509 159.233 181.3 159.166 181.061L159.116 181.091ZM156.48 171.629H49.151C49.025 171.922 48.9192 172.221 48.834 172.526H156.797L156.48 171.629ZM153.994 163.139C153.911 162.899 153.861 162.675 153.794 162.421H52.6213C52.5045 162.72 52.371 163.019 52.2542 163.288H154.027C154.025 163.238 154.031 163.188 154.044 163.139H153.994ZM151.041 153.647L150.891 153.213H56.4753C56.3418 153.497 56.225 153.781 56.0916 154.05H151.191C151.15 153.918 151.116 153.783 151.091 153.647H151.041ZM147.804 144.006H60.7798C60.6297 144.305 60.4795 144.589 60.346 144.902H148.138C148.138 144.589 147.954 144.32 147.854 144.006H147.804ZM144.467 134.813H65.6015C65.4514 135.067 65.3012 135.351 65.1677 135.62H144.918C144.772 135.358 144.644 135.088 144.534 134.813H144.467ZM141.014 126.039C141.014 125.889 140.897 125.74 140.83 125.575H71.0572L70.7402 126.098C70.6525 126.223 70.5745 126.353 70.5067 126.487H141.264C141.22 126.332 141.159 126.182 141.08 126.039H141.014ZM136.793 116.412H77.247C77.0468 116.711 76.8299 117.01 76.6464 117.309H137.243C137.126 116.995 136.976 116.696 136.859 116.412H136.793ZM132.071 107.19H84.488L84.2711 107.429C84.0854 107.634 83.9127 107.849 83.7538 108.071H132.605C132.438 107.772 132.288 107.474 132.138 107.19H132.071ZM126.465 98.4003L126.132 97.9668H93.7309C93.6639 97.9927 93.602 98.028 93.5474 98.0714C93.2137 98.2657 92.9301 98.4601 92.6298 98.6693L92.3795 98.8487H126.849C126.73 98.7071 126.624 98.5572 126.532 98.4003H126.465Z" fill="black"/>
<path d="M123.961 121.554C116.086 122.825 103.373 111.539 98.6015 102.66C98.2845 102.062 99.6693 95.8739 100.937 88.2805C101.705 83.6766 102.422 78.5197 102.706 73.7812L135.457 82.5854C133.21 88.4199 131.77 94.479 131.169 100.627C131.148 101.282 131.187 101.937 131.286 102.585C131.296 102.69 131.296 102.795 131.286 102.899C131.77 106.636 131.569 120.313 123.961 121.554Z" fill="#FFF0F3"/>
<path d="M131.336 102.899C131.336 103.109 131.336 103.333 131.336 103.587C111.432 99.8201 105.292 90.7917 101.771 82.4808C102.172 79.566 102.506 76.6064 102.656 73.7812L135.407 82.5705C133.162 88.4097 131.727 94.4742 131.136 100.627C131.098 101.282 131.137 101.938 131.252 102.585C131.265 102.693 131.293 102.798 131.336 102.899Z" fill="#263238"/>
<path d="M95.1982 39.8346C91.5444 50.3727 97.6174 80.8959 105.976 87.6672C118.072 97.5626 137.96 98.579 147.369 85.5446C156.496 72.8989 147.787 33.2278 138.46 27.0394C124.779 17.9363 100.587 24.2591 95.1982 39.8346Z" fill="#FFF0F3"/>
<path d="M123.111 59.1191C123.111 59.1191 122.944 59.2537 122.961 59.3284C123.428 61.3762 123.595 63.8127 121.643 64.7993C121.643 64.7993 121.643 64.9338 121.643 64.9039C124.229 64.1266 123.978 60.9129 123.111 59.1191Z" fill="#263238"/>
<path d="M120.709 57.2189C116.955 57.5328 117.956 64.2144 121.426 63.9154C124.896 63.6165 123.845 56.9498 120.709 57.2189Z" fill="#263238"/>
<path d="M137.459 57.1452C137.459 57.0555 137.66 57.1452 137.676 57.2946C137.91 59.3724 138.561 61.7789 140.763 62.1676C140.763 62.1676 140.763 62.2872 140.763 62.2722C138.127 62.2573 137.309 59.1182 137.459 57.1452Z" fill="#263238"/>
<path d="M139.212 54.7392C142.882 54.0366 144.217 60.7182 140.763 61.3162C137.31 61.9141 136.125 55.3221 139.212 54.7392Z" fill="#263238"/>
<path d="M117.305 54.5144C118.247 54.141 119.166 53.7218 120.058 53.2588C121.096 52.9363 121.988 52.3164 122.594 51.495C122.715 51.2039 122.732 50.8863 122.642 50.5863C122.552 50.2862 122.361 50.0187 122.093 49.8208C121.477 49.5141 120.78 49.362 120.075 49.3804C119.371 49.3988 118.684 49.5871 118.089 49.9255C116.773 50.4396 115.716 51.3712 115.119 52.5413C114.985 52.8159 114.946 53.1202 115.008 53.4148C115.069 53.7094 115.228 53.9807 115.464 54.1934C115.699 54.4061 116.001 54.5504 116.329 54.6077C116.658 54.6649 116.998 54.6324 117.305 54.5144Z" fill="#263238"/>
<path d="M141.597 51.0174C140.567 50.9612 139.542 50.8514 138.527 50.6885C137.426 50.7154 136.349 50.4042 135.474 49.8066C135.247 49.5694 135.109 49.2746 135.079 48.9636C135.049 48.6527 135.129 48.3411 135.307 48.0727C135.768 47.5993 136.363 47.2456 137.029 47.0484C137.695 46.8512 138.408 46.8178 139.094 46.9516C140.524 47.0125 141.879 47.5449 142.898 48.4464C143.149 48.6604 143.319 48.9389 143.385 49.2435C143.451 49.5481 143.41 49.8635 143.267 50.1461C143.124 50.4286 142.886 50.6643 142.587 50.8204C142.288 50.9766 141.941 51.0454 141.597 51.0174Z" fill="#263238"/>
<path d="M127.048 71.4949C127.755 72.243 128.627 72.8522 129.608 73.2843C130.59 73.7165 131.661 73.9622 132.754 74.0061C133.712 74.0586 134.674 73.983 135.607 73.7819C135.789 73.7579 135.968 73.7178 136.141 73.6623L136.625 73.5278C136.744 73.4926 136.846 73.4243 136.919 73.3328C136.991 73.2413 137.028 73.1315 137.025 73.0196C137.036 72.9502 137.036 72.8797 137.025 72.8103V72.6309C136.825 71.0315 136.291 68.6399 136.291 68.6399C136.992 68.8491 140.496 69.7908 140.329 68.9687C138.844 62.1227 137.192 54.5293 134.106 48.042C134.088 47.9949 134.05 47.9558 134.001 47.9326C133.952 47.9094 133.895 47.9039 133.842 47.9174C133.788 47.9308 133.743 47.962 133.714 48.0046C133.686 48.0473 133.676 48.0981 133.688 48.1466C134.823 54.7684 137.259 61.166 138.51 67.8028C137.262 67.4526 135.964 67.2614 134.656 67.2348C134.406 67.3245 135.774 71.8686 135.791 72.5861C135.801 72.6101 135.801 72.6367 135.791 72.6608C132.854 73.3633 130.485 72.8252 127.315 71.3753C127.031 71.181 126.881 71.3454 127.048 71.4949Z" fill="#263238"/>
<path d="M134.206 73.1834C133.449 74.3346 132.375 75.292 131.086 75.9637C130.371 76.3052 129.553 76.436 128.75 76.3374C126.982 76.1281 126.748 74.7379 126.898 73.4973C126.994 72.8449 127.168 72.2035 127.415 71.584C129.428 72.7577 131.809 73.3186 134.206 73.1834Z" fill="#263238"/>
<path d="M131.086 75.9638C130.371 76.3053 129.553 76.4361 128.75 76.3375C126.982 76.1282 126.748 74.7381 126.898 73.4974C127.804 73.4285 128.709 73.6342 129.468 74.0815C130.228 74.5287 130.797 75.1917 131.086 75.9638Z" fill="#FF9CBD"/>
<path opacity="0.2" d="M95.2652 60.7624C97.4007 59.6263 101.021 52.8102 102.623 50.015C104.225 47.2198 102.973 34.2302 102.473 30.3887C99.0744 32.8867 96.5493 36.2074 95.1985 39.9552C93.6301 44.3349 93.847 52.5112 95.2652 60.7624Z" fill="#263238"/>
<path d="M131.57 37.983C130.526 39.4215 129.089 40.5968 127.395 41.3974C125.701 42.198 123.807 42.5972 121.893 42.557C119.944 42.5167 118.038 42.0316 116.356 41.1475C114.675 40.2634 113.273 39.0096 112.283 37.5047C112.283 37.415 112.066 37.5047 112.116 37.5047C113.001 39.1703 114.376 40.5887 116.092 41.6078C117.809 42.6269 119.802 43.2082 121.859 43.2895C123.896 43.2823 125.894 42.7933 127.652 41.872C129.41 40.9507 130.865 39.6297 131.87 38.0428C131.887 37.983 131.67 37.8485 131.57 37.983Z" fill="#263238"/>
<path d="M116.438 14.7237C109.998 15.6056 104.542 19.492 102.757 23.6923C101.759 26.0957 101.706 28.7321 102.606 31.1661C102.606 31.2708 102.873 31.1661 102.84 31.1661C102.389 28.9841 102.601 26.7334 103.456 24.6504C104.31 22.5673 105.774 20.7287 107.695 19.3276C109.78 17.7034 112.259 16.5364 114.935 15.9189C117.61 15.3015 120.41 15.2505 123.111 15.77C125.744 16.23 128.108 17.5118 129.785 19.3874C129.935 19.5817 130.402 19.3874 130.269 19.193C127.966 15.77 122.294 13.9315 116.438 14.7237Z" fill="#263238"/>
<path d="M155.745 22.8855C154.271 20.1587 151.772 17.9838 148.687 16.742C144.416 15.0081 139.995 15.8601 135.607 16.742C135.589 16.749 135.574 16.7605 135.563 16.7751C135.553 16.7897 135.547 16.8068 135.547 16.8243C135.547 16.8417 135.553 16.8588 135.563 16.8734C135.574 16.888 135.589 16.8995 135.607 16.9065C139.328 16.1441 143.165 15.5462 146.869 16.742C149.935 17.7068 152.535 19.5922 154.226 22.0784C155.871 24.6457 156.427 27.658 155.792 30.5628C155.158 33.4677 153.376 36.0702 150.773 37.893C149.247 38.9096 147.505 39.6357 145.655 40.0264C143.804 40.4171 141.883 40.4643 140.012 40.1651C139.861 40.1651 139.795 40.3295 140.012 40.3594C143.39 40.9903 146.909 40.4958 149.91 38.9686C152.911 37.4414 155.187 34.9864 156.312 32.0634C157.39 29.0459 157.188 25.778 155.745 22.8855Z" fill="#263238"/>
<path d="M94.0811 46.0086C94.0811 46.0086 86.5065 36.3524 90.7443 29.7904C93.1802 26.0833 102.874 25.4406 102.874 25.4406C104.96 21.7235 108.609 18.9009 113.018 17.5931C120.859 15.037 131.02 18.176 131.02 18.176C131.02 18.176 138.127 13.3928 145.802 16.2627C156.513 20.2538 157.18 34.0355 147.737 39.5512C141.064 43.4227 130.719 38.9085 130.719 38.9085C129.819 39.1177 121.076 45.2762 112.884 38.5348C112.884 38.5348 107.729 43.8113 102.056 41.1506C101.436 42.5906 100.34 43.8269 98.915 44.6949C97.4902 45.5628 95.804 46.0211 94.0811 46.0086Z" fill="#263238"/>
<path d="M102.356 64.7082C102.356 64.7082 94.4808 54.9623 89.5257 57.4884C84.5705 60.0146 90.6268 74.2298 96.5163 76.0983C97.2546 76.3862 98.0503 76.537 98.8555 76.5416C99.6606 76.5462 100.458 76.4045 101.201 76.1251C101.943 75.8457 102.614 75.4343 103.174 74.9159C103.734 74.3974 104.171 73.7827 104.458 73.1087L102.356 64.7082Z" fill="#FFF0F3"/>
<path d="M91.4116 61.5254C91.3894 61.5254 91.3682 61.5333 91.3526 61.5473C91.3369 61.5613 91.3281 61.5803 91.3281 61.6001C91.3281 61.62 91.3369 61.639 91.3526 61.653C91.3682 61.667 91.3894 61.6749 91.4116 61.6749C95.5492 63.1696 97.7849 66.488 99.3532 70.0007C99.1031 69.6316 98.7667 69.3155 98.3671 69.074C97.9676 68.8325 97.5145 68.6714 97.0388 68.6018C96.5632 68.5322 96.0764 68.5558 95.6119 68.6708C95.1473 68.7859 94.7161 68.9897 94.3479 69.2683C94.3314 69.2866 94.3212 69.3089 94.3187 69.3324C94.3163 69.3559 94.3216 69.3795 94.3341 69.4003C94.3466 69.4211 94.3657 69.4381 94.3889 69.4492C94.4122 69.4603 94.4385 69.4649 94.4647 69.4626C95.1833 69.2449 95.9597 69.233 96.6862 69.4286C97.4127 69.6241 98.0532 70.0174 98.519 70.5538C99.2909 71.4563 99.9563 72.4281 100.504 73.4536C100.705 73.7825 101.355 73.5882 101.222 73.2145C101.215 73.1849 101.215 73.1543 101.222 73.1248C101.205 68.4312 97.0174 61.914 91.4116 61.5254Z" fill="#263238"/>
<path d="M77.1629 106.143C41.509 135.845 -4.58926 199.432 2.78512 212.974C10.9937 228.057 60.6456 186.398 60.5789 183.856C60.5789 181.928 79.1817 146.861 93.2464 118.52C107.311 90.1794 85.9721 98.8042 77.1629 106.143Z" fill="#FFF0F3"/>
<path d="M2.78493 212.975C9.99247 223.125 30.8309 225.815 82.5851 236.981C89.7426 238.476 115.536 196.189 107.978 194.186C98.4683 191.66 60.9291 183.723 58.1095 183.439C34.2678 181.152 -2.1202 206.084 2.78493 212.975Z" fill="#FFF0F3"/>
<path d="M90.7937 192.512C90.7937 192.512 111.799 192.287 122.877 195.247C137.709 199.193 148.704 208.072 153.059 212.033C162.152 220.329 177.751 245.994 170.277 251.301C163.603 256.114 149.071 229.148 149.071 229.148C149.071 229.148 168.859 254.47 159.532 258.909C150.206 263.349 135.407 231.211 135.407 231.211C135.407 231.211 155.111 257.624 144.683 260.852C136.792 263.289 121.559 234.843 121.559 234.843C121.559 234.843 138.327 257.654 130.335 260.464C121.509 263.588 105.609 238.117 105.609 238.117C83.9198 242.228 71.7905 236.249 63.682 231.077C61.73 229.821 90.7937 192.512 90.7937 192.512Z" fill="#FFF0F3"/>
<path d="M142.849 220.015C145.285 222.899 147.854 225.829 149.94 228.983C152.025 232.137 154.111 235.216 155.946 238.46C158.405 242.669 160.33 247.111 161.685 251.704C158.632 243.707 151.124 232.571 148.972 229.476C146.82 226.382 144.851 223.228 142.715 220.149C142.649 220 142.782 219.94 142.849 220.015Z" fill="#263238"/>
<path d="M130.269 226.756C133.222 230.582 136.308 234.23 139.061 238.221C141.814 242.212 144.066 246.068 146.452 250.179C146.652 250.493 146.452 250.478 146.185 250.179C143.583 246.188 140.813 242.705 138.144 238.714C135.474 234.723 132.988 230.702 130.169 226.846C130.118 226.756 130.235 226.711 130.269 226.756Z" fill="#263238"/>
<path d="M118.322 230.822C122.999 236.588 127.002 242.769 130.268 249.268C130.435 249.582 130.118 249.537 129.918 249.268C126.08 242.975 123.111 238.132 118.105 231.017C118.105 230.867 118.222 230.703 118.322 230.822Z" fill="#263238"/>
<path d="M28.6793 189.865C38.0341 184.372 49.3149 182.149 60.3791 183.617C60.5126 183.617 60.5126 183.841 60.3791 183.826C48.9171 183.094 33.184 187.877 28.6793 190.045C28.6459 190.104 28.5625 189.94 28.6793 189.865Z" fill="#263238"/>
<path d="M25.9932 147.863L70.3062 170.554C70.3062 170.554 88.6587 139.089 95.7161 118.566C102.773 98.0424 96.5003 88.6702 70.0393 109.343C54.4987 121.371 39.7894 134.234 25.9932 147.863Z" fill="#F35B04"/>
<path d="M72.658 162.123C66.7407 158.476 60.7233 154.988 54.6057 151.66C51.5859 150.001 48.5828 148.297 45.5296 146.682C42.4764 145.068 39.1062 143.543 35.9529 141.884C35.736 141.765 35.5024 142.049 35.7193 142.183C38.6891 143.887 41.5421 145.786 44.5118 147.505C47.4816 149.224 50.7017 150.957 53.8049 152.676C59.9447 156.075 66.1678 159.328 72.4744 162.437C72.658 162.452 72.8415 162.258 72.658 162.123Z" fill="#263238"/>
<path d="M68.4375 169.596C69.1049 169.865 69.7556 170.119 70.4062 170.403L70.1226 170.477C71.3739 167.578 72.7921 164.767 74.1602 161.927C75.5283 159.087 77.0632 156.337 78.5981 153.572C80.1331 150.806 81.6847 148.056 83.3698 145.35C85.0549 142.645 86.7066 139.939 88.5585 137.309C87.374 140.223 86.0226 143.063 84.6211 145.889C83.2196 148.714 81.7681 151.509 80.2666 154.304C78.765 157.099 77.1967 159.82 75.5783 162.555C73.9599 165.291 72.2415 167.996 70.5731 170.642L70.4563 170.806L70.2894 170.717C69.6054 170.358 69.0214 169.969 68.4375 169.596Z" fill="#263238"/>
<path d="M89.4256 142.824C87.5661 145.522 85.0078 147.778 81.9678 149.401C82.8913 148.043 84.0135 146.801 85.3046 145.709C86.5338 144.592 87.919 143.623 89.4256 142.824Z" fill="#263238"/>
<path d="M235.562 241.092C228.099 251.034 213.174 255.033 213.174 255.033C213.174 255.033 200.126 245.97 195.835 233.905C192.259 223.839 196.787 214.487 204.831 213.71C216.383 212.562 216.585 231 216.585 231C216.585 231 222.074 213.657 232.716 218.715C240.108 222.322 241.788 232.802 235.562 241.092Z" fill="#FFE285"/>
<path d="M295.15 85.9787C287.262 93.1904 274.544 94.5628 274.544 94.5628C274.544 94.5628 265.804 85.4326 264.697 74.968C263.759 66.245 269.181 59.1345 275.769 59.5261C285.212 60.1087 281.91 75.272 281.91 75.272C281.91 75.272 289.572 61.6741 297.129 67.2547C302.385 71.1376 301.725 79.9568 295.15 85.9787Z" fill="#FFE285"/>
<path d="M41.1392 102.137C39.0927 113.647 29.2956 122.276 29.2956 122.276C29.2956 122.276 16.2189 118.433 8.65236 108.919C2.33993 100.991 2.40616 90.9799 8.17255 87.5934C16.437 82.7005 23.2725 99.3474 23.2725 99.3474C23.2725 99.3474 21.0934 81.7631 30.9446 82.8333C37.8334 83.6287 42.8729 92.5676 41.1392 102.137Z" fill="#FFE285"/>
</svg>
