<svg width="252" height="342" viewBox="0 0 252 342" fill="none" xmlns="http://www.w3.org/2000/svg">
<path fill-rule="evenodd" clip-rule="evenodd" d="M191.705 42.3573C196.062 36.8355 199.011 30.0685 198.518 22.4859C197.098 0.638254 168.93 5.44446 163.45 16.4713C157.971 27.4981 158.622 55.4685 165.703 57.4393C168.528 58.2253 174.544 56.3 180.667 52.3153L176.824 81.6719H199.518L191.705 42.3573Z" fill="#915B3C"/>
<path fill-rule="evenodd" clip-rule="evenodd" d="M193.449 47.2751C196.297 33.5941 204.411 24.2681 203.172 18.1533C202.346 14.0767 200.144 11.5416 196.566 10.548C194.716 2.46597 188.748 -0.971639 178.662 0.23519C163.534 2.04543 154.3 8.82846 158.288 23.7541C161.953 23.7541 166.378 22.3229 172.497 24.775C174.439 25.553 175.827 27.9658 176.663 32.0132H179.428C182.112 27.21 184.758 25.4449 187.366 26.718C189.975 27.9912 190.568 31.0836 189.145 35.9953L190.507 47.2751H193.449Z" fill="#191847"/>
<path fill-rule="evenodd" clip-rule="evenodd" d="M262.871 209.283H154.129C145.774 209.283 139 216.596 139 225.618V319.54C139 328.561 145.774 335.874 154.129 335.874H262.871C271.226 335.874 278 328.561 278 319.54V225.618C278 216.596 271.226 209.283 262.871 209.283ZM247.741 237.868C249.83 237.868 251.524 239.697 251.524 241.952V303.206C251.524 305.461 249.83 307.289 247.741 307.289H169.259C167.17 307.289 165.476 305.461 165.476 303.206V241.952C165.476 239.697 167.17 237.868 169.259 237.868H247.741Z" fill="#C5CFD6"/>
<path fill-rule="evenodd" clip-rule="evenodd" d="M45.2374 330.771C63.8803 306.192 76.4946 287.97 83.0801 276.106C94.3562 255.791 103.585 237.714 106.498 230.809C113.443 214.343 90.5089 206.633 85.3185 214.313C77.4626 225.938 60.6853 262.517 34.9864 324.051L45.2374 330.771Z" fill="#B28B67"/>
<path fill-rule="evenodd" clip-rule="evenodd" d="M83.4398 323.624L118.135 229.33C125.556 212.141 89.7202 200.843 84.2666 208.842C71.8851 227.003 42.4573 298.647 38.7684 304.057L83.4398 323.624Z" fill="#2F3676"/>
<path fill-rule="evenodd" clip-rule="evenodd" d="M175.845 304.714C169.086 294.07 144.503 258.261 131.114 243.444C127.266 239.186 123.512 235.1 119.961 231.292C109.406 219.972 88.3879 238.998 98.9231 249.308C125.16 274.983 163.441 309.645 166.639 312.735C171.122 317.067 180.093 311.403 175.845 304.714Z" fill="#915B3C"/>
<path fill-rule="evenodd" clip-rule="evenodd" d="M174.266 299.907C176.594 301.976 178.109 303.666 178.81 304.977C179.662 306.571 180.66 309.051 181.804 312.417C180.091 313.484 164.695 323.081 135.617 341.207C132.126 337.671 131.582 334.926 133.985 332.973C136.388 331.019 138.372 329.372 139.935 328.03L155.877 304.316C156.184 303.86 156.775 303.759 157.198 304.09C157.205 304.096 157.212 304.101 157.219 304.107L160.531 306.861C163.57 306.575 165.838 305.965 167.335 305.032C168.551 304.274 169.946 302.697 171.522 300.301C172.127 299.382 173.307 299.165 174.159 299.818C174.196 299.846 174.231 299.876 174.266 299.907Z" fill="#E4E4E4"/>
<path fill-rule="evenodd" clip-rule="evenodd" d="M53.2569 327.097C54.3148 330.146 54.8438 332.427 54.8438 333.941C54.8438 335.782 54.5597 338.468 53.9916 342C52.0135 342 34.236 342 0.659233 342C-0.726685 337.054 0.0733452 334.383 3.05933 333.989C6.04531 333.594 8.52582 333.238 10.5008 332.92L35.2892 320.989C35.7662 320.76 36.3252 320.991 36.5379 321.506C36.5415 321.515 36.545 321.524 36.5484 321.532L38.1418 325.705C40.906 327.098 43.1523 327.794 44.8805 327.794C46.2846 327.794 48.2238 327.182 50.6979 325.957C51.6473 325.487 52.7699 325.937 53.2051 326.963C53.2239 327.007 53.2412 327.052 53.2569 327.097Z" fill="#E4E4E4"/>
<path fill-rule="evenodd" clip-rule="evenodd" d="M130.62 234.041C159.458 228.969 178.773 225.5 188.567 223.636C216.483 218.321 224.624 202.102 219.811 166.715H168.375C161.569 168.837 133.128 181.962 83.0527 206.09C74.0433 210.919 75.7211 225.156 77.3679 229.847C77.4351 230.038 92.6233 258.137 122.933 314.143L165.009 285.203L130.541 237.451C129.631 235.471 129.658 234.335 130.62 234.041Z" fill="#5C63AB"/>
<path fill-rule="evenodd" clip-rule="evenodd" d="M126.915 153.35L96.7525 177.263C88.5718 179.646 81.7372 182.611 76.2485 186.158C74.952 187.434 73.385 190.017 78.762 189.57C84.139 189.124 89.8134 188.915 90.5553 190.896C91.2972 192.876 88.0433 195.244 89.5431 197.915C90.5429 199.696 95.2665 195.23 103.714 184.517L133.582 171.145L126.915 153.35ZM242.723 154.175L222.963 154.259C235.164 196.783 241.75 219.346 242.723 221.948C244.911 227.802 240.281 236.718 238.301 241.51C244.75 244.625 244.062 233.087 252.198 237.173C259.623 240.903 265.271 247.661 273.85 241.946C274.905 241.243 276.061 238.598 273.268 236.53C266.311 231.38 256.285 222.365 254.93 219.398C253.083 215.352 249.014 193.611 242.723 154.175Z" fill="#915B3C"/>
<path fill-rule="evenodd" clip-rule="evenodd" d="M186.568 64.6539L178.391 63.1397C148.054 91.4343 135.593 145.791 98.4071 174.587L107.358 186.565C171.869 177.941 187.858 111.638 186.568 64.6539Z" fill="#E87613"/>
<path fill-rule="evenodd" clip-rule="evenodd" d="M222.212 175.593C189.427 175.593 165.311 175.593 149.864 175.593C146.558 175.593 147.181 170.439 147.659 167.839C153.175 137.824 174.705 105.469 174.705 62.744L195.573 59.2109C212.834 89.1828 218.803 126.084 222.212 175.593Z" fill="#DDE3E9"/>
<path fill-rule="evenodd" clip-rule="evenodd" d="M221.629 88.6726C224.66 87.732 227.06 85.5382 228.829 82.0911C236.457 67.2319 233.702 59.0508 225.551 56.3616C217.4 53.6724 210.13 59.2117 197.143 59.2117C196.437 59.2117 195.79 59.2595 195.202 59.3551L188.669 59.7576C169.926 128.342 164.756 174.1 173.161 197.033H230.104C233.478 205.526 236.706 212.673 239.79 218.471H255.306C256.766 167.495 245.54 124.229 221.629 88.6726Z" fill="#FF9B21"/>
<path fill-rule="evenodd" clip-rule="evenodd" d="M217.705 161.809C215.914 177.986 213.003 189.727 208.973 197.032H230.104C226.169 187.124 222.036 175.383 217.705 161.809Z" fill="black" fill-opacity="0.1"/>
</svg>

