<svg width="277" height="354" viewBox="0 0 277 354" fill="none" xmlns="http://www.w3.org/2000/svg">
<path fill-rule="evenodd" clip-rule="evenodd" d="M115.82 67.0178C111.212 63.8876 107.49 59.5111 106.377 53.7488C103.171 37.1459 126.814 34.3606 133.422 41.3398C140.03 48.3189 145.074 69.311 139.763 72.3804C137.645 73.6045 132.417 73.5296 126.692 71.944L135.632 92.9532L117.355 98.0828L115.82 67.0178Z" fill="#B28B67"/>
<path fill-rule="evenodd" clip-rule="evenodd" d="M122.159 51.2034C125.456 60.7549 128.607 65.1153 131.612 64.2845C136.119 63.0383 139.181 59.1226 141.159 58.5758C142.6 58.1772 142.759 60.0684 142.159 61.6689C141.665 62.9893 138.108 65.1135 138.564 66.8227C139.019 68.5318 141.7 66.3708 141.97 67.3845C142.417 69.0612 143.791 72.0664 140.878 72.8718C137.93 73.687 129.191 74.9508 126.578 70.9802C124.891 68.4177 122.729 62.7391 120.091 53.9446C119.906 53.9728 119.721 54.0122 119.537 54.0633C117.011 54.7617 115.508 57.3735 116.181 59.8969C116.522 61.1779 117.359 62.1899 118.43 62.7845C117.769 64.5694 116.999 66.4561 116.068 68.4404C110.147 66.792 103.971 58.8814 106.669 48.8957C106.926 44.2985 109.449 41.1831 112.859 39.1176C115.514 37.0426 118.579 36.0442 121.397 36.0687C126.647 35.0893 131.647 35.3856 133.194 35.9551C134.487 40.8099 133.93 42.5106 125.853 44.6074C124.155 46.1965 123.114 48.412 122.159 51.2034Z" fill="#191847"/>
<path fill-rule="evenodd" clip-rule="evenodd" d="M126.219 162.57L164.974 261.429L190.968 345.006H201.232L161.494 162.57L126.219 162.57Z" fill="#997659"/>
<path fill-rule="evenodd" clip-rule="evenodd" d="M118.414 162.57C118.001 197.31 111.983 244.081 111.021 246.247C110.38 247.691 88.2503 266.049 44.6318 301.323L51.7014 308.947C103.167 278.705 130.091 261.566 132.472 257.533C136.045 251.482 147.675 195.805 157.013 162.57H118.414Z" fill="#B28B67"/>
<path fill-rule="evenodd" clip-rule="evenodd" d="M43.6512 298.768C41.2747 299.619 39.6374 300.426 38.7394 301.189C37.6471 302.117 36.2056 303.654 34.4148 305.801C35.476 307.08 45.0127 318.58 63.025 340.301C66.7035 338.705 67.8588 336.842 66.491 334.712C65.1232 332.581 64.0038 330.797 63.1329 329.36L56.914 307.313C56.7943 306.889 56.3572 306.644 55.9375 306.766C55.9304 306.768 55.9232 306.77 55.9161 306.773L52.5854 307.844C50.2764 306.758 48.6583 305.655 47.7312 304.537C46.9779 303.629 46.301 302.066 45.7002 299.849C45.4697 298.998 44.6005 298.498 43.7588 298.733C43.7226 298.743 43.6866 298.755 43.6512 298.768Z" fill="#E4E4E4"/>
<path fill-rule="evenodd" clip-rule="evenodd" d="M186.765 341.226C185.881 343.612 185.439 345.397 185.439 346.582C185.439 348.022 185.677 350.124 186.151 352.888C187.803 352.888 202.648 352.888 230.687 352.888C231.844 349.017 231.176 346.927 228.682 346.619C226.189 346.31 224.118 346.031 222.468 345.783L201.769 336.446C201.37 336.267 200.904 336.448 200.726 336.851C200.723 336.858 200.72 336.865 200.717 336.872L199.387 340.137C197.078 341.227 195.203 341.771 193.759 341.771C192.587 341.771 190.968 341.292 188.901 340.334C188.109 339.966 187.171 340.319 186.808 341.121C186.792 341.155 186.778 341.19 186.765 341.226Z" fill="#E4E4E4"/>
<path fill-rule="evenodd" clip-rule="evenodd" d="M152.275 336.398L201.077 331.06L164.909 162.57H121.199L152.275 336.398Z" fill="#69A1AC"/>
<path fill-rule="evenodd" clip-rule="evenodd" d="M54.7266 289.022L86.7375 327.209C120.454 290.096 140.111 265.88 145.708 254.561C151.305 243.241 156.336 212.578 160.802 162.57H111.593C109.154 206.565 107.509 229.586 106.66 231.633C105.811 233.68 88.4995 252.81 54.7266 289.022Z" fill="#89C5CC"/>
<path fill-rule="evenodd" clip-rule="evenodd" d="M186.623 144.392L214.63 158.065C221.675 158.653 227.692 159.885 232.68 161.762C233.918 162.538 235.553 164.267 231.072 164.732C226.592 165.197 221.899 165.888 221.555 167.505C221.211 169.121 224.203 170.435 223.329 172.691C222.746 174.195 218.264 171.506 209.881 164.623L183.531 158.922L186.623 144.392ZM91.528 162.346L107.784 159.454C103.462 193.616 101.076 211.76 100.626 213.884C99.6129 218.663 104.616 224.751 106.887 228.098C102.004 231.432 101.02 222.555 94.8805 226.88C89.2768 230.827 85.5404 236.811 77.7204 233.748C76.759 233.372 75.4537 231.533 77.472 229.543C82.5002 224.585 89.5325 216.23 90.2478 213.771C91.2233 210.418 91.6501 193.276 91.528 162.346Z" fill="#B28B67"/>
<path fill-rule="evenodd" clip-rule="evenodd" d="M125.754 85.3503L132.268 82.9656C160.988 100.002 178.523 139.619 212.937 156.009L207.192 166.497C153.04 169.611 131.003 121.407 125.754 85.3503Z" fill="#E87613"/>
<path fill-rule="evenodd" clip-rule="evenodd" d="M111.352 175.28C138.276 170.34 158.081 166.707 170.767 164.379C173.481 163.881 172.277 160.036 171.535 158.12C162.973 136.011 140.943 114.527 135.202 81.8725L117.589 82.3164C107.442 107.824 107.499 136.927 111.352 175.28Z" fill="#DDE3E9"/>
<path fill-rule="evenodd" clip-rule="evenodd" d="M100.107 108.68C97.4925 108.417 95.227 107.101 93.3112 104.732C85.0524 94.5183 86.2153 87.8469 92.5472 84.5619C98.8791 81.2769 105.592 84.4174 116.256 82.4601C116.836 82.3536 117.373 82.2927 117.869 82.2772L123.287 81.6004C147.89 131.224 158.28 165.437 154.459 184.241L107.703 192.823C106.074 199.826 104.383 205.778 102.63 210.677L89.8899 213.015C81.8438 174.253 85.2497 139.474 100.107 108.68Z" fill="#FF9B21"/>
<path fill-rule="evenodd" clip-rule="evenodd" d="M113.115 164.083C116.759 176.18 120.727 184.717 125.018 189.693L107.665 192.878C109.566 184.711 111.382 175.112 113.115 164.083Z" fill="black" fill-opacity="0.1"/>
</svg>
