<svg width="186" height="391" viewBox="0 0 186 391" fill="none" xmlns="http://www.w3.org/2000/svg">
<path d="M117.876 253.903C120.664 256.076 123.553 258.071 126.529 259.879C127.702 260.587 129.202 261.247 130.257 260.335C126.261 256.784 122.115 253.01 119.744 247.936C122.81 239.117 128.121 228.318 137.26 222.381C137.26 222.381 137.554 222.206 138.098 221.925C139.206 223.97 140.103 226.158 140.771 228.444C141.843 231.908 142.756 235.498 144.515 238.564C145.102 237.719 144.884 236.497 144.632 235.459L140.963 220.43C144.851 218.47 148.851 216.823 152.934 215.502L156.654 225.485C157.324 224.719 157.181 223.467 157.056 222.39C156.725 219.746 156.725 217.06 157.056 214.415C159.26 213.895 161.522 213.781 163.758 214.076C170.208 215.182 174.045 218.393 173.676 223.195C170.195 222.828 166.697 222.728 163.205 222.895C166.524 223.998 169.942 224.649 173.391 224.835C172.862 226.681 172.038 228.396 170.962 229.89C169.529 231.986 168.323 233.528 167.192 234.916C161.525 233.34 155.627 233.231 149.918 234.595C151.728 235.934 154.065 235.566 156.218 235.488C159.263 235.417 162.287 236.095 165.09 237.477C162.459 240.708 159.762 244.404 154.97 254.048L152.792 258.414C151.521 259.352 150.065 259.902 148.561 260.015C146.459 260.115 144.356 259.853 142.32 259.239C141.91 259.142 141.34 259.142 141.24 259.607C141.139 260.073 141.726 260.413 142.17 260.481C143.61 260.589 145.041 260.826 146.45 261.189C147.872 261.568 149.12 262.547 149.952 263.934C145.914 271.512 141.876 277.517 136.548 280.379C134.415 279.767 132.398 278.701 130.601 277.236C131.259 278.95 132.286 280.439 133.583 281.563C131.685 282.08 129.727 282.234 127.786 282.019C114.843 280.68 114.969 265.021 117.289 256.134C117.448 255.494 117.658 254.708 117.876 253.903Z" fill="#263238"/>
<path d="M112.724 302.694C112.718 302.604 112.718 302.513 112.724 302.423C112.724 302.209 112.783 301.957 112.825 301.627C112.933 300.938 113.017 299.9 113.285 298.59C114.081 294.924 115.169 291.351 116.536 287.918C118.567 282.832 120.884 277.905 123.472 273.171C126.362 267.806 129.788 262.091 133.525 256.231C135.401 253.32 137.269 250.478 139.095 247.761C140.922 245.045 142.647 242.415 144.39 240C146.005 237.655 147.749 235.432 149.609 233.344L154.752 228.279C157.877 225.155 160.482 222.73 162.359 221.168C163.289 220.382 164.034 219.8 164.545 219.421L165.132 218.995C165.266 218.907 165.333 218.859 165.341 218.868C165.286 218.935 165.224 218.994 165.157 219.043L164.596 219.509C164.101 219.916 163.373 220.479 162.459 221.323C160.616 222.934 158.045 225.398 154.92 228.551L149.818 233.654C147.981 235.737 146.26 237.954 144.666 240.291C142.941 242.735 141.215 245.384 139.397 248.101C137.579 250.817 135.719 253.641 133.843 256.561C130.09 262.382 126.664 268.106 123.79 273.443C121.193 278.151 118.854 283.044 116.787 288.093C115.407 291.498 114.286 295.037 113.436 298.668C113.143 299.958 113.026 300.987 112.892 301.676C112.833 301.996 112.783 302.248 112.749 302.452C112.75 302.533 112.742 302.615 112.724 302.694Z" fill="#263238"/>
<path d="M110.99 278.779C111.048 278.828 110.453 279.866 109.758 281.69C108.864 284.097 108.135 286.582 107.58 289.122C106.91 292.1 106.458 294.836 106.19 296.835C105.921 298.833 105.829 300.066 105.762 300.066C105.73 299.772 105.73 299.476 105.762 299.183C105.762 298.61 105.813 297.795 105.913 296.786C106.176 294.168 106.599 291.574 107.178 289.025C107.738 286.455 108.515 283.956 109.498 281.564C109.801 280.84 110.148 280.143 110.537 279.478C110.797 278.993 110.964 278.779 110.99 278.779Z" fill="#263238"/>
<path d="M128.791 234.324C123.606 237.428 118.98 241.649 115.161 246.762L118.286 252.699C118.286 252.699 114.659 250.545 113.109 249.672C110.514 253.607 108.386 257.927 106.784 262.518C107.116 262.923 107.472 263.303 107.848 263.653L110.763 266.486C111.182 266.884 111.601 267.553 111.308 268.048C111.175 268.191 111.013 268.292 110.837 268.341C110.661 268.39 110.477 268.386 110.303 268.329C108.635 268.108 106.997 267.649 105.427 266.961C104.688 269.776 104.155 272.658 103.835 275.577C103.274 280.816 103.559 286.676 106.65 290.537C106.65 290.537 107.069 285.192 115.865 268.863C124.661 252.534 145.11 233.664 145.11 233.664C140.536 229.579 133.909 231.306 128.791 234.324Z" fill="#455A64"/>
<path d="M111.886 275.946C110.561 275.86 109.243 275.672 107.94 275.384C106.621 275.259 105.311 275.029 104.02 274.695C106.687 274.519 109.358 274.944 111.886 275.946Z" fill="#263238"/>
<path d="M118.964 263.731C117.227 262.931 115.546 261.974 113.938 260.869C112.247 259.917 110.623 258.814 109.079 257.57C110.815 258.371 112.495 259.325 114.105 260.423C115.796 261.379 117.421 262.485 118.964 263.731Z" fill="#263238"/>
<path d="M119.367 260.501C118.099 260.013 116.882 259.362 115.74 258.56C114.527 257.893 113.379 257.08 112.313 256.135C113.581 256.622 114.798 257.273 115.941 258.075C117.152 258.745 118.3 259.558 119.367 260.501Z" fill="#263238"/>
<path d="M120.908 244.822C123.037 247.416 124.947 250.239 126.613 253.253C124.49 250.654 122.58 247.832 120.908 244.822Z" fill="#263238"/>
<path d="M125.683 241.164C125.808 241.164 126.269 243.328 127.274 245.84C128.28 248.353 129.419 250.187 129.31 250.284C127.309 247.757 126.041 244.568 125.683 241.164Z" fill="#263238"/>
<path d="M130.692 241.504C131.228 242.152 131.652 242.913 131.941 243.745C132.349 244.503 132.633 245.342 132.778 246.219C132.246 245.568 131.822 244.808 131.53 243.978C131.125 243.218 130.841 242.38 130.692 241.504Z" fill="#263238"/>
<path d="M135.183 239.768C135.275 239.7 135.652 240.176 135.886 240.913C136.121 241.65 136.096 242.291 135.979 242.31C135.861 242.329 135.685 241.757 135.476 241.088C135.267 240.418 135.074 239.846 135.183 239.768Z" fill="#263238"/>
<path d="M88.2621 303.558C88.2089 303.301 88.178 303.037 88.1699 302.773C88.128 302.21 88.0778 301.463 88.0024 300.522C87.86 298.581 87.6087 295.748 87.1647 292.285C86.0605 283.252 83.8901 274.438 80.7142 266.089C77.4968 257.754 72.9848 250.173 67.4029 243.726C65.7073 241.782 63.9052 239.968 62.008 238.293C61.3462 237.681 60.7933 237.264 60.4414 236.944C60.2513 236.8 60.072 236.638 59.9053 236.459C60.1115 236.573 60.3079 236.709 60.4917 236.866C60.8603 237.158 61.4299 237.546 62.1085 238.137C64.0513 239.761 65.8932 241.541 67.6207 243.464C73.3006 249.879 77.8774 257.484 81.108 265.876C84.3051 274.265 86.4463 283.142 87.4663 292.236C87.8684 295.719 88.0694 298.552 88.1699 300.512C88.2286 301.482 88.2369 302.249 88.2537 302.773C88.2705 303.297 88.2705 303.558 88.2621 303.558Z" fill="#263238"/>
<path d="M28.8003 195.942C36.3398 193.711 38.987 196.99 45.3704 198.678C55.423 201.346 65.4757 204.402 73.0151 210.32C80.5546 216.239 85.3296 225.417 83.2353 236.089C82.624 239.15 81.4398 242.018 79.7665 244.491C78.0932 246.964 75.9715 248.981 73.5513 250.4C70.0607 252.248 66.2176 253.024 62.3929 252.651C52.4491 251.942 45.295 246.296 39.2718 240.271C33.2548 234.274 27.8042 227.555 23.0117 220.226C21.0765 217.248 19.2419 214.133 18.6723 210.427C18.2818 207.716 18.621 204.932 19.644 202.452C20.8094 200.002 22.7587 198.18 25.0724 197.378L28.8003 195.942Z" fill="#263238"/>
<path d="M95.534 266.865C95.501 266.766 95.4813 266.661 95.4753 266.555C95.4753 266.312 95.3999 266.011 95.3413 265.584L94.8889 262.004C94.4868 258.9 93.9842 254.388 93.3978 248.809C92.2166 237.662 90.8846 222.216 89.5275 205.15C88.1704 188.084 86.8803 172.639 85.7829 161.491C85.23 155.912 84.7693 151.401 84.4258 148.286C84.2666 146.753 84.141 145.55 84.0488 144.697L83.9651 143.726C83.9557 143.62 83.9557 143.513 83.9651 143.406C83.9985 143.509 84.0182 143.617 84.0237 143.726C84.0237 143.959 84.0991 144.27 84.1577 144.648L84.6101 148.228C85.0122 151.343 85.5148 155.844 86.1013 161.423C87.2824 172.571 88.6144 188.016 89.9715 205.082C91.3286 222.148 92.6187 237.584 93.7161 248.742C94.269 254.32 94.7298 258.832 95.0732 261.946C95.2324 263.479 95.3581 264.682 95.4502 265.536L95.534 266.506C95.5457 266.625 95.5457 266.746 95.534 266.865Z" fill="#263238"/>
<path d="M50.6484 14.7759C60.8351 18.1716 62.4687 26.7191 69.3547 36.0622C80.2451 50.8094 90.8757 66.226 97.0581 84.2427C103.24 102.259 104.455 123.478 96.5974 140.592C92.7522 148.965 85.9583 156.533 77.7654 156.688C72.3789 156.795 67.2939 153.671 63.1305 149.712C51.4024 138.613 45.5886 121.402 41.2911 104.627C36.9339 87.5882 33.6856 70.1954 31.5736 52.5946C30.7359 45.3374 30.0405 37.925 31.1966 30.7261C31.9232 25.8461 33.6913 21.2537 36.3402 17.3664C37.4273 15.855 38.8458 14.7107 40.4466 14.0534C42.0474 13.3961 43.7715 13.2502 45.4378 13.6311L50.6484 14.7759Z" fill="#455A64"/>
<path d="M41.9951 23.2363C41.9951 23.2363 42.0538 23.3431 42.1459 23.5468C42.238 23.7505 42.3888 24.0998 42.5648 24.517L44.1313 28.1553C45.4884 31.3181 47.4068 35.9169 49.7189 41.6314C54.3515 53.0508 60.4752 68.9913 66.6743 86.8625C72.8735 104.734 77.9417 121.169 81.4182 133.132C83.1523 139.118 84.5178 143.969 85.4225 147.345C85.8665 149.004 86.2602 150.304 86.4613 151.226L86.721 152.196L86.7964 152.545C86.7435 152.443 86.704 152.332 86.6791 152.216L86.3775 151.245C86.1094 150.333 85.7408 149.043 85.2633 147.365C84.3083 144.008 82.901 139.176 81.125 133.209C77.5814 121.285 72.4546 104.889 66.2638 87.0177C60.0731 69.1465 53.9913 53.206 49.4341 41.7382C47.1638 36.0139 45.2957 31.3861 43.9805 28.1553L42.4894 24.5849C42.3302 24.1774 42.2045 23.8573 42.104 23.6147C42.0511 23.4958 42.0144 23.3682 41.9951 23.2363Z" fill="#263238"/>
<path d="M98.0636 298.184C98.036 298.066 98.0164 297.946 98.005 297.825C98.005 297.563 97.9296 297.204 97.8793 296.767C97.7704 295.797 97.6196 294.429 97.4269 292.683C97.2343 290.936 97.0081 288.744 96.7987 286.211C96.5892 283.679 96.296 280.817 96.0782 277.635C95.8604 274.453 95.584 270.97 95.3829 267.215C95.1819 263.46 94.9892 259.453 94.8133 255.242C94.5117 246.811 94.3441 237.527 94.4112 227.776C94.4782 218.025 94.8468 208.74 95.2908 200.309C95.5505 196.099 95.7683 192.092 96.0782 188.356C96.3882 184.621 96.6562 181.128 96.9159 177.956C97.1756 174.783 97.5191 171.911 97.7537 169.389C97.9882 166.866 98.273 164.713 98.4992 162.947C98.7254 161.181 98.893 159.832 99.0186 158.872C99.0773 158.435 99.1275 158.086 99.161 157.814C99.2064 157.706 99.2597 157.602 99.3202 157.504C99.3294 157.623 99.3294 157.743 99.3202 157.863C99.3202 158.125 99.2615 158.484 99.2113 158.93C99.1108 159.9 98.9684 161.259 98.7757 163.005C98.583 164.751 98.3401 166.944 98.1055 169.467C97.8709 171.989 97.5526 174.851 97.2678 178.033C96.983 181.216 96.6898 184.679 96.4301 188.424C96.1704 192.169 95.9274 196.186 95.6845 200.377C95.2573 208.808 94.9389 218.074 94.8468 227.815C94.7546 237.556 94.9389 246.831 95.207 255.262C95.3829 259.482 95.5253 263.489 95.7515 267.234C95.9777 270.979 96.1704 274.462 96.3882 277.645C96.606 280.827 96.8405 283.699 97.0416 286.231C97.2426 288.763 97.4269 290.927 97.6029 292.702C97.7788 294.478 97.8793 295.826 97.9631 296.787C98.005 297.233 98.0301 297.592 98.0469 297.854C98.0599 297.963 98.0655 298.074 98.0636 298.184Z" fill="#263238"/>
<path d="M94.4023 223.477C94.4368 223.216 94.4929 222.959 94.5699 222.711C94.7123 222.167 94.905 221.44 95.1395 220.528C95.6422 218.587 96.3877 215.9 97.3344 212.533C99.2276 205.8 101.942 196.544 105.117 186.386C108.292 176.228 111.324 167.099 113.595 160.521C114.725 157.232 115.655 154.583 116.317 152.759C116.644 151.886 116.895 151.187 117.088 150.663C117.173 150.418 117.271 150.178 117.381 149.945C117.333 150.205 117.262 150.458 117.172 150.702L116.476 152.837L113.879 160.656C111.684 167.263 108.702 176.413 105.502 186.561C102.302 196.709 99.5711 205.965 97.6024 212.659C96.6307 215.968 95.8432 218.675 95.2736 220.596C95.0055 221.498 94.7961 222.216 94.6285 222.75C94.5722 223 94.4965 223.243 94.4023 223.477Z" fill="#263238"/>
<path d="M97.6449 59.1348C97.6559 59.2541 97.6559 59.3744 97.6449 59.4937C97.6449 59.7654 97.6449 60.1147 97.5863 60.5513C97.5192 61.5215 97.4355 62.8798 97.3182 64.6164C97.0669 68.1383 96.7485 73.2513 96.3967 79.5576C96.0449 85.864 95.7014 93.3831 95.4082 101.737C95.115 110.09 94.9223 119.288 94.8134 128.902C94.6291 148.2 94.9223 165.673 95.2155 178.325C95.3831 184.621 95.5171 189.725 95.6093 193.295C95.6595 195.041 95.693 196.4 95.7182 197.36C95.7182 197.806 95.7182 198.156 95.7182 198.418C95.7182 198.68 95.7182 198.786 95.7182 198.786C95.6922 198.669 95.6782 198.548 95.6763 198.427C95.6763 198.165 95.6763 197.816 95.6176 197.37C95.5757 196.4 95.5171 195.041 95.4333 193.305C95.2742 189.763 95.0899 184.65 94.9056 178.334C94.5202 165.722 94.1851 148.209 94.3694 128.854C94.4783 119.2 94.7045 110.012 94.9977 101.688C95.2909 93.3636 95.6846 85.8154 96.0868 79.4994C96.4889 73.1834 96.8407 68.0898 97.1423 64.5679L97.4857 60.5125L97.6449 59.5131C97.6327 59.3874 97.6327 59.2605 97.6449 59.1348Z" fill="#263238"/>
<g opacity="0.3">
<path d="M50.473 102.841C54.7705 102.628 58.9507 101.289 63.0974 99.9309C59.3353 99.1031 55.517 98.6648 51.6877 98.6211C49.74 98.6544 47.8014 98.9375 45.9074 99.4652C49.0336 97.4614 51.6154 94.488 53.3631 90.8788L53.4385 90.7139L59.9728 83.4956L59.8806 83.35C58.0544 84.883 56.2533 86.4741 54.4773 88.104C55.7283 84.3288 56.0699 80.2308 55.4658 76.2481C54.2268 79.266 52.3298 81.8576 49.962 83.7672C50.5539 81.9563 50.9861 80.0808 51.2521 78.1691C51.6202 75.6908 51.2944 73.1411 50.3222 70.8926C47.2729 77.4609 42.4058 82.894 40.2696 89.928C40.1439 90.3452 40.0267 90.7721 39.9261 91.199C39.3062 85.2128 38.1334 79.2946 38.0748 73.2696C37.5509 77.1192 37.335 81.0165 37.4297 84.9121C37.1365 84.4658 36.8266 84.0389 36.5166 83.6023C37.9072 90.5619 39.4765 97.4665 41.2246 104.316C42.0612 104.155 42.9177 104.202 43.7377 104.452C43.0036 104.428 42.2691 104.48 41.5429 104.607L41.2916 104.656C41.9562 107.243 42.6599 109.83 43.4027 112.417C44.4516 112.224 45.5203 112.224 46.5692 112.417C47.0066 112.497 47.4341 112.637 47.8426 112.835L50.54 114.775C56.3287 120.043 62.6618 132.239 62.6618 132.239L57.0491 117.298C56.5465 116.483 54.1757 109.846 49.4175 106.431C48.9323 105.659 48.3441 104.981 47.675 104.423C46.5485 103.504 45.2408 102.927 43.8718 102.744C46.075 102.774 48.2866 102.948 50.473 102.841Z" fill="black"/>
</g>
<path d="M4.70785 108.1L20.2308 111.544C21.9816 111.932 23.9754 112.514 24.7796 114.367L23.6654 115.143C20.7921 113.407 17.4663 112.369 14.3835 111.214C11.6107 110.176 4.00417 108.507 4.70785 108.1Z" fill="#263238"/>
<path d="M28.7341 108.993C31.8248 106.326 35.469 104.653 39.2978 104.142C43.1007 103.663 46.9327 103.573 50.7494 103.87C46.7786 105.762 42.7575 107.654 38.5103 108.46C35.0086 109.129 31.3562 109.042 28.0137 110.448L28.7341 108.993Z" fill="#FF725E"/>
<g opacity="0.3">
<path d="M28.7341 108.993C31.8248 106.326 35.469 104.653 39.2978 104.142C43.1007 103.663 46.9327 103.573 50.7494 103.87C46.7786 105.762 42.7575 107.654 38.5103 108.46C35.0086 109.129 31.3562 109.042 28.0137 110.448L28.7341 108.993Z" fill="black"/>
</g>
<path d="M45.9658 88.0068L39.0043 97.8059C37.7262 99.6721 36.3586 101.454 34.9079 103.142C32.6125 105.703 29.8815 107.848 28.1475 110.904C28.5989 109.589 29.2516 108.379 30.0742 107.333C34.9529 100.429 40.2345 93.9195 45.882 87.8516" fill="#263238"/>
<path d="M27.1926 112.999C26.6313 107.731 26.0784 102.327 27.0669 97.1171C28.4659 89.8308 32.7383 83.7671 35.0923 76.8301C36.2921 78.9254 36.8794 81.4114 36.7677 83.9223C36.6503 86.4154 36.3049 88.8871 35.7373 91.2958C34.7404 96.1469 33.7184 101.134 31.4147 105.374C30.4429 107.168 28.0638 110.283 27.2261 112.999" fill="#FF725E"/>
<g opacity="0.3">
<path d="M27.1926 112.999C26.6313 107.731 26.0784 102.327 27.0669 97.1171C28.4659 89.8308 32.7383 83.7671 35.0923 76.8301C36.2921 78.9254 36.8794 81.4114 36.7677 83.9223C36.6503 86.4154 36.3049 88.8871 35.7373 91.2958C34.7404 96.1469 33.7184 101.134 31.4147 105.374C30.4429 107.168 28.0638 110.283 27.2261 112.999" fill="black"/>
</g>
<path d="M30.1575 108.867C30.9756 107.978 31.8617 107.175 32.8047 106.471C36.3066 103.875 38.9785 100.023 40.4125 95.5029C41.8465 90.983 41.9638 86.0437 40.7463 81.4395C39.6174 85.3037 37.4622 88.6556 34.589 91.0154C34.589 91.0154 32.5115 91.1609 30.7774 96.1284C29.0433 101.096 27.0244 112.292 27.0244 112.292L30.1575 108.867Z" fill="#FF725E"/>
<path d="M13.7554 122.625C21.2529 118.386 19.9796 114.757 29.8563 111.536C39.733 108.315 45.706 120.947 46.5437 122.024L55.7586 136.092C55.7586 136.092 42.0368 118.764 35.6031 118.628C29.1694 118.492 31.0794 122.354 18.3293 126.516C5.57922 130.678 0 129.242 0 129.242C4.69942 127.37 9.29345 125.16 13.7554 122.625Z" fill="#263238"/>
<path d="M32.8386 111.273C31.8541 110.906 30.7993 110.872 29.7988 111.176C28.7983 111.481 27.8939 112.11 27.1924 112.991C27.342 112.162 27.6953 111.402 28.2096 110.801C28.7239 110.201 29.3772 109.785 30.0909 109.605C32.0829 109.108 34.1627 109.452 35.9549 110.575C37.2268 111.389 38.2809 112.592 39.0019 114.054C39.7229 115.515 40.083 117.178 40.043 118.86C39.842 123.643 36.3738 127.291 34.7821 131.706C35.335 128.727 35.8963 125.749 36.4576 122.77C36.7595 121.334 36.9501 119.87 37.0272 118.395C37.1223 116.812 36.7884 115.235 36.0722 113.883C35.2963 112.596 34.15 111.671 32.8386 111.273Z" fill="#FF725E"/>
<path d="M25.4753 103.793C24.1768 96.2256 22.8699 88.5804 23.1799 80.877C24.0176 88.3378 26.581 95.43 27.6533 102.833C27.8224 103.79 27.8704 104.77 27.7957 105.743C27.6785 106.714 27.5193 111.361 26.8575 111.962L26.757 111.545C26.5643 109.741 25.7601 105.433 25.4753 103.793Z" fill="#263238"/>
<path d="M16.9387 81.2461C17.5561 83.9861 18.718 86.5211 20.3315 88.6488C21.6886 90.4243 23.3389 91.8893 24.6708 93.6938C26.0028 95.4984 27.0165 97.8269 26.74 100.175C26.5473 101.863 25.718 103.367 25.3494 105.026C25.0651 106.384 25.0985 107.806 25.4459 109.144C25.7934 110.483 26.4425 111.69 27.3264 112.642C27.2761 112.642 27.2762 113.079 27.1086 112.982C22.409 110.488 18.8068 105.045 16.813 99.4763C15.7866 96.5805 15.2691 93.4767 15.2907 90.3465C15.3123 87.2163 15.8725 84.1226 16.9387 81.2461Z" fill="#FF725E"/>
<path d="M16.9382 81.245C16.9382 81.3032 16.6199 82.2152 16.1759 84.0004C15.5779 86.5259 15.3429 89.1482 15.4806 91.762C15.5867 93.5682 15.8677 95.3549 16.3183 97.0885C16.8434 99.0691 17.563 100.973 18.4628 102.764C20.4027 106.972 23.388 110.409 27.0327 112.631L27.1751 112.709C27.1554 112.698 27.134 112.693 27.1123 112.693C27.0906 112.693 27.0692 112.698 27.0495 112.709C27.0495 112.709 27.0495 112.709 27.0495 112.651V112.563V112.495C27.0454 112.473 27.0454 112.45 27.0495 112.427V112.369C27.0991 112.331 27.1574 112.311 27.217 112.311L27.0495 112.757C26.2548 111.899 25.6425 110.839 25.2603 109.661C24.8781 108.483 24.7364 107.218 24.8463 105.966C25.0808 103.502 26.4547 101.6 26.4463 99.4849C26.3828 97.471 25.7198 95.5446 24.5698 94.0323C23.5591 92.6998 22.4851 91.4333 21.353 90.2388C19.7054 88.467 18.4006 86.3111 17.5246 83.9131C17.2864 83.267 17.0876 82.6024 16.9298 81.9242C16.8293 81.4682 16.8125 81.2256 16.8042 81.2062C16.7958 81.1868 16.8796 81.4196 17.0136 81.8951C17.2058 82.5543 17.4267 83.202 17.6754 83.8355C18.6011 86.1674 19.9231 88.2594 21.5624 89.9866C22.7212 91.1709 23.8177 92.4344 24.8463 93.7704C26.0688 95.3503 26.7769 97.3747 26.8484 99.4946C26.8484 101.813 25.4494 103.744 25.2651 106.024C25.1687 107.201 25.3057 108.388 25.6658 109.495C26.0259 110.601 26.5994 111.597 27.3427 112.408L27.4935 112.563L27.1919 112.612C27.2337 112.659 27.2858 112.693 27.3427 112.709V112.796C27.3175 112.896 27.2747 112.988 27.217 113.068C27.1842 113.108 27.1432 113.138 27.0978 113.155C27.0525 113.172 27.0042 113.175 26.9573 113.165C26.9106 113.152 26.8655 113.133 26.8233 113.107L26.6809 113.029C24.7312 111.917 22.9738 110.401 21.4954 108.556C18.8726 105.304 16.9244 101.402 15.7989 97.1467C15.3663 95.3783 15.1078 93.5589 15.0282 91.7232C14.9176 89.0707 15.201 86.4158 15.8659 83.8743C16.1481 82.9593 16.5073 82.0786 16.9382 81.245Z" fill="#263238"/>
<path d="M27.7201 100.592C27.6534 100.361 27.6278 100.117 27.6447 99.8742C27.6283 99.2249 27.6648 98.5752 27.7536 97.9338C28.0554 95.7945 28.7035 93.7404 29.6636 91.8797C30.6233 90.0295 31.7463 88.2997 33.0145 86.7182C33.4954 86.0238 34.0435 85.3955 34.6481 84.8457C34.2363 85.5939 33.7681 86.2984 33.2491 86.951C32.0773 88.5809 31.0159 90.313 30.0741 92.1319C29.1426 93.9513 28.4721 95.9337 28.0887 98.0017C27.7788 99.5637 27.7955 100.592 27.7201 100.592Z" fill="#263238"/>
<path d="M33.4336 106.655C33.9952 106.332 34.5929 106.1 35.2096 105.966C38.1283 105.101 41.1199 104.606 44.1313 104.492C44.7547 104.431 45.3822 104.46 45.9994 104.579C45.9994 104.734 43.1595 104.87 39.6914 105.443C36.2232 106.015 33.4671 106.801 33.4336 106.655Z" fill="#263238"/>
<path d="M88.2374 186.745C88.1331 186.545 88.0462 186.334 87.9777 186.114L87.3075 184.271C87.1567 183.873 87.0143 183.427 86.8216 182.952C86.629 182.476 86.386 181.981 86.1347 181.428C85.6405 180.342 85.1211 179.071 84.4006 177.761C80.7506 170.879 76.686 164.304 72.2369 158.085C67.1017 150.712 62.1843 144.337 58.5402 139.739L54.2427 134.334L53.0699 132.86C52.9245 132.699 52.7952 132.52 52.6846 132.326C52.8478 132.464 52.9993 132.62 53.1369 132.792L54.3684 134.199C55.4239 135.431 56.9402 137.226 58.7664 139.496C62.4356 144.037 67.4284 150.382 72.572 157.765C77.041 164 81.0854 170.627 84.6687 177.586C85.3808 178.906 85.875 180.196 86.3441 181.302L86.9976 182.845C87.1819 183.33 87.3159 183.815 87.4499 184.203L88.0447 186.085C88.1262 186.298 88.1907 186.519 88.2374 186.745Z" fill="#263238"/>
<path d="M101.951 151.304C101.951 151.304 88.9575 150.897 83.8893 142.281C78.8211 133.666 85.6988 99.7087 113.377 82.6234L120.531 90.9575L116.745 76.7439C116.745 76.7439 123.765 61.5699 152.49 56.942C152.49 56.942 161.973 54.1381 168.097 56.0979C174.221 58.0578 172.369 62.9864 172.369 62.9864C172.369 62.9864 104.238 131.58 103.936 132.492C103.634 133.404 101.951 151.304 101.951 151.304Z" fill="#455A64"/>
<path opacity="0.3" d="M168.096 56.0975C161.973 54.1571 152.49 56.9416 152.49 56.9416C123.764 61.5694 116.744 76.7435 116.744 76.7435L120.531 90.957L113.377 82.6229C85.7318 99.7083 78.829 133.665 83.8889 142.281C88.9487 150.896 101.95 151.304 101.95 151.304C101.95 151.304 103.626 133.404 103.935 132.492C104.245 131.58 172.369 62.9859 172.369 62.9859C172.369 62.9859 174.229 58.0573 168.096 56.0975Z" fill="black"/>
<path d="M138.149 83.138C128.465 88.9592 118.554 94.9163 110.806 103.648C112.297 105.181 113.841 106.636 115.438 108.014C116.418 108.858 117.516 109.877 117.558 111.293C113.983 110.582 110.437 109.667 106.919 108.548C96.38 123.499 93.2972 143.572 90.5243 162.608C90.4661 162.926 90.4519 163.254 90.4824 163.578C90.6584 165.518 92.2584 165.644 93.5485 165.518C96.6695 165.312 99.7756 164.872 102.847 164.199L110.018 146.192C117.189 128.194 142.798 95.9059 152.784 86.0389C162.769 76.1719 171.071 66.1981 171.54 64.966C171.825 64.2383 172.068 63.4913 172.328 62.7539L138.149 83.138Z" fill="#455A64"/>
<path d="M134.404 106.577C133.611 106.116 132.85 105.588 132.125 104.996C130.743 104.025 128.841 102.58 126.714 101.115C124.586 99.6497 122.634 98.2623 121.227 97.3018C120.446 96.8169 119.696 96.2689 118.981 95.6621C119.815 96.0123 120.617 96.4542 121.377 96.9816C122.827 97.8742 124.804 99.1646 126.94 100.678C129.076 102.192 130.961 103.657 132.301 104.753C133.05 105.283 133.754 105.893 134.404 106.577Z" fill="#263238"/>
<path d="M137.654 99.7565C136.373 99.0442 135.157 98.1828 134.027 97.1854C132.826 96.3184 131.703 95.314 130.676 94.1875C131.96 94.9022 133.179 95.767 134.311 96.7682C135.513 97.6257 136.633 98.6273 137.654 99.7565Z" fill="#263238"/>
<path d="M129.855 92.4018C129.78 92.5182 129.445 92.4018 129.101 92.0719C128.758 91.7421 128.54 91.4316 128.607 91.3249C128.674 91.2182 129.017 91.3249 129.361 91.6645C129.704 92.004 129.93 92.2951 129.855 92.4018Z" fill="#263238"/>
<path d="M144.808 92.5664C143.558 91.3491 142.382 90.0329 141.289 88.6273C140.093 87.3455 138.974 85.9711 137.938 84.5137C139.281 85.6034 140.514 86.8627 141.616 88.2684C142.809 89.5651 143.879 91.006 144.808 92.5664Z" fill="#263238"/>
<path d="M147.766 86.454C147.883 86.3958 148.268 87.2495 148.645 88.3944C148.935 89.0402 149.095 89.7531 149.114 90.4803C149.005 90.5288 148.612 89.6751 148.235 88.5399C147.945 87.8941 147.785 87.1812 147.766 86.454Z" fill="#263238"/>
<path d="M118.445 106.189C119.036 106.488 119.598 106.858 120.121 107.295L123.999 110.158L127.895 113C128.46 113.348 128.989 113.772 129.47 114.262C128.862 114.021 128.283 113.695 127.744 113.291C126.705 112.641 125.289 111.691 123.765 110.575C122.24 109.459 120.9 108.392 119.945 107.587C119.396 107.196 118.892 106.727 118.445 106.189Z" fill="#263238"/>
<path d="M112.724 140.874C111.85 140.98 110.971 141.01 110.093 140.961C108.477 140.961 106.24 140.961 103.769 141.116C101.297 141.272 99.0689 141.417 97.4521 141.563C96.5826 141.689 95.7062 141.741 94.8301 141.718C95.6778 141.456 96.5441 141.284 97.4186 141.204C99.0354 140.971 101.272 140.728 103.752 140.612C106.231 140.496 108.477 140.525 110.102 140.612C110.981 140.605 111.859 140.693 112.724 140.874Z" fill="#263238"/>
<path d="M114.608 137.275C113.878 137.176 113.155 137.011 112.447 136.78C111.124 136.431 109.289 135.975 107.253 135.577C105.218 135.179 103.358 134.898 102.009 134.723C101.275 134.683 100.546 134.563 99.8311 134.364C100.563 134.272 101.302 134.272 102.034 134.364C105.584 134.617 109.1 135.31 112.523 136.431C113.243 136.62 113.943 136.903 114.608 137.275Z" fill="#263238"/>
<path d="M148.536 127.252L136.247 134.383C134.856 135.188 133.306 136.217 133.005 137.982L134.102 138.332C136.281 136.174 138.609 134.227 141.064 132.51C143.183 130.871 149.206 127.427 148.536 127.252Z" fill="#263238"/>
<path d="M128.64 134.548C125.511 133.177 122.124 132.789 118.822 133.423C115.538 134.063 112.309 135.037 109.172 136.333C112.872 136.987 116.623 137.153 120.355 136.828C123.43 136.43 126.462 135.363 129.57 135.625L128.64 134.548Z" fill="#FF725E"/>
<g opacity="0.3">
<path d="M128.64 134.548C125.511 133.177 122.124 132.789 118.822 133.423C115.538 134.063 112.309 135.037 109.172 136.333C112.872 136.987 116.623 137.153 120.355 136.828C123.43 136.43 126.462 135.363 129.57 135.625L128.64 134.548Z" fill="black"/>
</g>
<path d="M109.892 121.712L117.749 128.009C119.204 129.216 120.714 130.33 122.273 131.346C124.711 132.87 127.417 133.917 129.511 136.023C128.872 135.042 128.079 134.209 127.174 133.568C121.679 129.128 115.927 125.131 109.959 121.605" fill="#263238"/>
<path d="M130.71 137.497C130.106 132.937 129.453 128.232 127.576 124.167C124.921 118.452 120.112 114.542 116.686 109.381C116.119 111.465 116.14 113.705 116.745 115.775C117.35 117.829 118.141 119.803 119.107 121.664C120.933 125.467 122.801 129.348 125.591 132.268C126.772 133.5 129.394 135.47 130.676 137.497" fill="#FF725E"/>
<g opacity="0.3">
<path d="M130.71 137.497C130.106 132.937 129.453 128.232 127.576 124.167C124.921 118.452 120.112 114.542 116.686 109.381C116.119 111.465 116.14 113.705 116.745 115.775C117.35 117.829 118.141 119.803 119.107 121.664C120.933 125.467 122.801 129.348 125.591 132.268C126.772 133.5 129.394 135.47 130.676 137.497" fill="black"/>
</g>
<path d="M127.383 134.859C126.518 134.331 125.612 133.899 124.677 133.568C121.222 132.345 118.207 129.848 116.09 126.458C113.973 123.067 112.87 118.968 112.949 114.785C114.684 117.711 117.174 119.925 120.062 121.111C120.062 121.111 121.829 120.665 124.25 124.361C126.671 128.058 130.692 136.857 130.692 136.857L127.383 134.859Z" fill="#FF725E"/>
<path d="M143.928 141.892C136.782 140.388 137.109 137.041 128.179 137.041C119.249 137.041 116.819 149.256 116.334 150.391L112.572 164.11C112.572 164.11 119.416 146.442 124.769 144.56C130.122 142.678 129.318 146.442 140.837 146.442C152.356 146.442 156.754 143.716 156.754 143.716C152.45 143.414 148.167 142.805 143.928 141.892Z" fill="#455A64"/>
<path d="M125.633 137.594C126.383 137.02 127.259 136.705 128.158 136.686C129.057 136.667 129.942 136.945 130.71 137.487C130.409 136.841 129.957 136.307 129.406 135.947C128.854 135.586 128.226 135.414 127.593 135.45C125.833 135.577 124.167 136.415 122.885 137.817C121.99 138.851 121.355 140.148 121.05 141.569C120.744 142.99 120.779 144.48 121.151 145.88C122.299 149.829 125.943 151.934 128.18 155.194L124.963 148.16C124.414 147.043 123.954 145.871 123.589 144.657C123.191 143.358 123.15 141.948 123.472 140.621C123.868 139.353 124.631 138.283 125.633 137.594Z" fill="#FF725E"/>
<path d="M130.316 129.366C129.863 122.682 129.394 115.919 127.56 109.555C128.397 116.036 127.677 122.652 128.297 129.163C128.347 130.006 128.505 130.837 128.766 131.627C129.059 132.413 130.14 136.264 130.818 136.585V136.158C130.575 134.596 130.366 130.773 130.316 129.366Z" fill="#263238"/>
<path d="M132.829 108.109C132.87 110.572 132.411 113.011 131.489 115.231C130.718 117.093 129.638 118.772 128.892 120.644C128.468 121.556 128.211 122.559 128.139 123.591C128.067 124.624 128.181 125.662 128.473 126.64C128.984 127.999 129.981 129.027 130.626 130.308C131.14 131.37 131.401 132.571 131.382 133.788C131.363 135.006 131.065 136.195 130.517 137.235C130.559 137.235 130.651 137.575 130.777 137.458C134.203 134.082 136.105 128.542 136.641 123.332C136.908 120.629 136.709 117.891 136.055 115.277C135.4 112.664 134.304 110.228 132.829 108.109Z" fill="#FF725E"/>
<path d="M132.829 108.109C133.328 108.724 133.774 109.394 134.161 110.108C135.241 112.053 136.023 114.2 136.473 116.453C136.781 118.013 136.936 119.607 136.934 121.207C136.912 123.043 136.706 124.869 136.322 126.65C135.551 130.801 133.714 134.586 131.053 137.507L130.952 137.613C130.924 137.65 130.89 137.68 130.852 137.701C130.81 137.723 130.764 137.734 130.718 137.734C130.672 137.734 130.626 137.723 130.584 137.701C130.514 137.65 130.457 137.58 130.416 137.497V137.429C130.467 137.453 130.524 137.453 130.575 137.429L130.316 137.128C130.774 136.251 131.052 135.264 131.127 134.243C131.203 133.221 131.074 132.194 130.751 131.239C130.14 129.405 128.582 128.164 128.096 126.204C127.726 124.404 127.906 122.511 128.607 120.848C129.201 119.45 129.863 118.093 130.592 116.783C131.616 114.891 132.3 112.779 132.603 110.574C132.682 109.976 132.735 109.373 132.762 108.769C132.762 108.342 132.812 108.109 132.812 108.138C132.812 108.168 132.812 108.371 132.854 108.769C132.86 109.382 132.832 109.994 132.77 110.603C132.527 112.853 131.876 115.019 130.86 116.958C130.153 118.265 129.512 119.619 128.942 121.013C128.289 122.586 128.126 124.372 128.481 126.068C128.9 127.834 130.441 129.046 131.145 131.055C131.499 132.081 131.641 133.189 131.561 134.29C131.481 135.392 131.181 136.456 130.684 137.4L130.425 137.022C130.478 136.997 130.538 136.997 130.592 137.022H130.651L130.701 137.07V137.128V137.196C130.676 137.219 130.656 137.249 130.642 137.283L130.575 137.196L130.676 137.08C133.271 134.232 135.069 130.548 135.836 126.504C136.226 124.76 136.443 122.97 136.481 121.168C136.497 119.6 136.362 118.035 136.079 116.502C135.665 114.271 134.938 112.134 133.926 110.176C133.273 108.827 132.829 108.168 132.829 108.109Z" fill="#263238"/>
<path d="M127.736 127.252C127.669 127.252 127.468 126.418 126.898 125.166C126.151 123.548 125.187 122.077 124.041 120.81C122.88 119.548 121.639 118.387 120.33 117.337C119.766 116.929 119.236 116.461 118.747 115.939C119.37 116.224 119.961 116.596 120.506 117.045C121.884 118.023 123.17 119.164 124.343 120.451C125.531 121.748 126.495 123.296 127.183 125.011C127.502 125.704 127.691 126.468 127.736 127.252Z" fill="#263238"/>
<path d="M124.192 133.899C124.192 134.044 121.72 134.151 118.705 134.626C115.689 135.102 113.276 135.742 113.251 135.597C114.984 134.825 116.798 134.329 118.646 134.122C120.477 133.754 122.343 133.678 124.192 133.899Z" fill="#263238"/>
<path d="M84.8613 273.512C85.0643 273.757 85.2363 274.035 85.3723 274.336C85.6822 274.88 86.0927 275.704 86.5702 276.733C87.7936 279.431 88.7868 282.261 89.5357 285.183C90.2851 288.109 90.79 291.111 91.0436 294.148C91.1274 295.312 91.1693 296.253 91.1693 296.903C91.2052 297.242 91.2052 297.584 91.1693 297.922C91.0939 297.922 91.0269 296.486 90.7672 294.187C90.1028 288.184 88.6035 282.345 86.3273 276.898C85.4225 274.802 84.8026 273.551 84.8613 273.512Z" fill="#263238"/>
<path d="M85.5065 298.407C86.2856 298.678 85.9338 290.752 85.2804 287.57C84.5599 284.086 85.8333 282.185 87.4668 286.24C89.1004 290.296 90.9433 300.124 90.9433 300.124L85.5065 298.407Z" fill="#AE7461"/>
<path d="M104.79 288.627C103.693 289.785 102.81 291.188 102.196 292.753C101.581 294.317 101.246 296.01 101.213 297.728H104.522C105.095 294.023 106.269 290.478 107.982 287.279C106.859 286.929 105.67 287.706 104.79 288.627Z" fill="#AE7461"/>
<path d="M84.3581 192.936C80.9467 195.597 77.4118 198.039 73.7694 200.251C72.3452 201.124 70.5106 201.93 69.2122 200.814C74.1044 196.467 79.1726 191.849 82.0795 185.64C78.3265 174.861 71.8594 161.647 60.6507 154.38C60.6507 154.38 60.2905 154.166 59.637 153.817C58.2779 156.319 57.1811 158.999 56.3699 161.802C55.0463 166.032 53.9322 170.427 51.7792 174.182C51.0588 173.153 51.3352 171.65 51.6452 170.379C53.1363 164.247 54.6303 158.102 56.127 151.945C51.3795 149.569 46.4984 147.569 41.5172 145.958C39.9981 150.033 38.479 154.105 36.96 158.173C36.1222 157.203 36.3149 155.709 36.4741 154.399C36.872 151.162 36.872 147.876 36.4741 144.639C33.7841 144.008 31.026 143.864 28.2979 144.212C20.3982 145.58 15.7321 149.509 16.151 155.379C20.409 154.931 24.6878 154.808 28.9597 155.01C24.9031 156.378 20.7225 157.192 16.5028 157.436C17.1568 159.691 18.1651 161.786 19.4768 163.616C21.2276 166.178 22.702 168.069 24.0842 169.758C31.0196 167.835 38.2353 167.703 45.2199 169.37C42.9999 171.009 40.1433 170.534 37.5129 170.466C33.789 170.373 30.0908 171.2 26.6644 172.891C29.8812 176.84 33.1735 181.371 39.0459 193.169C39.9506 194.983 40.8302 196.768 41.7015 198.505C43.2585 199.646 45.0393 200.314 46.8786 200.445C49.4498 200.559 52.0215 200.232 54.5102 199.475C55.0128 199.349 55.7081 199.349 55.8338 199.931C55.9594 200.513 55.2474 200.901 54.6945 200.989C52.9325 201.124 51.1821 201.416 49.4587 201.862C47.7188 202.319 46.1908 203.517 45.178 205.219C50.1205 214.494 55.0631 221.887 61.5638 225.331C64.1756 224.575 66.642 223.259 68.8352 221.45C68.0356 223.548 66.7836 225.372 65.1995 226.748C67.5196 227.382 69.914 227.568 72.2866 227.301C88.1195 225.661 87.9603 206.509 85.1288 195.633C84.8859 194.867 84.6346 193.925 84.3581 192.936Z" fill="#455A64"/>
<path d="M94.4031 297.078C94.4031 297.078 94.4031 296.932 94.3445 296.641C94.2858 296.35 94.2691 295.884 94.2104 295.331L93.7413 290.296C93.356 285.891 92.7947 279.565 92.0659 271.765C91.7308 267.884 91.3538 263.567 90.9517 258.968C90.5496 254.369 90.2815 249.411 88.8155 244.492C87.3741 239.337 85.564 234.329 83.4039 229.522C81.142 224.526 78.5953 219.471 75.789 214.435C70.1679 204.355 64.2536 195.196 58.7749 186.959C56.0272 182.855 53.4638 178.897 50.9171 175.317C48.6403 171.947 46.0719 168.855 43.252 166.09L36.3156 159.143C34.2716 157.116 32.4789 155.408 30.9794 154.059C29.4798 152.711 28.2819 151.721 27.4693 151.042L26.5394 150.285C26.4312 150.203 26.3276 150.112 26.2295 150.014L26.5646 150.247L27.5196 150.964C28.3573 151.615 29.572 152.575 31.0883 153.875C32.6045 155.175 34.4391 156.892 36.4748 158.901L43.453 165.789C46.3026 168.549 48.8993 171.64 51.2019 175.016C53.7653 178.577 56.3371 182.516 59.0932 186.658C64.5887 194.886 70.5197 204.044 76.1576 214.135C78.9639 219.189 81.519 224.254 83.7892 229.28C85.9805 234.117 87.8133 239.16 89.2679 244.357L90.1643 248.082C90.3569 249.334 90.5496 250.576 90.7423 251.788C90.8417 252.391 90.9088 253 90.9433 253.612L91.0941 255.407C91.1946 256.601 91.2952 257.774 91.3873 258.919C91.7727 263.528 92.1245 267.806 92.4512 271.726C93.0795 279.488 93.5989 285.872 93.9507 290.276C94.1183 292.45 94.2523 294.157 94.3445 295.321C94.3445 295.874 94.4115 296.292 94.4283 296.631C94.445 296.971 94.4031 297.078 94.4031 297.078Z" fill="#263238"/>
<path d="M43.0674 188.55C43.9157 188.311 44.7832 188.174 45.6559 188.143C47.7588 187.971 49.8695 187.971 51.9723 188.143C54.074 188.312 56.1625 188.656 58.2217 189.171C59.0819 189.34 59.9243 189.613 60.7349 189.986C59.867 189.896 59.0051 189.741 58.1547 189.521C56.5714 189.21 54.3766 188.851 51.9304 188.647C49.4843 188.444 47.2727 188.453 45.6643 188.512C44.8001 188.585 43.9329 188.598 43.0674 188.55Z" fill="#263238"/>
<path d="M61.4554 170.115C60.5394 172.568 59.8241 175.114 59.3192 177.722C58.9703 180.363 58.8329 183.036 58.9087 185.706C58.704 184.946 58.5968 184.155 58.5904 183.359C58.4829 181.44 58.5842 179.514 58.892 177.625C59.2051 175.738 59.7172 173.904 60.4166 172.162C60.6767 171.426 61.0265 170.737 61.4554 170.115Z" fill="#263238"/>
<path d="M64.6803 164.615C64.7808 164.702 64.5127 165.294 64.0855 165.944C63.6583 166.594 63.2478 167.04 63.1305 166.914C63.0132 166.788 63.3064 166.245 63.7337 165.595C64.1609 164.945 64.5881 164.537 64.6803 164.615Z" fill="#263238"/>
<path d="M72.5127 176.791C72.5714 176.84 71.9012 177.849 70.9881 179.595C68.5762 184.149 67.1401 189.306 66.7995 194.634C66.6655 196.671 66.7074 197.942 66.6403 197.942C66.5588 197.657 66.5192 197.359 66.5231 197.059C66.4858 196.245 66.4858 195.429 66.5231 194.614C66.6007 191.918 67.001 189.247 67.7126 186.678C68.4252 184.107 69.434 181.66 70.7117 179.401C71.1006 178.729 71.5201 178.082 71.9682 177.461C72.3285 176.995 72.5127 176.762 72.5127 176.791Z" fill="#263238"/>
<path d="M72.605 206.808C71.6626 206.834 70.7197 206.792 69.7819 206.682C68.0478 206.566 65.6435 206.469 62.988 206.527C60.3324 206.585 57.9616 206.769 56.2024 206.954C55.2692 207.1 54.3293 207.181 53.3877 207.196C53.6203 207.073 53.8698 206.997 54.1249 206.973C54.6024 206.866 55.2977 206.731 56.1689 206.595C60.6924 205.922 65.2662 205.831 69.807 206.323C70.6447 206.42 71.3819 206.527 71.8594 206.614C72.115 206.634 72.3665 206.7 72.605 206.808Z" fill="#263238"/>
<path d="M74.6411 211.544C74.6411 211.69 72.2787 211.68 69.4054 212.029C66.532 212.379 64.2283 212.932 64.2031 212.786C65.8618 212.08 67.5999 211.655 69.3635 211.525C71.1141 211.233 72.8922 211.239 74.6411 211.544Z" fill="#263238"/>
<path d="M80.1196 203.967C80.2285 204.054 79.0138 206.062 77.9834 208.818C76.953 211.573 76.509 213.97 76.375 213.941C76.4691 212.089 76.8821 210.278 77.5897 208.614C78.1623 206.888 79.0218 205.309 80.1196 203.967Z" fill="#263238"/>
<path d="M55.0378 180.41C54.1069 180.246 53.1841 180.026 52.2733 179.75C50.5979 179.323 48.202 178.78 45.5715 178.459C42.9411 178.139 40.5452 177.994 38.786 177.965C37.8443 178 36.9016 177.971 35.9629 177.877C36.2082 177.795 36.4616 177.75 36.7168 177.742C37.2027 177.683 37.9148 177.635 38.786 177.606C41.0688 177.54 43.3528 177.657 45.6218 177.955C47.8814 178.261 50.1205 178.744 52.3236 179.401C53.1613 179.663 53.8482 179.895 54.3173 180.08C54.5722 180.14 54.816 180.252 55.0378 180.41Z" fill="#263238"/>
<path d="M48.3115 153.885C48.2762 154.72 48.181 155.551 48.0267 156.368C47.7638 158.349 47.5905 160.344 47.5073 162.345C47.4204 164.349 47.4204 166.356 47.5073 168.36C47.5872 169.188 47.6179 170.021 47.5995 170.854C47.3731 170.056 47.2406 169.228 47.2057 168.389C46.8192 164.358 46.9832 160.282 47.6916 156.31C47.8122 155.476 48.0204 154.661 48.3115 153.885Z" fill="#263238"/>
<path d="M43.3602 155.729C43.4858 155.729 43.0502 157.717 43.0586 160.162C43.067 162.607 43.4691 164.557 43.3434 164.596C42.3608 161.75 42.3608 158.575 43.3434 155.729H43.3602Z" fill="#263238"/>
<path d="M36.9688 162.111C36.3479 162.253 35.7167 162.324 35.0839 162.325C33.9195 162.402 32.3111 162.519 30.5351 162.703C28.7591 162.887 27.1842 163.091 26.003 163.246C25.3814 163.378 24.7499 163.436 24.1182 163.421C24.7095 163.152 25.3294 162.976 25.9611 162.897C27.1088 162.645 28.7173 162.373 30.5016 162.198C32.2859 162.024 33.9027 161.956 35.0755 161.966C35.7094 161.92 36.3457 161.969 36.9688 162.111Z" fill="#263238"/>
<path d="M33.9108 158.852C33.2211 159.056 32.5023 159.092 31.7998 158.958C31.0884 158.99 30.3789 158.855 29.7139 158.561C31.1124 158.322 32.5386 158.421 33.9025 158.852H33.9108Z" fill="#263238"/>
<path d="M121.301 175.626C125.096 172.298 132.125 167.535 140.326 163.469C140.671 163.295 141.047 163.217 141.423 163.241C141.798 163.266 142.164 163.392 142.49 163.61C142.816 163.828 143.093 164.132 143.3 164.497C143.506 164.862 143.635 165.277 143.677 165.711C144.02 169.242 144.456 171.532 144.967 175.975C145.57 170.668 145.805 169.184 146.266 163.838C146.338 162.883 146.65 161.974 147.164 161.222C147.678 160.47 148.37 159.909 149.156 159.608C162.785 154.456 177.563 152.817 185.814 162.713C186.334 163.334 178.233 167.234 168.457 174.637C167.777 175.152 166.955 175.353 166.153 175.199C156.042 173.191 155.598 174.627 154.014 175.306C152.666 175.878 159.2 175.849 164.067 177.004C158.671 181.911 153.718 187.437 149.281 193.497C147.732 195.603 146.324 197.63 145.042 199.581C143.81 200.25 142.496 200.698 141.147 200.91C138.752 201.165 136.347 201.276 133.943 201.24C133.582 201.24 133.105 201.337 133.03 201.725C132.862 202.287 133.515 202.695 134.026 202.782L138.609 203.752C138.967 203.831 139.303 204.011 139.586 204.277C139.869 204.543 140.09 204.887 140.23 205.276C140.369 205.666 140.423 206.09 140.386 206.51C140.348 206.93 140.221 207.333 140.016 207.682C132.167 221.08 129.126 228.929 116.887 228.056C116.887 228.056 108.87 228.386 106.105 216.87C103.341 205.353 110.277 185.251 121.301 175.626Z" fill="#455A64"/>
<path d="M94.7129 302.063C94.7129 302.063 94.7129 301.898 94.7129 301.569C94.7129 301.239 94.7715 300.734 94.8218 300.104C94.9307 298.823 95.0982 296.931 95.3412 294.496C95.8271 289.645 96.5978 282.601 97.8125 273.947C99.1891 263.822 101.007 253.783 103.258 243.87C104.602 238.003 106.33 232.262 108.426 226.698C110.745 220.755 113.52 215.066 116.72 209.7C118.345 206.935 119.953 204.208 121.671 201.618C123.354 199.064 125.146 196.61 127.04 194.264C130.636 189.811 134.533 185.697 138.693 181.962C142.406 178.578 146.326 175.511 150.421 172.783C154.055 170.492 157.866 168.601 161.806 167.137C167.514 165.076 173.359 163.561 179.281 162.606C181.375 162.247 183.009 162.004 184.114 161.859L185.371 161.694C185.513 161.685 185.656 161.685 185.798 161.694L185.379 161.781L184.123 161.995C183.017 162.179 181.392 162.451 179.306 162.839C173.41 163.873 167.593 165.437 161.906 167.515C157.993 168.996 154.207 170.896 150.597 173.191C146.503 175.921 142.584 178.988 138.869 182.369C134.76 186.097 130.909 190.191 127.35 194.613C125.499 196.912 123.723 199.367 122.014 201.938C120.305 204.509 118.663 207.245 117.088 210C113.9 215.341 111.131 221 108.812 226.911C106.724 232.453 104.996 238.167 103.643 244.006C101.021 255.173 99.3957 265.438 98.114 274.083C96.8323 282.727 96.0449 289.742 95.5087 294.602C95.249 297.009 95.048 298.891 94.9056 300.191C94.8469 300.822 94.7883 301.307 94.7548 301.646C94.7459 301.786 94.732 301.925 94.7129 302.063Z" fill="#263238"/>
<path d="M127.56 215.25C126.863 215.432 126.154 215.542 125.44 215.58C124.133 215.745 122.332 215.978 120.347 216.317C118.361 216.657 116.569 217.016 115.279 217.288C114.583 217.482 113.874 217.606 113.159 217.656C113.817 217.325 114.506 217.084 115.212 216.938C116.493 216.57 118.286 216.143 120.238 215.813C122.19 215.483 124.058 215.299 125.373 215.231C126.1 215.133 126.834 215.14 127.56 215.25Z" fill="#263238"/>
<path d="M130.458 211.098C129.7 211.216 128.935 211.264 128.171 211.244C126.755 211.312 124.82 211.438 122.667 211.719C120.514 212.001 118.604 212.408 117.222 212.689C116.479 212.909 115.723 213.065 114.96 213.155C115.66 212.781 116.397 212.507 117.155 212.34C118.952 211.822 120.777 211.44 122.617 211.195C124.457 210.942 126.31 210.831 128.162 210.865C128.933 210.838 129.703 210.916 130.458 211.098Z" fill="#263238"/>
<path d="M112.589 191.461C112.707 191.461 113.578 196.011 114.533 201.667C115.488 207.324 116.208 211.942 116.058 211.971C115.258 208.609 114.606 205.203 114.106 201.765C113.151 196.118 112.472 191.461 112.589 191.461Z" fill="#263238"/>
<path d="M120.531 179.332C120.598 179.332 120.389 180.652 120.171 182.786C119.6 188.35 119.781 193.983 120.707 199.483C121.059 201.598 121.352 202.889 121.285 202.908C121.149 202.636 121.05 202.342 120.992 202.035C120.824 201.453 120.623 200.609 120.405 199.561C119.301 194.044 119.119 188.333 119.869 182.737C120.012 181.67 120.162 180.797 120.288 180.225C120.328 179.914 120.41 179.613 120.531 179.332Z" fill="#263238"/>
<path d="M144.138 193.925C143.219 194.067 142.293 194.138 141.365 194.138C139.69 194.245 137.302 194.429 134.705 194.779C132.108 195.128 129.78 195.574 128.096 195.933C127.192 196.168 126.277 196.343 125.356 196.457C125.576 196.316 125.813 196.218 126.06 196.166C126.529 196.001 127.199 195.807 128.037 195.584C130.22 195.005 132.43 194.568 134.655 194.274C136.88 193.974 139.117 193.812 141.357 193.789C142.195 193.789 142.915 193.789 143.393 193.789C143.645 193.794 143.896 193.84 144.138 193.925Z" fill="#263238"/>
<path d="M149.097 187.58C148.253 187.496 147.414 187.357 146.584 187.163C142.61 186.496 138.568 186.595 134.621 187.454C133.808 187.677 132.986 187.852 132.158 187.978C132.923 187.574 133.728 187.281 134.554 187.105C138.518 186.026 142.634 185.927 146.634 186.814C147.479 186.952 148.306 187.209 149.097 187.58Z" fill="#263238"/>
<path d="M148.695 182.622C147.754 182.729 146.805 182.666 145.88 182.438C144.936 182.378 144.006 182.145 143.124 181.749C144.065 181.65 145.013 181.712 145.939 181.934C146.882 182 147.812 182.232 148.695 182.622Z" fill="#263238"/>
<path d="M134.696 168.602C134.531 171.92 134.215 175.227 133.75 178.507C133.096 183.95 132.476 188.355 132.359 188.336C132.242 188.316 132.669 183.882 133.314 178.44C133.959 172.997 134.579 168.582 134.696 168.602Z" fill="#263238"/>
<path d="M125.717 181.496C126.106 183.782 126.355 186.097 126.462 188.423C126.71 190.737 126.816 193.068 126.781 195.399C126.38 193.115 126.128 190.8 126.027 188.472C125.779 186.158 125.675 183.827 125.717 181.496Z" fill="#263238"/>
<path d="M157.282 159.541C157.323 159.609 156.804 160.123 156.184 161.142C155.393 162.503 154.757 163.977 154.291 165.527C153.721 167.341 153.235 169.02 152.758 170.184C152.546 170.836 152.237 171.441 151.845 171.969C152.014 171.306 152.224 170.658 152.473 170.029C152.875 168.855 153.311 167.177 153.88 165.343C154.353 163.749 155.046 162.255 155.933 160.919C156.283 160.344 156.745 159.872 157.282 159.541Z" fill="#263238"/>
<path d="M159.3 163.82C159.138 164.821 158.835 165.785 158.404 166.673C158.098 167.631 157.659 168.526 157.105 169.321C157.268 168.32 157.57 167.357 158.002 166.469C158.308 165.511 158.747 164.616 159.3 163.82Z" fill="#263238"/>
<path d="M170.25 168.002C168.96 168.101 167.665 168.032 166.388 167.798C165.096 167.734 163.815 167.5 162.568 167.1C165.15 167.057 167.728 167.359 170.25 168.002Z" fill="#263238"/>
<path d="M69.8488 237.391L66.5733 243.493L67.1429 234.422C67.1429 234.422 61.17 226.515 43.5276 228.329C43.5276 228.329 37.5547 228.164 34.1368 230.269C30.7189 232.375 32.4111 235.043 32.4111 235.043C55.6662 246.074 73.9536 259.463 84.7853 276.403C87.1603 273.239 89.0783 269.651 90.465 265.779C92.4588 259.89 88.3456 243.164 69.8488 237.391Z" fill="#455A64"/>
<path d="M59.4026 235.354C59.6556 236.059 59.8165 236.805 59.8801 237.566C60.133 239.378 60.2451 241.212 60.2152 243.047C60.1835 244.88 60.004 246.706 59.679 248.5C59.5768 249.242 59.385 249.964 59.1094 250.644C58.9753 250.644 59.6958 247.239 59.7628 242.989C59.8298 238.74 59.2685 235.383 59.4026 235.354Z" fill="#263238"/>
<path d="M52.5999 235.373C54.2542 239.077 54.9715 243.248 54.6691 247.404C54.535 247.404 54.5183 244.639 53.9403 241.32C53.3622 238.002 52.4743 235.431 52.5999 235.373Z" fill="#263238"/>
<path d="M63.7755 244.822C63.9107 246.124 63.8167 247.444 63.499 248.703C63.3118 250.005 62.8924 251.247 62.2676 252.351C62.4919 251.081 62.7715 249.824 63.1053 248.587C63.271 247.319 63.4947 246.062 63.7755 244.822Z" fill="#263238"/>
<path d="M76.7019 245.453C76.4995 246.162 76.2178 246.837 75.8641 247.461C75.0711 249.022 74.2013 250.528 73.2588 251.973C72.3252 253.425 71.3182 254.811 70.243 256.125C69.8233 256.704 69.342 257.219 68.8105 257.658C69.1598 257.026 69.561 256.435 70.0085 255.893C70.7792 254.835 71.818 253.36 72.9154 251.672C74.0128 249.984 74.9343 248.422 75.5961 247.277C75.9166 246.632 76.2867 246.021 76.7019 245.453Z" fill="#263238"/>
<path d="M82.566 251.303C82.1629 251.914 81.6957 252.465 81.1754 252.942C80.2707 253.913 78.9722 255.174 77.4811 256.484C75.9899 257.793 74.5826 258.89 73.5354 259.637C72.994 260.083 72.4092 260.454 71.793 260.743C72.2724 260.212 72.8005 259.744 73.3679 259.346C74.3564 258.521 75.7303 257.405 77.213 256.076C78.6958 254.747 80.0194 253.563 80.9744 252.671C81.4625 252.152 81.996 251.694 82.566 251.303Z" fill="#263238"/>
<path d="M83.8978 259.025C82.6241 260.158 81.2126 261.067 79.7092 261.722C78.2696 262.532 76.7335 263.088 75.152 263.372C75.1101 263.226 77.1374 262.46 79.5333 261.257C81.9292 260.054 83.8308 258.899 83.8978 259.025Z" fill="#263238"/>
<path d="M85.2969 87.6474C85.3975 87.725 82.9848 92.7313 79.8936 98.8436C76.8025 104.956 74.2139 109.855 74.1134 109.788C74.0129 109.72 76.4255 104.704 79.5167 98.5913C82.6079 92.479 85.1964 87.5698 85.2969 87.6474Z" fill="#263238"/>
<path d="M89.2669 79.4108C89.3591 79.4981 88.7894 80.381 87.9936 81.4192C87.1978 82.4573 86.4857 83.1946 86.3936 83.0976C86.7065 82.3395 87.1383 81.6552 87.6669 81.0796C88.4711 80.0609 89.1832 79.3138 89.2669 79.4108Z" fill="#263238"/>
<path d="M88.9245 66.4492C88.7102 66.8652 88.4604 67.2553 88.1789 67.6135L86.0679 70.6987C84.2835 73.2989 81.8793 76.9566 79.4247 81.1381C76.9702 85.3197 74.8759 89.2394 73.4183 92.1015C72.7314 93.4792 72.1533 94.6143 71.7429 95.4972C71.551 95.9277 71.3297 96.3397 71.0811 96.7294C71.218 96.2732 71.389 95.8317 71.5921 95.4099C71.9523 94.5755 72.4968 93.3822 73.1921 91.9268C74.5743 89.0162 76.6184 85.0578 79.0561 80.8568C81.4939 76.6558 83.9736 73.0272 85.8166 70.4659C86.738 69.1949 87.492 68.1762 88.0449 67.4873C88.3096 67.1104 88.6041 66.7629 88.9245 66.4492Z" fill="#263238"/>
<path d="M64.387 78.3833C63.9937 78.3403 63.6042 78.2592 63.2226 78.1408L60.0895 77.3646C57.4339 76.7146 53.7563 75.8996 49.6599 75.2205C45.5634 74.5413 41.8356 74.1241 39.1381 73.8816L35.9297 73.6099C35.5352 73.6035 35.1423 73.5515 34.7568 73.4547C35.1498 73.4135 35.5451 73.4135 35.938 73.4547C36.7003 73.4547 37.7978 73.4547 39.1549 73.5614C41.8691 73.7166 45.6137 74.0756 49.7269 74.7548C53.8401 75.4339 57.5093 76.3168 60.1565 77.0542C61.4717 77.4228 62.5356 77.743 63.2644 78.0244C63.6482 78.0996 64.0243 78.2198 64.387 78.3833Z" fill="#263238"/>
<path d="M76.9616 50.4414C76.818 50.8052 76.6411 51.15 76.4338 51.4698L74.9008 54.1864C73.6274 56.4955 71.9352 59.736 70.2766 63.4519C68.6179 67.1678 67.3027 70.6314 66.4147 73.1539C66.0042 74.3473 65.6523 75.3563 65.3759 76.1713C65.2671 76.5515 65.1268 76.9186 64.957 77.2676C65.0034 76.869 65.0905 76.4781 65.2167 76.1034C65.4094 75.366 65.711 74.3182 66.1298 73.0278C67.2033 69.6646 68.4567 66.3822 69.8828 63.1996C71.3084 60.0148 72.9002 56.9335 74.6495 53.973C75.3196 52.8378 75.8809 51.9355 76.3249 51.334C76.5086 51.0107 76.7221 50.7114 76.9616 50.4414Z" fill="#263238"/>
<path d="M71.3236 38.75C71.1635 39.1302 70.9668 39.4882 70.7372 39.8172C70.3267 40.4867 69.7571 41.4666 69.0618 42.7278C67.2752 45.8986 65.6798 49.2084 64.2868 52.6337C62.908 56.0498 61.7379 59.5739 60.7851 63.1798C60.4165 64.5769 60.1401 65.7023 59.9474 66.4979C59.8759 66.9125 59.7635 67.3162 59.6123 67.701C59.634 67.2786 59.6901 66.8595 59.7798 66.4494C59.9139 65.6441 60.1484 64.509 60.4752 63.0828C62.2372 55.7127 65.0701 48.744 68.8524 42.4756C69.5728 41.2822 70.1843 40.3314 70.6367 39.7008C70.8387 39.359 71.0687 39.0405 71.3236 38.75Z" fill="#263238"/>
<path d="M63.6417 43.9219C63.759 44.0092 62.7454 45.8623 61.9663 48.3072C61.1872 50.7521 60.8186 52.9254 60.6846 52.8963C60.8224 49.6085 61.8744 46.4605 63.6836 43.9219H63.6417Z" fill="#263238"/>
<path d="M32.5791 43.7651C32.8567 43.7163 33.1392 43.7163 33.4168 43.7651C33.9446 43.7651 34.7069 43.8234 35.6452 43.9301C38.0918 44.1959 40.5172 44.6792 42.8998 45.3757C45.2845 46.0719 47.62 46.9768 49.8864 48.0826C50.7241 48.5095 51.4445 48.8878 51.9137 49.1692C52.1659 49.2897 52.4026 49.4497 52.6174 49.6446C52.6174 49.7222 51.5283 49.1789 49.7691 48.4124C47.489 47.4138 45.162 46.5651 42.7993 45.8705C40.4321 45.179 38.0322 44.6478 35.6116 44.2794C33.7352 43.9883 32.5791 43.8428 32.5791 43.7651Z" fill="#263238"/>
<path d="M38.25 40.1074C38.8835 40.0272 39.5236 40.05 40.1516 40.1754C41.6715 40.3753 43.1719 40.7391 44.6334 41.262C46.0996 41.7777 47.5192 42.4568 48.8723 43.2897C49.4535 43.5898 49.9928 43.9888 50.4723 44.4734C50.4053 44.6092 47.9005 42.9404 44.5078 41.7471C41.115 40.5537 38.2416 40.2433 38.25 40.1074Z" fill="#263238"/>
<path d="M51.7213 21.5684C51.6112 22.4227 51.4346 23.2638 51.1935 24.0812C50.8333 25.6238 50.3558 27.7583 49.9537 30.145C49.5516 32.5317 49.2584 34.705 49.116 36.2864C49.0622 37.1471 48.9445 38.0008 48.7641 38.838C48.6879 37.9758 48.7019 37.1059 48.806 36.2476C49.1067 32.0779 49.8235 27.9627 50.9422 23.9842C51.1253 23.1485 51.3865 22.3384 51.7213 21.5684Z" fill="#263238"/>
<path d="M42.9746 61.5312C43.8202 61.5437 44.6624 61.6574 45.4878 61.8708C47.4987 62.2874 49.4896 62.825 51.4523 63.4814C53.4139 64.1438 55.3435 64.9275 57.2326 65.8293C58.0312 66.1591 58.7977 66.5851 59.5196 67.1002C58.7024 66.8418 57.9018 66.5176 57.1237 66.13C55.6493 65.5188 53.6136 64.7135 51.3267 63.9374C49.0397 63.1612 46.9454 62.5888 45.4207 62.2007C44.5934 62.041 43.7762 61.8174 42.9746 61.5312Z" fill="#263238"/>
<path d="M43.1934 93.9361C43.5408 93.8556 43.8945 93.8166 44.2489 93.8197C44.9274 93.7615 45.9243 93.7324 47.1306 93.7421C50.3021 93.771 53.468 94.0563 56.6052 94.5959C59.7179 95.1538 62.7939 95.9577 65.8118 97.002C66.9762 97.4095 67.9061 97.7781 68.5427 98.0595C68.8829 98.1693 69.2094 98.3291 69.5145 98.5349C69.1669 98.4742 68.8248 98.3768 68.4925 98.2438C67.8391 98.0207 66.8924 97.7102 65.728 97.3512C62.6814 96.3999 59.5909 95.6484 56.4712 95.1004C53.3505 94.5754 50.207 94.2515 47.0552 94.1301C45.8406 94.0816 44.8604 94.0525 44.1819 94.0428C43.8501 94.046 43.5189 94.0103 43.1934 93.9361Z" fill="#263238"/>
<path d="M52.4082 106.266C52.6839 106.203 52.965 106.176 53.2459 106.188C53.7821 106.188 54.5695 106.188 55.5413 106.188C58.0635 106.277 60.58 106.516 63.0808 106.906C65.5921 107.295 68.0837 107.839 70.5448 108.536C71.4831 108.808 72.2203 109.05 72.7648 109.235C73.043 109.302 73.3112 109.416 73.5606 109.574C73.5606 109.642 72.3711 109.332 70.4694 108.886C68.5678 108.439 65.9458 107.915 63.0221 107.401C60.0985 106.887 57.4261 106.693 55.4826 106.547C54.4542 106.518 53.4279 106.424 52.4082 106.266Z" fill="#263238"/>
<path d="M55.6162 112.244C56.2091 112.107 56.8166 112.078 57.4173 112.156C58.8659 112.219 60.3082 112.41 61.7316 112.729C63.1542 113.051 64.5543 113.495 65.9202 114.058C66.5143 114.242 67.0797 114.533 67.5956 114.921C67.5537 115.067 64.9903 113.951 61.6897 113.223C58.3891 112.496 55.6162 112.399 55.6162 112.244Z" fill="#263238"/>
<path d="M51.3359 123.449C51.7825 123.457 52.2279 123.506 52.6679 123.595C53.5056 123.711 54.7455 123.944 56.2533 124.284C64.1208 126.085 71.6816 129.362 78.6372 133.986C79.9692 134.878 81.0247 135.635 81.7368 136.198C82.1189 136.462 82.4805 136.764 82.8174 137.1C82.4083 136.895 82.0158 136.648 81.6446 136.363C80.9074 135.858 79.8352 135.15 78.4864 134.296C71.4845 129.862 63.977 126.596 56.1863 124.594C54.6952 124.216 53.4805 123.925 52.6428 123.75C52.2002 123.696 51.7628 123.595 51.3359 123.449Z" fill="#263238"/>
<path d="M153.37 297.311H37.6895V317.937H153.37V297.311Z" fill="#FF725E"/>
<path d="M47.8506 317.938L60.1567 390.771H132.326L143.208 317.938H47.8506Z" fill="#FF725E"/>
<path opacity="0.3" d="M47.8506 317.938L48.8558 323.865H142.32L143.208 317.938H47.8506Z" fill="black"/>
<path d="M95.6846 29.3297L75.7637 1.84375C84.0966 10.1975 91.2406 20.0201 96.9328 30.9499" fill="#263238"/>
<path d="M104.908 4.94727C103.089 10.6374 102.84 16.8411 104.196 22.702L105.427 33.7721C107.637 24.3038 107.456 14.3005 104.908 4.94727Z" fill="#FF725E"/>
<g opacity="0.3">
<path d="M104.908 4.94727C103.089 10.6374 102.84 16.8411 104.196 22.702L105.427 33.7721C107.637 24.3038 107.456 14.3005 104.908 4.94727Z" fill="black"/>
</g>
<path d="M78.9551 9.0625C80.6305 12.6038 82.9929 15.4562 85.3553 18.425C87.7176 21.3938 90.4486 23.4895 92.945 26.0896C97.5943 30.9407 101.046 37.0918 104.438 43.175L103.098 43.9996C102.193 40.6718 99.5797 38.3627 96.9493 36.6552C94.3189 34.9476 91.4455 33.5505 89.3261 31.0571C87.7499 29.0061 86.4609 26.6818 85.506 24.1686L78.9551 9.0625Z" fill="#FF725E"/>
<g opacity="0.3">
<path d="M78.9551 9.0625C80.6305 12.6038 82.9929 15.4562 85.3553 18.425C87.7176 21.3938 90.4486 23.4895 92.945 26.0896C97.5943 30.9407 101.046 37.0918 104.438 43.175L103.098 43.9996C102.193 40.6718 99.5797 38.3627 96.9493 36.6552C94.3189 34.9476 91.4455 33.5505 89.3261 31.0571C87.7499 29.0061 86.4609 26.6818 85.506 24.1686L78.9551 9.0625Z" fill="black"/>
</g>
<path d="M104.991 42.8928C104.991 39.8173 102.989 37.3141 101.44 34.811C98.8485 30.4123 97.0271 25.4681 96.0781 20.2579C95.1386 15.0506 94.495 9.77753 94.1514 4.47266L103.081 18.6668C104.539 20.9953 106.039 23.4596 106.323 26.312C106.583 29.0189 105.704 31.687 105.285 34.3647C104.866 37.0425 105.092 40.186 106.96 41.8935" fill="#FF725E"/>
<path opacity="0.3" d="M95.8604 19.1035C95.8604 19.1035 100.451 23.0717 102.026 26.351C103.601 29.6303 105.829 42.1653 105.829 42.1653L104.991 42.893C104.793 41.315 104.353 39.7905 103.693 38.3912C102.699 36.6139 101.52 34.9847 100.183 33.5402C98.4824 32.1334 96.6981 23.615 96.363 21.5775C96.2535 20.7385 96.0854 19.9111 95.8604 19.1035Z" fill="black"/>
<path d="M101.599 32.9097C101.004 30.9111 100.501 28.8639 99.9233 26.8556C99.1365 24.1002 97.7246 21.6406 95.8352 19.7343C94.8886 18.7641 93.9084 17.8715 92.9367 16.9692L83.4453 8.0918C83.8251 9.42647 84.2957 10.7241 84.8527 11.9726L90.9848 26.4675C92.0738 29.058 93.2299 31.7357 95.1734 33.5597C96.8488 35.1606 99.0018 35.9658 100.87 37.2756C102.738 38.5854 104.447 40.7683 104.313 43.2909L106.064 42.2043C104 39.5268 102.475 36.3523 101.599 32.9097Z" fill="#FF725E"/>
<path d="M104.975 43.5332C109.884 29.7659 110.135 14.427 113.394 0C114.231 1.46501 113.645 3.40542 113.193 5.09358C111.76 10.4491 112.263 16.2121 111.668 21.7714C110.83 29.4264 107.982 36.5574 105.151 43.5429" fill="#263238"/>
<path d="M105.041 42.7566C103.616 40.5616 101.702 38.8577 99.5041 37.8279C97.7365 37.2291 95.9085 36.9028 94.0673 36.8577C88.571 36.4583 83.0579 36.481 77.5642 36.9256C77.4754 36.9204 77.3867 36.9376 77.3042 36.9761C77.2217 37.0147 77.1475 37.0736 77.0867 37.1488C76.9108 37.4398 77.1956 37.7988 77.4469 37.9928C80.8127 40.614 84.7596 42.0557 88.8148 42.1453C91.6212 42.2035 94.394 41.6117 97.192 41.4274C99.99 41.243 102.922 41.4953 105.36 43.0961L105.041 42.7566Z" fill="#FF725E"/>
<path d="M109.908 35.8C105.945 39.1557 102.648 43.4565 100.241 48.4127C97.284 54.9325 96.8903 68.0303 96.2871 75.365C98.0715 67.6616 100.182 59.9193 104.078 53.3413C109.64 43.9497 118.621 37.2747 122.365 26.7383C118.031 29.4099 113.868 32.4383 109.908 35.8Z" fill="#455A64"/>
<path d="M96.0859 11.002C96.3062 11.2395 96.4978 11.5104 96.6556 11.8072C97.0074 12.3408 97.4933 13.117 98.0965 14.0969C98.6996 15.0768 99.3614 16.2605 100.224 17.4635C101.087 18.6666 102.118 19.9376 103.081 21.4026C104.023 22.7776 104.71 24.363 105.1 26.0596C105.334 27.4648 105.297 28.9127 104.991 30.2994C104.781 31.386 104.597 32.3077 104.455 33.0644C104.405 33.3961 104.326 33.7212 104.22 34.0346C104.194 33.6835 104.217 33.3297 104.287 32.9868C104.354 32.3271 104.513 31.3666 104.689 30.2023C104.938 28.8594 104.938 27.4704 104.689 26.1275C104.294 24.5067 103.625 22.9931 102.721 21.6742C101.774 20.2383 100.744 18.9673 99.8976 17.7158C99.0515 16.4642 98.398 15.2418 97.82 14.2521C97.242 13.2625 96.8064 12.5155 96.5216 11.9722C96.3375 11.6742 96.1909 11.3475 96.0859 11.002Z" fill="#263238"/>
<path d="M153.772 317.936C153.772 318.072 127.735 318.188 95.6256 318.188C63.5158 318.188 37.4795 318.072 37.4795 317.936C37.4795 317.8 63.5074 317.684 95.6256 317.684C127.744 317.684 153.772 317.79 153.772 317.936Z" fill="#263238"/>
</svg>
