<svg width="187" height="360" viewBox="0 0 187 360" fill="none" xmlns="http://www.w3.org/2000/svg">
<path d="M100.017 178.12C99.5645 181.693 99.2433 185.292 99.0951 188.89L98.2717 206.56L95.0851 273.315H98.4282L100.371 206.636L100.882 188.959C100.956 185.615 101.195 182.289 101.541 178.971L101.788 179.099C101.788 179.099 108.21 181.396 111.669 180.12C115.127 178.844 121.788 170.94 125.494 159.209C129.199 147.478 132.904 104.644 130.903 104.432C128.903 104.219 100.569 122.747 93.1583 132.437C85.7477 142.127 82.5446 160.511 85.2618 166.1C87.3533 170.472 96.2132 175.926 100.017 178.12Z" fill="#263238"/>
<path d="M81.7792 191.596C81.7792 191.596 82.0592 191.358 82.4874 190.941C82.9876 192.348 83.4028 193.786 83.7307 195.246C84.0164 196.542 84.209 197.859 84.3071 199.185C84.3977 200.478 84.3894 201.89 84.4306 203.251L84.5377 211.469C84.7106 232.073 84.6447 252.703 84.5377 273.316H87.8313C87.4855 252.686 87.1149 232.056 86.4891 211.427L86.2009 203.192C86.1351 201.805 86.1104 200.469 85.9951 199.032C85.8602 197.624 85.6291 196.228 85.3034 194.855C84.874 193.101 84.3237 191.381 83.6566 189.708C85.5537 187.767 87.1037 185.494 88.2348 182.996C90.0545 178.47 82.7179 172.728 76.5506 164.059C70.3832 155.39 44.7588 140.596 35.3719 138.299C25.985 136.002 22.2961 132.182 25.7462 139.575C29.1963 146.968 50.1933 174.514 50.1933 174.514C50.1933 174.514 71.6678 194.149 77.094 194.149C82.5203 194.149 81.7792 191.596 81.7792 191.596Z" fill="#263238"/>
<path d="M91.4709 113.926C91.0646 121.582 90.6694 129.239 90.2852 136.895C89.5358 152.251 88.8112 167.606 88.2843 182.987C88.1772 186.832 88.0455 190.644 87.9796 194.531C87.9302 196.454 87.911 198.385 87.922 200.325C87.922 201.294 87.922 202.247 87.922 203.234L88.0208 206.186C88.4736 213.766 88.4901 221.456 88.5066 229.155C88.5066 243.873 88.2678 258.607 87.9714 273.333H91.9073C91.9484 258.59 91.9073 243.864 91.6767 229.096C91.5285 221.439 91.3885 213.706 90.7874 205.956L90.6475 203.149C90.598 202.213 90.6474 201.243 90.5898 200.299C90.5514 198.394 90.5514 196.479 90.5898 194.557C90.5898 190.729 90.6474 186.9 90.6969 183.047C90.9521 167.691 91.4132 152.327 91.899 136.963C92.146 129.375 92.4068 121.784 92.6813 114.19C97.877 115.194 102.562 113.713 105.263 110.787C111.924 103.394 115.383 89.3659 116.124 79.9315C116.865 70.497 115.136 38.6208 115.136 38.6208C115.136 38.6208 111.183 13.8905 108.227 13.0993C106.422 12.624 104.738 11.7536 103.287 10.5472C103.287 10.5472 104.275 9.27109 102.546 5.19617C100.817 1.12124 97.3665 1.36795 95.6373 3.92009C95.6373 3.92009 99.3426 -2.20505 92.9201 0.857521C86.4975 3.92009 78.0987 16.1704 77.8681 18.9607C77.6376 21.7511 73.1747 15.6515 71.7008 19.9816C70.2269 24.3117 63.7961 62.3132 71.4538 89.3404C75.7767 104.747 83.9531 111.944 91.4709 113.926Z" fill="#263238"/>
<path d="M61.1526 144.798C61.1526 144.798 53.923 144.56 49.2625 141.395C44.602 138.23 33.6177 124.296 24.5602 112.003C15.5027 99.71 6.14058 82.3725 4.27144 77.0725C2.4023 71.7726 2.4023 69.1183 3.57154 69.365C4.74078 69.6118 1.24129 64.5415 1.01074 61.6576C0.780183 58.7736 4.30438 57.7953 7.54037 59.2415C10.7764 60.6878 16.4003 65.9877 16.4003 65.9877C16.4003 65.9877 5.44068 55.8727 18.9611 62.8571C32.4814 69.8414 52.3091 86.9493 53.9395 88.8805C55.5698 90.8116 80.058 117.065 77.9583 128.149C75.8587 139.234 68.8514 147.444 61.1526 144.798Z" fill="#FFC100" stroke="#263238" stroke-miterlimit="10"/>
<path d="M21.7441 72.2324C21.9344 74.2111 21.9785 76.2018 21.8759 78.1874" stroke="#263238" stroke-miterlimit="10"/>
<path d="M21.2422 65.9199C21.2422 65.9199 21.3904 67.5023 21.5468 69.544" stroke="#263238" stroke-miterlimit="10"/>
<path d="M28.7346 70.5645C29.1809 73.5176 29.1279 76.5284 28.5781 79.4629" stroke="#263238" stroke-miterlimit="10"/>
<path d="M35.4125 83.7852C35.3111 85.9569 34.9431 88.1066 34.3174 90.1825" stroke="#263238" stroke-miterlimit="10"/>
<path d="M35.7504 77.3203C35.7504 77.3203 35.7504 79.3876 35.5527 81.9312" stroke="#263238" stroke-miterlimit="10"/>
<path d="M42.0492 91.2715C41.8092 92.5784 41.4621 93.862 41.0117 95.1082" stroke="#263238" stroke-miterlimit="10"/>
<path d="M43.2433 82.9336C43.2433 82.9336 42.9798 85.792 42.4775 88.8886" stroke="#263238" stroke-miterlimit="10"/>
<path d="M52.3255 92.8027C52.3255 92.8027 49.6164 104.662 48.9824 106.474" stroke="#263238" stroke-miterlimit="10"/>
<path d="M62.215 108.285C62.215 108.285 59.0284 114.376 56.4512 116.027" stroke="#263238" stroke-miterlimit="10"/>
<path d="M67.1223 125.58C65.6894 126.204 64.2073 126.699 62.6924 127.06" stroke="#263238" stroke-miterlimit="10"/>
<path d="M71.6016 123.438C71.6016 123.438 70.4488 124.067 68.835 124.824" stroke="#263238" stroke-miterlimit="10"/>
<path d="M71.2884 132.863C68.8182 133.161 65.187 133.552 62.5273 133.646" stroke="#263238" stroke-miterlimit="10"/>
<path d="M74.1708 132.498L72.8945 132.668" stroke="#263238" stroke-miterlimit="10"/>
<path d="M14.6465 81.3945C15.729 81.4678 16.816 81.4279 17.8907 81.2754" stroke="#263238" stroke-miterlimit="10"/>
<path d="M7.85352 80.2812C9.42815 80.6981 11.0257 81.0163 12.6375 81.2341" stroke="#263238" stroke-miterlimit="10"/>
<path d="M5.13574 72.8711L11.5172 73.8579" stroke="#263238" stroke-miterlimit="10"/>
<path d="M23.3252 90.0805C24.4919 90.1464 25.6617 90.1208 26.8247 90.0039" stroke="#263238" stroke-miterlimit="10"/>
<path d="M13.9053 89.1797C13.9053 89.1797 17.2895 89.6561 20.756 89.9283" stroke="#263238" stroke-miterlimit="10"/>
<path d="M18.8545 98.2473C23.1043 98.7126 27.3967 98.5464 31.6009 97.7539" stroke="#263238" stroke-miterlimit="10"/>
<path d="M35.0918 107.043C36.5534 106.949 38.0019 106.701 39.4147 106.303" stroke="#263238" stroke-miterlimit="10"/>
<path d="M25.0703 106.967C25.0703 106.967 28.364 107.248 32.0775 107.188" stroke="#263238" stroke-miterlimit="10"/>
<path d="M42.7246 114.777C43.7676 114.629 44.7956 114.384 45.7959 114.045" stroke="#263238" stroke-miterlimit="10"/>
<path d="M30.8096 114.709C33.928 115.111 37.0749 115.224 40.2129 115.049" stroke="#263238" stroke-miterlimit="10"/>
<path d="M42.6094 124.245C45.3999 124.302 48.1854 123.976 50.8929 123.275" stroke="#263238" stroke-miterlimit="10"/>
<path d="M36.0713 123.6C37.177 123.817 38.2928 123.976 39.4143 124.076" stroke="#263238" stroke-miterlimit="10"/>
<path d="M50.1934 132.675C51.24 132.439 52.2291 131.985 53.1 131.34" stroke="#263238" stroke-miterlimit="10"/>
<path d="M44.042 133.127C45.267 133.225 46.4976 133.225 47.7226 133.127" stroke="#263238" stroke-miterlimit="10"/>
<path d="M56.1543 135.951C54.7192 137.135 53.0212 137.93 51.2139 138.265" stroke="#263238" stroke-miterlimit="10"/>
<path d="M60.8969 156.582L61.3827 158.283C61.6873 159.355 61.9673 160.512 62.2555 161.626L63.9023 168.432C68.2005 186.569 72.3258 204.749 76.5828 222.878L78.2296 229.683L78.6496 231.385C78.7896 231.963 78.9048 232.44 79.0119 233.001C79.226 234.073 79.3742 235.205 79.5224 236.336C80.0741 240.87 80.3458 245.515 80.5187 250.152C80.8151 257.808 80.9057 265.567 80.8728 273.274H84.6605C84.5864 265.507 84.4052 257.749 84.01 249.973C83.7465 245.286 83.4501 240.615 82.816 235.877C82.6431 234.686 82.4784 233.503 82.2149 232.304C82.0997 231.717 81.935 231.062 81.795 230.509L81.3504 228.807L79.6459 222.044C75.1172 204.034 70.7778 185.872 66.1749 167.819L64.4375 161.014C64.1246 159.874 63.8447 158.768 63.4906 157.611L63.0048 155.969C62.8566 155.459 62.7495 154.897 62.6343 154.344C61.8109 149.827 61.1192 145.139 60.0817 140.563C58.0726 131.392 54.9189 122.357 49.8961 114.412C47.3608 110.507 44.6116 106.755 41.662 103.174C38.7554 99.5666 35.7335 96.0787 32.6539 92.6503C26.5003 85.8049 20.1354 79.1636 13.5591 72.7266L13.0156 73.3221C19.4766 79.8272 25.74 86.545 31.8058 93.4755C34.8195 96.9379 37.7838 100.451 40.6163 104.075C43.4615 107.662 46.1089 111.411 48.5457 115.305C53.3215 123.114 56.2858 131.979 58.1385 141.013C59.1018 145.556 59.6865 150.125 60.4852 154.795C60.6252 155.382 60.7404 155.969 60.8969 156.582Z" fill="#FFC100" stroke="#263238" stroke-miterlimit="10"/>
<path d="M84.9326 120.408C84.9326 120.408 81.2273 122.322 74.2283 120.986C67.2293 119.651 55.8992 116.393 51.634 101.854C47.3687 87.3151 46.8253 59.7604 47.1958 57.8463C47.5663 55.9322 48.4885 51.3469 48.4885 51.3469H51.2634L49.7566 46.3532L52.5315 39.0881C52.5315 39.0881 55.8251 33.133 56.0474 32.5801C56.2698 32.0271 58.8223 35.8298 58.8223 35.8298C58.8223 35.8298 59.1929 31.8144 59.1929 31.2445C59.1929 30.6745 63.8287 28.1819 67.8963 28.9475C71.9639 29.7132 87.3452 40.4407 93.8337 51.3469C100.322 62.253 108.655 85.0182 110.302 98.5956C111.949 112.173 105.485 116.01 98.0825 118.877C90.68 121.744 84.9326 120.408 84.9326 120.408Z" fill="#FFC100" stroke="#263238" stroke-miterlimit="10"/>
<path d="M96.5342 108.192C98.8119 106.632 100.94 104.852 102.891 102.875" stroke="#263238" stroke-miterlimit="10"/>
<path d="M88.4404 112.998C90.2956 112.082 92.104 111.069 93.8585 109.961" stroke="#263238" stroke-miterlimit="10"/>
<path d="M105.691 92.7598C105.691 92.7598 96.6337 100.952 90.5322 102.875" stroke="#263238" stroke-miterlimit="10"/>
<path d="M86.6449 92.9043C86.0969 93.229 85.5273 93.5133 84.9404 93.755" stroke="#263238" stroke-miterlimit="10"/>
<path d="M100.1 81.6758C96.794 85.0558 93.255 88.1833 89.5107 91.0336" stroke="#263238" stroke-miterlimit="10"/>
<path d="M95.0689 76.0098C93.0765 77.8817 90.8465 79.4644 88.4404 80.7142" stroke="#263238" stroke-miterlimit="10"/>
<path d="M98.9305 71.5605C98.138 72.73 97.2451 73.8234 96.2627 74.8273" stroke="#263238" stroke-miterlimit="10"/>
<path d="M87.2461 62.8158C89.071 61.1732 90.7266 59.3401 92.1865 57.3457" stroke="#263238" stroke-miterlimit="10"/>
<path d="M77.2422 71.0746C77.2422 71.0746 81.0216 68.3098 84.9246 64.8984" stroke="#263238" stroke-miterlimit="10"/>
<path d="M90.3011 52.5215C90.3011 52.5215 83.3103 58.7913 80.5107 60.7139" stroke="#263238" stroke-miterlimit="10"/>
<path d="M66.8174 68.4121C68.1067 68.6068 69.4093 68.6922 70.7121 68.6673" stroke="#263238" stroke-miterlimit="10"/>
<path d="M51.123 62.4062C55.1881 64.8649 59.5715 66.7125 64.1412 67.8934" stroke="#263238" stroke-miterlimit="10"/>
<path d="M54.8535 76.375C54.8535 76.375 65.1214 79.7779 72.5815 79.2674" stroke="#263238" stroke-miterlimit="10"/>
<path d="M71.2061 95.8905C73.0674 95.9709 74.932 95.8913 76.7805 95.6523" stroke="#263238" stroke-miterlimit="10"/>
<path d="M52.7617 90.5918C57.5093 93.175 62.6602 94.874 67.9783 95.611" stroke="#263238" stroke-miterlimit="10"/>
<path d="M72.5322 104.372C74.122 104.265 75.6987 104.006 77.2421 103.598" stroke="#263238" stroke-miterlimit="10"/>
<path d="M59.292 103.121C62.6597 103.937 66.1015 104.381 69.5599 104.448" stroke="#263238" stroke-miterlimit="10"/>
<path d="M69.7822 114.684C73.256 115.201 76.763 115.442 80.2725 115.407" stroke="#263238" stroke-miterlimit="10"/>
<path d="M60.2061 59.3438C62.948 61.1047 66.2746 62.7977 69.313 63.1209" stroke="#263238" stroke-miterlimit="10"/>
<path d="M54.3926 54.9375C54.3926 54.9375 55.8582 56.2731 58.065 57.881" stroke="#263238" stroke-miterlimit="10"/>
<path d="M82.141 45.9883C79.5243 48.4064 76.7147 50.592 73.7422 52.5218" stroke="#263238" stroke-miterlimit="10"/>
<path d="M84.4715 43.8535L83.4834 44.7808" stroke="#263238" stroke-miterlimit="10"/>
<path d="M55.1338 43.8535C55.1338 43.8535 60.4942 50.1148 66.5545 51.0761" stroke="#263238" stroke-miterlimit="10"/>
<path d="M77.0117 37.3438C77.0117 37.3438 73.2816 41.6824 70.0127 43.1286" stroke="#263238" stroke-miterlimit="10"/>
<path d="M56.2529 39.5488C58.2595 41.0022 60.4587 42.1483 62.7826 42.9517" stroke="#263238" stroke-miterlimit="10"/>
<path d="M84.34 122.986C85.8468 133.194 86.9419 143.513 87.8395 153.833C89.6345 174.471 90.5567 195.177 91.3719 215.935C91.4789 218.529 91.586 221.116 91.7259 223.727C91.8659 226.339 91.9894 228.832 92.0718 231.46C92.2365 236.624 92.3106 241.805 92.3682 246.986C92.4615 255.765 92.4835 264.556 92.4341 273.358H96.2547C96.1724 264.553 96.0571 255.757 95.8595 246.986C95.736 241.788 95.596 236.59 95.3654 231.384C95.2501 228.832 95.0937 226.143 94.9208 223.583C94.7479 221.022 94.6161 218.419 94.4761 215.833C93.4057 195.118 92.2118 174.36 90.1615 153.679C89.1322 143.343 87.9053 133.016 86.2585 122.747C84.6117 112.479 82.5285 102.33 80.2558 92.1898C75.6695 71.9598 70.3749 51.9254 64.5452 32.0527L63.7959 32.2824C69.3621 52.2062 74.4096 72.266 78.7325 92.5471C80.8734 102.594 82.8249 112.76 84.34 122.986Z" fill="#FFC100" stroke="#263238" stroke-miterlimit="10"/>
<path d="M119.886 154.947C117.17 148.654 115.329 141.995 114.419 135.168C113.283 124.959 123.518 111.084 130.887 104.432C138.257 97.7791 154.766 87.7832 160.077 86.2179C165.388 84.6526 173.342 81.522 175.047 81.522C176.751 81.522 174.857 81.3263 176.751 81.522C178.645 81.7176 183.388 80.1438 184.335 81.1307C185.282 82.1175 187.554 85.6309 184.335 93.0407C181.115 100.45 175.607 106.754 173.902 108.932C172.198 111.11 172.387 112.65 172.387 112.65C172.387 112.65 173.334 113.237 171.63 115.389C169.925 117.541 168.978 119.115 165.561 123.42C162.144 127.724 158.743 128.524 158.743 128.524L159.311 131.263L155.137 136.742C153.053 139.49 144.902 155.151 139.599 157.891C134.296 160.63 122.538 162.587 119.886 154.947Z" fill="#FFC100" stroke="#263238" stroke-miterlimit="10"/>
<path d="M175.417 83.6738C175.417 83.6738 173.713 90.1308 173.523 91.8917" stroke="#263238" stroke-miterlimit="10"/>
<path d="M165.001 93.1426C164.734 94.0613 164.604 95.0164 164.614 95.9755" stroke="#263238" stroke-miterlimit="10"/>
<path d="M168.409 84.8477C167.419 86.7342 166.544 88.6834 165.791 90.6836" stroke="#263238" stroke-miterlimit="10"/>
<path d="M161.394 87.7832C161.394 87.7832 158.364 98.5533 158.175 101.88" stroke="#263238" stroke-miterlimit="10"/>
<path d="M152.247 95.6953C151.209 98.9195 150.213 102.884 150.402 105.827" stroke="#263238" stroke-miterlimit="10"/>
<path d="M154.379 89.9355C154.379 89.9355 153.787 91.2967 153.054 93.3384" stroke="#263238" stroke-miterlimit="10"/>
<path d="M142.991 109.051C142.784 110.765 142.784 112.5 142.991 114.215" stroke="#263238" stroke-miterlimit="10"/>
<path d="M145.469 96.9883C144.447 100.505 143.671 104.093 143.147 107.724" stroke="#263238" stroke-miterlimit="10"/>
<path d="M137.475 115.176C137.48 116.631 137.631 118.083 137.927 119.506" stroke="#263238" stroke-miterlimit="10"/>
<path d="M138.083 105.053C137.736 107.713 137.524 110.391 137.449 113.075" stroke="#263238" stroke-miterlimit="10"/>
<path d="M130.764 120.17C130.915 121.615 131.208 123.04 131.636 124.423" stroke="#263238" stroke-miterlimit="10"/>
<path d="M130.121 108.932C130.121 108.932 130.121 113.925 130.574 118.519" stroke="#263238" stroke-miterlimit="10"/>
<path d="M126.901 127.869C127.166 128.82 127.483 129.754 127.848 130.668" stroke="#263238" stroke-miterlimit="10"/>
<path d="M125.387 118.332C125.481 120.331 125.712 122.321 126.078 124.287" stroke="#263238" stroke-miterlimit="10"/>
<path d="M121.903 134.623C122.455 135.539 123.116 136.379 123.871 137.124" stroke="#263238" stroke-miterlimit="10"/>
<path d="M119.129 126.16C119.34 128.044 119.789 129.892 120.463 131.656" stroke="#263238" stroke-miterlimit="10"/>
<path d="M117.425 139.482C117.425 139.482 119.697 143.2 122.159 144.587" stroke="#263238" stroke-miterlimit="10"/>
<path d="M178.447 100.119C176.727 99.9878 175.018 99.7262 173.334 99.3359" stroke="#263238" stroke-miterlimit="10"/>
<path d="M175.606 104.627C175.606 104.627 170.114 105.214 167.833 104.432" stroke="#263238" stroke-miterlimit="10"/>
<path d="M164.079 110.293C166.005 110.686 167.963 110.885 169.925 110.888" stroke="#263238" stroke-miterlimit="10"/>
<path d="M161.016 109.715L162.432 109.996" stroke="#263238" stroke-miterlimit="10"/>
<path d="M162.44 116.818C163.981 117.134 165.561 117.183 167.117 116.963" stroke="#263238" stroke-miterlimit="10"/>
<path d="M154.568 115.193C154.568 115.193 156.89 115.797 159.583 116.325" stroke="#263238" stroke-miterlimit="10"/>
<path d="M156.734 124.289C158.54 124.569 160.383 124.474 162.152 124.008" stroke="#263238" stroke-miterlimit="10"/>
<path d="M146.235 121.463C148.839 122.5 151.521 123.311 154.255 123.887" stroke="#263238" stroke-miterlimit="10"/>
<path d="M150.69 131.297C152.324 131.834 154.003 132.213 155.705 132.428" stroke="#263238" stroke-miterlimit="10"/>
<path d="M141.492 127.93C141.492 127.93 144.703 129.291 148.302 130.524" stroke="#263238" stroke-miterlimit="10"/>
<path d="M146.392 137.959C147.779 138.227 149.182 138.406 150.591 138.495" stroke="#263238" stroke-miterlimit="10"/>
<path d="M136 135.561C136 135.561 140.397 136.76 144.695 137.636" stroke="#263238" stroke-miterlimit="10"/>
<path d="M139.327 146.457C141.205 146.994 143.142 147.28 145.091 147.308" stroke="#263238" stroke-miterlimit="10"/>
<path d="M130.5 142.611C132.22 143.649 134.018 144.542 135.877 145.283" stroke="#263238" stroke-miterlimit="10"/>
<path d="M135.07 153.102C136.042 153.331 137.112 153.552 138.273 153.774" stroke="#263238" stroke-miterlimit="10"/>
<path d="M127.28 150.643C128.882 151.341 130.534 151.91 132.221 152.344" stroke="#263238" stroke-miterlimit="10"/>
<path d="M102.331 273.317C102.611 257.715 102.998 242.104 103.731 226.527C103.936 222.35 104.159 218.165 104.48 214.005C104.723 209.877 105.231 205.77 106.003 201.712C107.788 193.583 110.068 185.579 112.829 177.747C115.579 169.887 118.593 162.111 122.076 154.574C123.822 150.805 125.674 147.096 127.692 143.515C129.729 139.936 132.027 136.523 134.567 133.306C139.78 126.904 145.377 120.847 151.324 115.169C157.244 109.444 163.354 103.905 169.645 98.6224L169.159 97.9844C162.753 103.182 156.561 108.627 150.525 114.276C144.444 119.882 138.71 125.877 133.357 132.226C130.715 135.477 128.315 138.929 126.177 142.553C124.069 146.177 122.134 149.904 120.306 153.681C116.683 161.244 113.513 168.994 110.614 176.905C107.682 184.803 105.242 192.888 103.311 201.108C103.08 202.146 102.891 203.201 102.685 204.247C102.479 205.294 102.372 206.365 102.216 207.429C102.059 208.492 101.977 209.53 101.853 210.585C101.73 211.64 101.623 212.695 101.54 213.741C101.145 217.944 100.857 222.146 100.585 226.34C99.6053 242.002 98.9384 257.647 98.4443 273.317H102.331Z" fill="#FFC100" stroke="#263238" stroke-miterlimit="10"/>
<path d="M71.0825 230.551C72.1572 230.864 73.2615 231.055 74.3761 231.121C80.28 231.317 81.0458 224.494 80.7987 222.963L74.1291 203.328C74.1291 203.328 46.4873 187.267 32.6622 186.501C18.8372 185.736 10.2079 186.501 12.184 190.321C14.1602 194.141 23.0201 205.881 37.8415 214.549C50.4232 221.917 63.7377 228.595 71.0743 230.551" fill="#FFC100"/>
<path d="M71.0825 230.551C72.1572 230.864 73.2615 231.055 74.3761 231.121C80.28 231.317 81.0458 224.494 80.7987 222.963L74.1291 203.328C74.1291 203.328 46.4873 187.267 32.6622 186.501C18.8372 185.736 10.2079 186.501 12.184 190.321C14.1602 194.141 23.0201 205.881 37.8415 214.549C50.4232 221.917 63.7377 228.595 71.0743 230.551" stroke="#263238" stroke-miterlimit="10"/>
<path d="M40.3125 202.409C41.2775 202.147 42.2562 201.943 43.2438 201.797" stroke="#263238" stroke-miterlimit="10"/>
<path d="M31.4355 205.88C33.5126 204.84 35.6524 203.939 37.8417 203.184" stroke="#263238" stroke-miterlimit="10"/>
<path d="M39.085 211.741C39.085 211.741 46.2404 207.666 48.4636 206.9" stroke="#263238" stroke-miterlimit="10"/>
<path d="M49.3037 213.681C51.535 212.226 54.0134 211.221 56.6074 210.721" stroke="#263238" stroke-miterlimit="10"/>
<path d="M46.9814 215.569C47.3645 215.167 47.7775 214.798 48.2166 214.463" stroke="#263238" stroke-miterlimit="10"/>
<path d="M61.1857 217.348C59.8598 217.923 58.5772 218.6 57.3486 219.372" stroke="#263238" stroke-miterlimit="10"/>
<path d="M65.9857 215.314C65.9857 215.314 64.7588 215.799 63.1943 216.48" stroke="#263238" stroke-miterlimit="10"/>
<path d="M68.1518 223.361C67.069 223.618 66.0169 223.997 65.0146 224.493" stroke="#263238" stroke-miterlimit="10"/>
<path d="M72.153 222.451C72.153 222.451 71.2226 222.63 70.0039 222.911" stroke="#263238" stroke-miterlimit="10"/>
<path d="M39.332 189.811C39.332 189.811 42.7821 196.191 42.7821 197.212" stroke="#263238" stroke-miterlimit="10"/>
<path d="M50.251 199.338L50.1934 201.286" stroke="#263238" stroke-miterlimit="10"/>
<path d="M50.4403 193.639L50.3086 197.637" stroke="#263238" stroke-miterlimit="10"/>
<path d="M58.831 198.232L58.584 204.604" stroke="#263238" stroke-miterlimit="10"/>
<path d="M66.2333 201.031C66.2333 201.031 65.7392 206.391 65.4922 208.432" stroke="#263238" stroke-miterlimit="10"/>
<path d="M73.3888 205.625C72.9048 208.051 72.247 210.437 71.4209 212.762" stroke="#263238" stroke-miterlimit="10"/>
<path d="M33.3623 193.91C33.711 194.815 33.9864 195.748 34.1857 196.7" stroke="#263238" stroke-miterlimit="10"/>
<path d="M31.1885 188.543C31.1885 188.543 31.9295 190.151 32.6789 192.065" stroke="#263238" stroke-miterlimit="10"/>
<path d="M24.5195 187.521C24.5195 187.521 26.9898 194.149 27.4838 195.425" stroke="#263238" stroke-miterlimit="10"/>
<path d="M74.8956 220.861C78.1151 224.332 80.6595 228.517 81.3923 233.23C82.1002 238.041 82.4279 242.903 82.3722 247.769C82.3722 256.276 81.9605 264.826 81.2935 273.29H84.5871C84.9494 264.783 85.073 256.234 84.7518 247.684C84.6278 242.695 84.1101 237.724 83.2038 232.822C82.9319 231.575 82.5827 230.347 82.1581 229.147C81.6948 227.951 81.1443 226.794 80.5113 225.684C79.2538 223.517 77.7439 221.517 76.0154 219.729C72.5477 216.233 68.6364 213.24 64.3889 210.831C60.1996 208.405 55.8461 206.296 51.3626 204.519C46.8997 202.715 42.3545 201.116 37.7599 199.797C33.1652 198.478 28.5212 197.245 23.8113 196.326L23.6631 197.126C28.3153 198.113 32.9264 199.372 37.4799 200.775C42.0333 202.179 46.5374 203.804 50.9262 205.65C55.3251 207.472 59.5929 209.616 63.6972 212.064C67.7982 214.459 71.5654 217.419 74.8956 220.861Z" fill="#FFC100" stroke="#263238" stroke-miterlimit="10"/>
<path d="M106.959 228.576C106.959 228.576 111.397 214.803 115.844 204.858C120.29 194.913 128.195 186.245 140.546 187.776C152.897 189.307 170.897 201.796 172.659 205.641C174.421 209.486 171.918 210.992 153.902 212.013C135.885 213.034 113.867 222.451 110.417 225.514L106.959 228.576Z" fill="#FFC100" stroke="#263238" stroke-miterlimit="10"/>
<path d="M135.004 208.652C136.774 210.252 138.759 211.766 140.356 212.251" stroke="#263238" stroke-miterlimit="10"/>
<path d="M130.451 203.992C130.451 203.992 131.785 205.549 133.605 207.336" stroke="#263238" stroke-miterlimit="10"/>
<path d="M124.852 205.643C124.852 205.643 128.211 211.419 129.965 212.746" stroke="#263238" stroke-miterlimit="10"/>
<path d="M121.714 212.967C122.221 213.959 122.846 214.883 123.575 215.715" stroke="#263238" stroke-miterlimit="10"/>
<path d="M119.738 208.117C120.054 209.154 120.428 210.171 120.858 211.163" stroke="#263238" stroke-miterlimit="10"/>
<path d="M114.781 214.234C115.507 215.678 116.421 217.012 117.499 218.199" stroke="#263238" stroke-miterlimit="10"/>
<path d="M123.386 198.802C125.033 196.173 127.075 193.34 129.331 191.758" stroke="#263238" stroke-miterlimit="10"/>
<path d="M120.183 204.816C120.183 204.816 121.006 202.936 122.34 200.562" stroke="#263238" stroke-miterlimit="10"/>
<path d="M135.218 192.975C132.344 195.374 128.631 198.725 127.568 200.682" stroke="#263238" stroke-miterlimit="10"/>
<path d="M138.767 190.125C138.767 190.125 138.051 190.678 136.98 191.537" stroke="#263238" stroke-miterlimit="10"/>
<path d="M138.372 197.594C137.506 198.117 136.68 198.709 135.901 199.363" stroke="#263238" stroke-miterlimit="10"/>
<path d="M146.919 192.592C146.919 192.592 143.535 194.455 140.472 196.301" stroke="#263238" stroke-miterlimit="10"/>
<path d="M150.196 198.258C148.915 198.775 147.662 199.363 146.441 200.019" stroke="#263238" stroke-miterlimit="10"/>
<path d="M156.511 195.73C156.511 195.73 154.296 196.581 151.884 197.56" stroke="#263238" stroke-miterlimit="10"/>
<path d="M143.238 207.641C144.055 208.61 144.966 209.491 145.956 210.269" stroke="#263238" stroke-miterlimit="10"/>
<path d="M140.364 204.152C140.364 204.152 141.188 205.173 142.176 206.398" stroke="#263238" stroke-miterlimit="10"/>
<path d="M151.233 206.135C152.022 207.131 152.878 208.069 153.794 208.942" stroke="#263238" stroke-miterlimit="10"/>
<path d="M162.267 198.367L154.271 202.502" stroke="#263238" stroke-miterlimit="10"/>
<path d="M106.473 273.317C106.564 262.53 106.695 251.726 107.066 240.99C107.173 238.216 107.28 235.426 107.511 232.687C107.511 231.989 107.651 231.351 107.725 230.679C107.833 230.026 107.973 229.378 108.145 228.74C108.488 227.43 108.915 226.146 109.421 224.894C111.562 219.857 114.038 214.979 116.832 210.296C118.277 208.728 119.942 207.395 121.772 206.34C123.645 205.255 125.65 204.434 127.733 203.899C131.851 202.767 136.313 203.167 140.694 203.507C145.074 203.848 149.447 204.494 153.819 205.141L160.406 206.119L163.7 206.595C164.252 206.663 164.795 206.74 165.347 206.791L166.17 206.876H167.043V206.025H166.261L165.437 205.932C164.894 205.872 164.35 205.779 163.791 205.702L160.497 205.183L153.951 204.103C149.587 203.388 145.206 202.725 140.776 202.257C138.57 202.01 136.355 201.865 134.115 201.789C131.85 201.721 129.587 201.953 127.379 202.478C125.163 203.013 123.025 203.852 121.023 204.971C118.991 206.088 117.139 207.523 115.531 209.224V209.267L115.481 209.352C112.565 214.093 109.974 219.04 107.725 224.154C107.173 225.469 106.703 226.819 106.317 228.195C106.103 228.884 105.971 229.616 105.823 230.33C105.674 231.045 105.608 231.777 105.559 232.474C105.287 235.29 105.139 238.08 104.991 240.871C104.464 251.692 104.167 262.504 103.929 273.325L106.473 273.317Z" fill="#FFC100" stroke="#263238" stroke-miterlimit="10"/>
<path d="M57.1016 271.214C57.1016 271.214 59.226 268.62 60 268.415C60.774 268.211 63.6806 269.215 64.0594 270.015C64.3042 270.583 64.4358 271.196 64.4464 271.818L57.1016 271.214Z" fill="white" stroke="#263238" stroke-miterlimit="10"/>
<path d="M68.127 271.214C68.127 271.214 70.2514 268.62 71.0254 268.415C71.7994 268.211 74.6978 269.215 75.0848 270.015C75.3296 270.583 75.4612 271.196 75.4718 271.818L68.127 271.214Z" fill="white" stroke="#263238" stroke-miterlimit="10"/>
<path d="M76.0479 270.416C76.0479 270.416 78.1805 267.821 78.9545 267.617C79.7285 267.412 82.6269 268.416 83.0139 269.216C83.2587 269.784 83.3903 270.398 83.4009 271.02L76.0479 270.416Z" fill="white" stroke="#263238" stroke-miterlimit="10"/>
<path d="M112.6 271.019C112.6 271.019 114.724 268.416 115.498 268.22C116.272 268.025 119.17 269.02 119.557 269.82C119.802 270.385 119.933 270.996 119.944 271.615L112.6 271.019Z" fill="white" stroke="#263238" stroke-miterlimit="10"/>
<path d="M122.851 271.019C122.851 271.019 124.975 268.416 125.749 268.22C126.523 268.025 129.421 269.02 129.808 269.82C130.053 270.385 130.184 270.996 130.195 271.615L122.851 271.019Z" fill="white" stroke="#263238" stroke-miterlimit="10"/>
<path d="M126.325 271.019C126.325 271.019 124.201 268.416 123.427 268.22C122.653 268.025 119.754 269.02 119.367 269.82C119.123 270.385 118.991 270.996 118.98 271.615L126.325 271.019Z" fill="white" stroke="#263238" stroke-miterlimit="10"/>
<path d="M91.1329 271.615C91.1329 271.615 89.0085 269.02 88.2345 268.816C87.4605 268.612 84.5621 269.616 84.1751 270.415C83.9303 270.983 83.7987 271.597 83.7881 272.219L91.1329 271.615Z" fill="white" stroke="#263238" stroke-miterlimit="10"/>
<path d="M99.0626 271.615C99.0626 271.615 96.9382 269.02 96.1642 268.816C95.3902 268.612 92.4918 269.616 92.1048 270.415C91.86 270.983 91.7284 271.597 91.7178 272.219L99.0626 271.615Z" fill="white" stroke="#263238" stroke-miterlimit="10"/>
<path d="M113.596 271.615C113.596 271.615 111.471 269.02 110.697 268.816C109.923 268.612 107.025 269.616 106.638 270.415C106.393 270.983 106.262 271.597 106.251 272.219L113.596 271.615Z" fill="white" stroke="#263238" stroke-miterlimit="10"/>
<path d="M71.9884 271.214C71.9884 271.214 69.864 268.62 69.09 268.415C68.316 268.211 65.4176 269.215 65.0306 270.015C64.7858 270.583 64.6542 271.196 64.6436 271.818L71.9884 271.214Z" fill="white" stroke="#263238" stroke-miterlimit="10"/>
<path d="M100.224 271.214C100.224 271.214 102.348 268.62 103.122 268.415C103.896 268.211 106.794 269.215 107.181 270.015C107.426 270.583 107.558 271.196 107.568 271.818L100.224 271.214Z" fill="white" stroke="#263238" stroke-miterlimit="10"/>
<path d="M79.1436 271.214C79.1436 271.214 77.0192 268.62 76.2452 268.415C75.4712 268.211 72.5728 269.215 72.1858 270.015C71.941 270.583 71.8094 271.196 71.7988 271.818L79.1436 271.214Z" fill="white" stroke="#263238" stroke-miterlimit="10"/>
<path d="M86.4976 271.793C86.4976 271.793 84.3649 269.189 83.5909 268.994C82.8169 268.798 79.9185 269.793 79.5315 270.593C79.2872 271.158 79.1556 271.769 79.1445 272.388L86.4976 271.793Z" fill="white" stroke="#263238" stroke-miterlimit="10"/>
<path d="M132.764 270.943H54.2026C54.2026 270.943 51.8394 295.342 55.133 313.785C58.4267 332.229 68.5546 344.105 71.8976 348.29C75.2407 352.476 78.1144 356.023 80.9551 359.001H105.954C108.819 356.023 111.718 352.45 115.011 348.29C118.305 344.13 128.408 332.229 131.751 313.785C135.094 295.342 132.764 270.943 132.764 270.943Z" fill="white" stroke="#263238" stroke-miterlimit="10"/>
</svg>

