<svg width="218" height="411" viewBox="0 0 218 411" fill="none" xmlns="http://www.w3.org/2000/svg">
<path d="M124.673 153.533C125.705 147.476 124.441 139.802 116.601 130.551C108.76 121.301 107.66 116.717 106.525 112.731C105.391 108.744 102.227 92.9319 102.923 86.2362C103.62 79.5405 125.361 38.1611 137.018 24.9655C148.675 11.7698 159.851 11.2856 165.465 8.67947C171.078 6.07331 174.749 1.66445 181.42 4.47664C188.091 7.28883 186.828 20.4742 185.616 32.6604C184.403 44.8465 180.913 72.8345 179.374 78.8194C177.835 84.8043 162.49 101.987 160.461 106.941C158.433 111.896 152.819 126.987 146.225 131.767C139.631 136.547 130.175 143.541 128.086 147.054C125.997 150.566 124.673 153.533 124.673 153.533Z" fill="#37474F"/>
<path d="M124.674 153.533C125.576 148.239 124.192 131.015 117.332 122.929C110.472 114.843 110.231 107.086 109.234 103.604C108.237 100.122 105.451 86.2778 106.088 80.4165C106.724 74.5552 125.697 38.3469 135.918 26.8509C146.14 15.355 155.889 14.8914 160.797 12.6046C165.706 10.3177 168.921 6.47545 174.758 8.9271C180.596 11.3788 179.487 22.9262 178.421 33.5878C177.355 44.2494 174.311 68.7042 172.962 73.9577C171.612 79.2113 158.201 94.2302 156.456 98.5669C154.711 102.904 150.06 119.54 144.274 123.66C139.68 127.009 135.658 131.372 132.419 136.516C130.606 139.617 124.674 153.533 124.674 153.533Z" fill="#455A64"/>
<path d="M124.932 146.715C120.349 164.309 96.2871 240.115 96.2871 357.609H99.3046C99.3046 357.609 100.121 231.936 128.121 147.055L124.932 146.715Z" fill="#263238"/>
<path d="M125.146 147.352C127.029 136.536 132.024 104.366 134.044 94.1677C140.354 74.1116 149.888 55.8272 158.27 36.9968C160.995 31.2076 164.949 26.5104 168.878 21.9264C172.807 17.3424 177.037 13.1499 181.352 9.10156C177.105 13.222 173.005 17.6102 169.102 22.2045C165.199 26.7988 161.416 31.6197 158.837 37.3574C150.808 56.2804 141.644 74.7296 135.678 94.7446C134.955 97.9585 133.958 105.818 133.425 109.166L127.683 147.929L125.146 147.362V147.352Z" fill="#263238"/>
<path d="M127.149 136.99C121.355 129.49 115.32 121.919 111.262 112.844C107.54 103.573 105.339 93.5499 103.654 83.4961C104.239 85.8962 104.798 88.4406 105.425 90.8717C107.248 98.1854 109.191 105.551 112.036 112.38C113.859 116.985 116.575 120.961 119.128 125.02C121.682 129.078 124.441 133.024 127.149 136.99Z" fill="#263238"/>
<path d="M155.605 118.406C147.111 126.596 137.156 132.539 127.149 137.587L130.734 135.228C138.91 129.923 147.799 124.401 155.605 118.406Z" fill="#263238"/>
<path d="M129.789 128.606C140.269 121.344 150.937 114.453 160.875 106.16C151.633 115.596 140.802 122.642 129.789 128.606Z" fill="#263238"/>
<path d="M131.241 118.314C142.924 110.444 154.96 102.863 165.173 92.3556C169.076 87.9879 172.385 82.8168 175.729 77.8105C177.449 75.2867 179.031 72.7114 180.664 70.1465C176.108 78.1401 171.526 86.2573 165.697 93.0457C155.527 103.738 143.345 111.279 131.241 118.314Z" fill="#263238"/>
<path d="M133.33 107.179C144.91 99.3708 156.825 91.8304 167.004 81.4984C170.915 77.2235 174.182 72.0833 177.509 67.1285C179.177 64.6356 180.793 62.0912 182.418 59.5469C177.878 67.4581 173.357 75.5341 167.519 82.2092C157.384 92.7575 145.331 100.205 133.33 107.179Z" fill="#263238"/>
<path d="M134.688 96.3937C147.97 87.4523 161.278 78.1093 172.643 65.8716C176.374 61.7512 179.864 57.2599 183.286 52.748C180.137 57.5702 176.735 62.1464 173.099 66.4485C161.923 79.0158 148.452 88.4412 134.688 96.3937Z" fill="#263238"/>
<path d="M184.482 43.0747C181.34 47.7502 177.991 52.2204 174.449 56.4661C165.345 66.7672 154.745 75.0081 143.819 82.3218C141.618 83.7331 139.409 85.134 137.165 86.4422C150.06 77.3979 162.878 67.9003 173.994 55.879C177.647 51.8101 181.06 47.4115 184.482 43.0645V43.0747Z" fill="#263238"/>
<path d="M185.177 36.8125C182.22 40.8608 179.16 44.7855 175.884 48.5145C165.998 59.5985 153.997 67.5303 141.996 74.7925L141.85 74.8749L141.987 74.7822C149.612 69.3639 157.616 63.8734 164.863 57.8164C172.36 51.8727 178.807 44.3529 185.177 36.8125Z" fill="#263238"/>
<path d="M185.883 29.9199C180.183 36.4508 174.509 43.0744 167.984 48.4618C161.398 53.8195 154.43 58.4729 147.163 62.3683L147.326 62.2653C154.092 57.6916 161.159 52.9943 167.494 47.6172C174.037 42.3636 179.745 35.8327 185.883 29.9405V29.9199Z" fill="#263238"/>
<path d="M153.877 47.9683C159.542 44.1569 165.268 40.4794 170.718 36.256C176.263 32.1974 181.283 27.2529 186.467 22.5762C177.007 33.3808 165.957 41.9903 153.877 47.9683Z" fill="#263238"/>
<path d="M160.032 34.8545C169.05 29.2404 178.025 22.658 186.536 16.0859C178.598 24.0029 169.649 30.3399 160.032 34.8545Z" fill="#263238"/>
<path d="M185.968 11.2559C180.327 16.4708 174.084 20.6763 167.434 23.7407C173.52 19.3422 179.727 15.3969 185.968 11.3074V11.2559Z" fill="#263238"/>
<path d="M185.281 8.88672C182.222 11.607 178.829 13.7408 175.223 15.2116C178.291 12.4854 181.696 10.3513 185.315 8.88672H185.281Z" fill="#263238"/>
<path d="M107.402 74.6172C109.311 84.2796 111.125 94.1068 114.495 103.192C117.074 109.95 121.002 115.894 124.553 121.981C125.748 124.042 126.994 126.03 128.224 128.049C122.877 120.395 117.418 112.597 113.712 103.615C110.385 94.3437 108.64 84.5062 107.402 74.6172Z" fill="#263238"/>
<path d="M112.079 65.1602C113.532 74.771 114.882 84.5468 117.839 93.6632C120.151 100.441 123.693 106.56 126.9 112.782C127.983 114.842 129.109 116.902 130.218 118.963C125.31 111.093 120.341 103.078 117.039 94.0237C114.142 84.7528 112.861 74.9359 112.079 65.1808V65.1602Z" fill="#263238"/>
<path d="M132.72 109.084C128.198 101.369 123.788 93.4677 120.684 84.7839C118.76 78.0685 117.502 71.1052 116.936 64.0376C116.738 61.6992 116.549 59.3506 116.438 57.002C117.65 66.2729 118.741 75.6469 121.492 84.4131C124.45 92.9218 128.903 101.08 132.746 109.084H132.72Z" fill="#263238"/>
<path d="M122.782 45.8365C123.177 54.7984 123.409 63.9457 125.404 72.6192C127.207 79.0233 129.305 85.3029 131.688 91.429L133.983 97.6096C130.216 89.7356 127.068 81.4591 124.578 72.8871C122.644 64.0487 122.489 54.8808 122.782 45.8262V45.8365Z" fill="#263238"/>
<path d="M130.898 33.0117C130.356 42.1488 129.643 51.4403 130.709 60.5362C131.68 67.2731 133.503 73.9275 135.145 80.5099L136.864 87.1129C133.984 78.5424 131.319 69.7968 129.866 60.6804C128.886 51.4094 129.668 42.1385 130.906 33.0117H130.898Z" fill="#263238"/>
<path d="M138.729 23.1319C137.74 31.8878 136.554 40.788 137.207 49.616C137.98 56.1993 139.03 62.7317 140.354 69.188L141.592 75.6983C139.203 67.232 137.448 58.5275 136.348 49.6881C135.78 40.7159 137.044 31.8157 138.729 23.1113V23.1319Z" fill="#263238"/>
<path d="M146.947 64.1413C145.443 56.1787 144.48 48.083 144.067 39.9338C144.067 31.693 145.675 23.6788 147.678 15.8809C147.343 17.8793 146.982 19.8571 146.672 21.8658C145.735 27.7992 144.807 33.8768 144.953 39.9029C145.219 47.876 146.217 56.1889 146.973 64.1413H146.947Z" fill="#263238"/>
<path d="M153.576 48.9252C152.907 42.7303 152.62 36.4847 152.717 30.2391C152.785 23.9555 154.204 17.816 155.906 11.9238L155.124 16.5284C152.957 26.9119 153.602 38.3255 153.576 48.9562V48.9252Z" fill="#263238"/>
<path d="M160.032 34.8545C160.101 30.5795 160.471 26.3355 160.892 22.1017C161.313 17.868 161.752 13.5621 163.118 9.58594C161.863 17.9916 161.631 26.5106 160.041 34.8545H160.032Z" fill="#263238"/>
<path d="M167.485 23.7409C167.898 17.4912 169.14 11.3605 171.165 5.58008C170.278 11.7253 169.049 17.7925 167.485 23.7409Z" fill="#263238"/>
<path d="M175.223 15.0869C175.358 11.1249 176.086 7.22418 177.372 3.57031C177.242 7.5333 176.514 11.4353 175.223 15.0869Z" fill="#263238"/>
<path d="M103.01 106.983C100.749 112.834 95.9346 120.22 95.8314 125.474C95.6681 135.043 93.175 139.802 91.0688 144.376C89.771 147.236 88.6587 150.212 87.7419 153.276C87.7419 153.276 86.1601 150.691 82.2657 150.052C78.3714 149.413 72.5686 149.99 65.9749 143.871C59.3811 137.752 57.9025 126.267 54.7991 121.724C51.6956 117.181 44.8526 111.567 39.6344 100.627C34.4162 89.6877 30.6852 66.2218 21.1342 51.6149C11.5832 37.008 3.36465 29.1998 0.785626 19.7744C-1.7934 10.3489 2.50498 0.552567 6.05544 0.0272122C9.60591 -0.498142 28.6477 6.7332 31.8887 8.76251C35.1297 10.7918 41.2764 15.0977 44.9816 15.5715C47.6638 15.9218 54.9796 19.0533 59.4327 21.2886C61.3326 25.203 61.5045 28.9423 62.4416 32.9803C63.8085 38.8519 64.4274 49.2766 64.4274 49.2766C64.4274 49.2766 65.9749 39.5318 65.7428 33.825C65.5339 30.8993 65.1721 27.9921 64.6596 25.1206C66.4219 27.0366 68.5883 29.478 70.9438 32.2386C71.9152 36.5857 73.5228 43.9819 74.2621 49.2869C75.4055 57.2393 74.2621 69.2298 74.2621 69.2298C74.2621 69.2298 76.8412 55.1379 77.7008 48.2362C77.9673 45.9288 76.3426 41.0254 76.3426 38.5532C84.1312 48.195 93.8112 61.2155 96.4848 67.6949C101.565 79.9326 105.314 101.122 103.01 106.983Z" fill="#37474F"/>
<path d="M99.82 102.667C97.8084 107.818 93.5272 114.431 93.4326 119.097C93.2865 127.596 91.0771 131.819 89.2116 135.888C88.0527 138.425 87.0611 141.067 86.2457 143.789C86.2457 143.789 84.8445 141.502 81.3886 140.936C77.9327 140.369 72.7918 140.874 66.9116 135.466C61.0314 130.058 59.7419 119.829 56.9995 115.791C54.2572 111.753 48.1621 106.767 43.5284 97.0427C38.8948 87.3185 35.5764 66.4795 27.0914 53.5001C18.6064 40.5208 11.2992 33.5882 9.03821 25.2134C6.77726 16.8387 10.5684 8.14455 13.7234 7.70161C16.8785 7.25866 33.7883 13.6556 36.6682 15.4583C39.5481 17.261 45.0071 21.093 48.2996 21.5153C52.237 22.2985 56.0854 23.6259 59.7677 25.4709C61.487 28.9527 61.6074 32.2696 62.4413 35.8647C63.6534 41.077 64.4443 52.8718 64.4443 52.8718C64.4443 52.8718 66.946 42.7973 66.7483 37.7189C66.5559 35.0973 66.2257 32.4928 65.7596 29.921C67.3242 31.6207 69.2499 33.7942 71.3389 36.2562C72.1986 40.1191 73.6171 46.6808 74.2876 51.3987C75.302 58.4549 73.7546 74.8439 73.7546 74.8439C73.7546 74.8439 77.4083 57.1158 78.139 50.9867C78.3797 48.9265 76.987 42.6428 76.987 40.4178C83.916 48.9883 91.6015 62.05 94.0086 67.7465C98.4961 78.6347 101.832 97.4548 99.82 102.667Z" fill="#455A64"/>
<path d="M86.0312 149.237C81.0536 125.411 77.9588 100.544 69.0526 78.1601C64.9089 67.3852 57.9455 58.7632 50.8876 50.5223C37.6056 35.3695 23.0599 21.8442 8.1875 9.06055C25.9828 24.0074 59.4586 52.5928 69.2933 74.9874C76.5232 91.2733 80.4691 109.311 84.1055 127.121C85.5669 134.239 86.8135 141.47 88.507 148.352L86.0312 149.248V149.237Z" fill="#263238"/>
<path d="M0.330078 17.3438C8.14453 18.6623 15.9418 20.4341 23.6359 22.4943C15.7376 21.7652 7.92572 20.0388 0.330078 17.3438Z" fill="#263238"/>
<path d="M5.77148 29.9824C14.5488 31.4761 28.0543 33.7217 36.7714 34.9269C26.307 34.8246 15.8938 33.1637 5.77148 29.9824Z" fill="#263238"/>
<path d="M14.3086 41.8086C24.0315 43.1477 34.2531 44.4869 44.019 44.3942C44.6809 44.3942 45.3515 44.3942 46.0134 44.3942C35.448 46.0835 24.6505 44.6826 14.3086 41.8395V41.8086Z" fill="#263238"/>
<path d="M21.1602 51.5527C31.3387 53.0773 42.0331 54.5915 52.2804 54.4782C52.9768 54.4782 53.6731 54.4782 54.3694 54.4782C43.2882 56.2088 32.0179 54.6431 21.1602 51.5939V51.5527Z" fill="#263238"/>
<path d="M26.498 61.8535C37.5019 63.1411 48.5487 64.3155 59.6042 63.6768L61.8221 63.5223C50.1219 65.8709 38.0693 64.6348 26.498 61.8535Z" fill="#263238"/>
<path d="M29.9375 70.9196C41.5431 72.4235 53.2003 73.773 64.8747 73.1034L67.2131 72.9489C54.8509 75.3593 42.1449 73.9172 29.9375 70.8887V70.9196Z" fill="#263238"/>
<path d="M71.6572 83.2394C58.8653 85.6911 45.7208 84.1253 33.1094 80.9629L37.9236 81.6016C49.0993 83.1364 60.3955 84.1459 71.6572 83.2394Z" fill="#263238"/>
<path d="M35.6543 89.4512C47.7413 91.8204 59.9058 94.0042 72.1819 93.9218H74.632C61.5735 95.7348 48.3087 93.3965 35.6543 89.5027V89.4512Z" fill="#263238"/>
<path d="M77.5976 103.707C64.4962 105.18 51.2571 102.512 38.6543 98.2988L43.4943 99.3289C54.756 101.791 66.1209 103.758 77.5976 103.697V103.707Z" fill="#263238"/>
<path d="M80.5461 113.36C68.3817 114.802 56.0625 112.515 44.3193 108.693L48.8326 109.59C59.3207 111.65 69.8947 113.36 80.5461 113.36Z" fill="#263238"/>
<path d="M82.248 122.559C72.5595 123.877 62.6904 122.456 53.2598 119.664C62.785 121.055 72.6713 122.476 82.248 122.559Z" fill="#263238"/>
<path d="M83.6324 132.334C74.8092 132.764 65.9924 131.313 57.5928 128.049C58.6846 128.234 59.7678 128.471 60.851 128.677C68.3989 130.233 75.9984 131.603 83.6324 132.334Z" fill="#263238"/>
<path d="M86.0912 141.966C77.8512 142.424 69.6086 141.13 61.7451 138.145C62.7681 138.299 63.774 138.505 64.797 138.68C71.8635 140.03 78.973 141.245 86.1083 141.966H86.0912Z" fill="#263238"/>
<path d="M103.242 94.6211C103.469 100.181 102.8 105.742 101.273 111C101.637 105.495 102.294 100.025 103.242 94.6211Z" fill="#263238"/>
<path d="M86.0918 141.966C89.7113 138.546 92.8968 134.514 95.5482 129.996C93.8289 135.147 90.4418 139.865 86.0918 141.966Z" fill="#263238"/>
<path d="M83.6328 132.334C95.1353 123.424 98.3677 104.212 100.242 89.0697L100.62 85.5673L100.955 82.0547C100.517 99.1751 97.3618 123.393 83.6328 132.386V132.334Z" fill="#263238"/>
<path d="M97.0689 69.127C96.6906 84.8567 94.2835 108.807 84.5864 120.272C83.8476 121.092 83.0666 121.856 82.248 122.559C83.7864 121.022 85.1454 119.245 86.2885 117.274C89.7272 111.413 91.6787 104.439 93.1659 97.5373C95.1776 88.3178 96.2006 78.5936 97.0689 69.127Z" fill="#263238"/>
<path d="M79.1455 113.504C87.3468 103.584 90.0806 85.8762 92.2814 72.5157C92.7542 69.2606 93.2528 65.6243 93.6826 62.3691C92.6596 78.1401 89.6336 102.821 79.1455 113.504Z" fill="#263238"/>
<path d="M76.9873 104.397C85.6442 92.2833 86.9682 69.8991 88.4124 54.4062C88.4124 56.6107 88.335 58.8151 88.2663 61.0092C87.4668 74.9878 85.6872 94.1684 76.9873 104.397Z" fill="#263238"/>
<path d="M74.7178 94.1679C78.9474 88.3581 80.9332 80.7765 82.4549 73.4525C83.5654 67.8534 84.4405 62.1909 85.0769 56.4866L85.7302 50.7695C85.2402 64.6966 83.3919 84.0626 74.6748 94.1679H74.7178Z" fill="#263238"/>
<path d="M70.5918 83.5578C77.0738 74.1736 78.7415 61.5754 80.5812 49.9455L81.2948 44.7949C80.6242 57.5991 78.6556 74.2766 70.5918 83.5269V83.5578Z" fill="#263238"/>
<path d="M73.4372 44.0547C73.6951 53.7274 72.9386 64.492 67.7031 72.3105C68.2317 71.2581 68.7054 70.1675 69.1216 69.0451C72.0273 61.1957 72.6291 52.5634 73.42 44.0547H73.4372Z" fill="#263238"/>
<path d="M67.686 28.4473C68.2964 38.8204 67.9955 49.8735 64.0324 59.3505C63.4418 60.6804 62.742 61.9365 61.9434 63.1C62.6043 61.8355 63.1793 60.5092 63.6627 59.1341C66.9897 49.4511 67.2046 38.7689 67.6946 28.4473H67.686Z" fill="#263238"/>
<path d="M54.627 54.0868C57.9109 44.6819 57.2576 34.1542 56.7074 24.2137L56.4151 19.877C58.2634 30.9094 59.4583 43.9505 54.627 54.1074V54.0868Z" fill="#263238"/>
<path d="M46.0566 44.6917C49.1085 35.8122 48.6357 25.9953 48.5153 16.5801C49.8392 25.851 50.2347 36.3375 46.0566 44.6917Z" fill="#263238"/>
<path d="M36.6768 35.6489C39.0495 28.5515 39.1784 21.0111 39.5309 13.4707C40.3906 20.8875 40.1498 29.1798 36.6768 35.6489Z" fill="#263238"/>
<path d="M23.541 23.1221C25.2604 17.6419 25.7762 12.0381 26.4897 6.26953C26.9969 12.0072 26.335 18.2909 23.541 23.1221Z" fill="#263238"/>
<path d="M85.4893 149.413C119.541 231.605 108.855 357.659 108.855 357.659H112.208C112.208 357.659 121.811 226.671 88.7904 148.311L85.4893 149.413Z" fill="#263238"/>
<path d="M95.7888 224.209C94.9291 228.144 94.7486 235.726 94.7486 235.726C94.7486 235.726 90.6565 228 86.6332 225.579C82.6099 223.159 68.3737 217.503 61.2556 210.777C59.4716 209.067 57.799 207.198 56.2523 205.183C58.0306 205.653 59.8304 205.997 61.6425 206.213C66.5598 206.656 77.727 204.854 77.727 204.854C77.727 204.854 67.4968 203.484 62.9578 201.836C59.7254 200.661 54.4384 198.127 49.8563 195.995C48.4805 193.756 46.9692 191.642 45.3344 189.67C41.8957 185.992 33.8835 177.309 29.6711 170.592C25.4587 163.876 21.3408 150.444 19.8536 144.407C18.3664 138.371 11.2568 126.73 11.2568 126.73C11.2568 126.73 14.1969 127.369 17.2746 128.204C20.3522 129.038 42.4545 130.552 57.6793 139.627C68.2706 145.942 88.0517 167.44 91.009 172.591C93.9663 177.741 99.7949 198.436 100.087 205.358C100.379 212.281 96.6399 220.264 95.7888 224.209Z" fill="#37474F"/>
<path d="M93.9231 218.606C93.3765 222.003 93.066 225.448 92.9947 228.907C92.9947 228.907 89.341 222.005 85.7562 219.842C82.1713 217.679 71.5543 217.277 65.2013 211.282C63.608 209.754 62.1162 208.08 60.7396 206.275C62.3249 206.697 63.9296 207.007 65.5452 207.202C69.9296 207.594 80.942 204.545 80.942 204.545L64.6082 198.653C61.7282 197.623 57.0086 195.346 52.9166 193.44C51.688 191.441 50.3405 189.551 48.8847 187.785C45.8414 184.509 38.6631 176.742 34.8978 170.757C31.1324 164.772 27.4272 152.782 26.1377 147.384C24.8481 141.986 18.4521 131.613 18.4521 131.613C18.4521 131.613 21.0312 132.18 23.8423 132.922C26.6535 133.663 46.3229 134.982 59.9487 143.12C69.4052 148.754 87.0629 167.935 89.6935 172.519C92.3241 177.103 97.5338 195.583 97.8003 201.764C98.0668 207.944 94.6882 215.093 93.9231 218.606Z" fill="#455A64"/>
<path d="M92.4697 231.967C96.4758 243.926 99.3471 254.392 101.926 276.601C105.15 304.775 104.823 357.609 104.823 357.609H107.041C107.041 357.609 109.766 275.787 94.937 231.555L92.4697 231.967Z" fill="#263238"/>
<path d="M93.1236 232.615C89.1604 221.181 86.3837 209.201 83.1169 197.499C81.836 193.234 80.5981 188.815 78.2512 185.241C74.0473 179.441 69.4911 173.971 64.9692 168.512C59.5684 161.902 53.884 155.634 47.939 149.733C45.8794 147.908 43.6836 146.315 41.3796 144.974C32.2499 139.257 22.9396 133.962 13.6035 128.605C22.974 133.756 32.3273 138.907 41.543 144.51C43.8869 145.833 46.1255 147.409 48.2313 149.218C54.2655 155.033 60.0419 161.222 65.5366 167.76C70.1444 173.178 74.7781 178.566 79.085 184.355C81.5867 188.043 82.9364 192.596 84.3033 196.963C86.0226 202.814 87.5614 208.707 89.2378 214.537C90.9142 220.367 92.6765 226.146 94.671 231.802L93.0892 232.595L93.1236 232.615Z" fill="#263238"/>
<path d="M91.8857 226.114C92.5133 221.468 94.3186 215.01 95.4362 210.446C96.3879 206.575 97.1033 202.626 97.5768 198.631C97.7917 197.302 97.9808 195.973 98.2216 194.645C98.1356 196.973 97.8605 200.393 97.6714 202.751C96.8633 210.879 93.9576 218.388 91.8857 226.114Z" fill="#263238"/>
<path d="M94.1208 180.244C94.0606 186.662 94.2755 193.162 93.3729 199.517C92.4702 205.873 90.6305 211.879 89.3496 218.173C89.5044 216.576 89.7365 214.99 89.9686 213.414C90.7509 208.706 91.8169 204.04 92.5476 199.332C93.4675 193.017 93.4073 186.6 94.138 180.244H94.1208Z" fill="#263238"/>
<path d="M90.2693 171.406C90.5661 177.774 90.4453 184.159 89.9083 190.504C89.2583 195.219 88.3974 199.889 87.3292 204.493C86.9939 206.038 86.7103 207.584 86.418 209.139C86.8736 202.804 88.3522 196.634 89.04 190.36C89.7277 184.087 89.7707 177.711 90.2521 171.406H90.2693Z" fill="#263238"/>
<path d="M85.0338 164.936C85.4207 169.108 85.7646 173.362 85.8935 177.565C85.8935 183.21 84.9823 188.772 84.2773 194.325C84.0796 195.705 83.9249 197.096 83.7529 198.445C83.7529 192.831 84.518 187.248 84.8877 181.675C85.2574 176.102 84.8877 170.509 85.0596 164.895L85.0338 164.936Z" fill="#263238"/>
<path d="M77.4941 221.016C82.194 221.568 86.8162 222.835 91.249 224.786C86.5504 224.224 81.9293 222.957 77.4941 221.016Z" fill="#263238"/>
<path d="M57.3096 206.492C65.9063 210.901 75.9302 213.054 84.974 216C86.2979 216.453 87.6303 216.855 88.9542 217.329C87.5874 217.092 86.2377 216.773 84.8794 216.495C75.5003 214.197 65.7516 212.199 57.3096 206.492Z" fill="#263238"/>
<path d="M72.9814 205.523C77.3531 205.309 81.7287 205.808 85.9883 207.006C81.6167 207.219 77.2411 206.72 72.9814 205.523Z" fill="#263238"/>
<path d="M44.8178 189.094C48.0072 190.041 51.1536 191.092 54.2742 192.184C62.0113 194.564 70.6081 194.914 78.5429 196.037L83.4344 196.655C75.2222 196.623 67.0235 195.852 58.9079 194.347C54.0421 193.317 49.4514 191.01 44.792 189.125L44.8178 189.094Z" fill="#263238"/>
<path d="M38.0781 181.584C51.5578 184.108 65.7597 185.261 79.3426 186.807C65.5104 186.621 51.5321 185.509 38.0781 181.584Z" fill="#263238"/>
<path d="M74.8298 179.678C60.4904 179.431 45.9619 178.349 32.0352 174.033C32.8948 174.208 33.8061 174.383 34.683 174.579C47.7414 177.031 61.6424 178.205 74.8298 179.678Z" fill="#263238"/>
<path d="M28.3643 168.285C41.8698 170.83 56.1232 171.994 69.7663 173.539C55.8911 173.343 41.8784 172.23 28.3643 168.285Z" fill="#263238"/>
<path d="M66.0866 168.985C52.8046 168.841 39.342 167.739 26.3867 164.154C39.5656 166.369 52.839 167.461 66.0866 168.985Z" fill="#263238"/>
<path d="M61.7973 163.238C49.2632 163.166 36.583 162.084 24.3154 158.891C36.5572 160.652 49.5211 161.796 61.7973 163.238Z" fill="#263238"/>
<path d="M56.7416 157.779C45.3091 157.913 33.8937 156.685 22.6641 154.111C32.6191 155.203 46.9327 156.594 56.7416 157.779Z" fill="#263238"/>
<path d="M51.2317 151.876C41.1067 152.043 30.9922 151.029 21.0312 148.848C30.7284 149.641 41.5603 150.64 51.2317 151.876Z" fill="#263238"/>
<path d="M20.0508 145.201C28.6046 145.624 37.2443 146.396 45.7465 147.57C37.1368 147.808 28.5289 147.014 20.0508 145.201Z" fill="#263238"/>
<path d="M40.7945 144.159C33.5645 144.459 26.3283 143.838 19.208 142.305C26.427 142.433 33.634 143.052 40.7945 144.159Z" fill="#263238"/>
<path d="M36.264 141.718C30.0814 141.739 23.9181 140.889 17.9014 139.184C24.0552 139.476 30.1819 140.323 36.2297 141.718H36.264Z" fill="#263238"/>
<path d="M32.1978 138.937C27.033 138.974 21.8825 138.282 16.8525 136.877C22.0159 136.871 27.1635 137.562 32.1978 138.937Z" fill="#263238"/>
<path d="M17.5153 130.964C16.8467 131.237 16.137 131.335 15.4341 131.252C14.7311 131.168 14.0513 130.905 13.4404 130.48C14.1091 130.207 14.8188 130.109 15.5217 130.193C16.2246 130.276 16.9044 130.54 17.5153 130.964Z" fill="#263238"/>
<path d="M22.8191 133.499C20.0355 133.873 17.2173 133.522 14.5576 132.469C17.3413 132.116 20.1557 132.467 22.8191 133.499Z" fill="#263238"/>
<path d="M28.3129 136.826C24.1722 137.011 20.031 136.473 16.0195 135.229C20.1596 135.067 24.298 135.605 28.3129 136.826Z" fill="#263238"/>
<path d="M79.2568 158.684C81.2943 167.955 80.4862 177.462 79.9446 186.898V187.341V186.888C79.6709 182.184 79.625 177.465 79.807 172.755C79.9704 168.037 79.5147 163.381 79.317 158.684H79.2568Z" fill="#263238"/>
<path d="M73.8926 153.205C75.0249 157.793 75.6662 162.536 75.8011 167.318C75.9042 171.438 75.7323 177.382 75.6893 181.585C75.1952 176.862 74.9454 172.108 74.9414 167.348C74.9414 162.589 74.2966 157.923 73.8926 153.205Z" fill="#263238"/>
<path d="M69.0357 148.578C71.2881 157.231 70.7551 166.718 70.6176 175.66C70.1135 171.159 69.8665 166.623 69.8782 162.083C69.8782 157.55 69.414 153.08 69.0186 148.578H69.0357Z" fill="#263238"/>
<path d="M63.1465 143.51C65.7685 151.575 65.7685 160.692 66.2069 169.262V169.365C64.5907 160.867 64.6509 152.08 63.1465 143.551V143.51Z" fill="#263238"/>
<path d="M58.4961 140.143C60.7313 147.621 60.6453 155.707 61.0751 163.526C59.4933 155.862 59.6051 147.93 58.4961 140.143Z" fill="#263238"/>
<path d="M53.6729 137.465C55.5555 143.996 55.7877 150.928 56.2519 157.758C54.7131 152.154 54.266 143.429 53.6729 137.465Z" fill="#263238"/>
<path d="M48.3086 135.166C49.8388 140.605 50.2858 146.291 50.6985 151.977C49.1253 146.58 48.6783 140.852 48.3086 135.166Z" fill="#263238"/>
<path d="M43.0986 133.395C44.4761 137.967 45.3658 142.729 45.7464 147.569C44.213 143.053 43.3182 138.263 43.0986 133.395Z" fill="#263238"/>
<path d="M38.8604 132.199C40.1175 136.226 40.9044 140.441 41.1987 144.725C39.7508 140.77 38.9567 136.516 38.8604 132.199Z" fill="#263238"/>
<path d="M34.3643 131.129C35.5169 134.59 36.2074 138.247 36.4103 141.966C35.0575 138.583 34.3582 134.879 34.3643 131.129Z" fill="#263238"/>
<path d="M30.4956 130.346C31.6294 133.101 32.2177 136.133 32.215 139.205C31.0646 136.456 30.4753 133.42 30.4956 130.346Z" fill="#263238"/>
<path d="M26.4987 129.625C27.5417 131.887 28.0416 134.45 27.9429 137.031C26.8994 134.77 26.3995 132.206 26.4987 129.625Z" fill="#263238"/>
<path d="M21.3405 128.811C21.7776 129.462 22.0917 130.219 22.2609 131.03C22.43 131.841 22.4504 132.687 22.3205 133.508C21.8873 132.854 21.5758 132.096 21.4068 131.286C21.2378 130.476 21.2152 129.632 21.3405 128.811Z" fill="#263238"/>
<path d="M17.1799 128.183C17.4882 128.509 17.7271 128.918 17.8766 129.377C18.0262 129.836 18.082 130.33 18.0396 130.82C18.0396 130.82 17.7387 130.542 17.7817 130.573L18.0654 130.707C17.988 131.459 17.9622 131.82 17.5066 130.985C17.5066 130.985 17.8075 131.253 17.7645 131.243H17.6528C17.3706 130.812 17.182 130.304 17.104 129.765C17.026 129.226 17.0609 128.672 17.2057 128.152L17.1799 128.183Z" fill="#263238"/>
<path d="M94.9378 253.918C94.9378 253.918 81.4495 205.637 59.5449 203.443C42.9532 201.815 31.1756 215.289 26.9374 216.515C22.6992 217.741 10.7411 220.831 1.56836 239.033C1.56836 239.033 12.9849 232.852 17.9022 231.884C22.8196 230.916 25.7425 231.678 31.5367 230.854C37.3309 230.03 50.4496 225.415 65.7948 231.256C83.5213 238.003 94.9378 253.918 94.9378 253.918Z" fill="#263238"/>
<path d="M93.9059 253.886C93.3471 253.144 83.0912 237.826 65.7945 231.223C53.5183 226.536 42.6692 228.555 35.8691 229.977C49.5638 226.073 63.7484 216.101 73.2908 213.66C73.9262 213.49 74.5691 213.362 75.2165 213.279C83.3061 212.084 86.3923 217.976 87.785 226.516C88.9112 233.335 92.3069 245.058 93.9747 250.703C94.1036 251.135 94.224 251.516 94.3271 251.856C94.5592 252.65 94.7484 253.247 94.8515 253.577C94.8515 253.7 94.9117 253.783 94.9203 253.834C94.9289 253.886 93.9059 253.875 93.9059 253.886Z" fill="#37474F"/>
<path d="M92.8908 252.486C89.8562 248.438 80.3052 236.767 65.7939 231.256C61.0031 229.432 56.0163 228.453 50.9902 228.351C59.587 224.334 67.7797 219.389 73.8576 217.834C74.4249 217.681 74.9989 217.568 75.577 217.494C82.867 216.464 85.6266 221.738 86.9075 229.433C87.9305 235.613 90.991 246.192 92.4954 251.25C92.6072 251.642 92.7189 251.982 92.8049 252.28C92.8479 252.363 92.8736 252.425 92.8908 252.486Z" fill="#455A64"/>
<path d="M49.1338 228.352C54.7389 225.941 60.2666 223.304 65.8631 220.832C71.4596 218.359 77.1506 215.867 83.1168 215.352C71.4596 218.287 60.7652 225.189 49.1338 228.352Z" fill="#263238"/>
<path d="M60.1895 229.525C68.5025 225.404 76.9102 220.676 85.9797 219.656C77.1681 222.067 68.941 226.743 60.1895 229.525Z" fill="#263238"/>
<path d="M67.9092 232.12C74.2536 229.122 80.8043 226.382 87.6302 225.682C81.0192 227.742 74.6147 230.461 67.9092 232.12Z" fill="#263238"/>
<path d="M73.3506 234.912C78.1562 232.461 83.2627 230.514 88.5325 230.4C84.0364 231.77 77.8725 233.985 73.3506 234.912Z" fill="#263238"/>
<path d="M89.7191 235.437C85.6934 236.453 81.6149 237.141 77.5117 237.497C81.4061 235.749 85.5732 235.046 89.7191 235.437Z" fill="#263238"/>
<path d="M81.2256 240.351C84.2844 238.929 87.635 238.673 90.8196 239.619C87.6368 240.094 84.433 240.339 81.2256 240.351Z" fill="#263238"/>
<path d="M85.5928 244.235C87.6506 243.199 89.9624 243.151 92.0489 244.102C89.9174 244.568 87.7365 244.613 85.5928 244.235Z" fill="#263238"/>
<path d="M89.6328 248.479C90.2097 248.09 90.8661 247.904 91.5272 247.94C92.1884 247.976 92.8277 248.235 93.3724 248.685C92.1483 249.18 90.8138 249.107 89.6328 248.479Z" fill="#263238"/>
<path d="M92.4697 251.93C95.1949 260.171 100.121 305.876 101.127 357.608H103.706C103.706 357.608 101.127 272.449 94.9026 253.866L92.4697 251.93Z" fill="#263238"/>
<path d="M141.807 193.707C136.692 212.496 120.676 285.469 120.676 357.628H124.114C124.114 357.628 122.24 281.73 144.747 195.345L141.807 193.707Z" fill="#263238"/>
<path d="M141.634 201.238C142.226 191.903 141.573 182.514 139.7 173.425C137.379 162.599 137.379 154.43 138.574 150.145C139.769 145.859 147.945 141.564 155.106 143.408C162.267 145.252 167.201 149.939 173.855 151.37C180.509 152.802 205.723 149.537 217.991 157.706C217.991 157.706 206.574 165.534 194.642 166.616C185.272 167.471 171.809 165.194 159.705 176.289C152.39 183.125 146.253 191.598 141.634 201.238Z" fill="#263238"/>
<path d="M218 157.748C218 157.748 206.584 165.566 194.651 166.658C185.272 167.524 171.81 165.237 159.706 176.331C152.397 183.145 146.265 191.598 141.652 201.218C141.876 200.363 149.321 173.045 166.437 162.548C183.819 151.866 204.529 158.551 218 157.748Z" fill="#37474F"/>
<path d="M218 157.748C214.069 160.302 209.941 162.392 205.673 163.99C202.096 165.365 198.402 166.256 194.66 166.648C185.281 167.513 171.819 165.226 159.714 176.32C153.127 182.481 147.481 189.964 143.028 198.437C142.168 200.023 141.739 201.033 141.661 201.208C141.885 200.353 149.329 173.034 166.446 162.538C183.82 151.866 204.529 158.551 218 157.748Z" fill="#37474F"/>
<path d="M207.778 162.682C207.778 162.682 207.004 163.207 205.672 163.99C202.095 165.365 198.401 166.256 194.659 166.647C185.28 167.513 171.818 165.226 159.714 176.32C153.126 182.481 147.481 189.964 143.027 198.437C144.609 193.286 151.065 174.579 163.789 166.771C178.661 157.655 196.284 163.372 207.778 162.682Z" fill="#455A64"/>
<path d="M144.274 196.118C148.205 186.05 153.289 176.689 159.379 168.305C153.954 177.081 149.011 186.795 144.274 196.118Z" fill="#263238"/>
<path d="M152.141 184.488C156.149 176.224 161.158 168.719 167.004 162.217C161.786 169.201 156.886 177.019 152.141 184.488Z" fill="#263238"/>
<path d="M161.149 175.073C164.634 169.011 168.869 163.62 173.709 159.086C169.617 164.092 165.164 170.015 161.149 175.073Z" fill="#263238"/>
<path d="M169.394 170.077C172.414 165.198 176.048 160.91 180.165 157.365C176.727 161.486 172.97 166.09 169.394 170.077Z" fill="#263238"/>
<path d="M187.06 156.531C184.09 160.489 180.933 164.237 177.604 167.759C180.296 163.499 183.48 159.719 187.06 156.531Z" fill="#263238"/>
<path d="M192.416 156.418C189.686 160.357 186.624 163.947 183.277 167.131C186.005 163.19 189.067 159.599 192.416 156.418Z" fill="#263238"/>
<path d="M198.898 156.695C196.292 160.62 193.212 164.057 189.76 166.893C192.62 163.263 195.673 159.857 198.898 156.695Z" fill="#263238"/>
<path d="M206.248 163.762C208.608 161.471 211.154 159.469 213.848 157.787C211.849 160.616 209.209 162.691 206.248 163.762Z" fill="#263238"/>
<path d="M196.801 166.389C200.076 163.185 203.395 160.342 206.799 157.334C204.17 161.331 200.727 164.449 196.801 166.389Z" fill="#263238"/>
<path d="M140.483 265.197C134.465 276.199 123.728 302.982 119.851 325.613C115.974 348.244 115.415 357.608 115.415 357.608H117.994C117.994 357.608 120.436 310.172 141.455 268.473L140.483 265.197Z" fill="#263238"/>
<path d="M139.554 270.965C142.262 268.184 138.583 256.956 139.168 251.857C139.286 250.438 139.701 249.078 140.376 247.903C141.051 246.729 141.963 245.779 143.028 245.14C142.23 240.66 142.569 235.997 143.999 231.749C146.415 225.249 154.143 219.584 155.691 217.142C157.238 214.701 166.866 202.535 172.024 201.165C180.337 198.961 206.334 202.556 205.853 213.784C205.44 223.302 184.301 232.326 166.806 244.594C149.312 256.863 139.554 270.965 139.554 270.965Z" fill="#263238"/>
<path d="M205.414 215.846C202.319 224.602 183.002 233.172 166.806 244.534C156.793 251.469 147.727 260.203 139.924 270.431L140.027 270.256C142.993 265.528 144.325 254.567 148.933 244.771C153.756 234.47 165.448 227.208 171.921 226.147C178.394 225.086 197.728 225.642 205.414 215.846Z" fill="#37474F"/>
<path d="M193.611 227.516C185.977 232.666 175.902 238.157 166.806 244.533C157.813 250.822 149.556 258.516 142.254 267.412C143.776 262.189 145.383 255.627 148.272 249.508C153.094 239.207 164.795 231.945 171.268 230.884C175.48 230.194 185.229 230.184 193.611 227.516Z" fill="#455A64"/>
<path d="M144.42 264.784C147.051 256.152 150.145 246.747 153.103 238.27C150.861 247.395 147.956 256.267 144.42 264.784Z" fill="#263238"/>
<path d="M149.612 259.171C152.114 250.806 155.071 241.659 157.917 233.49C155.791 242.329 153.012 250.923 149.612 259.171Z" fill="#263238"/>
<path d="M154.453 254.484C156.774 246.583 159.551 238.003 162.259 230.287C160.278 238.621 157.665 246.721 154.453 254.484Z" fill="#263238"/>
<path d="M159.078 250.457C161.253 242.865 163.686 235.397 166.317 228.031C164.5 235.764 162.077 243.272 159.078 250.457Z" fill="#263238"/>
<path d="M163.505 246.943C165.448 240.021 167.66 233.222 170.142 226.547C168.494 233.59 166.271 240.422 163.505 246.943Z" fill="#263238"/>
<path d="M167.795 243.865C169.344 237.695 171.317 231.69 173.692 225.91C172.135 232.076 170.163 238.081 167.795 243.865Z" fill="#263238"/>
<path d="M177.131 225.641C175.826 230.976 174.099 236.15 171.973 241.092C173.279 235.757 175.006 230.583 177.131 225.641Z" fill="#263238"/>
<path d="M176.082 238.424C177.143 233.865 178.628 229.463 180.509 225.301C179.453 229.862 177.967 234.265 176.082 238.424Z" fill="#263238"/>
<path d="M183.948 224.92C183.106 228.779 181.837 232.486 180.174 235.942C181.018 232.093 182.287 228.397 183.948 224.951V224.92Z" fill="#263238"/>
<path d="M187.378 224.404C186.748 227.6 185.688 230.651 184.24 233.438C184.872 230.244 185.931 227.193 187.378 224.404Z" fill="#263238"/>
<path d="M190.852 223.705C190.425 226.289 189.565 228.742 188.324 230.916C188.751 228.332 189.61 225.879 190.852 223.705Z" fill="#263238"/>
<path d="M192.416 228.309C192.655 226.274 193.341 224.351 194.402 222.736C194.151 224.768 193.467 226.687 192.416 228.309Z" fill="#263238"/>
<path d="M198.116 221.293C198.052 222.833 197.53 224.294 196.646 225.413C196.707 223.873 197.229 222.411 198.116 221.293Z" fill="#263238"/>
<path d="M202.122 218.986C202.173 219.5 202.11 220.021 201.939 220.497C201.769 220.973 201.497 221.386 201.15 221.696C201.096 221.181 201.157 220.659 201.328 220.182C201.499 219.706 201.773 219.293 202.122 218.986Z" fill="#263238"/>
<path d="M138.841 269.41C132.067 270.1 125.809 290.61 125.809 290.61C125.809 290.61 136.666 278.506 151.994 283.656C152.012 283.656 145.083 268.782 138.841 269.41Z" fill="#263238"/>
<path d="M138.841 269.41C138.841 269.41 141.171 269.523 143.019 273.437C145.426 278.516 148.048 288.189 154.453 293.597C165.774 303.166 178.291 306.731 181.747 313.169C181.747 313.169 183.406 290.063 168.99 274.612C165.551 270.903 158.261 274.468 153.025 273.901C147.79 273.334 144.205 268.658 138.841 269.41Z" fill="#37474F"/>
<path d="M138.841 269.411C138.841 269.411 142.804 270.276 144.317 273.47C146.286 277.59 148.435 285.542 153.679 289.951C162.946 297.78 176.89 301.695 179.684 306.958C179.684 306.958 177.38 287.046 165.577 274.407C162.74 271.368 156.799 274.283 152.501 273.82C148.203 273.356 143.225 268.793 138.841 269.411Z" fill="#455A64"/>
<path d="M154.306 273.994C160.513 278.558 165.714 284.728 170.64 291.042C175.673 297.345 179.468 304.915 181.747 313.2C178.369 300.684 170.649 290.95 162.559 282.472C159.853 279.646 156.942 277.115 153.859 274.911L154.306 274.035V273.994Z" fill="#263238"/>
<path d="M142.941 273.273C148.323 275.138 153.644 277.167 159.129 278.558C153.499 278.066 148.002 276.272 142.941 273.273Z" fill="#263238"/>
<path d="M144.996 278.176C150.687 279.505 157.186 281.194 162.92 282.358C156.8 282.099 150.751 280.688 144.996 278.176Z" fill="#263238"/>
<path d="M166.463 286.283C159.806 286.25 153.193 284.996 146.854 282.564C153.284 283.821 159.989 285.335 166.463 286.283Z" fill="#263238"/>
<path d="M169.317 289.28C162.718 289.988 156.068 289.488 149.596 287.797C155.975 288.312 162.921 289.043 169.317 289.28Z" fill="#263238"/>
<path d="M152.467 291.65C158.854 292.165 165.525 292.876 171.921 293.113C165.412 293.823 158.851 293.33 152.467 291.65Z" fill="#263238"/>
<path d="M157.444 295.977C162.198 296.069 169.334 296.419 174.148 296.543C168.59 297.406 162.953 297.215 157.444 295.977Z" fill="#263238"/>
<path d="M176.082 299.449C171.418 300.27 166.673 300.173 162.035 299.161C166.574 299.078 171.543 299.264 176.082 299.449Z" fill="#263238"/>
<path d="M167.709 302.62C171.028 302.306 174.362 302.306 177.681 302.62C174.386 303.367 171.004 303.367 167.709 302.62Z" fill="#263238"/>
<path d="M179.048 305.391C176.984 305.98 174.839 306.039 172.755 305.566C174.819 304.978 176.963 304.919 179.048 305.391Z" fill="#263238"/>
<path d="M180.381 308.514C179.941 308.802 179.452 308.965 178.951 308.992C178.451 309.019 177.952 308.908 177.492 308.668C177.933 308.385 178.422 308.224 178.922 308.197C179.422 308.171 179.92 308.279 180.381 308.514Z" fill="#263238"/>
<path d="M181.507 304.959C181.537 305.556 181.452 306.153 181.26 306.704C181.068 307.256 180.773 307.748 180.398 308.142C180.369 307.545 180.454 306.949 180.646 306.397C180.838 305.846 181.133 305.354 181.507 304.959Z" fill="#263238"/>
<path d="M180.87 300.211C180.68 302.124 180.049 303.936 179.048 305.444C179.231 303.528 179.863 301.714 180.87 300.211Z" fill="#263238"/>
<path d="M179.685 294.75C179.448 297.55 178.768 300.269 177.682 302.764C177.917 299.964 178.597 297.244 179.685 294.75Z" fill="#263238"/>
<path d="M178.222 290.074C177.861 293.389 177.06 296.612 175.85 299.623C176.21 296.309 177.011 293.085 178.222 290.074Z" fill="#263238"/>
<path d="M176.537 285.965C176.171 289.784 175.366 293.524 174.147 297.08C174.506 293.259 175.311 289.518 176.537 285.965Z" fill="#263238"/>
<path d="M174.362 281.822C173.977 285.714 173.156 289.525 171.921 293.153C172.299 289.261 173.121 285.448 174.362 281.822Z" fill="#263238"/>
<path d="M171.586 277.682C171.155 281.784 170.288 285.803 169.007 289.641C169.428 285.537 170.296 281.517 171.586 277.682Z" fill="#263238"/>
<path d="M168.809 274.428C168.382 278.594 167.516 282.678 166.23 286.583C166.654 282.416 167.52 278.331 168.809 274.428Z" fill="#263238"/>
<path d="M165.027 272.934C164.752 276.283 164.042 279.561 162.921 282.647C163.182 279.295 163.893 276.014 165.027 272.934Z" fill="#263238"/>
<path d="M160.1 273.283C160.161 275.123 159.766 276.944 158.966 278.516C158.908 276.676 159.302 274.857 160.1 273.283Z" fill="#263238"/>
<path d="M127.579 285.531C117.718 300.839 106.13 332.556 104.823 357.639H107.041C107.041 357.639 112.122 312.767 128.843 287.962L127.579 285.531Z" fill="#263238"/>
<path d="M89.6246 104.089C89.6246 104.089 87.7591 100.185 81.8875 97.9086C84.0266 97.906 86.1183 97.1541 87.9053 95.7454C87.9053 95.7454 86.0226 95.7454 78.3801 94.1796C70.7376 92.6139 62.0462 89.575 61.668 89.1836C63.7105 90.9891 65.8693 92.5977 68.1241 93.9942C72.3451 96.6416 80.0994 99.8452 82.7902 100.886C84.3871 101.501 85.7941 102.674 86.8307 104.254L89.6246 104.089Z" fill="#455A64"/>
<path opacity="0.4" d="M89.6246 104.089C89.6246 104.089 87.7591 100.185 81.8875 97.9086C84.0266 97.906 86.1183 97.1541 87.9053 95.7454C87.9053 95.7454 86.0226 95.7454 78.3801 94.1796C70.7376 92.6139 62.0462 89.575 61.668 89.1836C63.7105 90.9891 65.8693 92.5977 68.1241 93.9942C72.3451 96.6416 80.0994 99.8452 82.7902 100.886C84.3871 101.501 85.7941 102.674 86.8307 104.254L89.6246 104.089Z" fill="white"/>
<path d="M101.196 49.3066C101.196 49.3066 85.1282 70.3105 91.2491 95.2494L93.2349 96.537C93.2349 96.537 107.308 74.7503 101.196 49.3066Z" fill="#FFC727"/>
<path opacity="0.2" d="M101.196 49.3066C101.196 49.3066 85.1282 70.3105 91.2491 95.2494L93.2349 96.537C93.2349 96.537 107.308 74.7503 101.196 49.3066Z" fill="black"/>
<path opacity="0.1" d="M93.3207 96.4241L93.2434 96.5477C90.3721 76.3061 100.757 50.0384 101.17 49.3379C107.015 73.6278 94.4125 94.6111 93.3207 96.4241Z" fill="black"/>
<path d="M89.6592 94.2305C89.3226 98.7195 90.1835 103.221 92.1179 107.086L93.8372 107.395C93.8372 107.395 92.1179 103.522 93.2183 96.5379L89.6592 94.2305Z" fill="#FFC727"/>
<path d="M89.6585 94.2311C89.6585 94.2311 88.4979 86.8762 94.6446 77.9554C100.791 69.0347 115.277 56.7559 115.277 56.7559C115.277 56.7559 108.399 81.4784 102.519 88.1741C96.6391 94.8698 93.1918 96.5386 93.1918 96.5386L89.6585 94.2311Z" fill="#FFC727"/>
<path opacity="0.1" d="M89.6585 94.2311C89.6585 94.2311 88.4979 86.8762 94.6446 77.9554C100.791 69.0347 115.277 56.7559 115.277 56.7559C115.277 56.7559 108.399 81.4784 102.519 88.1741C96.6391 94.8698 93.1918 96.5386 93.1918 96.5386L89.6585 94.2311Z" fill="black"/>
<path d="M133.958 76.9549C133.958 76.9549 110.206 76.0278 98.3936 97.8352L98.875 100.483C98.875 100.483 121.828 99.0713 133.958 76.9549Z" fill="#FFC727"/>
<path opacity="0.2" d="M133.958 76.9549C133.958 76.9549 110.206 76.0278 98.3936 97.8352L98.875 100.483C98.875 100.483 121.828 99.0713 133.958 76.9549Z" fill="black"/>
<path opacity="0.1" d="M99.0127 100.493H98.8838C109.827 84.7015 133.228 77.0375 133.933 76.9551C122.362 98.0929 100.887 100.338 99.0127 100.493Z" fill="black"/>
<path d="M139.116 99.2679C139.116 99.2679 134.878 98.4129 128.473 97.4137C121.011 96.2497 110.601 95.2196 100.199 100.071L99.2959 102.544C99.2959 102.544 118.097 112.711 139.116 99.2679Z" fill="#FFC727"/>
<g opacity="0.2">
<path d="M139.116 99.2679C139.116 99.2679 134.878 98.4129 128.473 97.4137C121.011 96.2497 110.601 95.2196 100.199 100.071L99.2959 102.544C99.2959 102.544 118.097 112.711 139.116 99.2679Z" fill="black"/>
</g>
<path d="M98.4279 97.6191C95.3631 100.235 93.0719 103.951 91.8857 108.229L92.8228 110.011C92.8228 110.011 94.1639 105.891 99.2961 102.378L98.4279 97.6191Z" fill="#FFC727"/>
<path d="M98.4619 97.5989C98.4619 97.5989 102.975 95.0854 112.371 91.2534C117.53 89.1932 123.599 88.5442 128.654 87.5862C134.671 86.4531 139.176 85.1758 139.176 85.1758C139.176 85.1758 119.103 106.066 110.876 105.222C102.649 104.377 99.2958 102.379 99.2958 102.379L98.4619 97.5989Z" fill="#FFC727"/>
<g opacity="0.1">
<path d="M98.4619 97.5989C98.4619 97.5989 102.975 95.0854 112.371 91.2534C117.53 89.1932 123.599 88.5442 128.654 87.5862C134.671 86.4531 139.176 85.1758 139.176 85.1758C139.176 85.1758 119.103 106.066 110.876 105.222C102.649 104.377 99.2958 102.379 99.2958 102.379L98.4619 97.5989Z" fill="black"/>
</g>
<path d="M87.4319 103.295C78.4922 102.016 69.7038 99.5176 61.2376 95.8475C57.0109 94.0734 52.9941 91.6496 49.2881 88.6367C49.2881 88.6367 54.9018 99.4322 70.1094 104.542C85.3171 109.651 90.7417 110.537 90.7417 110.537L87.4319 103.295Z" fill="#FFC727"/>
<path opacity="0.2" d="M87.4319 103.295C78.4922 102.016 69.7038 99.5176 61.2376 95.8475C57.0109 94.0734 52.9941 91.6496 49.2881 88.6367C49.2881 88.6367 54.9018 99.4322 70.1094 104.542C85.3171 109.651 90.7417 110.537 90.7417 110.537L87.4319 103.295Z" fill="black"/>
<path d="M99.9919 123.238C99.9919 123.238 98.6508 108.333 94.8338 105.005C91.0168 101.678 47.9557 101.585 35.1465 105.469C35.1465 105.469 57.7646 112.103 67.6337 113.802C77.5027 115.502 86.9506 115.234 89.7961 116.316C92.6416 117.397 96.9916 128.337 96.9916 128.337L99.9919 123.238Z" fill="#FFC727"/>
<path d="M98.5483 109.816C98.5483 109.816 94.6883 115.812 95.8231 127.792C96.9579 139.772 102.864 158.015 105.598 194.749C108.013 227.382 110.824 357.578 110.824 357.578H114.684C114.684 357.578 113.094 220.069 106.277 166.421C101.643 130.027 98.5483 109.816 98.5483 109.816Z" fill="#263238"/>
<path d="M137.904 181.913C137.904 181.913 139.426 178.699 144.214 176.834C142.466 176.829 140.758 176.213 139.297 175.062C139.297 175.062 140.836 175.062 147.111 173.775C151.762 172.814 156.345 171.436 160.823 169.654C159.152 171.143 157.381 172.462 155.528 173.6C151.623 175.801 147.603 177.694 143.492 179.265C142.181 179.764 141.026 180.722 140.174 182.016L137.904 181.913Z" fill="#455A64"/>
<path opacity="0.4" d="M137.904 181.913C137.904 181.913 139.426 178.699 144.214 176.834C142.466 176.829 140.758 176.213 139.297 175.062C139.297 175.062 140.836 175.062 147.111 173.775C151.762 172.814 156.345 171.436 160.823 169.654C159.152 171.143 157.381 172.462 155.528 173.6C151.623 175.801 147.603 177.694 143.492 179.265C142.181 179.764 141.026 180.722 140.174 182.016L137.904 181.913Z" fill="white"/>
<path d="M128.404 136.98C128.404 136.98 141.592 154.214 136.562 174.682L134.929 175.712C134.929 175.712 123.401 157.861 128.404 136.98Z" fill="#FFC727"/>
<path opacity="0.2" d="M128.404 136.98C128.404 136.98 141.592 154.214 136.562 174.682L134.929 175.712C134.929 175.712 123.401 157.861 128.404 136.98Z" fill="black"/>
<path opacity="0.1" d="M134.861 175.639L134.93 175.742C137.285 159.137 128.757 137.577 128.422 137C123.642 156.943 133.958 174.135 134.861 175.639Z" fill="black"/>
<path d="M137.869 173.848C138.15 177.545 137.442 181.253 135.849 184.437L134.422 184.695C134.422 184.695 135.823 181.512 134.929 175.784L137.869 173.848Z" fill="#FFC727"/>
<path d="M137.87 173.848C137.87 173.848 138.824 167.801 133.778 160.457C128.732 153.112 116.816 143.068 116.816 143.068C116.816 143.068 122.464 163.331 127.279 168.821C132.093 174.311 134.93 175.692 134.93 175.692L137.87 173.848Z" fill="#FFC727"/>
<path opacity="0.1" d="M137.87 173.848C137.87 173.848 138.824 167.801 133.778 160.457C128.732 153.112 116.816 143.068 116.816 143.068C116.816 143.068 122.464 163.331 127.279 168.821C132.093 174.311 134.93 175.692 134.93 175.692L137.87 173.848Z" fill="black"/>
<path d="M101.505 159.714C101.505 159.714 121.002 158.951 130.734 176.844L130.33 179.018C130.33 179.018 111.469 177.813 101.505 159.714Z" fill="#FFC727"/>
<path opacity="0.2" d="M101.505 159.714C101.505 159.714 121.002 158.951 130.734 176.844L130.33 179.018C130.33 179.018 111.469 177.813 101.505 159.714Z" fill="black"/>
<path opacity="0.1" d="M130.193 178.978H130.305C121.312 166.029 102.15 159.715 101.531 159.715C111.031 177.021 128.654 178.854 130.193 178.978Z" fill="black"/>
<path d="M97.2754 177.979C97.2754 177.979 100.714 177.278 106.01 176.454C112.131 175.507 120.676 174.662 129.221 178.638L129.969 180.698C124.677 183.09 119.017 184.085 113.374 183.615C107.732 183.146 102.241 181.224 97.2754 177.979Z" fill="#FFC727"/>
<g opacity="0.2">
<path d="M97.2754 177.979C97.2754 177.979 100.714 177.278 106.01 176.454C112.131 175.507 120.676 174.662 129.221 178.638L129.969 180.698C124.677 183.09 119.017 184.085 113.374 183.615C107.732 183.146 102.241 181.224 97.2754 177.979Z" fill="black"/>
</g>
<path d="M130.674 176.629C133.188 178.775 135.067 181.823 136.039 185.333L135.274 186.796C135.274 186.796 134.173 183.448 129.961 180.533L130.674 176.629Z" fill="#FFC727"/>
<path d="M130.649 176.608C130.649 176.608 126.944 174.548 119.224 171.396C115.02 169.686 110.017 169.171 105.864 168.388C100.964 167.461 97.2676 166.41 97.2676 166.41C97.2676 166.41 113.739 183.551 120.479 182.892C127.219 182.233 129.978 180.543 129.978 180.543L130.649 176.608Z" fill="#FFC727"/>
<g opacity="0.1">
<path d="M130.649 176.608C130.649 176.608 126.944 174.548 119.224 171.396C115.02 169.686 110.017 169.171 105.864 168.388C100.964 167.461 97.2676 166.41 97.2676 166.41C97.2676 166.41 113.739 183.551 120.479 182.892C127.219 182.233 129.978 180.543 129.978 180.543L130.649 176.608Z" fill="black"/>
</g>
<path d="M139.701 181.285C147.038 180.216 154.249 178.142 161.193 175.104C164.663 173.638 167.96 171.64 171.002 169.16C171.002 169.16 166.394 178.019 153.911 182.212C141.429 186.404 137.019 187.125 137.019 187.125L139.701 181.285Z" fill="#FFC727"/>
<path opacity="0.2" d="M139.701 181.285C147.038 180.216 154.249 178.142 161.193 175.104C164.663 173.638 167.96 171.64 171.002 169.16C171.002 169.16 166.394 178.019 153.911 182.212C141.429 186.404 137.019 187.125 137.019 187.125L139.701 181.285Z" fill="black"/>
<path d="M129.394 197.652C129.394 197.652 130.52 185.466 133.623 182.685C136.727 179.903 172.094 179.872 182.625 183.066C182.625 183.066 164.056 188.515 155.975 189.906C147.894 191.296 140.122 191.08 137.793 191.966C135.463 192.852 131.887 201.834 131.887 201.834L129.394 197.652Z" fill="#FFC727"/>
<path d="M130.571 186.631C130.571 186.631 133.743 190.751 132.815 198.992C131.886 207.233 127.029 219.852 124.794 245.213C122.808 267.731 120.495 357.567 120.495 357.567H117.323C117.323 357.567 118.63 262.684 124.201 225.713C128.035 200.579 130.571 186.631 130.571 186.631Z" fill="#263238"/>
<path d="M114.117 222.479C115.389 226.156 113.008 357.608 113.008 357.608H115.389C115.389 357.608 117.435 253.732 116.077 222.479H114.117Z" fill="#263238"/>
<path d="M114.117 222.479C114.117 222.479 106.105 218.801 101.841 222.479C97.5765 226.156 93.1148 238.003 95.6852 256.38C98.2557 274.757 103.869 287.839 109.887 297.234C109.887 297.234 123.014 280.69 129.66 266.186C136.305 251.682 140.569 236.777 138.695 224.724C136.821 212.672 122.464 215.536 114.117 222.479Z" fill="#37474F"/>
<path d="M113.867 222.737C113.867 222.737 106.818 219.502 103.07 222.737C99.3216 225.971 95.3929 236.385 97.6624 252.548C99.932 268.71 104.875 280.237 110.119 288.478C110.119 288.478 121.656 273.933 127.502 261.19C133.348 248.448 137.096 235.324 135.445 224.735C133.795 214.145 121.209 216.628 113.867 222.737Z" fill="#455A64"/>
<path d="M114.907 222.89C113.476 227.199 112.47 231.694 111.907 236.282C109.199 256.4 109.328 276.909 109.852 297.244C109.173 284.707 108.812 272.14 109.061 259.562C109.162 251.685 109.65 243.822 110.523 236.014C111.003 231.25 111.944 226.57 113.325 222.066L114.907 222.89Z" fill="#263238"/>
<path d="M109.586 291.217C106.985 289.357 104.732 286.874 102.967 283.924C105.35 286.114 107.565 288.555 109.586 291.217Z" fill="#263238"/>
<path d="M109.586 291.218C115.102 285.979 120.368 280.373 125.361 274.428C121.001 281.119 115.665 286.807 109.612 291.218H109.586Z" fill="#263238"/>
<path d="M109.475 286.017C118.011 277.939 125.819 268.814 132.772 258.791C126.466 269.502 118.569 278.731 109.475 286.017Z" fill="#263238"/>
<path d="M109.475 280.01C119.753 270.348 128.942 259.129 136.812 246.635C129.612 259.798 120.324 271.138 109.475 280.01Z" fill="#263238"/>
<path d="M109.294 273.685C120.282 263.336 130.12 251.344 138.566 238.002C130.784 252.006 120.85 264.109 109.294 273.664V273.685Z" fill="#263238"/>
<path d="M109.741 267.299C120.766 256.923 130.638 244.901 139.116 231.523C131.314 245.57 121.354 257.711 109.767 267.299H109.741Z" fill="#263238"/>
<path d="M109.294 261.427C120.364 251.001 130.266 238.907 138.755 225.445C130.933 239.575 120.934 251.787 109.294 261.427Z" fill="#263238"/>
<path d="M109.096 255.216C119.663 245.233 129.188 233.76 137.465 221.047C129.846 234.433 120.228 246.017 109.096 255.216Z" fill="#263238"/>
<path d="M109.938 248.356C119.406 239.668 127.98 229.664 135.479 218.555C128.635 230.354 119.964 240.471 109.938 248.356Z" fill="#263238"/>
<path d="M110.343 242.596C118.554 234.982 126.152 226.464 133.038 217.152C126.787 227.174 119.103 235.789 110.343 242.596Z" fill="#263238"/>
<path d="M129.221 216.482C124.277 224.436 118.211 231.293 111.297 236.745C117.655 230.494 123.644 223.724 129.221 216.482Z" fill="#263238"/>
<path d="M111.882 230.039C115.475 226.434 120.805 220.913 124.356 217.143C120.852 222.275 116.632 226.638 111.882 230.039Z" fill="#263238"/>
<path d="M109.475 286.015C105.597 282.895 102.239 278.937 99.5713 274.344C102.778 278.114 106.303 282.214 109.483 286.015H109.475Z" fill="#263238"/>
<path d="M109.475 280.009C104.568 275.893 100.373 270.677 97.1211 264.65C100.964 269.945 105.236 275.147 109.475 280.009Z" fill="#263238"/>
<path d="M109.586 274.055C103.944 269.261 99.1925 263.116 95.6338 256.008C99.8779 262.457 104.543 268.492 109.586 274.055Z" fill="#263238"/>
<path d="M109.586 268.041C103.63 262.946 98.648 256.39 94.9717 248.809C99.3326 255.751 104.225 262.189 109.586 268.041Z" fill="#263238"/>
<path d="M109.586 261.696C103.656 256.611 98.6922 250.077 95.0234 242.525C99.3721 249.442 104.247 255.859 109.586 261.696Z" fill="#263238"/>
<path d="M110.007 255.103C104.202 250.139 99.3311 243.769 95.7109 236.406C100.022 243.116 104.805 249.371 110.007 255.103Z" fill="#263238"/>
<path d="M96.9922 231.131C100.878 237.381 105.248 243.179 110.042 248.447C104.643 243.949 100.178 238.025 96.9922 231.131Z" fill="#263238"/>
<path d="M110.747 243.153C105.64 238.937 101.556 233.176 98.9092 226.455C102.283 232.569 106.257 238.175 110.747 243.153Z" fill="#263238"/>
<path d="M111.297 237.776C107.026 233.856 103.678 228.674 101.583 222.736C104.419 228.105 107.671 233.14 111.297 237.776Z" fill="#263238"/>
<path d="M112.681 231.173C109.608 228.506 107.099 225.013 105.356 220.975C107.781 224.395 110.429 228 112.681 231.173Z" fill="#263238"/>
<path d="M151.014 346.164L142.314 397.051C141.971 399.286 140.917 401.273 139.374 402.593L131.001 409.413C130.077 410.172 128.984 410.581 127.863 410.587H92.1608C91.0428 410.582 89.952 410.173 89.0316 409.413L80.6584 402.573C79.1154 401.252 78.0612 399.265 77.7183 397.031L69.0098 346.164H151.014Z" fill="#FFC727"/>
<path opacity="0.4" d="M148.168 362.779L146.922 370.093L73.5914 372.977L72.9639 369.279L148.168 362.779Z" fill="white"/>
<path opacity="0.4" d="M149.733 353.631L149.08 357.453L72.0784 364.107L70.8232 356.752L149.733 353.631Z" fill="white"/>
<path opacity="0.4" d="M146.01 375.398L145.331 379.395L75.7147 385.401L74.4854 378.231L146.01 375.398Z" fill="white"/>
<path opacity="0.1" d="M151.005 346.164L142.314 397.051C141.975 399.287 140.92 401.276 139.374 402.593L131.001 409.413C130.077 410.173 128.984 410.583 127.863 410.587H92.1606C91.0426 410.582 89.9518 410.173 89.0314 409.413L80.6581 402.573C79.4573 401.559 78.5546 400.117 78.0791 398.452C82.3173 400.111 87.7419 402.068 89.9942 402.222C93.9659 402.49 113.988 402.222 117.667 402.222C119.61 402.222 128.086 392.951 130.562 390.778C132.419 389.14 137.053 360.462 139.254 346.174L151.005 346.164Z" fill="black"/>
</svg>
