<svg width="172" height="356" viewBox="0 0 172 356" fill="none" xmlns="http://www.w3.org/2000/svg">
<path d="M100.606 183.194C98.4859 191.447 97.0899 199.894 96.436 208.424C96.6493 208.839 96.5911 210.497 96.436 209.979C96.436 211.368 94.4966 211.119 94.4966 209.751C94.4966 208.86 94.4966 207.968 94.4966 207.097C89.8808 200.982 83.1898 197.105 77.7788 191.777C73.4127 187.607 70.2392 182.202 68.6248 176.186C64.1254 159.601 68.3339 142.124 62.9423 125.622C58.2877 111.4 49.9289 99.0227 42.8694 86.2312C35.4026 72.5897 29.8947 58.2641 29.2935 42.3006C28.8474 30.0896 30.2244 13.7944 38.9906 4.63097C48.2222 -5.09223 59.6647 2.20536 66.7242 10.8505C87.2238 35.9981 96.7075 67.7592 100.548 100.267C102.662 118.241 104.853 136.34 104.426 154.48C104.047 164.163 102.767 173.782 100.606 183.194Z" fill="#FFE285"/>
<path d="M96.5137 215.016C97.6357 198.049 97.4476 181.012 95.9513 164.078C95.9691 164.018 95.9691 163.953 95.9513 163.892C96.2228 150.126 97.2313 136.402 96.7271 122.615C96.1411 107.711 94.2845 92.8957 91.1803 78.3526C91.1803 78.1867 90.8894 78.2282 90.9282 78.3526C93.4369 92.641 94.9345 107.111 95.4082 121.641C95.6798 129.436 95.6216 137.217 95.2337 144.985C95.1173 147.514 94.8846 150.064 94.7295 152.614C89.371 113.953 76.3016 76.976 56.4066 44.1866C56.1351 43.7513 55.3982 44.1866 55.6503 44.6842C69.8673 69.6034 80.3934 96.7232 86.8554 125.082C76.9644 105.573 62.0891 89.527 51.0345 70.7647C51.0345 70.6611 50.8017 70.7647 50.8599 70.7647C60.7703 91.6624 77.1778 108.082 87.7088 128.689C89.5318 137.093 90.9993 145.551 92.1113 154.065C93.5941 165.748 94.3908 177.519 94.4967 189.309C88.4845 177.326 82.259 165.841 77.3523 153.153C77.2166 152.821 76.7705 153.153 76.8675 153.381C81.0566 166.566 86.6615 180.768 94.5355 192.004C94.5355 200.297 94.3157 208.638 93.8761 217.027C92.6543 239.252 89.1052 261.207 87.4567 283.369C87.461 283.492 87.5062 283.61 87.5842 283.7C87.6622 283.791 87.7678 283.849 87.8822 283.864C87.9966 283.879 88.1123 283.85 88.2084 283.782C88.3046 283.714 88.375 283.612 88.407 283.493C92.5579 260.891 95.2664 238.012 96.5137 215.016Z" fill="#263238"/>
<path d="M74.423 43.504C74.423 43.3381 74.1321 43.504 74.1903 43.6076C78.0691 54.8442 80.1443 66.226 82.8789 77.7528C82.9087 77.8529 82.9713 77.938 83.0552 77.9926C83.1391 78.0472 83.2387 78.0675 83.3355 78.0499C83.4323 78.0322 83.5199 77.9777 83.5821 77.8965C83.6443 77.8152 83.677 77.7127 83.674 77.6077C82.5492 65.9357 78.651 54.2637 74.423 43.504Z" fill="#263238"/>
<path d="M170.929 90.5849C168.391 97.1728 165.469 103.585 162.182 109.783C155.336 123.072 148.199 135.241 146.919 150.707C146.337 157.611 146.124 164.556 144.165 171.211C142.362 176.929 139.788 182.334 136.524 187.257C129.096 198.805 119.826 208.756 112.96 220.739C105.81 233.234 100.53 246.846 97.309 261.083C97.1345 261.871 95.9902 261.663 96.1648 260.876C96.1648 260.876 96.1648 260.772 96.1648 260.71C96.1648 260.648 96.1648 260.71 96.1648 260.544C95.0787 227.373 97.5611 193.954 107.025 162.172C111.199 148.196 116.22 134.525 122.056 121.247C127.137 109.741 133.44 98.6496 142.342 90.0459C148.16 84.4898 160.65 73.9581 168.873 79.5349C172.772 82.2093 172.481 86.4386 170.929 90.5849Z" fill="#FFE285"/>
<path d="M139.665 165.779C134.198 175.403 128.174 184.654 121.629 193.476C118.623 197.623 115.578 201.769 112.591 206.019C111.175 208.092 109.585 209.979 108.286 212.114C109.1 208.631 109.895 205.128 110.729 201.645C114.725 184.894 118.487 167.997 124.538 151.889C130.656 136.29 137.858 121.203 146.085 106.756C146.298 106.362 145.716 106.092 145.503 106.465C138.948 117.992 132.296 129.498 126.788 141.709C123.739 148.487 121.084 155.46 118.836 162.586C121.361 147.462 124.899 132.552 129.425 117.971C129.425 117.944 129.415 117.918 129.397 117.898C129.379 117.879 129.354 117.868 129.328 117.868C129.303 117.868 129.278 117.879 129.26 117.898C129.242 117.918 129.231 117.944 129.231 117.971C123.353 132.676 119.675 148.277 118.332 164.203C117.039 168.502 115.791 172.848 114.589 177.244C109.701 195.902 105.415 214.561 101.44 233.364C101.367 220.998 102.367 208.651 104.426 196.483C104.426 196.192 104.097 196.13 104.019 196.483C100.995 209.17 99.9853 222.31 101.032 235.355C99.5196 242.528 98.0521 249.694 96.6298 256.854C93.5849 272.133 89.8419 287.702 88.0576 303.23C88.0593 303.302 88.0843 303.372 88.1283 303.426C88.1723 303.481 88.2326 303.517 88.299 303.529C88.3654 303.541 88.4336 303.529 88.4922 303.493C88.5507 303.458 88.5959 303.401 88.62 303.334C90.7534 295.041 92.0334 286.293 93.7789 277.813C95.5244 269.334 97.328 260.834 99.1705 252.355C101.866 240.019 104.698 227.705 107.568 215.411C109.508 210.912 113.212 206.911 115.985 203.117C119.049 198.97 122.094 194.824 125.062 190.678C130.651 182.881 135.644 174.617 139.995 165.965C140.111 165.717 139.84 165.592 139.665 165.779Z" fill="#263238"/>
<path d="M141.062 151.597C134.236 160.912 128.322 170.95 123.413 181.555C123.413 181.7 123.549 181.845 123.626 181.7C129.58 171.749 135.418 161.735 141.333 151.784C141.45 151.598 141.178 151.432 141.062 151.597Z" fill="#263238"/>
<path d="M8.98777 122.035C13.0024 129.436 17.5988 138.33 15.8727 147.203C14.7672 152.843 10.9272 157.404 10.229 163.146C8.67746 175.813 20.4885 184.189 29.0219 190.098C50.3554 205.024 79.5436 218.355 83.4224 248.872C83.5776 249.95 85.3619 249.681 85.1873 248.623C85.1963 248.555 85.1963 248.485 85.1873 248.416C85.1873 248.416 85.3037 248.416 85.3037 248.229C88.0822 232.827 87.9305 216.984 84.8576 201.645C81.677 185.93 75.2575 171.791 67.6744 157.984C54.8549 134.599 41.279 110.653 21.8849 92.7412C16.5321 87.7863 5.53561 78.8716 1.2689 90.0667C-2.88144 100.992 4.06166 113.017 8.98777 122.035Z" fill="#FFE285"/>
<path d="M28.4791 171.606C42.6174 187.963 65.0758 197.127 77.236 215.433C70.4433 187.564 57.6071 161.797 39.7665 140.218C39.301 139.638 40.038 138.85 40.5423 139.368C53.5473 152.876 63.9509 168.977 71.1656 186.761C67.7969 174.349 63.3829 162.289 57.9776 150.729C57.7836 150.294 58.3655 149.9 58.5982 150.335C65.2989 162.956 70.0964 176.627 72.8141 190.845C88.8336 232.309 90.2688 280.945 86.9524 324.627C86.9524 325.249 86.0215 325.27 86.0409 324.627C86.9524 290.192 86.4288 255.155 78.7099 221.528C78.5548 220.823 78.3802 220.139 78.2057 219.455C64.9789 199.739 42.6174 190.596 28.2464 171.896C28.1106 171.689 28.324 171.419 28.4791 171.606Z" fill="#263238"/>
<path d="M25.2399 157.57C32.6485 164.847 39.9407 172.269 47.3686 179.546C47.3686 179.546 47.3686 179.753 47.2716 179.691C38.8669 173.655 31.2943 166.39 24.7745 158.109C24.7076 158.043 24.668 157.951 24.6643 157.854C24.6607 157.757 24.6933 157.662 24.7551 157.591C24.8168 157.519 24.9025 157.477 24.9935 157.473C25.0844 157.469 25.173 157.504 25.2399 157.57Z" fill="#263238"/>
<path d="M24.0371 126.057C30.5953 137.557 38.0153 148.47 46.224 158.688C46.3404 158.813 46.224 158.999 46.0301 158.875C36.8276 149.518 29.2501 138.491 23.6492 126.305C23.6337 126.252 23.6353 126.195 23.6539 126.143C23.6725 126.091 23.7069 126.047 23.7517 126.018C23.7964 125.989 23.8489 125.977 23.9006 125.984C23.9524 125.991 24.0005 126.017 24.0371 126.057Z" fill="#263238"/>
<path d="M57.415 355.453H122.366L113.619 262.035H67.4224L57.415 355.453Z" fill="#455A64"/>
<path d="M65.793 277.232H115.054L113.619 262.035H67.4221L65.793 277.232Z" fill="#263238"/>
<path d="M59.4704 266.598H120.349V251.692H59.4704V266.598Z" fill="#455A64"/>
</svg>



