<svg width="779" height="905" viewBox="0 0 779 905" fill="none" xmlns="http://www.w3.org/2000/svg">
<path d="M616.5 676.507L647.66 677.05C658.115 677.231 668.662 677.321 679.179 677.339H679.896V676.507V656.253V655.348H679.101L647.77 655.474L632.096 655.637L616.423 655.854H616.08V656.235L616.5 676.507ZM616.5 676.507L616.843 656.253L616.5 656.651L632.174 656.868L647.847 657.031L679.179 657.158L678.415 656.253V676.507L679.132 675.674C668.756 675.674 658.411 675.783 647.972 675.964L616.5 676.507Z" fill="#EBEBEB"/>
<path d="M651.478 681.791H714.156V702.045H651.478V681.791Z" fill="#EBEBEB"/>
<path d="M313.034 754.771H375.712V775.025H313.034V754.771Z" fill="#EBEBEB"/>
<path d="M64.8441 511.289H127.522V531.543H64.8441V511.289Z" fill="#EBEBEB"/>
<path d="M235.866 99.9128L267.026 100.456C277.48 100.637 288.028 100.727 298.56 100.745H299.276V99.9128V79.6589V78.7539H298.497L267.15 78.8806L251.493 79.0435L235.819 79.2607H235.476V79.6408L235.866 99.9128ZM235.866 99.9128L236.193 79.6408L235.866 80.039L251.539 80.2562L267.197 80.4191L298.544 80.5458L297.765 79.6408V99.8947L298.482 99.0621C288.121 99.0621 277.76 99.1707 267.322 99.3517L235.866 99.9128Z" fill="#EBEBEB"/>
<path d="M651.478 99.9128L682.638 100.456C693.092 100.637 703.64 100.727 714.172 100.745H714.889V99.9128V79.6589V78.7539H714.11L682.763 78.8806L667.089 79.0435L651.509 79.2607H651.166V79.6408L651.478 99.9128ZM651.478 99.9128L651.805 79.6408L651.478 80.039L667.058 80.2562L682.732 80.4191L714.079 80.5458L713.3 79.6408V99.8947L714.016 99.0621C703.655 99.0621 693.295 99.1707 682.856 99.3517L651.478 99.9128Z" fill="#EBEBEB"/>
<path d="M368.405 374.797H431.083V395.051H368.405V374.797Z" fill="#EBEBEB"/>
<path d="M83.9917 457.967H189.297V606.369H83.9917V457.967Z" fill="#EBEBEB"/>
<path d="M96.0198 471.523H177.27V592.83H96.0198V471.523Z" fill="white"/>
<path d="M174.107 471.523H177.27V592.83H174.107V471.523Z" fill="#C7C7C7"/>
<path d="M80.8294 457.967H83.9922V606.369H80.8294V457.967Z" fill="#C7C7C7"/>
<path d="M130.873 499.578H150.036V565.878H130.873V499.578Z" fill="#EBEBEB"/>
<path d="M106.537 521.643H159.182V487.344H106.537V521.643ZM157.624 519.833H108.095V489.154H157.624V519.833Z" fill="#EBEBEB"/>
<path d="M83.9917 275.791H189.297V424.193H83.9917V275.791Z" fill="#EBEBEB"/>
<path d="M96.0198 289.33H177.27V410.636H96.0198V289.33Z" fill="white"/>
<path d="M174.107 289.33H177.27V410.636H174.107V289.33Z" fill="#C7C7C7"/>
<path d="M80.8294 275.791H83.9922V424.193H80.8294V275.791Z" fill="#C7C7C7"/>
<path d="M128.115 320.678H144.521V368.878H128.115V320.678Z" fill="#EBEBEB"/>
<path d="M110.042 384.12H155.691V349.078H110.042V384.12ZM154.133 382.31H111.6V350.888H154.133V382.31Z" fill="#DBDBDB"/>
<path d="M657.788 622.187C632.003 651.6 627.672 696.85 633.109 736.67C633.249 737.575 634.449 737.321 634.449 736.489C634.449 727.439 634.215 718.389 634.246 709.538C634.387 709.122 634.496 708.741 634.636 708.325C641.366 702.642 647.567 696.216 651.4 687.42C655.7 677.573 657.398 666.478 660.748 656.197C661.06 655.22 660.156 655.509 659.564 656.016C643.875 669.446 638.874 683.908 634.371 703.239C634.469 693.135 635.382 683.063 637.097 673.157C640.494 654.804 647.193 636.631 658.536 623.02C658.583 622.963 658.62 622.896 658.644 622.822C658.669 622.748 658.681 622.67 658.679 622.591C658.678 622.512 658.663 622.434 658.636 622.362C658.608 622.289 658.569 622.224 658.52 622.169C658.471 622.115 658.413 622.072 658.35 622.043C658.286 622.014 658.219 622 658.151 622.002C658.083 622.004 658.016 622.021 657.953 622.053C657.891 622.085 657.835 622.13 657.788 622.187Z" fill="#263238"/>
<path d="M662.633 625.608C667.074 625.789 669.862 634.025 673.321 636.468C673.685 636.809 674.105 637.057 674.557 637.197C675.008 637.337 675.479 637.366 675.941 637.28C676.402 637.195 676.842 636.998 677.234 636.702C677.625 636.406 677.959 636.018 678.213 635.563C681.641 630.006 676.936 623.165 672.511 619.273C675.627 620.775 678.291 623.436 681.703 624.178C682.139 624.348 682.601 624.406 683.058 624.349C683.515 624.292 683.956 624.121 684.351 623.848C684.746 623.574 685.086 623.205 685.347 622.766C685.608 622.326 685.784 621.826 685.863 621.3C687.421 613.735 679.179 610.44 673.571 610.205C676.297 607.997 684.087 602.024 679.943 599.092C675.798 596.159 666.606 604.685 663.615 607.49C659.237 611.635 654.002 617.807 653.799 624.269C653.55 631.835 659.221 627.201 662.633 625.608Z" fill="#FFC727"/>
<path opacity="0.1" d="M662.633 625.608C667.074 625.789 669.862 634.025 673.321 636.468C673.685 636.809 674.105 637.057 674.557 637.197C675.008 637.337 675.479 637.366 675.941 637.28C676.402 637.195 676.842 636.998 677.234 636.702C677.625 636.406 677.959 636.018 678.213 635.563C681.641 630.006 676.936 623.165 672.511 619.273C675.627 620.775 678.291 623.436 681.703 624.178C682.139 624.348 682.601 624.406 683.058 624.349C683.515 624.292 683.956 624.121 684.351 623.848C684.746 623.574 685.086 623.205 685.347 622.766C685.608 622.326 685.784 621.826 685.863 621.3C687.421 613.735 679.179 610.44 673.571 610.205C676.297 607.997 684.087 602.024 679.943 599.092C675.798 596.159 666.606 604.685 663.615 607.49C659.237 611.635 654.002 617.807 653.799 624.269C653.55 631.835 659.221 627.201 662.633 625.608Z" fill="black"/>
<path d="M661.356 626.875C667.027 623.888 677.918 628.196 678.852 625.698C680.722 620.63 672.028 617.137 667.323 616.467C671.654 615.11 679.943 612.938 679.694 608.087C679.382 602.168 666.965 607.254 660.686 612.847C652.771 619.906 652.896 626.712 654.143 628.069C655.919 629.879 660.421 627.382 661.356 626.875Z" fill="#FFC727"/>
<path d="M599.067 619.291C625.802 647.454 631.614 692.596 627.485 732.561C627.36 733.466 626.161 733.266 626.129 732.434C625.833 723.384 625.771 714.334 625.459 705.483C625.304 705.085 625.179 704.705 625.023 704.306C618.106 698.876 611.718 692.777 607.589 684.143C602.915 674.496 600.921 663.491 597.291 653.373C596.948 652.396 597.867 652.649 598.475 653.12C614.585 665.79 620.053 680.089 625.179 699.202C624.758 689.104 623.517 679.074 621.471 669.247C617.483 651.147 610.191 633.21 598.413 620.105C597.976 619.617 598.6 618.784 599.067 619.291Z" fill="#263238"/>
<path d="M594.33 622.911C589.906 623.291 587.397 631.635 584.032 634.205C583.681 634.566 583.269 634.836 582.821 634.998C582.374 635.16 581.903 635.21 581.438 635.145C580.972 635.08 580.525 634.901 580.123 634.621C579.722 634.34 579.376 633.964 579.109 633.518C575.494 628.088 579.966 621.065 584.266 617.047C581.15 618.694 578.626 621.463 575.245 622.35C574.815 622.539 574.354 622.618 573.895 622.581C573.436 622.544 572.989 622.392 572.585 622.136C572.181 621.88 571.83 621.526 571.555 621.097C571.28 620.668 571.088 620.176 570.992 619.653C569.247 612.16 577.224 608.431 582.91 608.015C580.121 605.951 572.129 600.322 576.18 597.155C580.231 593.987 589.688 602.15 592.772 604.829C597.291 608.757 602.712 614.694 603.118 621.119C603.632 628.739 597.805 624.341 594.33 622.911Z" fill="#FFC727"/>
<path opacity="0.1" d="M594.33 622.911C589.906 623.291 587.397 631.635 584.032 634.205C583.681 634.566 583.269 634.836 582.821 634.998C582.374 635.16 581.903 635.21 581.438 635.145C580.972 635.08 580.525 634.901 580.123 634.621C579.722 634.34 579.376 633.964 579.109 633.518C575.494 628.088 579.966 621.065 584.266 617.047C581.15 618.694 578.626 621.463 575.245 622.35C574.815 622.539 574.354 622.618 573.895 622.581C573.436 622.544 572.989 622.392 572.585 622.136C572.181 621.88 571.83 621.526 571.555 621.097C571.28 620.668 571.088 620.176 570.992 619.653C569.247 612.16 577.224 608.431 582.91 608.015C580.121 605.951 572.129 600.322 576.18 597.155C580.231 593.987 589.688 602.15 592.772 604.829C597.291 608.757 602.712 614.694 603.118 621.119C603.632 628.739 597.805 624.341 594.33 622.911Z" fill="black"/>
<path d="M595.655 624.124C589.89 621.391 579.155 626.169 578.143 623.726C576.102 618.73 584.686 614.875 589.36 613.988C584.982 612.83 576.631 611.02 576.725 606.169C576.849 600.232 589.407 604.775 595.873 610.078C604.005 616.775 604.177 623.581 602.915 624.993C601.185 626.948 596.621 624.577 595.655 624.124Z" fill="#FFC727"/>
<path d="M626.316 693.682C628.129 708.749 630.905 723.638 634.62 738.226C634.672 738.514 634.82 738.767 635.032 738.928C635.244 739.089 635.502 739.146 635.75 739.086C635.998 739.026 636.215 738.854 636.354 738.608C636.493 738.362 636.542 738.062 636.49 737.774C634.729 724.054 631.535 710.624 629.775 696.85C627.86 682.964 627.171 668.888 627.718 654.84C628.856 631.726 634.262 607.11 647.24 589.028C647.536 588.594 646.929 587.978 646.633 588.377C620.629 623.617 624.821 666.804 624.821 670.677C621.128 656.089 617.342 639.382 603.414 624.522C602.806 623.889 602.339 624.196 602.448 625.282C604.94 652.324 611.406 666.46 624.914 680.922C625.335 685.193 625.818 689.465 626.316 693.682Z" fill="#263238"/>
<path d="M647.568 593.064C652.242 590.657 658.692 597.571 663.319 598.06C665.765 598.313 667.588 597.191 667.993 594.259C669.146 586.494 661.294 582.132 655.046 580.738C658.988 580.448 662.836 581.679 666.716 580.466C667.246 580.393 667.756 580.187 668.211 579.862C668.666 579.538 669.055 579.102 669.352 578.586C669.648 578.07 669.844 577.485 669.927 576.872C670.01 576.26 669.977 575.633 669.832 575.036C668.118 566.312 658.162 567.597 652.273 570.71C654.143 566.837 659.642 556.086 654.08 555.452C648.518 554.819 642.66 569.063 640.775 573.733C638.017 580.575 635.275 590.023 637.861 596.865C640.822 604.847 644.701 596.702 647.568 593.064Z" fill="#FFC727"/>
<path opacity="0.1" d="M647.568 593.064C652.242 590.657 658.692 597.571 663.319 598.06C665.765 598.313 667.588 597.191 667.993 594.259C669.146 586.494 661.294 582.132 655.046 580.738C658.988 580.448 662.836 581.679 666.716 580.466C667.246 580.393 667.756 580.187 668.211 579.862C668.666 579.538 669.055 579.102 669.352 578.586C669.648 578.07 669.844 577.485 669.927 576.872C670.01 576.26 669.977 575.633 669.832 575.036C668.118 566.312 658.162 567.597 652.273 570.71C654.143 566.837 659.642 556.086 654.08 555.452C648.518 554.819 642.66 569.063 640.775 573.733C638.017 580.575 635.275 590.023 637.861 596.865C640.822 604.847 644.701 596.702 647.568 593.064Z" fill="black"/>
<path d="M646.773 595.145C651.447 588.72 664.534 586.819 664.425 583.688C664.176 577.317 653.628 578.801 648.456 580.846C652.351 576.901 660.016 569.805 657.663 564.918C654.766 558.964 644.093 571.507 640.011 580.973C634.854 592.919 637.846 599.942 639.793 600.594C642.473 601.48 646.025 596.195 646.773 595.145Z" fill="#FFC727"/>
<path d="M609.288 701.826L597.821 803.638H667.619C666.186 794.588 653.192 701.699 653.192 701.699L609.288 701.826Z" fill="#FFC727"/>
<path d="M492.328 385.386C493.832 379.317 496.162 373.567 499.23 368.353C502.415 363.197 506.124 358.506 510.276 354.38C526.838 337.638 549.662 331.158 571.241 332.877C581.098 333.57 590.763 336.361 599.752 341.113C604.132 343.486 608.194 346.583 611.811 350.308C615.161 353.765 618.931 358.018 620.489 362.978C620.539 363.156 620.537 363.349 620.485 363.526C620.433 363.704 620.333 363.857 620.2 363.963C620.067 364.069 619.907 364.122 619.746 364.114C619.585 364.106 619.43 364.038 619.305 363.919C617.326 362.109 615.659 359.828 613.774 357.837C611.872 355.863 609.852 354.049 607.729 352.407C603.558 349.219 599.121 346.526 594.486 344.371C575.961 335.683 553.978 335.9 535.282 343.756C526.216 347.601 517.846 353.377 510.603 360.788C507.191 364.291 504.062 368.151 501.255 372.317C498.246 376.549 495.473 380.998 492.951 385.639C492.671 385.892 492.188 385.784 492.328 385.386Z" fill="#263238"/>
<path d="M505.991 351.14C507.864 347.669 510.217 344.58 512.956 342C515.824 339.551 518.857 337.373 522.023 335.484C533.62 328.215 546.317 323.618 559.415 321.945C565.735 321.137 572.125 321.503 578.345 323.031C581.293 323.797 584.201 324.758 587.054 325.909C589.96 326.906 592.722 328.401 595.249 330.343C595.309 330.409 595.349 330.494 595.364 330.587C595.38 330.68 595.369 330.777 595.335 330.863C595.3 330.949 595.243 331.02 595.172 331.067C595.101 331.113 595.019 331.133 594.938 331.122C591.604 330.325 588.41 328.896 585.06 328.153C581.71 327.411 578.579 327.267 575.307 326.905C537.027 322.778 509.341 350.272 506.63 351.919C506.539 351.995 506.426 352.03 506.314 352.018C506.202 352.006 506.098 351.947 506.02 351.852C505.942 351.757 505.896 351.633 505.891 351.502C505.886 351.372 505.922 351.243 505.991 351.14Z" fill="#263238"/>
<path d="M638.437 491.904C630.647 497.75 621.424 493.479 615.316 486.619C608.96 479.488 604.629 470.148 601.294 460.754C598.178 452.175 595.982 443.215 593.504 434.364C591.027 425.513 588.83 416.264 584.904 408.173C581.23 400.436 575.069 394.702 567.766 392.227C559.854 389.754 551.443 390.633 544.038 394.707C540.116 396.717 536.558 399.573 533.553 403.124C530.8 406.598 528.657 410.661 527.243 415.088C523.955 424.645 522.304 434.817 520.31 444.79C518.674 453.043 515.277 460.483 508.625 464.555C502.953 468.03 495.974 469.08 490.209 465.333C490.123 465.285 490.055 465.203 490.018 465.101C489.981 464.999 489.978 464.884 490.009 464.779C490.039 464.675 490.102 464.586 490.185 464.532C490.268 464.477 490.365 464.46 490.458 464.483C494.089 465.303 497.834 465.139 501.401 464.003C504.968 462.866 508.261 460.788 511.024 457.93C513.871 454.582 515.843 450.365 516.711 445.767C517.957 440.337 518.892 434.744 520.169 429.278C522.288 420.228 524.392 410.327 529.517 402.798C534.738 395.504 541.776 390.268 549.662 387.811C557.255 385.244 565.363 385.652 572.736 388.969C580.067 392.492 586.047 398.988 589.563 407.25C596.916 423.54 599.285 442.111 604.956 459.161C607.565 467.626 611.46 475.479 616.454 482.347C621.642 489.08 629.977 494.076 637.736 490.329C637.915 490.23 638.12 490.216 638.308 490.289C638.496 490.363 638.652 490.518 638.743 490.722C638.834 490.927 638.853 491.165 638.796 491.385C638.739 491.606 638.61 491.792 638.437 491.904Z" fill="#263238"/>
<path d="M640.135 463.36C636.552 463.921 633.264 460.79 631.597 457.351C629.331 452.403 627.594 447.151 626.425 441.713C623.957 430.463 620.833 419.42 617.077 408.662C610.845 391.811 601.139 375.557 587.163 366.217C580.239 361.533 572.516 358.663 564.536 357.81C556.557 356.956 548.513 358.139 540.969 361.276C533.785 364.32 527.219 369.052 521.681 375.177C515.981 381.691 511.393 389.399 508.157 397.892C504.923 406.697 502.267 415.773 500.211 425.043C499.292 428.753 497.999 433.26 494.914 435.269C493.764 436.106 492.395 436.442 491.051 436.217C489.707 435.992 488.476 435.22 487.576 434.038C487.405 433.803 487.685 433.549 487.872 433.694C488.746 434.368 489.79 434.681 490.835 434.583C491.881 434.485 492.868 433.98 493.637 433.151C495.301 431.509 496.406 429.231 496.753 426.726C497.796 421.73 498.638 416.698 499.869 411.721C502.171 401.608 505.802 391.968 510.634 383.141C514.987 375.568 520.587 369.071 527.11 364.022C533.633 358.973 540.951 355.474 548.643 353.724C556.336 351.974 564.25 352.01 571.93 353.828C579.611 355.646 586.906 359.21 593.395 364.317C606.856 374.924 615.971 391.268 622 408.517C625.116 417.971 627.718 427.644 629.79 437.477C630.818 442.45 632.088 447.35 633.592 452.156C634.296 454.262 635.129 456.307 636.084 458.274C636.429 459.178 636.974 459.96 637.664 460.539C638.354 461.118 639.164 461.473 640.011 461.568C640.215 461.549 640.418 461.625 640.574 461.78C640.731 461.934 640.828 462.154 640.844 462.392C640.861 462.629 640.795 462.865 640.662 463.047C640.529 463.228 640.34 463.341 640.135 463.36Z" fill="#263238"/>
<path d="M635.789 499.723C635.812 499.924 635.769 500.127 635.667 500.292C635.566 500.457 635.414 500.571 635.244 500.61C633.979 500.959 632.692 501.189 631.395 501.298C630.814 501.334 630.232 501.334 629.65 501.298C622.78 500.9 615.628 496.375 608.43 487.85C602.346 480.636 597.334 472.299 593.598 463.179C590.653 455.365 588.388 447.228 586.836 438.889C586.338 436.554 585.824 434.201 585.278 431.885C583.58 424.464 580.495 413.785 573.531 407.051C571.181 404.776 568.421 403.143 565.455 402.272C562.488 401.401 559.392 401.315 556.393 402.02C551.738 403.116 547.326 405.313 543.432 408.474C539.537 411.634 536.244 415.69 533.755 420.391C529.852 427.948 528.446 436.896 529.798 445.568C531.454 454.941 535.372 463.573 541.094 470.456C547.052 477.579 554.114 483.333 561.908 487.415C565.211 489.225 569.589 491.633 574.076 493.551L576.647 494.655C579.919 496.049 583.284 497.461 586.509 499.108C586.718 499.225 586.884 499.426 586.976 499.674C587.068 499.922 587.08 500.199 587.01 500.456C586.94 500.714 586.792 500.933 586.595 501.074C586.397 501.215 586.162 501.269 585.933 501.226C583.674 500.665 581.446 499.941 579.374 499.235C564.339 494.221 545.612 486.112 534.192 467.813C529.03 459.883 526.035 450.338 525.591 440.41C525.388 431.301 527.824 422.377 532.509 415.07C538.404 405.656 547.232 399.291 557.11 397.332C560.36 396.71 563.686 396.871 566.881 397.806C570.076 398.74 573.071 400.427 575.681 402.762C581.446 407.956 585.684 416.228 588.628 428.102C589.438 431.323 590.186 434.618 590.856 437.803C592.342 445.512 594.428 453.049 597.088 460.32C600.852 469.801 606.049 478.421 612.434 485.768C617.654 491.741 625.786 498.855 634.932 498.873C635.142 498.857 635.349 498.938 635.509 499.097C635.669 499.255 635.769 499.48 635.789 499.723Z" fill="#263238"/>
<path d="M638.78 473.805C636.836 474.314 634.816 474.285 632.883 473.719C630.951 473.153 629.16 472.066 627.656 470.547C624.244 467.379 622.483 462.112 621.081 457.443C617.825 446.583 615.301 435.361 612.06 424.446C607.028 407.432 599.596 390.056 586.4 379.812C580.465 375.28 573.766 372.274 566.751 370.994C559.735 369.714 552.565 370.19 545.721 372.391C538.144 374.882 531.277 379.674 525.825 386.273C520.825 392.713 516.862 400.143 514.124 408.211C512.675 412.265 511.429 416.392 510.323 420.591C509.311 425.034 508.105 429.414 506.708 433.713C504.153 440.845 497.719 449.406 490.303 445.877C490.182 445.809 490.084 445.697 490.024 445.559C489.964 445.42 489.945 445.262 489.97 445.11C489.995 444.957 490.062 444.819 490.162 444.715C490.261 444.612 490.387 444.549 490.521 444.537C492.586 444.314 494.585 443.572 496.38 442.362C498.174 441.153 499.721 439.505 500.912 437.533C503.546 433.225 504.558 427.903 505.758 422.89C507.857 413.525 510.955 404.501 514.981 396.029C518.57 388.534 523.456 381.983 529.33 376.789C535.69 371.448 543.028 367.892 550.768 366.4C557.853 365.056 565.096 365.371 572.074 367.326C579.052 369.281 585.623 372.837 591.401 377.784C604.223 388.916 611.53 406.364 616.532 423.577C619.352 433.243 621.533 443.107 624.119 452.845C626.082 460.266 629.557 472.755 638.281 471.108C638.569 471.086 638.854 471.184 639.084 471.386C639.314 471.587 639.474 471.879 639.535 472.206C639.595 472.533 639.552 472.875 639.414 473.169C639.275 473.462 639.05 473.688 638.78 473.805Z" fill="#263238"/>
<path d="M639.418 480.899C638.393 482.241 637.156 483.341 635.773 484.139C632.906 485.804 628.715 485.261 625.848 483.922C622.325 482.049 619.367 478.991 617.357 475.143C615.16 471.03 613.303 466.685 611.811 462.165C610.019 457.152 608.461 451.993 606.934 446.853C603.818 436.518 601.029 426.092 597.586 415.884C594.595 406.834 590.871 398.2 584.608 391.612C579.032 385.668 572.109 381.7 564.656 380.177C557.202 378.654 549.53 379.638 542.542 383.014C535.374 386.512 529.278 392.434 525.046 400.01C520.372 408.282 518.253 417.929 516.196 427.359C514.358 435.757 512.878 444.826 508.25 451.866C504.402 457.749 496.207 462.401 490.801 456.283C490.744 456.225 490.707 456.145 490.697 456.058C490.687 455.971 490.705 455.883 490.747 455.809C490.789 455.736 490.852 455.683 490.925 455.661C490.998 455.638 491.076 455.647 491.144 455.686C495.007 457.912 499.541 456.391 502.766 453.351C505.737 450.328 507.962 446.443 509.216 442.092C512.41 432.481 513.672 422.182 516.601 412.39C518.999 403.71 523.18 395.839 528.785 389.458C534.166 383.486 540.724 379.136 547.886 376.788C555.154 374.599 562.786 374.632 570.04 376.884C577.294 379.135 583.923 383.53 589.282 389.639C595.218 396.571 598.942 405.313 601.949 414.345C605.22 424.246 607.869 434.418 610.829 444.464C612.387 449.604 613.945 454.708 615.675 459.794C616.99 464.176 618.632 468.415 620.582 472.464C622.38 476.236 625.193 479.218 628.59 480.953C630.173 481.767 631.913 482.076 633.632 481.85C635.352 481.625 636.988 480.871 638.375 479.668C639.091 479.035 639.948 480.211 639.418 480.899Z" fill="#263238"/>
<path d="M488.962 428.662C488.845 426.311 488.845 423.954 488.962 421.603C490.582 402.199 497.707 383.97 509.216 369.783C519.877 356.363 534.079 347.448 549.584 344.443C564.819 341.743 580.4 344.522 594.236 352.407C608.004 360.304 619.338 372.946 626.69 388.607C634.251 404.045 637.664 421.758 636.489 439.468C636.489 439.848 635.96 439.775 635.944 439.468C634.958 420.356 629.618 401.892 620.473 385.964C612.338 372.065 600.893 361.221 587.537 354.76C574.21 348.408 559.522 346.98 545.471 350.669C530.998 354.844 518.107 364.428 508.78 377.946C503.856 385.115 499.886 393.101 497.002 401.639C494.152 410.472 491.896 419.55 490.255 428.789C490.022 429.477 489.009 429.477 488.962 428.662Z" fill="#263238"/>
<path d="M512.754 493.948C511.04 491.016 507.363 493.605 505.462 494.835C502.611 496.645 499.542 499.125 496.114 498.455C496.058 498.434 495.997 498.439 495.945 498.469C495.892 498.5 495.852 498.553 495.834 498.618C495.815 498.683 495.819 498.754 495.846 498.815C495.872 498.876 495.918 498.922 495.974 498.944C497.086 499.583 498.306 499.924 499.547 499.943C500.787 499.962 502.015 499.657 503.141 499.053C504.354 498.475 505.539 497.822 506.693 497.098C507.785 496.364 508.952 495.793 510.167 495.396C510.389 495.361 510.615 495.361 510.837 495.396C511.071 495.396 511.009 495.396 511.04 495.487C511.258 495.957 510.915 496.953 510.79 497.424C510.502 498.647 510.1 499.831 509.591 500.953C508.509 503.262 507.139 505.373 505.524 507.216C504.616 508.295 503.654 509.31 502.642 510.257C501.614 511.216 500.399 511.94 499.417 512.953C499.336 513.004 499.276 513.089 499.25 513.191C499.224 513.293 499.233 513.403 499.277 513.496C499.32 513.59 499.394 513.66 499.481 513.69C499.569 513.721 499.664 513.71 499.744 513.659C500.93 513.232 502.062 512.623 503.109 511.849C504.205 511.104 505.247 510.256 506.225 509.315C508.202 507.425 509.866 505.131 511.133 502.546C511.77 501.259 512.292 499.901 512.691 498.492C513.008 497.793 513.178 497.018 513.189 496.229C513.2 495.439 513.051 494.658 512.754 493.948Z" fill="#263238"/>
<path d="M507.534 499.561C505.675 500.55 503.94 501.829 502.377 503.362C501.681 504.037 500.964 504.671 500.227 505.262C499.868 505.552 499.479 505.823 499.105 506.077C498.722 506.305 498.326 506.504 497.921 506.674C497.844 506.701 497.776 506.756 497.728 506.831C497.68 506.906 497.654 506.997 497.654 507.09C497.654 507.184 497.68 507.275 497.728 507.35C497.776 507.425 497.844 507.48 497.921 507.506C499.775 508.031 501.722 506.62 503.125 505.389C504.893 503.898 506.468 502.117 507.799 500.104C508.017 499.923 507.83 499.561 507.534 499.561Z" fill="#263238"/>
<path d="M629.322 506.203C629.33 506.245 629.33 506.288 629.322 506.33C629.312 506.477 629.261 506.616 629.176 506.727C629.092 506.838 628.98 506.914 628.855 506.945C628.396 507.082 627.926 507.167 627.453 507.198C625.806 507.229 624.164 506.985 622.576 506.474C620.354 505.862 618.192 504.982 616.126 503.85C612.088 501.581 608.352 498.649 605.033 495.144C593.738 483.668 585.792 467.324 581.414 446.527C581.134 445.152 580.837 443.758 580.557 442.382C578.999 434.871 577.441 427.124 573.858 420.662C571.973 417.247 569.408 414.409 566.379 412.391C563.224 410.551 559.717 409.679 556.19 409.857C556.008 409.847 555.835 409.768 555.695 409.632C555.556 409.496 555.46 409.311 555.421 409.104C555.382 408.898 555.402 408.683 555.479 408.491C555.557 408.3 555.686 408.144 555.847 408.047C559.882 405.748 564.899 407.92 566.862 408.952C570.343 410.872 573.394 413.703 575.774 417.223C580.448 423.938 582.193 432.554 583.876 440.88L584.312 442.961C586.109 452.368 588.888 461.486 592.585 470.111C596.386 478.578 601.48 486.17 607.62 492.519C610.591 495.688 613.9 498.401 617.466 500.592C619.297 501.66 621.193 502.574 623.137 503.325C623.792 503.578 624.461 503.777 625.131 503.995C626.448 504.353 627.728 504.875 628.949 505.551C629.056 505.61 629.147 505.702 629.213 505.817C629.279 505.932 629.317 506.065 629.322 506.203Z" fill="#263238"/>
<path d="M590.233 495.94C590.242 496.079 590.218 496.219 590.163 496.344C590.108 496.468 590.024 496.573 589.921 496.646C589.83 496.722 589.722 496.766 589.61 496.772C589.496 496.778 589.383 496.75 589.282 496.689C589.181 496.629 589.095 496.539 589.033 496.429C587.667 494.47 585.868 492.981 583.829 492.121C581.991 491.125 580.075 490.311 578.221 489.424L577.379 489.026C572.285 486.709 568.14 484.645 564.339 482.528C547.481 473.134 537.432 460.971 534.425 446.328C532.718 438.519 533.562 430.252 536.793 423.124C538.26 419.731 540.321 416.731 542.842 414.315C545.364 411.9 548.292 410.122 551.439 409.096C551.625 409.04 551.822 409.064 551.994 409.164C552.166 409.264 552.3 409.433 552.373 409.639C552.448 409.828 552.458 410.042 552.403 410.24C552.349 410.437 552.232 410.604 552.077 410.707C546.039 414.77 541.32 421.029 538.647 428.517C535.235 439.015 536.887 456.174 552.81 470.057C558.763 474.942 565.177 479.023 571.926 482.22C575.292 483.94 579.093 485.84 582.739 488.139C584.249 489.02 585.688 490.056 587.039 491.234C588.281 492.453 589.335 493.91 590.155 495.542C590.217 495.661 590.244 495.801 590.233 495.94Z" fill="#263238"/>
<path d="M634.308 509.877C632.018 511.476 629.421 512.384 626.752 512.52C621.866 512.606 617.041 511.248 612.73 508.574C606.317 504.636 600.502 499.506 595.514 493.388C595.031 492.809 594.579 492.212 594.112 491.578L593.691 491.053C593.579 490.992 593.479 490.906 593.395 490.8C589.453 486.239 584.047 483.705 578.859 481.243C577.052 480.392 575.166 479.433 573.406 478.564C564.697 473.858 558.761 469.188 554.18 463.396C549.535 457.805 546.606 450.591 545.845 442.871C545.3 436.174 546.655 426.834 552.217 422.49C557.779 418.146 564.821 421.242 568.95 426.472C573.749 432.572 576.195 441.188 578.173 448.192L578.859 450.636C580.659 457.636 582.962 464.447 585.745 470.999C588.822 477.767 592.674 484.02 597.197 489.587C601.694 495.123 606.821 499.922 612.434 503.85C619.819 508.972 627.017 510.529 633.794 508.538H633.919C634.06 508.532 634.199 508.575 634.319 508.662C634.438 508.749 634.532 508.876 634.589 509.027C634.633 509.184 634.629 509.355 634.578 509.51C634.527 509.664 634.432 509.794 634.308 509.877ZM587.101 481.46C585.979 479.65 584.997 477.84 584.125 476.03C580.872 469.316 578.26 462.208 576.335 454.835C576.008 453.659 575.696 452.482 575.353 451.215C573.562 444.627 571.708 437.803 568.42 432.047C566.847 428.973 564.489 426.544 561.674 425.097C560.391 424.51 559.016 424.245 557.639 424.319C555.994 424.39 554.425 425.141 553.214 426.436C548.54 431.504 548.244 440.79 550.098 447.74C552.209 454.72 556.067 460.808 561.176 465.225C566.956 470.564 573.795 474.13 579.872 477.279L580.448 477.569C582.614 478.89 584.935 480.103 587.101 481.46Z" fill="#263238"/>
<path d="M576.958 469.405C576.996 469.565 576.992 469.734 576.948 469.892C576.903 470.05 576.82 470.189 576.709 470.292C576.594 470.402 576.452 470.465 576.304 470.473C576.205 470.48 576.106 470.461 576.014 470.417C575.922 470.374 575.84 470.306 575.774 470.22C575.431 469.822 572.907 467.722 571.692 466.763C571.303 466.455 570.898 466.165 570.508 465.84C569.682 465.206 568.825 464.555 568.015 463.831C565.586 461.694 563.304 459.34 561.191 456.79C557.109 451.812 555.193 446.835 555.536 441.966C555.542 440.764 555.836 439.589 556.387 438.571C556.938 437.554 557.722 436.736 558.652 436.21C559.783 435.769 561.005 435.758 562.142 436.178C563.28 436.598 564.272 437.427 564.977 438.545C566.394 440.739 567.499 443.183 568.249 445.785C568.966 447.884 569.604 450.075 570.243 452.174L570.757 453.876C572.51 458.942 574.555 463.864 576.88 468.609C576.954 468.721 577.001 468.854 577.014 468.995C577.028 469.135 577.009 469.277 576.958 469.405ZM568.997 456.88C567.526 452.418 565.798 448.076 563.824 443.884L563.731 443.703C563.201 442.617 561.939 440.083 560.724 439.794H560.459C560.203 439.819 559.958 439.932 559.758 440.12C558.698 441.079 558.854 443.74 559.353 445.749C560.506 450.563 564.027 454.455 566.769 457.586L568.95 460.011C569.698 460.826 570.43 461.659 571.162 462.491C570.228 460.482 569.558 458.509 568.997 456.88Z" fill="#263238"/>
<path d="M567.112 551.073C569.803 557.284 572.216 563.651 574.341 570.151C574.346 570.193 574.34 570.236 574.322 570.273C574.305 570.311 574.278 570.341 574.245 570.359C574.212 570.377 574.174 570.383 574.138 570.375C574.102 570.367 574.07 570.345 574.045 570.314C571.007 565.065 568.483 559.454 565.632 554.024C563.762 550.531 560.381 542.367 555.816 543.689C553.9 544.232 552.529 546.693 551.47 548.449C550.081 550.877 548.572 553.21 546.951 555.436C544.459 558.73 539.785 563.038 535.703 561.879C535.516 561.879 535.407 561.481 535.594 561.372C536.684 560.703 537.837 560.286 538.912 559.562C540.097 558.786 541.196 557.844 542.184 556.757C544.091 554.497 545.773 551.995 547.201 549.3C549.538 545.101 552.264 539.562 557.343 540.25C562.048 540.883 565.258 546.621 567.112 551.073Z" fill="#263238"/>
<path d="M634.527 514.566C629.588 522.113 620.754 520.774 614.366 516.756C610.685 514.27 607.211 511.392 603.99 508.158C600.582 504.82 596.934 501.828 593.084 499.217C593.037 499.2 592.997 499.162 592.973 499.111C592.95 499.06 592.945 499 592.959 498.945C592.974 498.89 593.007 498.844 593.05 498.817C593.094 498.789 593.146 498.784 593.193 498.8C601.092 500.267 606.794 507.85 613.229 512.629C619.274 517.154 628.046 519.869 634.278 514.149C634.433 513.932 634.683 514.33 634.527 514.566Z" fill="#263238"/>
<path d="M505.898 528.865C505.399 528.865 505.197 527.996 505.711 527.851C513.688 525.552 519.982 518.602 523.846 510.33C527.341 502.791 529.357 494.446 529.751 485.895C530.111 479.464 529.293 473.018 527.351 466.981C526.839 464.967 525.944 463.111 524.734 461.551C524.46 461.147 524.114 460.815 523.721 460.579C523.328 460.342 522.896 460.205 522.453 460.178C522.011 460.15 521.569 460.233 521.156 460.42C520.743 460.606 520.37 460.893 520.06 461.261C519.208 462.637 518.442 464.083 517.77 465.587C515.936 468.782 513.494 471.445 510.634 473.37C507.788 475.293 504.577 476.369 501.286 476.501C497.793 476.606 494.344 475.572 491.331 473.515C491.128 473.37 491.221 472.918 491.471 473.008C495.623 474.481 500.058 474.494 504.217 473.044C508.375 471.595 512.072 468.748 514.841 464.863C516.742 462.021 517.77 457.623 521.4 457.297C525.03 456.971 527.554 460.338 528.987 463.831C532.178 472.203 533.228 481.465 532.01 490.511C530.094 506.457 521.836 528.014 505.898 528.865Z" fill="#263238"/>
<path d="M563.544 564.141C564.044 565.791 564.271 567.535 564.214 569.282C564.202 569.334 564.179 569.381 564.145 569.419C564.112 569.456 564.07 569.482 564.025 569.493C563.979 569.504 563.932 569.501 563.889 569.483C563.845 569.464 563.807 569.433 563.778 569.39C563.055 568.074 562.503 566.641 562.142 565.137C561.659 563.58 561.16 562.024 560.584 560.503C560.016 558.975 559.349 557.499 558.59 556.087C558.34 555.466 558.003 554.897 557.592 554.404L557.483 554.313L557.234 554.603C557 554.863 556.781 555.141 556.58 555.435C554.998 557.961 553.292 560.378 551.47 562.675C549.912 564.359 547.434 566.187 545.238 565.608C545.208 565.592 545.182 565.566 545.165 565.534C545.147 565.502 545.138 565.465 545.138 565.427C545.138 565.389 545.147 565.351 545.165 565.319C545.182 565.287 545.208 565.261 545.238 565.246C546.488 564.501 547.646 563.563 548.681 562.458C549.645 561.298 550.516 560.038 551.283 558.693C552.171 557.282 552.965 555.779 553.931 554.422C554.897 553.064 555.972 551.309 557.515 551.309C559.057 551.309 559.789 552.92 560.397 554.205C561.136 555.739 561.762 557.343 562.266 559.001C562.687 560.702 563.155 562.404 563.544 564.141Z" fill="#263238"/>
<path d="M502.174 519.109C502.114 519.13 502.05 519.127 501.992 519.098C501.935 519.069 501.887 519.018 501.859 518.953C501.831 518.887 501.824 518.813 501.839 518.742C501.854 518.671 501.89 518.609 501.941 518.566C503.855 516.689 505.628 514.624 507.238 512.394C508.772 510.071 510.197 507.654 511.507 505.154C514.115 500.849 516.349 496.253 518.175 491.434C519.118 489.094 519.607 486.542 519.608 483.959C519.312 480.339 516.181 482.981 514.825 484.339C513.317 486.055 511.703 487.64 509.996 489.081C506.603 491.617 502.576 492.758 498.56 492.321C496.628 491.921 494.768 491.144 493.06 490.022C492.671 489.823 492.951 489.208 493.34 489.353C494.869 489.788 496.444 489.958 498.014 489.859C499.307 489.887 500.599 489.797 501.878 489.588C504.54 489.105 507.071 487.923 509.279 486.131C511.927 483.941 516.788 476.592 520.496 480.14C523.706 483.199 521.229 490.312 519.936 493.787C517.796 499.062 515.185 504.061 512.146 508.702C509.653 512.684 506.35 517.444 502.174 519.109Z" fill="#263238"/>
<path d="M624.587 532.954C621.191 533.739 617.665 533.05 614.678 531.018C614.039 530.62 613.447 530.167 612.824 529.715C613.151 530.149 613.462 530.565 613.759 531C615.899 534.036 617.24 537.725 617.622 541.624C617.623 541.677 617.61 541.73 617.584 541.774C617.558 541.818 617.521 541.851 617.478 541.869C617.435 541.887 617.388 541.889 617.344 541.874C617.3 541.859 617.261 541.829 617.233 541.787C615.488 538.692 613.696 535.579 611.702 532.737C609.708 529.895 607.386 527.09 605.47 524.103C605.396 523.971 605.356 523.817 605.356 523.658C605.356 523.5 605.395 523.346 605.47 523.213C605.544 523.081 605.65 522.977 605.775 522.913C605.899 522.849 606.037 522.829 606.171 522.855C609.474 523.723 611.951 526.475 614.88 528.285C617.979 530.17 621.251 531.645 624.633 532.683C624.758 532.683 624.758 532.918 624.587 532.954Z" fill="#263238"/>
<path d="M588.425 549.896C590.197 553.73 591.758 557.689 593.099 561.752C593.143 561.85 593.151 561.965 593.121 562.07C593.092 562.175 593.028 562.263 592.943 562.313C592.859 562.363 592.76 562.373 592.67 562.339C592.579 562.305 592.504 562.23 592.46 562.132C589.812 557.987 587.677 553.39 585.216 549.082C582.754 544.774 580.308 540.864 577.628 536.937C573.368 530.543 568.205 525.035 562.36 520.647C560.862 519.535 559.3 518.544 557.686 517.678C556.022 516.585 554.159 515.964 552.248 515.868C548.79 516.086 546.546 519.941 545.004 522.927C541.28 530.167 538.102 537.805 532.337 543.326C529.813 545.88 526.765 547.638 523.488 548.43C522.092 548.9 520.604 548.849 519.234 548.285C518.814 547.978 518.549 547.525 518.97 547.091C519.11 546.964 519.328 547.091 519.234 547.344C519.141 547.598 521.244 547.109 521.338 547.073L522.678 546.638C523.619 546.301 524.531 545.865 525.404 545.335C527.069 544.326 528.636 543.113 530.078 541.715C533.154 538.521 535.737 534.737 537.712 530.529C539.504 527 541.093 523.289 543.087 519.905C544.64 516.849 547.009 514.466 549.834 513.117C553.386 511.778 556.985 513.262 560.194 514.927C563.29 516.555 566.222 518.577 568.935 520.954C574.468 525.83 579.215 531.805 582.957 538.602C584.948 542.253 586.773 546.023 588.425 549.896Z" fill="#263238"/>
<path d="M579.498 557.969C580.593 560.992 581.367 564.159 581.804 567.399C581.808 567.452 581.797 567.504 581.772 567.549C581.747 567.593 581.709 567.626 581.666 567.643C581.623 567.66 581.576 567.659 581.533 567.641C581.49 567.623 581.454 567.589 581.43 567.544C579.872 564.394 578.781 560.901 577.161 557.752C575.541 554.602 574.045 551.489 572.487 548.466C569.572 543.037 566.195 537.962 562.407 533.317C560.615 531.199 558.512 529.389 555.894 529.697C553.439 530.274 551.235 531.83 549.662 534.095C546.141 538.674 544.521 544.955 540.891 549.444C539.282 551.493 537.274 553.065 535.035 554.029C532.796 554.993 530.392 555.319 528.022 554.982C527.866 554.982 527.819 554.602 528.022 554.548C531.072 553.7 533.931 552.101 536.404 549.86C538.814 547.456 540.799 544.53 542.246 541.244C544.926 535.814 547.528 529.914 552.591 527.199C554.812 525.96 557.361 525.778 559.696 526.692C562.129 527.924 564.268 529.825 565.928 532.231C569.886 537.216 573.293 542.755 576.07 548.72C577.401 551.704 578.546 554.795 579.498 557.969Z" fill="#263238"/>
<path d="M602.042 554.91C602.079 555.054 602.07 555.209 602.015 555.346C601.961 555.483 601.865 555.592 601.746 555.652H601.543C601.455 555.652 601.367 555.628 601.289 555.581C601.21 555.534 601.142 555.465 601.092 555.38C598.734 551.097 596.181 546.964 593.442 543C590.564 538.933 587.49 535.06 584.234 531.398C578.839 524.996 573.077 519.028 566.987 513.533C563.982 510.874 560.719 508.632 557.265 506.854C553.978 505.189 549.475 502.926 546.359 506.148C544.55 508.328 543.117 510.89 542.137 513.696C541.701 514.746 541.264 515.759 540.812 516.719C538.919 520.807 536.691 524.674 534.16 528.266C531.702 531.771 528.759 534.774 525.451 537.153C522.287 539.468 518.679 540.837 514.95 541.135C514.822 541.151 514.694 541.109 514.593 541.018C514.491 540.927 514.424 540.794 514.404 540.647C514.371 540.505 514.386 540.354 514.447 540.225C514.508 540.097 514.61 540.001 514.732 539.959C525.092 535.742 531.745 526.529 535.484 519.542C536.528 517.587 537.478 515.47 538.366 513.443C539.254 511.415 540.174 509.37 541.233 507.415C543.492 503.162 546.39 500.99 549.787 500.863C553.869 500.736 558.106 502.8 561.331 504.573C564.875 506.562 568.223 508.989 571.318 511.813C577.578 517.727 583.418 524.216 588.783 531.217C594.345 538.185 599.83 545.896 602.042 554.91Z" fill="#263238"/>
<path d="M504.792 525.063C504.278 525.352 503.966 524.465 504.356 524.103C509.573 519.493 514.073 513.88 517.661 507.506C520.599 501.953 522.628 495.816 523.644 489.406C524.182 486.124 524.458 482.792 524.469 479.451C524.469 477.007 525.015 470.835 521.93 470.817C518.845 470.799 517.147 475.107 515.355 477.17C513.309 479.584 510.894 481.535 508.235 482.926C505.598 484.361 502.663 484.89 499.775 484.451C496.888 484.012 494.168 482.622 491.938 480.446C491.903 480.412 491.879 480.364 491.872 480.312C491.865 480.259 491.875 480.205 491.9 480.16C491.925 480.115 491.964 480.083 492.008 480.069C492.053 480.055 492.1 480.06 492.141 480.084C498.996 484.519 507.986 481.062 513.283 475.125C515.433 472.736 517.178 469.279 520.232 468.319C520.849 468.039 521.511 467.915 522.173 467.955C522.835 467.994 523.483 468.197 524.072 468.55C524.661 468.902 525.179 469.397 525.592 470C526.004 470.603 526.301 471.301 526.464 472.048C527.084 475.381 527.263 478.806 526.993 482.202C526.852 485.643 526.403 489.059 525.654 492.392C522.584 505.641 515.511 518.764 504.792 525.063Z" fill="#263238"/>
<path d="M606.436 542.04C607.682 544.539 608.611 547.234 609.194 550.041C609.255 550.374 609.215 550.721 609.082 551.024C608.948 551.327 608.73 551.568 608.462 551.706C608.345 551.751 608.225 551.782 608.103 551.796C607.911 551.806 607.72 551.756 607.55 551.651C607.38 551.546 607.238 551.39 607.137 551.199C606.218 549.552 605.346 547.869 604.473 546.203C602.615 542.46 600.533 538.874 598.241 535.47C594.828 530.677 591.12 526.176 587.148 522.004C579.123 514.214 570.722 506.962 561.986 500.284C549.522 490.655 540.969 485.568 539.006 486.618C537.666 487.342 537.604 489.931 537.541 492.048C537.541 492.653 537.515 493.257 537.464 493.858C537.144 496.823 536.686 499.766 536.092 502.673C535.047 508.243 533.243 513.583 530.749 518.492C528.455 522.959 525.343 526.784 521.634 529.696C519.609 531.235 514.358 534.692 509.529 533.624C509.403 533.567 509.294 533.468 509.215 533.341C509.136 533.213 509.091 533.062 509.084 532.905C509.077 532.748 509.11 532.593 509.178 532.457C509.246 532.321 509.346 532.211 509.466 532.14C510.261 531.778 511.024 531.452 511.819 531.126C513.489 530.467 515.119 529.675 516.695 528.755C518.972 527.327 521.069 525.543 522.927 523.452C526.705 519.033 529.548 513.654 531.232 507.741C532.801 501.977 533.846 496.038 534.348 490.021C534.361 488.738 534.625 487.476 535.118 486.328C535.612 485.181 536.323 484.179 537.199 483.396C539.037 482.003 542.2 482.962 543.758 483.74C552.701 488.193 581.43 509.515 592.882 521.859C596.444 525.792 599.654 530.134 602.463 534.819C603.901 537.139 605.228 539.55 606.436 542.04Z" fill="#263238"/>
<path d="M629.182 525.01C623.184 528.033 616.079 525.01 610.611 521.86C605.142 518.711 600.64 514.458 595.514 511C594.19 510.132 592.865 509.317 591.494 508.575C590.809 508.213 590.108 507.869 589.406 507.561C589.048 507.399 588.627 507.091 588.254 507.236C587.88 507.38 587.802 507.236 588.098 507.58C588.394 507.923 588.285 507.887 588.394 508.032C590.17 510.602 592.959 512.448 595.093 514.584C599.459 518.871 603.427 523.675 606.934 528.919C610.237 533.897 613.68 539.617 614.724 545.897C614.724 546.205 614.412 546.314 614.272 546.096C612.169 542.766 610.408 539.146 608.321 535.797C606.27 532.533 604.004 529.459 601.543 526.603C599.346 524.032 597.056 521.553 594.735 519.145C592.413 516.738 589.967 514.675 587.88 512.123C586.431 510.313 583.844 506.693 586.68 504.883C588.97 503.435 592.367 505.914 594.392 507.091C600.125 510.421 605.298 514.928 610.876 518.512C613.746 520.393 616.794 521.881 619.959 522.947C622.977 523.844 626.069 524.366 629.182 524.503C629.431 524.521 629.431 524.901 629.182 525.01Z" fill="#263238"/>
<path d="M557.639 560.304C557.641 560.238 557.641 560.171 557.639 560.105C557.62 560.043 557.589 559.986 557.548 559.939C557.508 559.893 557.458 559.858 557.404 559.837C557.35 559.816 557.293 559.809 557.236 559.818C557.179 559.827 557.125 559.851 557.078 559.888L556.953 559.978C556.408 560.214 556.05 561.137 555.847 561.68C555.645 562.223 555.333 563.037 555.068 563.689C554.554 564.992 554.102 566.331 553.51 567.617C553.478 567.672 553.465 567.74 553.474 567.806C553.482 567.873 553.512 567.933 553.556 567.976C553.601 568.018 553.657 568.041 553.715 568.038C553.772 568.035 553.827 568.007 553.868 567.96C554.973 567.088 555.915 565.968 556.642 564.666C556.967 564.033 557.254 563.374 557.499 562.693C557.652 562.266 557.751 561.815 557.795 561.354C557.841 560.994 557.786 560.626 557.639 560.304Z" fill="#263238"/>
<path d="M679.678 365.041H684.352V301.582H629.728V307.012H679.678V365.041Z" fill="#FFC727"/>
<path d="M444.201 580.558H498.824V575.128H448.875V517.1H444.201V580.558Z" fill="#FFC727"/>
<path d="M629.728 580.558H684.352V517.1H679.678V575.128H629.728V580.558Z" fill="#FFC727"/>
<path d="M444.201 365.041H448.875V307.012H498.824V301.582H444.201V365.041Z" fill="#FFC727"/>
<path d="M432.174 594.55H435.866V593.192H433.342V590.26H432.174V594.55Z" fill="#FFC727"/>
<path d="M442.129 594.549H448.361V593.191H442.129V594.549ZM454.593 594.549H460.825V593.191H454.593V594.549ZM467.057 594.549H473.289V593.191H467.057V594.549ZM479.521 594.549H485.753V593.191H479.521V594.549ZM491.985 594.549H498.217V593.191H491.985V594.549ZM504.449 594.549H510.681V593.191H504.449V594.549ZM516.913 594.549H523.145V593.191H516.913V594.549ZM529.377 594.549H535.609V593.191H529.377V594.549ZM541.841 594.549H548.073V593.191H541.841V594.549ZM554.305 594.549H560.537V593.191H554.305V594.549ZM566.769 594.549H573.001V593.191H566.769V594.549ZM579.233 594.549H585.465V593.191H579.233V594.549ZM591.697 594.549H597.929V593.191H591.697V594.549ZM604.161 594.549H610.393V593.191H604.161V594.549ZM616.625 594.549H622.857V593.191H616.625V594.549ZM629.089 594.549H635.321V593.191H629.089V594.549ZM641.553 594.549H647.785V593.191H641.553V594.549ZM654.017 594.549H660.249V593.191H654.017V594.549ZM666.481 594.549H672.713V593.191H666.481V594.549ZM678.945 594.549H685.177V593.191H678.945V594.549Z" fill="#FFC727"/>
<path d="M692.686 594.55H696.379V590.26H695.21V593.192H692.686V594.55Z" fill="#FFC727"/>
<path d="M695.211 582.966H696.426V575.726H695.257L695.211 582.966ZM695.211 568.486H696.426V561.246H695.257L695.211 568.486ZM695.211 554.006H696.426V546.766H695.257L695.211 554.006ZM695.211 539.526H696.426V532.286H695.257L695.211 539.526ZM695.211 525.046H696.426V517.806H695.257L695.211 525.046ZM695.211 510.566H696.426V503.326H695.257L695.211 510.566ZM695.211 496.086H696.426V488.846H695.257L695.211 496.086ZM695.211 481.606H696.426V474.366H695.257L695.211 481.606ZM695.211 467.126H696.426V459.886H695.257L695.211 467.126ZM695.211 452.646H696.426V445.406H695.257L695.211 452.646ZM695.211 438.166H696.426V430.926H695.257L695.211 438.166ZM695.211 423.686H696.426V416.446H695.257L695.211 423.686ZM695.211 409.206H696.426V401.966H695.257L695.211 409.206ZM695.211 394.726H696.426V387.486H695.257L695.211 394.726ZM695.211 380.246H696.426V373.006H695.257L695.211 380.246ZM695.211 365.676H696.426V358.436H695.257L695.211 365.676ZM695.211 351.196H696.426V343.956H695.257L695.211 351.196ZM695.211 336.716H696.426V329.476H695.257L695.211 336.716ZM695.211 322.236H696.426V314.996H695.257L695.211 322.236ZM695.211 307.756H696.426V300.516H695.257L695.211 307.756Z" fill="#FFC727"/>
<path d="M695.21 291.899H696.379V287.609H692.686V288.967H695.21V291.899Z" fill="#FFC727"/>
<path d="M442.129 288.967H448.361V287.609H442.129V288.967ZM454.593 288.967H460.825V287.609H454.593V288.967ZM467.057 288.967H473.289V287.609H467.057V288.967ZM479.521 288.967H485.753V287.609H479.521V288.967ZM491.985 288.967H498.217V287.609H491.985V288.967ZM504.449 288.967H510.681V287.609H504.449V288.967ZM516.913 288.967H523.145V287.609H516.913V288.967ZM529.377 288.967H535.609V287.609H529.377V288.967ZM541.841 288.967H548.073V287.609H541.841V288.967ZM554.305 288.967H560.537V287.609H554.305V288.967ZM566.769 288.967H573.001V287.609H566.769V288.967ZM579.233 288.967H585.465V287.609H579.233V288.967ZM591.697 288.967H597.929V287.609H591.697V288.967ZM604.161 288.967H610.393V287.609H604.161V288.967ZM616.625 288.967H622.857V287.609H616.625V288.967ZM629.089 288.967H635.321V287.609H629.089V288.967ZM641.553 288.967H647.785V287.609H641.553V288.967ZM654.017 288.967H660.249V287.609H654.017V288.967ZM666.481 288.967H672.713V287.609H666.481V288.967ZM678.945 288.967H685.177V287.609H678.945V288.967Z" fill="#FFC727"/>
<path d="M432.174 291.899H433.342V288.967H435.866V287.609H432.174V291.899Z" fill="#FFC727"/>
<path d="M432.173 582.966H433.342V575.726H432.173V582.966ZM432.173 568.486H433.342V561.246H432.173V568.486ZM432.173 554.006H433.342V546.766H432.173V554.006ZM432.173 539.526H433.342V532.286H432.173V539.526ZM432.173 525.046H433.342V517.806H432.173V525.046ZM432.173 510.566H433.342V503.326H432.173V510.566ZM432.173 496.086H433.342V488.846H432.173V496.086ZM432.173 481.606H433.342V474.366H432.173V481.606ZM432.173 467.126H433.342V459.886H432.173V467.126ZM432.173 452.646H433.342V445.406H432.173V452.646ZM432.173 438.166H433.342V430.926H432.173V438.166ZM432.173 423.686H433.342V416.446H432.173V423.686ZM432.173 409.206H433.342V401.966H432.173V409.206ZM432.173 394.726H433.342V387.486H432.173V394.726ZM432.173 380.246H433.342V373.006H432.173V380.246ZM432.173 365.676H433.342V358.436H432.173V365.676ZM432.173 351.196H433.342V343.956H432.173V351.196ZM432.173 336.716H433.342V329.476H432.173V336.716ZM432.173 322.236H433.342V314.996H432.173V322.236ZM432.173 307.756H433.342V300.516H432.173V307.756Z" fill="#FFC727"/>
<path d="M356.205 803.64H212.339C211.155 798.21 210.018 792.961 208.865 787.748C207.556 781.715 206.274 775.869 205.017 770.21C204.752 768.943 204.456 767.676 204.175 766.427C203.225 762.065 202.306 757.811 201.387 753.757C200.841 751.223 200.296 748.743 199.829 746.299C199.361 743.856 198.738 741.34 198.271 738.951C198.13 738.317 197.99 737.666 197.85 737.141C197.71 736.616 197.554 735.747 197.414 735.077L196.868 732.598C196.666 731.729 196.479 730.878 196.308 730.028C195.934 728.417 195.591 726.842 195.264 725.285C194.75 723.005 194.267 720.76 193.784 718.57C193.581 717.629 193.363 716.67 193.16 715.747C192.818 714.208 192.49 712.724 192.179 711.276C191.961 710.299 191.758 709.339 191.556 708.416C190.699 704.579 189.92 700.977 189.187 697.556C188.985 696.669 188.814 695.746 188.611 694.95C188.299 693.484 187.988 692.09 187.692 690.732C187.489 689.882 187.318 689.067 187.146 688.253C186.508 685.375 185.931 682.823 185.433 680.452C185.292 679.836 185.168 679.239 185.028 678.642L184.14 674.551C184.031 674.08 183.937 673.61 183.828 673.175C183.719 672.741 183.625 672.252 183.548 671.854C183.47 671.456 183.407 671.257 183.361 671.003C183.314 670.75 183.174 670.189 183.096 669.863C183.072 669.691 183.036 669.521 182.987 669.356L182.659 667.836H322.506C322.506 667.836 327.18 686.316 334.502 716.091C336.06 722.154 337.618 728.761 339.348 735.639C344.318 755.313 350.035 778.481 356.205 803.64Z" fill="#37474F"/>
<path d="M235.896 803.64H232.313C226.985 778.035 221.823 752.387 216.827 726.697C215.622 720.447 214.432 714.19 213.259 707.928L212.932 706.118C212.923 706.055 212.934 705.991 212.964 705.938C212.993 705.885 213.039 705.846 213.092 705.83C213.145 705.814 213.201 705.822 213.249 705.852C213.297 705.882 213.334 705.931 213.352 705.991L213.492 706.57C215.113 713.279 216.723 720.006 218.322 726.752C224.352 752.273 230.21 777.902 235.896 803.64Z" fill="#263238"/>
<path d="M318.034 667.672L311.802 703.618L306.785 733.049L298.154 783.277L297.266 788.435L295.786 797.014L294.68 803.512H212.324C211.155 798.082 210.002 792.815 208.865 787.621C207.556 781.587 206.274 775.741 205.017 770.082C204.752 768.815 204.456 767.548 204.176 766.299C203.225 761.937 202.306 757.683 201.387 753.629C200.841 751.095 200.296 748.615 199.829 746.172C199.361 743.728 198.738 741.212 198.271 738.823C198.131 738.189 197.99 737.538 197.85 737.013C197.71 736.488 197.554 735.619 197.414 734.95L196.868 732.47C196.666 731.601 196.479 730.75 196.308 729.9C195.934 728.289 195.591 726.714 195.264 725.157C194.75 722.877 194.267 720.632 193.784 718.442C193.566 717.483 193.363 716.542 193.16 715.619C192.818 714.08 192.491 712.596 192.179 711.148C191.961 710.171 191.758 709.211 191.556 708.288C190.699 704.451 189.92 700.849 189.188 697.428C188.985 696.541 188.814 695.618 188.611 694.822C188.299 693.356 187.988 691.962 187.692 690.605C187.489 689.754 187.318 688.939 187.147 688.125C186.508 685.247 185.931 682.695 185.433 680.324C185.293 679.708 185.168 679.111 185.028 678.514L184.14 674.423C184.031 673.953 183.937 673.482 183.828 673.048C183.719 672.613 183.626 672.124 183.548 671.726C183.47 671.328 183.407 671.129 183.361 670.876C183.314 670.622 183.174 670.061 183.096 669.735C183.072 669.563 183.036 669.393 182.987 669.228L182.66 667.708L318.034 667.672Z" fill="#263238"/>
<path d="M318.05 667.619C318.05 668.524 317.458 678.226 316.118 692.959C315.728 697.285 315.277 702.009 314.747 707.113C313.921 715.15 312.908 724 311.631 733.358C309.481 749.648 306.676 767.495 303.031 784.907C301.738 791.169 300.304 797.378 298.793 803.459H118.065C120.199 771.459 122.147 742.517 123.689 719.711C125.87 687.601 127.242 667.492 127.242 667.492H291.205L318.05 667.619Z" fill="#37474F"/>
<path d="M317.66 686.912C317.458 694.423 317.193 701.935 316.772 709.41C316.336 717.519 315.697 725.61 314.778 733.7C314.761 733.998 314.73 734.294 314.684 734.587C313.822 742.165 312.846 749.725 311.755 757.267C310.711 764.289 309.948 771.873 307.268 778.389C306.253 780.901 304.818 783.153 303.046 785.014C301.413 786.738 299.421 787.936 297.266 788.489C296.913 788.592 296.554 788.658 296.191 788.688C296.097 788.688 295.988 788.688 295.879 788.688C295.947 788.728 296.003 788.791 296.039 788.869C296.075 788.946 296.09 789.035 296.082 789.123C296.004 791.639 296.082 794.209 295.817 796.707C295.817 796.815 295.817 796.924 295.817 797.032C295.599 799.204 295.256 801.358 294.913 803.53H291.797C291.797 803.53 291.797 803.53 291.797 803.404C292.343 801.032 292.794 798.643 293.355 796.164C293.916 793.684 294.602 791.349 295.085 788.924C295.109 788.825 295.164 788.74 295.241 788.688C293.27 788.803 291.316 788.212 289.644 786.995C287.972 785.778 286.663 783.993 285.893 781.883C285.109 778.665 285.055 775.267 285.737 772.018L287.419 759.113C288.479 751.221 289.834 743.402 291.049 735.583C291.221 734.388 291.408 733.194 291.595 731.963C294.01 715.981 296.549 699.98 299.587 684.143C299.696 683.491 299.837 682.84 299.961 682.17C300.086 681.5 300.647 681.862 300.616 682.278C300.522 683.346 300.429 684.414 300.32 685.482C299.79 691.564 299.167 697.609 298.45 703.582C297.578 710.677 296.97 717.809 296.113 724.904L295.225 732.144C293.823 743.818 292.358 755.493 290.644 767.113C289.834 772.543 286.936 782.19 293.636 783.874C295.168 784.269 296.771 784.032 298.17 783.204C301.122 781.164 303.337 777.948 304.402 774.154C306.302 767.964 306.972 761.158 307.954 754.715C309.065 747.607 310.042 740.482 310.883 733.338C311.973 724.433 313.095 715.528 314.31 706.641C314.902 702.098 315.526 697.591 316.149 693.03C316.429 690.948 316.725 688.849 317.021 686.749C317.068 686.333 317.66 686.459 317.66 686.912Z" fill="#263238"/>
<path d="M157.716 742.732C165.243 742.646 172.731 741.479 180.011 739.257C183.377 738.243 186.695 736.994 189.982 735.746C193.248 734.689 196.306 732.906 198.988 730.497C204.051 725.41 206.419 717.41 208.616 710.315C211.02 702.308 212.972 694.128 214.459 685.826C214.537 685.409 215.051 685.536 215.066 685.934C215.209 695.335 214.159 704.709 211.95 713.754C210.127 721.428 207.681 730.044 202.337 735.474C196.729 741.121 189.094 743.112 181.912 744.144C173.83 745.24 165.661 745.112 157.607 743.764C157.549 743.756 157.493 743.734 157.441 743.7C157.39 743.667 157.345 743.622 157.309 743.568C157.273 743.514 157.246 743.453 157.231 743.387C157.215 743.321 157.211 743.252 157.218 743.185C157.225 743.117 157.243 743.051 157.272 742.992C157.301 742.933 157.34 742.88 157.386 742.838C157.433 742.796 157.486 742.765 157.542 742.747C157.599 742.729 157.658 742.724 157.716 742.732Z" fill="#263238"/>
<path d="M145.189 685.991C144.784 697.756 144.358 709.521 143.912 721.286C142.873 748.689 141.736 776.092 140.5 803.496H137.103C138.661 776.02 140.297 748.574 142.011 721.159C142.759 709.406 143.528 697.677 144.317 685.972C144.319 685.838 144.367 685.71 144.45 685.617C144.533 685.523 144.645 685.472 144.761 685.475C144.877 685.477 144.987 685.533 145.067 685.63C145.147 685.726 145.191 685.856 145.189 685.991Z" fill="#263238"/>
<path d="M297.983 425.64C369.183 500.194 435.196 581.843 440.368 623.509C447.519 681.212 416.998 697.23 403.288 697.375C366.02 697.81 298.294 522.348 274.737 455.36C251.866 390.309 282.34 409.259 297.983 425.64Z" fill="#FFBE9D"/>
<path d="M405.454 544.955L326.277 594.947C326.277 594.947 277.059 489.315 265.717 440.355C254.375 391.394 271.31 392.77 308.484 430.889C345.658 469.007 405.454 544.955 405.454 544.955Z" fill="#C7C7C7"/>
<path d="M405.454 544.955L326.277 594.947C326.277 594.947 277.059 489.315 265.717 440.355C254.375 391.394 271.31 392.77 308.484 430.889C345.658 469.007 405.454 544.955 405.454 544.955Z" fill="#FFC727"/>
<path opacity="0.1" d="M265.716 440.336C277.058 489.314 326.291 594.964 326.291 594.964L398.38 549.424L265.607 404.443C261.182 408.389 260.995 420.027 265.716 440.336Z" fill="black"/>
<path d="M389.157 530.855C358.636 554.855 329.05 570.439 323.114 574.403C322.833 574.602 322.6 574.059 322.896 573.878C328.894 570.349 361.378 546.855 388.924 530.275C389.235 530.076 389.5 530.619 389.157 530.855Z" fill="#263238"/>
<path d="M344.131 732.887L112.285 733.665C112.285 733.665 132.539 530.945 217.636 411.286C237.33 383.575 269.05 398.616 282.434 413.349C316.398 450.689 344.785 731.909 344.131 732.887Z" fill="#FFC727"/>
<path d="M264.377 400.264C258.814 404.988 253.471 410.201 248.127 415.033L232.547 429.061C227.873 433.314 223.199 438.111 217.886 441.459C213.103 444.5 207.541 445.858 202.415 443.143C201.162 442.467 199.985 441.616 198.909 440.609L198.38 441.568C200.99 444.09 204.216 445.597 207.603 445.876C212.729 446.22 217.512 443.505 221.625 440.247C226.829 436.156 231.674 431.432 236.644 426.961C246.288 418.291 255.808 409.241 265.716 400.951C265.327 400.716 264.86 400.481 264.377 400.264ZM171.909 561.517C163.706 561.459 155.516 562.301 147.449 564.032C147.636 563.399 147.838 562.747 148.056 562.114C155.145 560.606 162.334 559.825 169.541 559.779C190.527 559.326 218.603 560.847 231.285 536.955C236.286 527.543 237.906 515.036 232.406 505.388C227.561 496.881 218.509 493.207 210.018 493.298C205.59 493.329 201.207 494.337 197.102 496.266C192.254 498.834 187.78 502.266 183.844 506.438C176.303 513.895 169.276 522.638 159.835 526.783L160.583 524.683C163.393 523.28 166.059 521.513 168.528 519.416C177.3 512.049 184.389 501.841 194.142 496.085C201.609 491.71 210.163 490.525 218.306 492.737C226.096 494.927 233.03 500.809 235.912 509.769C239.121 519.76 236.613 531.199 231.487 539.724C218.306 561.571 192.366 561.209 171.909 561.517ZM207.494 468.374C201.36 464.958 195.017 462.073 188.518 459.74C188.798 459.215 189.078 458.654 189.374 458.129C204.331 462.998 218.151 473.985 233.575 477.062C252.292 480.509 271.448 475.922 287.466 464.157C291.854 460.968 295.948 457.262 299.681 453.098C299.868 453.677 300.039 454.256 300.211 454.908C296.644 458.803 292.774 462.305 288.65 465.369C273.182 476.881 254.773 481.854 236.519 479.451C226.283 477.84 216.873 473.297 207.494 468.374ZM193.472 660.686C182.04 665.486 170.357 669.44 158.495 672.524C145.345 676.144 129.08 679.185 118.454 689.52C118.594 688.633 118.75 687.71 118.906 686.859C129.516 677.465 144.738 674.461 157.404 671.022C169.302 667.91 181.024 663.957 192.506 659.184C202.368 654.967 212.121 649.302 219.335 640.161C222.445 636.293 224.847 631.732 226.395 626.754C227.943 621.776 228.605 616.485 228.34 611.201C227.732 600.522 222.497 590.802 213.446 587.472C203.739 583.852 192.911 588.105 184.809 594.531C175.555 601.898 168.902 612.957 161.782 622.803C155.036 632.197 147.558 640.903 137.696 645.645C133.995 647.467 130.054 648.539 126.042 648.813C126.151 648.288 126.244 647.727 126.369 647.184C134.237 646.605 141.949 642.116 148.056 636.613C157.046 628.541 163.496 617.301 170.897 607.418C177.674 598.368 185.433 590.332 195.435 586.567C204.098 583.309 214.053 583.635 221.376 590.567C227.764 596.649 230.303 606.495 229.867 615.817C229.336 626.01 225.599 635.621 219.366 642.822C212.23 651.202 202.913 656.596 193.488 660.65L193.472 660.686ZM221.656 706.787C223.308 715.529 222.529 724.471 222.98 733.304H221.547C221.002 722.444 222.482 711.095 218.602 700.868C217.677 698.253 216.274 695.902 214.49 693.977C212.707 692.053 210.586 690.6 208.273 689.719C203.093 688.169 197.604 688.884 192.849 691.728C182.784 697.448 177.409 709.828 172.517 720.833C170.616 725.05 168.669 729.412 166.425 733.503H164.742C170.289 723.729 173.826 712.579 179.808 703.095C185.588 694.045 194.282 686.551 204.487 687.348C213.944 688.09 219.771 696.633 221.672 706.787H221.656ZM312.55 733.05H310.711C308.637 728.805 307.154 724.205 306.318 719.421C304.074 707.403 304.76 694.968 305.477 682.805C307.19 654.623 311.381 625.844 306.069 597.843C304.037 586.375 300.191 575.445 294.726 565.607C288.993 555.652 280.704 546.294 270.686 542.493C268.051 541.356 265.245 540.849 262.437 541.001C259.629 541.153 256.876 541.963 254.343 543.38C250.076 546.17 246.698 550.487 244.715 555.688C239.651 568.214 242.783 582.386 247.612 594.296C257.07 617.536 272.416 637.12 280.034 661.483C283.403 672.363 284.813 683.931 284.175 695.469C283.537 707.008 280.866 718.272 276.326 728.561C275.641 730.1 274.924 731.62 274.161 733.123H272.463C276.209 725.972 279.004 718.203 280.751 710.081C283.305 698.524 283.635 686.454 281.717 674.732C279.598 662.062 274.753 650.424 269.253 639.419C263.753 628.414 257.194 617.699 251.601 606.459C246.008 595.219 240.586 582.603 240.695 569.191C240.804 558.838 244.948 547.869 252.832 542.457C262.18 536.014 273.382 540.394 281.561 547.163C297.655 560.503 305.819 582.893 308.811 604.975C312.706 633.79 307.829 662.895 306.661 691.746C306.178 703.258 306.209 715.149 309.683 726.136C310.418 728.556 311.379 730.874 312.55 733.05ZM289.305 489.786C294.308 484.862 300.59 482.032 307.144 481.75C307.253 482.22 307.362 482.727 307.486 483.198C305.916 483.286 304.354 483.51 302.812 483.868C293.246 486.076 283.556 494.728 283.446 506.945C283.306 520.249 293.028 530.131 302.438 535.634C307.954 538.855 313.734 541.353 319.39 544.122C319.483 544.702 319.592 545.263 319.686 545.932C316.102 544.122 312.456 542.566 308.78 540.828C299.042 536.195 289.227 529.968 284.381 518.565C282.24 513.83 281.56 508.385 282.456 503.138C283.352 497.891 285.769 493.159 289.305 489.732V489.786Z" fill="white"/>
<path d="M201.356 420.336C133.832 480.555 63.4262 582.82 62.3201 641.79C61.2762 700.072 89.4604 694.28 94.1967 692.47C144.364 674.37 204.815 512.646 227.219 446.817C249.467 381.53 218.12 405.44 201.356 420.336Z" fill="#FFBE9D"/>
<path d="M92.8726 537.806L171.271 589.445C171.271 589.445 222.124 484.845 234.214 436.12C246.304 387.395 229.338 388.462 191.51 425.767C153.681 463.071 92.8726 537.806 92.8726 537.806Z" fill="#FFC727"/>
<path d="M109.387 524.048C139.55 548.664 168.887 564.882 174.823 568.954C175.104 569.153 175.337 568.61 175.057 568.429C169.121 564.809 136.995 540.61 109.715 523.469C109.325 523.27 109.06 523.813 109.387 524.048Z" fill="#263238"/>
<path d="M166.238 585.879C167.833 586.594 169.394 587.409 170.912 588.322C178.437 570.928 177.066 574.91 184.747 557.552C188.497 549.106 192.257 540.617 196.027 532.086C199.922 523.253 203.412 513.986 207.712 505.479C207.735 505.426 207.775 505.386 207.823 505.367C207.871 505.348 207.924 505.353 207.969 505.379C208.015 505.405 208.049 505.452 208.065 505.508C208.081 505.564 208.078 505.625 208.055 505.678C205.562 514.04 202.181 522.149 198.987 530.221C199.689 528.972 200.358 527.687 201.137 526.475C202.867 523.778 204.565 521.045 206.092 518.221C206.341 517.787 206.964 518.13 206.731 518.583C205.173 521.298 203.957 524.103 202.664 526.963C201.371 529.823 199.953 532.52 198.504 535.271C197.055 538.022 195.544 540.412 193.986 542.927L193.425 543.869C191.369 548.919 189.375 553.987 187.193 558.982C179.653 576.485 171.894 590.259 171.613 590.168C169.632 589.07 167.73 587.786 165.927 586.331C165.802 586.186 166.02 585.861 166.238 585.879Z" fill="#263238"/>
<path d="M399.845 695.329C376.6 691.383 363.434 641.228 337.634 561.389C333.116 547.38 393.114 467.143 401.263 480.048C411.53 496.338 438.655 586.458 441.428 610.965C446.772 659.256 426.892 699.945 399.845 695.329Z" fill="#FFBE9D"/>
<path d="M364.089 642.17C362.001 635.382 359.789 628.649 357.561 621.916L350.815 601.77C348.478 595.091 346.234 588.376 343.975 581.679C342.822 578.325 341.711 574.964 340.641 571.598C339.535 568.231 338.46 564.846 337.634 561.371C338.927 568.439 340.671 575.384 342.853 582.15C344.894 588.974 347.153 595.707 349.366 602.44C351.578 609.173 354.04 615.816 356.47 622.441C358.901 629.065 361.456 635.672 364.089 642.17Z" fill="#263238"/>
<path d="M422.794 537.914C419.538 510.51 412.885 472.283 404.456 464.265C395.607 455.866 363.465 427.757 354.195 424.029C344.925 420.3 303.545 402.001 295.942 407.105C289.85 411.196 297.063 429.784 316.741 438.708C334.05 446.527 342.962 453.839 347.901 456.319C352.84 458.799 365.039 477.84 361.767 486.238C359.82 491.18 347.418 496.99 339.706 492.935C331.994 488.881 330.093 471.215 321.29 462.799C312.488 454.382 296.939 455.45 296.035 460.319C295.131 465.188 300.273 467.469 308.219 484.048C313.329 494.691 313.672 520.248 325.263 538.602C331.09 547.814 341.201 572.322 341.201 572.322L422.794 537.914Z" fill="#FFBE9D"/>
<path d="M313.065 455.233C310.22 454.756 307.551 453.35 305.368 451.178C304.489 450.197 303.877 448.939 303.607 447.558C303.506 446.803 303.506 446.033 303.607 445.278C303.63 444.469 303.894 443.694 304.355 443.088C304.511 442.961 304.277 442.744 304.2 442.925C303.989 443.306 303.754 443.669 303.498 444.011C303.317 444.335 303.166 444.681 303.047 445.042C302.814 445.759 302.702 446.521 302.719 447.287C302.782 448.962 303.331 450.563 304.277 451.83C305.414 453.182 306.804 454.212 308.338 454.84C309.873 455.468 311.512 455.676 313.127 455.45C313.158 455.504 313.158 455.269 313.065 455.233Z" fill="#263238"/>
<path d="M404.457 464.264C396.963 450.599 377.784 425.91 358.776 417.44C345.939 411.702 301.723 436.68 303 446.49C304.278 456.3 311.834 456.355 323.02 454.816C327.087 454.255 348.634 445.277 352.311 450.526C357.577 458.092 364.276 483.885 364.276 483.885L404.457 464.264Z" fill="#FFBE9D"/>
<path d="M304.105 442.654C309.574 432.156 321.571 426.563 333.52 422.146C333.707 422.146 333.817 422.4 333.63 422.472C330.591 423.594 311.116 433.984 304.23 442.835C304.152 442.925 304.043 442.762 304.105 442.654Z" fill="#263238"/>
<path d="M404.457 464.265C396.963 450.599 377.784 425.911 358.776 417.44C345.939 411.702 310.946 443.667 312.239 453.495C313.532 463.323 324.36 464.102 336.357 459.269C340.236 457.694 353.23 447.088 356.907 452.337C362.173 459.884 375.026 478.636 375.026 478.636L404.457 464.265Z" fill="#FFBE9D"/>
<path d="M367.688 466.98C366.472 464.826 366.13 464.066 364.837 461.93C363.543 459.794 362.344 457.695 360.973 455.686C359.907 453.813 358.568 452.171 357.015 450.835C355.41 449.772 353.552 449.34 351.718 449.604C347.558 450.056 343.804 453.115 340.267 455.468C336.325 458.093 328.161 462.346 321.898 461.568C320.177 461.452 318.495 460.922 316.959 460.012C315.796 459.393 314.784 458.447 314.015 457.26C311.304 451.83 314.7 445.821 318.159 441.495C324.625 433.441 333.318 427.613 341.747 422.816C343.819 421.64 345.907 420.535 347.979 419.413C350.325 417.957 352.912 417.099 355.566 416.897C359.913 416.897 367.033 422.002 369.23 423.558C369.401 423.667 369.526 423.359 369.37 423.232C366.691 421.296 360.022 414.997 353.074 415.395C350.513 415.845 348.04 416.813 345.767 418.255C343.321 419.468 340.906 420.789 338.522 422.164C333.87 424.821 329.401 427.889 325.154 431.341C321.166 434.653 316.913 438.581 314.248 443.341C313.006 445.449 312.278 447.907 312.14 450.457C312.003 453.006 312.462 455.551 313.469 457.821C315.386 461.441 319.483 462.419 321.353 462.708C323.189 462.989 325.048 462.989 326.884 462.708C330.971 461.684 334.99 460.323 338.911 458.636C342.713 456.826 346.141 453.894 350.051 452.518C350.975 452.151 351.952 452.001 352.926 452.079C353.9 452.157 354.851 452.46 355.722 452.971C357.32 454.212 358.749 455.725 359.96 457.459C362.575 460.447 364.943 463.714 367.033 467.215C367.547 468.229 368.124 467.921 367.688 466.98Z" fill="#263238"/>
<path d="M410.003 476.211C407.261 469.695 402.634 442.871 398.178 434.581C393.722 426.291 373.406 397.892 363.902 399.123C351.952 400.661 364.385 425.657 370.632 435.956C376.88 446.255 375.805 463.758 375.805 463.758L410.003 476.211Z" fill="#FFBE9D"/>
<path d="M361.923 418.96C364.151 422.218 366.114 425.838 368.046 429.332C370.035 432.578 371.816 435.99 373.374 439.54C374.682 443.173 375.466 447.032 375.696 450.961C375.852 452.898 375.898 454.816 375.914 456.753C375.93 458.69 375.758 461.007 375.789 463.106C375.797 463.133 375.799 463.162 375.795 463.191C375.792 463.219 375.782 463.246 375.768 463.269C375.753 463.292 375.734 463.311 375.712 463.324C375.69 463.337 375.666 463.344 375.641 463.344C375.617 463.344 375.592 463.337 375.571 463.324C375.549 463.311 375.53 463.292 375.515 463.269C375.501 463.246 375.491 463.219 375.487 463.191C375.484 463.162 375.486 463.133 375.493 463.106C375.281 459.246 374.849 455.406 374.2 451.613C373.62 447.665 372.62 443.817 371.224 440.155C368.436 432.915 364.354 426.399 361.518 419.177C361.456 418.906 361.767 418.725 361.923 418.96Z" fill="#263238"/>
<path d="M375.665 466.762C375.491 470.01 374.908 473.212 373.936 476.264C373.05 479.365 371.978 482.389 370.726 485.314C369.517 488.234 368.17 491.074 366.691 493.821C365.258 496.59 363.575 499.088 361.814 501.731C358.234 506.89 355.378 512.675 353.354 518.872C351.458 525.07 350.509 531.606 350.55 538.184C351.069 531.702 352.38 525.34 354.445 519.288C356.66 513.341 359.559 507.77 363.061 502.726C364.842 500.161 366.486 497.471 367.984 494.672C369.448 491.837 370.749 488.892 371.879 485.857C374.029 479.83 376.023 473.386 375.665 466.762Z" fill="#263238"/>
<path d="M290.426 428.464C290.09 432.715 289.57 436.943 288.868 441.134C288.316 444.95 287.466 448.7 286.329 452.338C284.101 458.872 279.847 465.007 273.288 466.691C270.237 467.37 267.1 467.331 264.062 466.576C261.025 465.82 258.149 464.364 255.605 462.293C250.167 458.13 245.93 452.229 242.05 446.491C239.63 442.944 237.361 439.287 235.242 435.523C234.182 433.604 233.092 431.722 232.126 429.749C231.16 427.776 230.241 425.785 229.15 423.902C229.057 423.739 228.776 423.902 228.854 424.029C230.973 428.482 237.33 442.6 239.448 446.093C243.328 452.464 247.55 458.962 253.174 463.668C258.563 468.431 265.334 470.573 272.057 469.641C275.28 469.055 278.319 467.522 280.888 465.187C283.457 462.853 285.469 459.794 286.734 456.301C288.222 452.13 289.172 447.727 289.554 443.233C290.083 438.31 290.364 433.351 290.551 428.409C290.52 428.409 290.426 428.409 290.426 428.464Z" fill="#263238"/>
<path d="M267.976 454.4C253.674 453.948 236.037 422.979 231.332 400.842C231.02 399.322 247.878 347.791 250.308 337.167C250.838 334.995 304.013 371.05 304.013 371.05C304.013 371.05 293.278 391.557 289.149 410.092C288.822 411.648 281.811 454.835 267.976 454.4Z" fill="#FFBE9D"/>
<path d="M304.013 371.05C304.013 371.05 293.278 391.557 289.149 410.11C289.149 410.472 288.62 413.169 287.794 417.078C261.199 405.729 248.283 380.878 242.363 364.172C245.993 352.479 249.342 341.493 250.308 337.203C250.838 334.995 304.013 371.05 304.013 371.05Z" fill="#263238"/>
<path d="M334.549 250.955C337.961 251.625 349.412 283.228 347.745 297.056C346.078 310.885 338.304 337.673 334.752 337.546C331.199 337.419 331.854 250.431 334.549 250.955Z" fill="#263238"/>
<path d="M252.723 263.209C240.975 284.802 235.663 356.261 246.491 376.026C262.242 404.678 296.035 417.656 319.016 393.601C341.311 370.252 346.826 276.983 333.941 258.068C314.996 230.213 270.079 231.317 252.723 263.209Z" fill="#FFBE9D"/>
<path d="M296.924 308.84C295.11 309.136 293.285 309.323 291.455 309.401C289.352 309.582 287.685 309.999 285.768 308.75C285.261 308.323 284.888 307.715 284.708 307.018C284.528 306.321 284.55 305.575 284.771 304.894C285.862 302.053 288.386 301.075 290.91 300.731C293.439 300.27 296.026 300.915 298.17 302.541C298.65 302.946 299.017 303.506 299.225 304.151C299.433 304.796 299.473 305.498 299.34 306.17C299.207 306.841 298.907 307.452 298.478 307.927C298.048 308.402 297.507 308.72 296.924 308.84Z" fill="#263238"/>
<path d="M294.462 324.443C294.462 324.244 294.119 324.624 294.103 324.823C293.807 329.656 292.764 335.122 288.884 336.28C288.76 336.28 288.744 336.552 288.884 336.552C293.589 336.353 294.914 329.058 294.462 324.443Z" fill="#263238"/>
<path d="M291.267 318.975C284.646 317.582 282.761 333.057 288.884 334.324C295.007 335.591 296.798 320.134 291.267 318.975Z" fill="#263238"/>
<path d="M318.33 327.609C318.33 327.428 318.626 327.899 318.595 328.08C317.878 332.858 317.754 338.451 321.29 340.659C321.399 340.659 321.29 340.967 321.29 340.931C316.757 339.501 317.006 332.062 318.33 327.609Z" fill="#263238"/>
<path d="M322.631 323.284C329.33 323.809 327.959 339.338 321.758 338.868C315.557 338.397 317.006 322.867 322.631 323.284Z" fill="#263238"/>
<path d="M328.738 315.047C327.005 314.328 325.304 313.507 323.643 312.586C321.696 311.608 320.06 311.065 318.86 308.966C318.581 308.313 318.493 307.572 318.612 306.856C318.73 306.14 319.047 305.488 319.514 305.002C321.618 303.065 324.266 303.572 326.65 304.622C329.083 305.598 331.116 307.592 332.352 310.215C332.596 310.829 332.682 311.511 332.6 312.181C332.517 312.85 332.271 313.477 331.889 313.988C331.507 314.498 331.007 314.869 330.448 315.057C329.889 315.245 329.295 315.242 328.738 315.047Z" fill="#263238"/>
<path d="M285.955 363.61C286.797 364.895 287.513 366.597 289.071 366.995C290.61 367.218 292.171 367.058 293.652 366.524C293.667 366.513 293.684 366.504 293.702 366.5C293.721 366.496 293.739 366.496 293.757 366.5C293.775 366.504 293.793 366.513 293.808 366.525C293.823 366.537 293.836 366.552 293.847 366.57C293.857 366.588 293.864 366.608 293.867 366.629C293.871 366.65 293.871 366.671 293.867 366.692C293.864 366.713 293.857 366.733 293.846 366.751C293.836 366.769 293.823 366.784 293.808 366.796C293.109 367.655 292.222 368.278 291.243 368.597C290.263 368.916 289.227 368.919 288.246 368.606C287.438 368.213 286.748 367.552 286.263 366.705C285.777 365.858 285.519 364.863 285.519 363.846C285.503 363.484 285.831 363.429 285.955 363.61Z" fill="#263238"/>
<path d="M292.031 349.98C292.846 352.05 294.022 353.902 295.483 355.419C296.944 356.936 298.66 358.085 300.522 358.795C302.141 359.437 303.83 359.808 305.539 359.899C305.865 359.935 306.194 359.935 306.52 359.899C306.826 359.917 307.133 359.917 307.439 359.899C307.667 359.886 307.884 359.787 308.059 359.617C308.233 359.447 308.355 359.216 308.405 358.958C308.421 358.796 308.421 358.632 308.405 358.469V358.053C308.951 354.433 309.325 348.713 309.325 348.713C310.4 349.582 315.946 353.637 316.086 351.7C317.208 335.609 318.47 317.726 316.678 301.454C316.661 301.352 316.613 301.26 316.543 301.194C316.474 301.128 316.387 301.092 316.297 301.092C316.207 301.092 316.12 301.128 316.05 301.194C315.981 301.26 315.933 301.352 315.915 301.454C314.357 316.875 315.027 332.514 313.609 348.007C311.645 346.524 309.51 345.372 307.268 344.587C306.801 344.587 306.707 355.447 306.349 357.166C306.36 357.22 306.36 357.275 306.349 357.329C300.927 357.329 297.125 354.704 292.467 349.691C292.202 349.329 291.844 349.564 292.031 349.98Z" fill="#263238"/>
<path d="M245.509 324.55C256.228 327.356 263.177 314.161 269.159 295.138C272.665 284.006 272.68 260.748 272.68 260.748C272.68 260.748 298.668 280.151 314.575 280.984C330.482 281.816 345.735 268.187 346.67 253.834C347.465 241.435 331.464 222.683 308.125 217.869C291.844 214.52 262.429 225.471 247.862 244.023C247.862 244.023 225.94 252.259 226.922 270.811C227.904 289.364 233.341 321.365 245.509 324.55Z" fill="#263238"/>
<path d="M246.444 323.229C260.326 328.967 270.764 305.129 272.618 292.188C274.55 278.703 271.652 264.314 271.154 250.793H271.247C274.238 267.572 277.136 288.658 270.499 304.677C266.324 314.776 257.646 331.193 246.163 324.116C245.774 323.863 246.007 323.048 246.444 323.229Z" fill="#263238"/>
<path d="M224.352 264.803C227.639 253.943 239.839 244.694 249.28 243.518C249.374 243.518 249.405 243.68 249.28 243.699C237.782 246.631 223.386 259.355 225.147 274.179C226.564 286.016 229.556 301.781 235.211 311.881C235.352 312.135 235.024 312.37 234.869 312.135C230.288 305.202 228.901 296.858 227.079 288.605C225.567 281.31 222.14 272.315 224.352 264.803Z" fill="#263238"/>
<path d="M245.588 245.327C260.981 225.779 291.72 205.652 314.778 215.969C314.778 215.969 314.778 216.132 314.778 216.095C290.006 207.679 264.299 229.127 246.367 246.359C245.806 246.865 245.151 245.87 245.588 245.327Z" fill="#263238"/>
<path d="M252.396 326.378C252.396 326.378 244.06 300.26 234.182 303.138C224.305 306.015 227.109 341.148 236.255 348.514C237.37 349.564 238.657 350.341 240.038 350.798C241.419 351.256 242.865 351.384 244.289 351.176C245.714 350.969 247.088 350.428 248.328 349.588C249.568 348.748 250.65 347.626 251.507 346.288L252.396 326.378Z" fill="#FFBE9D"/>
<path d="M235.149 313.129C234.978 313.129 234.9 313.31 235.024 313.437C241.365 318.867 243.391 327.718 244.217 336.442C242.799 332.822 240.29 330.197 236.115 332.043C235.897 332.134 235.99 332.532 236.208 332.532C237.561 332.452 238.903 332.859 240.049 333.698C241.195 334.537 242.09 335.767 242.612 337.22C243.456 339.66 244.077 342.196 244.466 344.786C244.637 345.637 245.868 345.582 245.821 344.659C245.828 344.593 245.828 344.526 245.821 344.46C248.361 334.034 244.606 317.183 235.149 313.129Z" fill="#263238"/>
<path d="M280.892 442.272L248.174 555.597C246.896 558.891 248.174 561.769 251.041 562.022L302.392 566.529C303.96 566.539 305.497 566.035 306.829 565.074C308.16 564.114 309.231 562.736 309.918 561.099L342.636 447.775C343.913 444.463 342.635 441.585 339.769 441.331L288.448 436.752C286.868 436.747 285.319 437.264 283.982 438.241C282.644 439.218 281.573 440.616 280.892 442.272Z" fill="#37474F"/>
<path d="M286.999 442.745L254.281 556.069C253.003 559.363 254.281 562.259 257.147 562.512L308.483 567.092C310.058 567.089 311.6 566.57 312.932 565.593C314.263 564.616 315.33 563.222 316.008 561.571L348.726 448.247C350.02 444.953 348.726 442.075 345.86 441.821L294.461 437.242C292.898 437.252 291.369 437.774 290.049 438.747C288.729 439.72 287.672 441.106 286.999 442.745Z" fill="#455A64"/>
<path d="M300.694 449.279C300.61 450.28 300.272 451.23 299.722 452.008C299.173 452.786 298.438 453.358 297.609 453.65C296.781 453.942 295.896 453.943 295.067 453.651C294.238 453.359 293.502 452.788 292.953 452.01C292.403 451.233 292.065 450.283 291.98 449.282C291.895 448.28 292.068 447.272 292.476 446.385C292.885 445.498 293.51 444.771 294.274 444.297C295.038 443.823 295.906 443.623 296.768 443.722C297.923 443.855 298.985 444.514 299.721 445.556C300.457 446.598 300.807 447.937 300.694 449.279Z" fill="#263238"/>
<path d="M83.6024 693.229C105.944 697.012 134.144 677.12 207.214 616.594C217.341 608.159 185.651 509.388 174.496 517.659C160.396 528.103 107.627 572.231 104.121 576.032C74.4725 608.159 68.4119 690.514 83.6024 693.229Z" fill="#FFBE9D"/>
<path d="M148.274 547.108C148.274 547.108 169.245 513.732 184.934 500.139C205.951 482.039 230.537 476.319 241.022 474.672C262.834 471.233 317.364 480.41 317.909 499.161C318.346 516.139 262.881 503.469 262.881 503.469C262.881 503.469 321.259 505.532 318.548 526.076C315.837 546.619 252.146 527.687 252.146 527.687C252.146 527.687 312.098 531.307 306.411 552.049C302.111 567.67 243.608 554.276 243.608 554.276C243.608 554.276 295.116 557.896 291.299 574.186C287.061 592.177 232.406 583.761 232.406 583.761C216.561 623.219 195.217 634.567 179.169 640.522C175.29 641.952 148.274 547.108 148.274 547.108Z" fill="#FFBE9D"/>
<path d="M242.658 501.262C249.529 501.262 256.477 501.117 263.317 501.769C270.156 502.42 276.996 503.379 283.758 504.773C300.351 508.212 310.244 513.389 309.621 513.135C294.415 507.434 269.954 504.61 263.099 503.941C256.244 503.271 249.466 502.221 242.627 501.551C242.455 501.533 242.502 501.262 242.658 501.262Z" fill="#263238"/>
<path d="M240.15 529.932C248.921 530.312 257.631 530.312 266.386 531.144C275.142 531.977 283.306 533.66 291.953 535.181C292.623 535.289 292.343 535.669 291.673 535.579C282.995 534.457 274.878 534.203 266.184 533.208C257.49 532.212 248.812 530.8 240.119 530.167C239.932 530.167 239.932 529.932 240.15 529.932Z" fill="#263238"/>
<path d="M234.183 554.094C247.613 553.877 261.059 556.538 274.193 559.524C274.847 559.669 274.442 560.122 273.772 560.013C260.498 557.914 250.106 556.158 234.183 554.583C233.949 554.601 233.903 554.094 234.183 554.094Z" fill="#263238"/>
<path d="M124.25 558.619C118.454 563.054 112.877 567.85 107.47 572.936C104.759 575.454 102.159 578.13 99.6804 580.955C97.1141 583.762 94.8584 586.93 92.9654 590.385C89.3677 597.336 86.3471 604.67 83.9445 612.286C81.4508 619.837 79.6846 627.686 78.6785 635.689C79.4251 631.763 80.3613 627.89 81.4829 624.087C82.5579 620.268 83.742 616.503 85.0663 612.792C87.599 605.351 90.6851 598.181 94.2896 591.362C96.0677 587.978 98.2148 584.875 100.677 582.131C103.092 579.289 105.694 576.701 108.281 573.986C110.867 571.271 113.547 568.773 116.226 566.221C118.906 563.669 121.523 561.099 124.25 558.619Z" fill="#263238"/>
<path d="M345.455 203.859C345.455 203.859 351.859 263.408 362.391 276.82C375.026 292.893 384.203 290.54 389.297 298.83C394.408 290.522 403.569 292.893 416.22 276.802C426.736 263.408 433.124 203.859 433.124 203.859C405.392 188.221 389.282 170.682 389.282 170.682C388.799 171.243 372.767 188.456 345.455 203.859Z" fill="#FFC727"/>
<path opacity="0.2" d="M389.297 170.7V298.83C394.408 290.522 403.569 292.893 416.22 276.802C426.736 263.408 433.124 203.859 433.124 203.859C405.392 188.221 389.282 170.682 389.282 170.682L389.297 170.7Z" fill="black"/>
<path opacity="0.1" d="M345.455 203.86C345.455 203.86 351.858 263.409 362.39 276.821C375.026 292.894 384.202 290.541 389.297 298.831V170.701C388.798 171.244 372.767 188.457 345.455 203.86Z" fill="black"/>
<path d="M352.264 208.656C352.264 208.656 357.67 258.974 366.566 270.286C377.238 283.897 384.997 281.888 389.297 288.893C393.613 281.888 401.356 283.897 412.044 270.286C420.94 258.974 426.331 208.656 426.331 208.656C402.961 195.443 389.297 180.637 389.297 180.637C389.297 180.637 375.696 195.479 352.264 208.656Z" fill="#FFC727"/>
<path opacity="0.1" d="M389.297 180.655V288.893C393.597 281.889 401.356 283.88 412.029 270.287C420.925 258.956 426.315 208.638 426.315 208.638C402.945 195.425 389.297 180.619 389.297 180.619V180.655Z" fill="black"/>
<path d="M372.704 225.182H405.89V260.151H372.704V225.182Z" fill="white"/>
<path d="M376.023 235.986H379.404V220.366C379.404 217.318 380.446 214.394 382.302 212.239C384.157 210.083 386.673 208.872 389.297 208.872C391.921 208.872 394.437 210.083 396.293 212.239C398.148 214.394 399.191 217.318 399.191 220.366V235.986H402.571V220.366C402.696 218.257 402.446 216.14 401.837 214.148C401.228 212.156 400.273 210.331 399.031 208.785C397.789 207.24 396.287 206.008 394.618 205.166C392.948 204.323 391.148 203.889 389.328 203.889C387.509 203.889 385.708 204.323 384.039 205.166C382.37 206.008 380.868 207.24 379.626 208.785C378.384 210.331 377.429 212.156 376.82 214.148C376.211 216.14 375.961 218.257 376.085 220.366L376.023 235.986Z" fill="white"/>
<path d="M388.253 243.263L387.178 249.163H391.728L390.653 243.263C391.073 242.96 391.396 242.506 391.575 241.97C391.753 241.434 391.776 240.845 391.64 240.293C391.505 239.741 391.218 239.254 390.823 238.908C390.428 238.562 389.947 238.375 389.453 238.375C388.958 238.375 388.477 238.562 388.083 238.908C387.688 239.254 387.401 239.741 387.265 240.293C387.13 240.845 387.153 241.434 387.331 241.97C387.509 242.506 387.833 242.96 388.253 243.263Z" fill="#37474F"/>
<path d="M388.721 439.394H395.358V438.019H389.297V438.489H388.721V439.394ZM401.59 439.394H407.822V438.019H401.59V439.394ZM414.054 439.394H420.286V438.019H414.054V439.394ZM426.518 439.394H432.75V438.019H426.518V439.394ZM388.721 431.267H389.889V424.027H388.721V431.267ZM388.721 416.787H389.889V409.548H388.721V416.787ZM388.721 402.307H389.889V395.067H388.721V402.307ZM388.721 387.827H389.889V380.587H388.721V387.827ZM388.721 373.347H389.889V366.107H388.721V373.347ZM388.721 358.868H389.889V351.627H388.721V358.868ZM388.721 344.387H389.889V337.147H388.721V344.387ZM388.721 329.907H389.889V322.667H388.721V329.907ZM388.721 315.427H389.889V308.188H388.721V315.427Z" fill="#FFC727"/>
<path d="M386.664 306.703C386.664 306.098 386.818 305.507 387.107 305.004C387.397 304.501 387.808 304.109 388.289 303.877C388.77 303.646 389.3 303.585 389.81 303.703C390.321 303.821 390.79 304.113 391.159 304.54C391.527 304.968 391.778 305.513 391.879 306.107C391.981 306.7 391.929 307.315 391.729 307.874C391.53 308.433 391.192 308.911 390.759 309.247C390.326 309.583 389.817 309.762 389.297 309.762C388.598 309.762 387.929 309.44 387.435 308.866C386.941 308.293 386.664 307.515 386.664 306.703Z" fill="#FFC727"/>
<path d="M616.111 225.942H696.052V106.717H636.692L616.111 129.45V225.942Z" fill="#EBEBEB"/>
<path d="M636.692 106.717L616.111 129.45H636.692V106.717Z" fill="#DBDBDB"/>
<path d="M688.247 129.775H643.797V126.716H688.247V129.775Z" fill="#DBDBDB"/>
<path d="M688.247 137.506H643.797V134.447H688.247V137.506Z" fill="#DBDBDB"/>
<path d="M688.247 145.252H643.797V142.193H688.247V145.252Z" fill="#DBDBDB"/>
<path d="M688.246 152.98H623.122V149.922H688.246V152.98Z" fill="#DBDBDB"/>
<path d="M688.246 160.709H623.122V157.65H688.246V160.709Z" fill="#DBDBDB"/>
<path d="M688.246 168.438H623.122V165.379H688.246V168.438Z" fill="#DBDBDB"/>
<path d="M688.246 176.166H623.122V173.107H688.246V176.166Z" fill="#DBDBDB"/>
<path d="M688.246 183.877H623.122V180.818H688.246V183.877Z" fill="#DBDBDB"/>
<path d="M688.246 191.605H623.122V188.547H688.246V191.605Z" fill="#DBDBDB"/>
<path d="M688.246 199.334H623.122V196.275H688.246V199.334Z" fill="#DBDBDB"/>
<path d="M688.246 207.062H623.122V204.004H688.246V207.062Z" fill="#DBDBDB"/>
<path d="M688.246 214.791H623.122V211.732H688.246V214.791Z" fill="#DBDBDB"/>
<path d="M610.71 236.794C603.562 233.332 600.183 223.794 603.163 215.49C606.143 207.186 614.353 203.26 621.501 206.722C628.649 210.184 632.028 219.722 629.048 228.026C626.068 236.33 617.858 240.256 610.71 236.794Z" fill="#263238"/>
<path d="M609.162 217.652H623.06V232.313H609.162V217.652Z" fill="white"/>
<path d="M610.549 222.158H611.966V215.624C611.966 214.347 612.403 213.122 613.18 212.219C613.957 211.316 615.012 210.809 616.111 210.809C617.21 210.809 618.264 211.316 619.041 212.219C619.818 213.122 620.255 214.347 620.255 215.624V222.158H621.642V215.624C621.642 213.91 621.056 212.267 620.013 211.055C618.969 209.843 617.555 209.162 616.08 209.162C614.604 209.162 613.19 209.843 612.147 211.055C611.103 212.267 610.517 213.91 610.517 215.624L610.549 222.158Z" fill="white"/>
<path d="M615.519 225.145L614.943 228.367H617.404L616.828 225.145C617.054 224.98 617.228 224.734 617.323 224.444C617.419 224.154 617.43 223.836 617.356 223.538C617.282 223.24 617.127 222.978 616.914 222.791C616.7 222.605 616.441 222.504 616.173 222.504C615.906 222.504 615.647 222.605 615.433 222.791C615.22 222.978 615.065 223.24 614.991 223.538C614.917 223.836 614.928 224.154 615.024 224.444C615.119 224.734 615.293 224.98 615.519 225.145Z" fill="#263238"/>
<path d="M561.332 288.278H562.438V281.038H561.269L561.332 288.278ZM561.332 273.798H562.438V266.558H561.269L561.332 273.798ZM561.332 259.318H562.438V252.078H561.269L561.332 259.318ZM561.332 244.838H562.438V237.598H561.269L561.332 244.838ZM561.332 230.358H562.438V223.118H561.269L561.332 230.358ZM561.332 215.878H562.438V208.638H561.269L561.332 215.878ZM561.332 201.398H562.438V194.158H561.269L561.332 201.398ZM561.332 186.918H562.438V179.678H561.269L561.332 186.918ZM567.112 179.19H573.344V177.832H567.112V179.19ZM579.576 179.19H585.808V177.832H579.576V179.19ZM592.04 179.19H598.272V177.832H592.04V179.19ZM604.504 179.19H607.199V177.832H604.504V179.19Z" fill="#FFC727"/>
<path d="M607.136 175.568C607.663 175.565 608.179 175.744 608.618 176.084C609.057 176.423 609.399 176.906 609.6 177.473C609.801 178.039 609.852 178.662 609.746 179.262C609.641 179.862 609.383 180.411 609.007 180.841C608.631 181.27 608.153 181.559 607.635 181.671C607.117 181.782 606.582 181.712 606.098 181.469C605.614 181.225 605.204 180.82 604.92 180.304C604.636 179.788 604.491 179.185 604.503 178.573C604.52 177.773 604.804 177.011 605.295 176.45C605.787 175.889 606.447 175.573 607.136 175.568Z" fill="#FFC727"/>
<path d="M516.539 690.895H520.2V689.61H516.539V690.895ZM526.432 690.895H532.664V689.61H526.432V690.895ZM538.896 690.895H545.128V689.61H538.896V690.895ZM551.36 690.895H557.592V689.61H551.36V690.895ZM561.331 687.999H562.438V680.759H561.269L561.331 687.999ZM561.331 673.519H562.438V666.279H561.269L561.331 673.519ZM561.331 659.039H562.438V651.799H561.269L561.331 659.039ZM561.331 644.559H562.438V637.319H561.269L561.331 644.559ZM561.331 630.079H562.438V622.839H561.269L561.331 630.079ZM561.331 615.599H562.438V608.359H561.269L561.331 615.599ZM561.331 601.119H562.438V593.879H561.269L561.331 601.119Z" fill="#FFC727"/>
<path d="M516.679 693.284C515.225 693.284 514.046 691.914 514.046 690.225C514.046 688.536 515.225 687.166 516.679 687.166C518.134 687.166 519.312 688.536 519.312 690.225C519.312 691.914 518.134 693.284 516.679 693.284Z" fill="#FFC727"/>
<path d="M407.915 670.369H507.472V740.163H407.915V670.369Z" fill="#455A64"/>
<path d="M471.825 679.146H499.65V720.487H471.825V679.146Z" fill="white"/>
<path d="M485.738 703.348C482.098 703.348 479.147 699.92 479.147 695.691C479.147 691.463 482.098 688.035 485.738 688.035C489.378 688.035 492.328 691.463 492.328 695.691C492.328 699.92 489.378 703.348 485.738 703.348Z" fill="#455A64"/>
<path d="M471.825 720.488H499.65C499.65 720.488 498.887 712.778 497.532 710.479C496.176 708.18 492.593 705.592 485.737 705.592C478.882 705.592 475.299 708.18 473.943 710.479C472.588 712.778 471.825 720.488 471.825 720.488Z" fill="#455A64"/>
<path d="M418.821 679.146H464.626V681.156H418.821V679.146Z" fill="white"/>
<path d="M418.821 698.805H464.626V700.814H418.821V698.805Z" fill="white"/>
<path d="M418.821 704.596H464.626V706.605H418.821V704.596Z" fill="white"/>
<path d="M418.821 710.369H464.626V712.378H418.821V710.369Z" fill="white"/>
<path d="M418.821 716.162H464.626V718.171H418.821V716.162Z" fill="white"/>
<path d="M418.821 721.936H464.626V723.945H418.821V721.936Z" fill="white"/>
<path d="M427.53 684.939H464.626V686.949H427.53V684.939Z" fill="white"/>
<path d="M402.52 755.216C395.372 751.754 391.993 742.216 394.973 733.912C397.952 725.608 406.163 721.682 413.31 725.144C420.458 728.606 423.837 738.144 420.858 746.448C417.878 754.752 409.668 758.677 402.52 755.216Z" fill="#263238"/>
<path d="M400.967 736.055H414.864V750.716H400.967V736.055Z" fill="white"/>
<path d="M402.353 740.56H403.771V734.026C403.771 732.749 404.208 731.525 404.985 730.622C405.762 729.719 406.816 729.212 407.915 729.212C409.015 729.212 410.069 729.719 410.846 730.622C411.623 731.525 412.06 732.749 412.06 734.026V740.56H413.478V734.026C413.478 732.312 412.892 730.669 411.848 729.457C410.805 728.245 409.391 727.564 407.915 727.564C406.44 727.564 405.026 728.245 403.983 729.457C402.939 730.669 402.353 732.312 402.353 734.026V740.56Z" fill="white"/>
<path d="M407.323 743.547L406.746 746.769H409.224L408.632 743.547C408.813 743.415 408.961 743.23 409.062 743.011C409.163 742.792 409.213 742.546 409.208 742.297C409.202 742.048 409.14 741.806 409.029 741.593C408.918 741.381 408.761 741.206 408.573 741.085C408.386 740.965 408.175 740.903 407.961 740.906C407.747 740.91 407.537 740.978 407.353 741.104C407.168 741.23 407.015 741.41 406.909 741.626C406.803 741.841 406.747 742.086 406.746 742.335C406.746 742.577 406.799 742.815 406.9 743.027C407.001 743.239 407.146 743.418 407.323 743.547Z" fill="#263238"/>
<path d="M62.3507 803.639L144.13 804.074L225.925 804.237L389.5 804.544L553.074 804.237L634.853 804.074L716.648 803.639L634.853 803.187L553.074 803.042L389.5 802.734L225.925 803.042L144.13 803.205L62.3507 803.639Z" fill="#263238"/>
</svg>

