<svg width="35" height="37" viewBox="0 0 35 37" fill="none" xmlns="http://www.w3.org/2000/svg">
<path fill-rule="evenodd" clip-rule="evenodd" d="M18.0932 35.4679L18.0727 35.4714L17.9514 35.5326L17.9172 35.5396L17.8933 35.5326L17.772 35.4696C17.7538 35.465 17.7401 35.4685 17.731 35.4801L17.7242 35.4976L17.6951 36.2466L17.7037 36.2816L17.7208 36.3044L17.8984 36.4339L17.924 36.4409L17.9445 36.4339L18.1222 36.3044L18.1427 36.2764L18.1495 36.2466L18.1205 35.4994C18.1159 35.4807 18.1068 35.4702 18.0932 35.4679ZM18.5442 35.2701L18.5203 35.2736L18.2059 35.4364L18.1888 35.4539L18.1837 35.4731L18.2145 36.2256L18.223 36.2466L18.2367 36.2606L18.58 36.4216C18.6017 36.4275 18.6182 36.4228 18.6296 36.4076L18.6364 36.3831L18.5783 35.3086C18.5726 35.2865 18.5613 35.2736 18.5442 35.2701ZM17.3227 35.2736C17.3152 35.2689 17.3062 35.2674 17.2976 35.2694C17.289 35.2713 17.2815 35.2766 17.2766 35.2841L17.2663 35.3086L17.2083 36.3831C17.2094 36.4041 17.2191 36.4181 17.2373 36.4251L17.2629 36.4216L17.6063 36.2589L17.6234 36.2449L17.6285 36.2256L17.6593 35.4731L17.6541 35.4521L17.637 35.4346L17.3227 35.2736Z" fill="#FF8800"/>
<path fill-rule="evenodd" clip-rule="evenodd" d="M19.3864 0.128292C19.1749 0.0404542 18.9485 -0.00310891 18.7203 0.000172505C18.4922 0.00345392 18.267 0.0535136 18.0581 0.147398C17.8492 0.241282 17.6607 0.377088 17.5038 0.546801C17.347 0.716514 17.2249 0.916696 17.1448 1.13553C17.0647 1.35437 17.0281 1.58743 17.0374 1.82096C17.0466 2.05448 17.1015 2.28375 17.1986 2.49521C17.2958 2.70668 17.4333 2.89607 17.6031 3.05221C17.7729 3.20834 17.9714 3.32806 18.1871 3.40429L18.7867 3.63529V9.17929L1.25411 14.0793C0.856024 14.1918 0.511182 14.4482 0.283398 14.801C0.0556138 15.1539 -0.0396916 15.5793 0.015118 15.9986C0.0699276 16.4179 0.271142 16.8026 0.581526 17.0816C0.89191 17.3607 1.29045 17.5151 1.70341 17.5163V28.0163C1.70341 28.9446 2.06337 29.8348 2.70412 30.4912C3.34487 31.1475 4.21392 31.5163 5.12007 31.5163H29.0367C29.9429 31.5163 30.8119 31.1475 31.4527 30.4912C32.0934 29.8348 32.4534 28.9446 32.4534 28.0163V8.76629C32.8533 8.76588 33.2404 8.62176 33.5473 8.35902C33.8541 8.09628 34.0613 7.73159 34.1326 7.32848C34.204 6.92537 34.135 6.5094 33.9377 6.15303C33.7404 5.79667 33.4274 5.5225 33.053 5.37829L19.3864 0.128292ZM29.0367 7.57279L22.2034 4.94779V28.0163H29.0367V7.57279ZM13.6617 22.7663V28.0163H18.7867V12.8088L5.12007 16.6238V28.0163H10.2451V22.7663C10.2451 22.3022 10.4251 21.857 10.7454 21.5289C11.0658 21.2007 11.5003 21.0163 11.9534 21.0163C12.4065 21.0163 12.841 21.2007 13.1614 21.5289C13.4818 21.857 13.6617 22.3022 13.6617 22.7663ZM23.0576 14.0163C23.0576 13.5522 23.2376 13.107 23.5579 12.7789C23.8783 12.4507 24.3128 12.2663 24.7659 12.2663H26.4742C26.9273 12.2663 27.3618 12.4507 27.6822 12.7789C28.0026 13.107 28.1826 13.5522 28.1826 14.0163C28.1826 14.4804 28.0026 14.9255 27.6822 15.2537C27.3618 15.5819 26.9273 15.7663 26.4742 15.7663H24.7659C24.3128 15.7663 23.8783 15.5819 23.5579 15.2537C23.2376 14.9255 23.0576 14.4804 23.0576 14.0163ZM24.7659 19.2663C24.3128 19.2663 23.8783 19.4507 23.5579 19.7789C23.2376 20.107 23.0576 20.5522 23.0576 21.0163C23.0576 21.4804 23.2376 21.9255 23.5579 22.2537C23.8783 22.5819 24.3128 22.7663 24.7659 22.7663H26.4742C26.9273 22.7663 27.3618 22.5819 27.6822 22.2537C28.0026 21.9255 28.1826 21.4804 28.1826 21.0163C28.1826 20.5522 28.0026 20.107 27.6822 19.7789C27.3618 19.4507 26.9273 19.2663 26.4742 19.2663H24.7659Z" fill="#FF8800"/>
</svg>
