<svg width="48" height="54" viewBox="0 0 48 54" fill="none" xmlns="http://www.w3.org/2000/svg">
<path d="M47.7867 36.32C47.6494 35.998 47.4602 35.7007 47.2267 35.44L39.2267 27.44C38.7245 26.9379 38.0435 26.6558 37.3333 26.6558C36.6232 26.6558 35.9421 26.9379 35.44 27.44C34.9379 27.9421 34.6558 28.6232 34.6558 29.3333C34.6558 30.0435 34.9379 30.7245 35.44 31.2267L38.9067 34.6667H24C23.2928 34.6667 22.6145 34.9476 22.1144 35.4477C21.6143 35.9478 21.3333 36.6261 21.3333 37.3333C21.3333 38.0406 21.6143 38.7189 22.1144 39.219C22.6145 39.7191 23.2928 40 24 40H38.9067L35.44 43.44C35.1901 43.6879 34.9917 43.9828 34.8563 44.3078C34.7209 44.6328 34.6512 44.9813 34.6512 45.3333C34.6512 45.6854 34.7209 46.0339 34.8563 46.3589C34.9917 46.6838 35.1901 46.9788 35.44 47.2267C35.6879 47.4766 35.9828 47.675 36.3078 47.8104C36.6328 47.9458 36.9813 48.0155 37.3333 48.0155C37.6854 48.0155 38.0339 47.9458 38.3589 47.8104C38.6838 47.675 38.9788 47.4766 39.2267 47.2267L47.2267 39.2267C47.4756 38.9779 47.6668 38.6775 47.7867 38.3467C48.0534 37.6974 48.0534 36.9692 47.7867 36.32ZM29.3333 48H8C7.29276 48 6.61448 47.7191 6.11438 47.219C5.61429 46.7189 5.33333 46.0406 5.33333 45.3333V8C5.33333 7.29276 5.61429 6.61448 6.11438 6.11438C6.61448 5.61429 7.29276 5.33333 8 5.33333H21.3333V13.3333C21.3333 15.4551 22.1762 17.4899 23.6765 18.9902C25.1768 20.4905 27.2116 21.3333 29.3333 21.3333H40C40.5265 21.3307 41.0404 21.1723 41.477 20.8781C41.9136 20.5839 42.2533 20.167 42.4533 19.68C42.6575 19.1944 42.7133 18.6591 42.6137 18.1418C42.514 17.6245 42.2634 17.1483 41.8933 16.7733L25.8933 0.773333C25.675 0.563256 25.4225 0.391914 25.1467 0.266666H24.9067L24.16 0H8C5.87827 0 3.84344 0.842855 2.34315 2.34315C0.842855 3.84344 0 5.87827 0 8V45.3333C0 47.4551 0.842855 49.4899 2.34315 50.9902C3.84344 52.4905 5.87827 53.3333 8 53.3333H29.3333C30.0406 53.3333 30.7189 53.0524 31.219 52.5523C31.719 52.0522 32 51.3739 32 50.6667C32 49.9594 31.719 49.2811 31.219 48.781C30.7189 48.281 30.0406 48 29.3333 48ZM26.6667 9.09333L33.5733 16H29.3333C28.6261 16 27.9478 15.719 27.4477 15.219C26.9476 14.7189 26.6667 14.0406 26.6667 13.3333V9.09333Z" fill="white" fill-opacity="0.8"/>
</svg>
