<svg width="40" height="38" viewBox="0 0 40 38" fill="none" xmlns="http://www.w3.org/2000/svg">
<path d="M20.0004 34.5455C22.1493 34.5455 24.2771 34.1434 26.2625 33.3621C28.2478 32.5809 30.0517 31.4358 31.5712 29.9923C33.0907 28.5488 34.296 26.835 35.1184 24.949C35.9407 23.0629 36.364 21.0415 36.364 19C36.364 16.9585 35.9407 14.9371 35.1184 13.051C34.296 11.165 33.0907 9.45123 31.5712 8.0077C30.0517 6.56417 28.2478 5.41911 26.2625 4.63787C24.2771 3.85664 22.1493 3.45455 20.0004 3.45455C15.6605 3.45455 11.4983 5.09236 8.42953 8.0077C5.36075 10.923 3.63673 14.8771 3.63673 19C3.63673 23.1229 5.36075 27.077 8.42953 29.9923C11.4983 32.9076 15.6605 34.5455 20.0004 34.5455ZM40.0004 19C40.0004 29.4932 31.0458 38 20.0004 38C8.95491 38 0.000366211 29.4932 0.000366211 19C0.000366211 8.50682 8.95491 0 20.0004 0C31.0458 0 40.0004 8.50682 40.0004 19ZM21.8258 29.8024H18.1822V26.3409H21.8258V29.8024ZM18.1822 24.6136V22.4545C18.1822 20.957 18.8913 19.7375 19.684 18.81C20.4695 17.8945 21.4549 17.1276 22.2476 16.5335C22.6902 16.2019 23.0456 15.7772 23.2858 15.2928C23.5259 14.8083 23.6443 14.2775 23.6314 13.7422C23.6186 13.2069 23.475 12.6818 23.2119 12.2083C22.9488 11.7347 22.5734 11.3258 22.1154 11.0137C21.6574 10.7016 21.1293 10.495 20.5728 10.41C20.0163 10.3251 19.4467 10.3642 18.9088 10.5243C18.371 10.6844 17.8797 10.961 17.4737 11.3324C17.0677 11.7038 16.7581 12.1598 16.5695 12.6644L15.964 14.2949L12.5367 13.1445L13.1422 11.5157C13.5176 10.5045 14.1355 9.5901 14.9471 8.8449C15.7586 8.0997 16.7416 7.54413 17.8182 7.22214C18.8949 6.90016 20.0356 6.82059 21.1501 6.98973C22.2647 7.15887 23.3226 7.57208 24.24 8.19667C25.1575 8.82126 25.9094 9.6401 26.4362 10.5884C26.963 11.5367 27.2503 12.5885 27.2754 13.6605C27.3005 14.7325 27.0626 15.7953 26.5807 16.7649C26.0987 17.7345 25.3859 18.5843 24.4985 19.247C23.7149 19.8343 23.0131 20.3974 22.5058 20.9898C22.0076 21.5736 21.8186 22.0435 21.8186 22.4545V24.6136H18.1822Z" fill="#FF8800"/>
</svg>

