<svg width="32" height="30" viewBox="0 0 32 30" fill="none" xmlns="http://www.w3.org/2000/svg">
<path fill-rule="evenodd" clip-rule="evenodd" d="M26.6666 2.5C26.9448 2.5001 27.2159 2.58174 27.4421 2.73349C27.6682 2.88523 27.8381 3.09948 27.928 3.34625L28.1013 3.81875C28.2986 4.36094 28.6258 4.85354 29.0578 5.25874C29.4898 5.66394 30.0151 5.97096 30.5933 6.15625L31.0973 6.3175C31.3602 6.40197 31.5884 6.56135 31.75 6.77337C31.9116 6.98538 31.9984 7.23944 31.9984 7.5C31.9984 7.76056 31.9116 8.01462 31.75 8.22663C31.5884 8.43865 31.3602 8.59803 31.0973 8.6825L30.5933 8.845C30.015 9.03 29.4895 9.33676 29.0573 9.74174C28.6251 10.1467 28.2976 10.6392 28.1 11.1812L27.928 11.6537C27.8379 11.9002 27.6679 12.1142 27.4417 12.2656C27.2155 12.4171 26.9446 12.4985 26.6666 12.4985C26.3887 12.4985 26.1177 12.4171 25.8916 12.2656C25.6654 12.1142 25.4954 11.9002 25.4053 11.6537L25.232 11.1812C25.0346 10.6391 24.7074 10.1465 24.2754 9.74126C23.8435 9.33606 23.3182 9.02904 22.74 8.84375L22.236 8.6825C21.973 8.59803 21.7448 8.43865 21.5833 8.22663C21.4217 8.01462 21.3349 7.76056 21.3349 7.5C21.3349 7.23944 21.4217 6.98538 21.5833 6.77337C21.7448 6.56135 21.973 6.40197 22.236 6.3175L22.74 6.155C23.3183 5.97 23.8437 5.66324 24.276 5.25826C24.7082 4.85328 25.0357 4.36084 25.2333 3.81875L25.4053 3.34625C25.4951 3.09948 25.665 2.88523 25.8912 2.73349C26.1174 2.58174 26.3885 2.5001 26.6666 2.5ZM26.6666 6.495C26.3512 6.86712 25.9916 7.2043 25.5946 7.5C25.9928 7.79583 26.3502 8.13083 26.6666 8.505C26.9822 8.13167 27.3395 7.79667 27.7386 7.5C27.3417 7.2043 26.982 6.86712 26.6666 6.495ZM10.6666 4.4825C11.1666 4.01363 11.8448 3.75014 12.552 3.75H18.6666C19.0202 3.75 19.3594 3.8817 19.6094 4.11612C19.8595 4.35054 20 4.66848 20 5C20 5.33152 19.8595 5.64946 19.6094 5.88388C19.3594 6.1183 19.0202 6.25 18.6666 6.25H12.552L10.6666 8.0175C10.1666 8.48637 9.48848 8.74986 8.78129 8.75H5.33329V23.75H26.6666V16.25C26.6666 15.9185 26.8071 15.6005 27.0571 15.3661C27.3072 15.1317 27.6463 15 28 15C28.3536 15 28.6927 15.1317 28.9428 15.3661C29.1928 15.6005 29.3333 15.9185 29.3333 16.25V23.75C29.3333 24.413 29.0523 25.0489 28.5522 25.5178C28.0521 25.9866 27.3739 26.25 26.6666 26.25H5.33329C4.62605 26.25 3.94777 25.9866 3.44767 25.5178C2.94758 25.0489 2.66663 24.413 2.66663 23.75V8.75C2.66663 8.08696 2.94758 7.45107 3.44767 6.98223C3.94777 6.51339 4.62605 6.25 5.33329 6.25H8.78129L10.6666 4.4825ZM12 15.625C12 14.6304 12.4214 13.6766 13.1715 12.9733C13.9217 12.2701 14.9391 11.875 16 11.875C17.0608 11.875 18.0782 12.2701 18.8284 12.9733C19.5785 13.6766 20 14.6304 20 15.625C20 16.6196 19.5785 17.5734 18.8284 18.2767C18.0782 18.9799 17.0608 19.375 16 19.375C14.9391 19.375 13.9217 18.9799 13.1715 18.2767C12.4214 17.5734 12 16.6196 12 15.625ZM16 9.375C14.2318 9.375 12.5362 10.0335 11.2859 11.2056C10.0357 12.3777 9.33329 13.9674 9.33329 15.625C9.33329 17.2826 10.0357 18.8723 11.2859 20.0444C12.5362 21.2165 14.2318 21.875 16 21.875C17.7681 21.875 19.4638 21.2165 20.714 20.0444C21.9642 18.8723 22.6666 17.2826 22.6666 15.625C22.6666 13.9674 21.9642 12.3777 20.714 11.2056C19.4638 10.0335 17.7681 9.375 16 9.375Z" fill="#FF8800"/>
</svg>
