<svg width="51" height="51" viewBox="0 0 51 51" fill="none" xmlns="http://www.w3.org/2000/svg">
<path fill-rule="evenodd" clip-rule="evenodd" d="M12.75 14.875C12.75 12.0571 13.8694 9.35456 15.862 7.36199C17.8546 5.36942 20.5571 4.25 23.375 4.25C26.1929 4.25 28.8954 5.36942 30.888 7.36199C32.8806 9.35456 34 12.0571 34 14.875C34 17.6929 32.8806 20.3954 30.888 22.388C28.8954 24.3806 26.1929 25.5 23.375 25.5C20.5571 25.5 17.8546 24.3806 15.862 22.388C13.8694 20.3954 12.75 17.6929 12.75 14.875ZM23.375 8.5C22.5378 8.5 21.7088 8.66489 20.9354 8.98527C20.1619 9.30564 19.4592 9.77522 18.8672 10.3672C18.2752 10.9592 17.8056 11.6619 17.4853 12.4354C17.1649 13.2088 17 14.0378 17 14.875C17 15.7122 17.1649 16.5412 17.4853 17.3146C17.8056 18.0881 18.2752 18.7908 18.8672 19.3828C19.4592 19.9748 20.1619 20.4444 20.9354 20.7647C21.7088 21.0851 22.5378 21.25 23.375 21.25C25.0658 21.25 26.6873 20.5784 27.8828 19.3828C29.0784 18.1873 29.75 16.5658 29.75 14.875C29.75 13.1842 29.0784 11.5627 27.8828 10.3672C26.6873 9.17165 25.0658 8.5 23.375 8.5ZM9.37763 37.4021C8.69125 38.2734 8.5 38.9321 8.5 39.3125C8.5 39.5633 8.57437 39.8055 8.93563 40.1285C9.35425 40.5025 10.1044 40.9147 11.2944 41.2824C13.6744 42.0176 17.1509 42.3895 21.2946 42.4787C21.5737 42.4846 21.8489 42.5454 22.1044 42.6576C22.36 42.7698 22.591 42.9312 22.7842 43.1327C22.9773 43.3342 23.1289 43.5717 23.2303 43.8318C23.3317 44.0918 23.3809 44.3693 23.375 44.6484C23.3691 44.9274 23.3084 45.2026 23.1962 45.4582C23.084 45.7138 22.9225 45.9447 22.721 46.1379C22.5196 46.3311 22.282 46.4827 22.022 46.5841C21.7619 46.6854 21.4844 46.7346 21.2054 46.7287C16.9618 46.6374 13.0029 46.2591 10.0406 45.3433C8.56163 44.8842 7.16337 44.2446 6.10512 43.299C4.98737 42.3002 4.25 40.9572 4.25 39.3125C4.25 37.6401 5.01075 36.0761 6.0435 34.7671C7.09325 33.439 8.54463 32.2171 10.2467 31.1759C13.6531 29.1019 18.2856 27.625 23.375 27.625C24.3256 27.625 25.2577 27.6746 26.1715 27.7738C26.732 27.8332 27.2459 28.1129 27.6002 28.5512C27.9545 28.9896 28.1201 29.5508 28.0606 30.1112C28.0012 30.6717 27.7215 31.1856 27.2831 31.5399C26.8448 31.8942 26.2836 32.0598 25.7231 32.0004C24.9567 31.9168 24.174 31.875 23.375 31.875C19.0761 31.875 15.2086 33.1287 12.461 34.8054C11.0861 35.6426 10.047 36.5521 9.37763 37.4021ZM45.0776 29.8223C44.5843 29.3288 43.9986 28.9373 43.354 28.6703C42.7093 28.4032 42.0184 28.2658 41.3206 28.2658C40.6229 28.2658 39.9319 28.4032 39.2873 28.6703C38.6427 28.9373 38.057 29.3288 37.5636 29.8223L30.3004 37.0834C29.8127 37.5714 29.4965 38.2045 29.3994 38.8875L28.6981 43.792C28.6507 44.1192 28.6803 44.4529 28.7846 44.7666C28.8888 45.0803 29.0648 45.3654 29.2986 45.5992C29.5323 45.8329 29.8174 46.0089 30.1311 46.1132C30.4449 46.2174 30.7786 46.247 31.1057 46.1996L36.0102 45.4984C36.6933 45.4012 37.3264 45.085 37.8144 44.5974L45.0755 37.3341C46.0714 36.3379 46.6309 34.9869 46.6309 33.5782C46.6309 32.1695 46.0736 30.8185 45.0776 29.8223ZM40.5684 32.827C40.7688 32.6335 41.0372 32.5264 41.3157 32.5288C41.5943 32.5312 41.8608 32.6429 42.0578 32.8399C42.2548 33.0369 42.3665 33.3034 42.369 33.582C42.3714 33.8606 42.2643 34.129 42.0708 34.3294L35.0582 41.3419L33.3051 41.5926L33.5559 39.8395L40.5684 32.827Z" fill="#FF8800"/>
</svg>

