<svg width="34" height="32" viewBox="0 0 34 32" fill="none" xmlns="http://www.w3.org/2000/svg">
<path d="M17 30C25.2845 30 32 23.7322 32 16C32 8.2678 25.2845 2 17 2C8.7155 2 2 8.2678 2 16C2 23.7322 8.7155 30 17 30Z" stroke="#FF8800" stroke-width="2.66667" stroke-linecap="round" stroke-linejoin="round"/>
<path d="M21.5002 10.4001H17.0002M17.0002 10.4001H15.5002C14.7046 10.4001 13.9415 10.6951 13.3789 11.2202C12.8163 11.7453 12.5002 12.4575 12.5002 13.2001C12.5002 13.9427 12.8163 14.6549 13.3789 15.18C13.9415 15.7051 14.7046 16.0001 15.5002 16.0001H18.5002C19.2959 16.0001 20.059 16.2951 20.6216 16.8202C21.1842 17.3453 21.5002 18.0575 21.5002 18.8001C21.5002 19.5427 21.1842 20.2549 20.6216 20.78C20.059 21.3051 19.2959 21.6001 18.5002 21.6001H17.0002M17.0002 10.4001V7.6001M12.5002 21.6001H17.0002M17.0002 21.6001V24.4001" stroke="#FF8800" stroke-width="2.66667" stroke-linecap="round" stroke-linejoin="round"/>
</svg>

