<svg width="35" height="34" viewBox="0 0 35 34" fill="none" xmlns="http://www.w3.org/2000/svg">
<path d="M32.7233 14.3H17.8159V19.85H26.5388C26.3804 21.2 25.428 23.3 23.3666 24.65C22.0973 25.55 20.1943 26.15 17.8159 26.15C12.5133 26.15 8.30077 21.8633 8.30077 16.85C8.30077 11.9783 12.7526 7.7 17.8159 7.7C20.8298 7.7 22.7328 8.9 24.0003 9.95L28.4419 5.75C25.7449 3.5 22.0973 2 17.8159 2C11.6315 2 6.2393 5.3 3.70078 10.25C2.58353 12.3357 2.00037 14.6507 2.00037 17C2.00037 19.3493 2.58353 21.6643 3.70078 23.75C6.2393 28.7 11.6315 32 17.8159 32C22.0973 32 25.7449 30.65 28.2834 28.4C32.4167 24.9 33.6136 19.355 32.7233 14.3Z" stroke="#FF6B35" stroke-width="2.66667" stroke-linecap="round" stroke-linejoin="round"/>
</svg>


