<svg width="27" height="25" viewBox="0 0 27 25" fill="none" xmlns="http://www.w3.org/2000/svg">
<g clip-path="url(#clip0_133_5611)">
<path d="M13.5132 0.78125C10.193 0.782889 7.00655 1.99248 4.64062 4.14927V0.78125H2.95312V7.03125H9.70312V5.46875H5.60498C6.62788 4.48154 7.85565 3.69586 9.2146 3.15886C10.5735 2.62186 12.0357 2.34461 13.5132 2.34375C19.5539 2.34375 24.4687 6.89453 24.4687 12.4878C24.4687 18.0811 19.5539 22.6318 13.5132 22.6318C7.47246 22.6318 2.55762 18.0811 2.55762 12.4878H0.870117C0.870114 14.8031 1.61162 17.0665 3.00085 18.9916C4.39009 20.9167 6.36467 22.4172 8.67489 23.3032C10.9851 24.1893 13.5272 24.4211 15.9797 23.9694C18.4322 23.5177 20.685 22.4028 22.4532 20.7656C24.2214 19.1284 25.4255 17.0425 25.9133 14.7716C26.4012 12.5008 26.1508 10.147 25.1939 8.00789C24.2369 5.8688 22.6164 4.04048 20.5373 2.75415C18.4582 1.46782 16.0137 0.781247 13.5132 0.78125Z" fill="#FF8800"/>
<path d="M12.6561 5.46631L12.6279 14.0625H19.4061V12.5H14.3206L14.3436 5.47109L12.6561 5.46631Z" fill="#FF8800"/>
</g>
<defs>
<clipPath id="clip0_133_5611">
<rect width="27" height="25" fill="white"/>
</clipPath>
</defs>
</svg>



