<svg width="40" height="32" viewBox="0 0 40 32" fill="none" xmlns="http://www.w3.org/2000/svg">
<path d="M18.6691 0.424888C19.036 0.151173 19.5097 0 20.0004 0C20.4911 0 20.9647 0.151173 21.3317 0.424888L39.3763 13.8991C39.7535 14.2001 39.9766 14.6125 39.9986 15.0492C40.0205 15.4858 39.8396 15.9125 39.4939 16.2392C39.1483 16.5658 38.665 16.7668 38.1462 16.7997C37.6275 16.8326 37.1138 16.6948 36.7137 16.4154L36.04 15.9152V28.6315C36.04 29.5248 35.6176 30.3816 34.8656 31.0134C34.1136 31.6451 33.0936 32 32.0301 32H7.97062C6.90712 32 5.88718 31.6451 5.13518 31.0134C4.38317 30.3816 3.9607 29.5248 3.9607 28.6315V15.9152L3.28703 16.4154C2.88696 16.6948 2.37327 16.8326 1.85449 16.7997C1.3357 16.7668 0.852444 16.5658 0.506802 16.2392C0.16116 15.9125 -0.0197988 15.4858 0.00215352 15.0492C0.0241058 14.6125 0.24725 14.2001 0.624447 13.8991L18.6691 0.424888ZM7.97062 12.9172V28.6315H13.9855V20.2101C13.9855 19.7634 14.1967 19.335 14.5727 19.0191C14.9487 18.7032 15.4587 18.5258 15.9904 18.5258H24.0103C24.542 18.5258 25.052 18.7032 25.428 19.0191C25.804 19.335 26.0152 19.7634 26.0152 20.2101V28.6315H32.0301V12.9188L20.0004 3.9366L7.97062 12.9172ZM22.0053 28.6315V21.8943H17.9954V28.6315H22.0053Z" fill="#FF8800"/>
</svg>
