<svg width="33" height="34" viewBox="0 0 33 34" fill="none" xmlns="http://www.w3.org/2000/svg">
<path d="M2.00037 17C2.00037 9.92947 2.00037 6.39263 4.12347 4.19632C6.24658 2 9.664 2 16.5004 2C23.3352 2 26.7542 2 28.8773 4.19632C31.0004 6.39263 31.0004 9.92789 31.0004 17C31.0004 24.0705 31.0004 27.6074 28.8773 29.8037C26.7542 32 23.3367 32 16.5004 32C9.66552 32 6.24658 32 4.12347 29.8037C2.00037 27.6074 2.00037 24.0721 2.00037 17Z" stroke="#FF6B35" stroke-width="2.66667" stroke-linecap="round" stroke-linejoin="round"/>
<path d="M24.9076 8.31641H24.8923M23.369 17.0006C23.369 18.885 22.6454 20.6923 21.3573 22.0248C20.0693 23.3573 18.3222 24.1059 16.5006 24.1059C14.679 24.1059 12.932 23.3573 11.6439 22.0248C10.3558 20.6923 9.6322 18.885 9.6322 17.0006C9.6322 15.1162 10.3558 13.3089 11.6439 11.9764C12.932 10.6439 14.679 9.89535 16.5006 9.89535C18.3222 9.89535 20.0693 10.6439 21.3573 11.9764C22.6454 13.3089 23.369 15.1162 23.369 17.0006Z" stroke="#FF6B35" stroke-width="2.66667" stroke-linecap="round" stroke-linejoin="round"/>
</svg>

