<svg width="44" height="32" viewBox="0 0 44 32" fill="none" xmlns="http://www.w3.org/2000/svg">
<path d="M0.000366211 2.66667C0.000366211 1.95942 0.290098 1.28115 0.805823 0.781049C1.32155 0.280952 2.02102 0 2.75037 0H41.2504C41.9797 0 42.6792 0.280952 43.1949 0.781049C43.7106 1.28115 44.0004 1.95942 44.0004 2.66667C44.0004 3.37391 43.7106 4.05219 43.1949 4.55228C42.6792 5.05238 41.9797 5.33333 41.2504 5.33333H2.75037C2.02102 5.33333 1.32155 5.05238 0.805823 4.55228C0.290098 4.05219 0.000366211 3.37391 0.000366211 2.66667ZM0.000366211 16C0.000366211 15.2928 0.290098 14.6145 0.805823 14.1144C1.32155 13.6143 2.02102 13.3333 2.75037 13.3333H41.2504C41.9797 13.3333 42.6792 13.6143 43.1949 14.1144C43.7106 14.6145 44.0004 15.2928 44.0004 16C44.0004 16.7072 43.7106 17.3855 43.1949 17.8856C42.6792 18.3857 41.9797 18.6667 41.2504 18.6667H2.75037C2.02102 18.6667 1.32155 18.3857 0.805823 17.8856C0.290098 17.3855 0.000366211 16.7072 0.000366211 16ZM0.000366211 29.3333C0.000366211 28.6261 0.290098 27.9478 0.805823 27.4477C1.32155 26.9476 2.02102 26.6667 2.75037 26.6667H41.2504C41.9797 26.6667 42.6792 26.9476 43.1949 27.4477C43.7106 27.9478 44.0004 28.6261 44.0004 29.3333C44.0004 30.0406 43.7106 30.7189 43.1949 31.219C42.6792 31.7191 41.9797 32 41.2504 32H2.75037C2.02102 32 1.32155 31.7191 0.805823 31.219C0.290098 30.7189 0.000366211 30.0406 0.000366211 29.3333Z" fill="#FF8800"/>
</svg>
