<svg width="29" height="29" viewBox="0 0 29 29" fill="none" xmlns="http://www.w3.org/2000/svg">
<path fill-rule="evenodd" clip-rule="evenodd" d="M18.3083 15.4989C20.1759 15.4989 21.967 16.1793 23.2875 17.3904C24.6081 18.6015 25.35 20.2441 25.35 21.9568V24.54C25.35 24.8825 25.2016 25.2111 24.9375 25.4533C24.6734 25.6955 24.3152 25.8316 23.9417 25.8316C23.5682 25.8316 23.2099 25.6955 22.9458 25.4533C22.6817 25.2111 22.5333 24.8825 22.5333 24.54V21.9568C22.5333 20.9292 22.0882 19.9436 21.2959 19.217C20.5035 18.4903 19.4289 18.0821 18.3083 18.0821H7.04167C5.92113 18.0821 4.84648 18.4903 4.05414 19.217C3.2618 19.9436 2.81667 20.9292 2.81667 21.9568V24.54C2.81667 24.8825 2.66829 25.2111 2.40418 25.4533C2.14006 25.6955 1.78185 25.8316 1.40833 25.8316C1.03482 25.8316 0.676605 25.6955 0.412491 25.4533C0.148377 25.2111 0 24.8825 0 24.54V21.9568C0 20.2441 0.741888 18.6015 2.06246 17.3904C3.38303 16.1793 5.1741 15.4989 7.04167 15.4989H18.3083ZM23.9417 7.74947C24.3152 7.74947 24.6734 7.88555 24.9375 8.12777C25.2016 8.36999 25.35 8.6985 25.35 9.04105V10.3326H26.7583C27.1318 10.3326 27.4901 10.4687 27.7542 10.7109C28.0183 10.9531 28.1667 11.2817 28.1667 11.6242C28.1667 11.9668 28.0183 12.2953 27.7542 12.5375C27.4901 12.7797 27.1318 12.9158 26.7583 12.9158H25.35V14.2074C25.35 14.5499 25.2016 14.8784 24.9375 15.1207C24.6734 15.3629 24.3152 15.4989 23.9417 15.4989C23.5682 15.4989 23.2099 15.3629 22.9458 15.1207C22.6817 14.8784 22.5333 14.5499 22.5333 14.2074V12.9158H21.125C20.7515 12.9158 20.3933 12.7797 20.1292 12.5375C19.865 12.2953 19.7167 11.9668 19.7167 11.6242C19.7167 11.2817 19.865 10.9531 20.1292 10.7109C20.3933 10.4687 20.7515 10.3326 21.125 10.3326H22.5333V9.04105C22.5333 8.6985 22.6817 8.36999 22.9458 8.12777C23.2099 7.88555 23.5682 7.74947 23.9417 7.74947ZM12.675 0C14.5426 0 16.3336 0.680383 17.6542 1.89147C18.9748 3.10256 19.7167 4.74515 19.7167 6.45789C19.7167 8.17063 18.9748 9.81322 17.6542 11.0243C16.3336 12.2354 14.5426 12.9158 12.675 12.9158C10.8074 12.9158 9.01636 12.2354 7.69579 11.0243C6.37522 9.81322 5.63333 8.17063 5.63333 6.45789C5.63333 4.74515 6.37522 3.10256 7.69579 1.89147C9.01636 0.680383 10.8074 0 12.675 0ZM12.675 2.58316C12.1202 2.58316 11.5708 2.68338 11.0582 2.8781C10.5456 3.07283 10.0798 3.35824 9.68747 3.71804C9.29515 4.07784 8.98394 4.50499 8.77161 4.9751C8.55928 5.4452 8.45 5.94906 8.45 6.45789C8.45 6.96673 8.55928 7.47059 8.77161 7.94069C8.98394 8.4108 9.29515 8.83794 9.68747 9.19775C10.0798 9.55755 10.5456 9.84296 11.0582 10.0377C11.5708 10.2324 12.1202 10.3326 12.675 10.3326C13.7955 10.3326 14.8702 9.9244 15.6625 9.19775C16.4549 8.47109 16.9 7.48554 16.9 6.45789C16.9 5.43025 16.4549 4.4447 15.6625 3.71804C14.8702 2.99139 13.7955 2.58316 12.675 2.58316Z" fill="#FF8800"/>
</svg>



