<svg width="36" height="38" viewBox="0 0 36 38" fill="none" xmlns="http://www.w3.org/2000/svg">
<path d="M14.1934 2.3247C14.4902 1.63785 14.9992 1.04963 15.6552 0.635451C16.3113 0.221271 17.0844 0 17.8756 0C18.6669 0 19.44 0.221271 20.0961 0.635451C20.7521 1.04963 21.2611 1.63785 21.5579 2.3247C24.4954 3.08027 27.0865 4.71843 28.9331 6.98734C30.7796 9.25624 31.7793 12.0303 31.7784 14.883V23.6192L35.417 28.7303C35.6165 29.0104 35.7311 29.336 35.7486 29.6724C35.766 30.0087 35.6857 30.3432 35.516 30.6401C35.3464 30.937 35.0939 31.1852 34.7854 31.3582C34.4769 31.5312 34.1241 31.6226 33.7645 31.6225H24.7575C24.5184 33.1721 23.6911 34.589 22.4272 35.6139C21.1633 36.6387 19.5475 37.2028 17.8756 37.2028C16.2038 37.2028 14.588 36.6387 13.3241 35.6139C12.0602 34.589 11.2329 33.1721 10.9938 31.6225H1.98677C1.6272 31.6226 1.27436 31.5312 0.965895 31.3582C0.657428 31.1852 0.404908 30.937 0.235275 30.6401C0.0656417 30.3432 -0.0147396 30.0087 0.00270555 29.6724C0.0201507 29.336 0.134768 29.0104 0.33433 28.7303L3.97288 23.6192V14.883C3.97288 8.88659 8.3026 3.83498 14.1934 2.3247ZM15.0673 31.6225C15.2724 32.1669 15.6528 32.6382 16.1559 32.9716C16.6591 33.305 17.2603 33.484 17.8766 33.484C18.493 33.484 19.0942 33.305 19.5974 32.9716C20.1005 32.6382 20.4809 32.1669 20.686 31.6225H15.0673ZM17.8756 5.58333C15.2419 5.58333 12.716 6.56311 10.8537 8.30715C8.99135 10.0512 7.9451 12.4166 7.9451 14.883V24.1828C7.94519 24.5502 7.82908 24.9094 7.61143 25.215L5.69881 27.9027H30.0505L28.1379 25.215C27.9209 24.9092 27.8055 24.55 27.8062 24.1828V14.883C27.8062 12.4166 26.7599 10.0512 24.8976 8.30715C23.0353 6.56311 20.5094 5.58333 17.8756 5.58333Z" fill="#FF8800"/>
</svg>


