<svg width="35" height="35" viewBox="0 0 35 35" fill="none" xmlns="http://www.w3.org/2000/svg">
<path d="M16.5985 33.9181L16.6145 33.921L16.7179 33.972L16.747 33.9778L16.7673 33.972L16.8706 33.921C16.8862 33.9161 16.8978 33.9185 16.9056 33.9283L16.9114 33.9428L16.9361 34.567L16.9288 34.5962L16.9143 34.6151L16.763 34.7231L16.7411 34.7289L16.7237 34.7231L16.5723 34.6151L16.5549 34.5918L16.5491 34.567L16.5738 33.9443C16.5777 33.9287 16.5859 33.92 16.5985 33.9181ZM16.2129 33.7533L16.2318 33.7562L16.501 33.8918L16.5156 33.9064L16.52 33.9224L16.4938 34.5495L16.4865 34.567L16.4748 34.5772L16.1824 34.7128C16.1639 34.7177 16.1499 34.7138 16.1402 34.7012L16.1343 34.6808L16.1838 33.7853C16.1887 33.7678 16.1984 33.7571 16.2129 33.7533ZM17.2533 33.7562C17.2597 33.7523 17.2674 33.751 17.2747 33.7526C17.2821 33.7543 17.2885 33.7587 17.2926 33.7649L17.3014 33.7853L17.3508 34.6808C17.3499 34.6983 17.3416 34.7099 17.3261 34.7158L17.3043 34.7128L17.0118 34.5772L16.9972 34.5656L16.9914 34.5495L16.9667 33.9224L16.971 33.9049L16.9856 33.8903L17.2533 33.7562Z" fill="#FF8800"/>
<path d="M17.4615 4.375C17.0906 4.37541 16.7339 4.51774 16.4642 4.7729C16.1945 5.02807 16.0322 5.37681 16.0105 5.74787C15.9888 6.11893 16.1092 6.4843 16.3473 6.76934C16.5853 7.05437 16.923 7.23756 17.2913 7.28146L17.4615 7.29167H24.7372C25.0936 7.29171 25.4376 7.42285 25.7039 7.66021C25.9702 7.89757 26.1404 8.22463 26.1821 8.57937L26.1923 8.75V26.25C26.1922 26.6072 26.0614 26.952 25.8245 27.2189C25.5877 27.4858 25.2614 27.6563 24.9074 27.6981L24.7372 27.7083H18.1891C17.8182 27.7087 17.4615 27.8511 17.1918 28.1062C16.9221 28.3614 16.7598 28.7101 16.7381 29.0812C16.7163 29.4523 16.8368 29.8176 17.0748 30.1027C17.3129 30.3877 17.6505 30.5709 18.0188 30.6148L18.1891 30.625H24.7372C25.8506 30.6251 26.9221 30.1987 27.7322 29.4331C28.5423 28.6676 29.0299 27.6207 29.0953 26.5067L29.1025 26.25V8.75C29.1026 7.63407 28.6772 6.56029 27.9133 5.74837C27.1494 4.93645 26.1048 4.44776 24.9933 4.38229L24.7372 4.375H17.4615ZM9.15709 12.3433L5.04199 16.469C4.7692 16.7424 4.61595 17.1133 4.61595 17.5C4.61595 17.8867 4.7692 18.2576 5.04199 18.531L9.15709 22.6567C9.43014 22.9301 9.80038 23.0837 10.1864 23.0835C10.5724 23.0834 10.9425 22.9296 11.2154 22.6559C11.4882 22.3823 11.6414 22.0112 11.6413 21.6244C11.6412 21.2375 11.4877 20.8666 11.2146 20.5931L9.58345 18.9583H17.4615C17.8474 18.9583 18.2176 18.8047 18.4904 18.5312C18.7633 18.2577 18.9166 17.8868 18.9166 17.5C18.9166 17.1132 18.7633 16.7423 18.4904 16.4688C18.2176 16.1953 17.8474 16.0417 17.4615 16.0417H9.58345L11.2146 14.4069C11.4877 14.1334 11.6412 13.7625 11.6413 13.3756C11.6414 12.9888 11.4882 12.6177 11.2154 12.3441C10.9425 12.0704 10.5724 11.9166 10.1864 11.9165C9.80038 11.9163 9.43014 12.0699 9.15709 12.3433Z" fill="#FF8800"/>
</svg>


