<svg width="29" height="30" viewBox="0 0 29 30" fill="none" xmlns="http://www.w3.org/2000/svg">
<path d="M19.7167 6.97973e-09C20.7943 -6.38326e-05 21.8313 0.437802 22.6154 1.22401C23.3995 2.01021 23.8714 3.08533 23.9346 4.22937L23.9417 4.49296V7.48827C25.0193 7.4882 26.0563 7.92607 26.8404 8.71227C27.6245 9.49848 28.0964 10.5736 28.1596 11.7176L28.1667 11.9812V17.9718C28.1667 19.1179 27.755 20.2206 27.0157 21.0544C26.2763 21.8882 25.2654 22.3901 24.1895 22.4573L23.9417 22.4648V23.9115C23.9417 25.4391 22.3319 26.2988 21.1898 25.4586L21.0546 25.3508L17.7985 22.4648H12.675C11.6371 22.4649 10.6354 22.0586 9.86115 21.3236L9.66398 21.1229L7.04167 23.2136C5.92768 24.1017 4.35738 23.326 4.23345 21.8972L4.225 21.716V19.4695C3.14733 19.4696 2.11037 19.0317 1.32628 18.2455C0.542199 17.4593 0.0702653 16.3842 0.00704183 15.2401L6.56346e-09 14.9765V4.49296C-6.00256e-05 3.34694 0.411691 2.24421 1.15101 1.4104C1.89032 0.576586 2.90132 0.0747216 3.97713 0.00748844L4.225 6.97973e-09H19.7167ZM23.9417 10.4836H12.675C12.3015 10.4836 11.9433 10.6414 11.6792 10.9222C11.415 11.2031 11.2667 11.584 11.2667 11.9812V17.9718C11.2667 18.369 11.415 18.75 11.6792 19.0308C11.9433 19.3117 12.3015 19.4695 12.675 19.4695H17.7985C18.4573 19.4698 19.0952 19.7157 19.6012 20.1644L21.1335 21.5213C21.1793 20.9614 21.4207 20.4401 21.8103 20.0602C22.1998 19.6804 22.709 19.4696 23.2375 19.4695H23.9417C24.3152 19.4695 24.6734 19.3117 24.9375 19.0308C25.2016 18.75 25.35 18.369 25.35 17.9718V11.9812C25.35 11.584 25.2016 11.2031 24.9375 10.9222C24.6734 10.6414 24.3152 10.4836 23.9417 10.4836ZM19.7167 2.99531H4.225C3.85149 2.99531 3.49327 3.15309 3.22916 3.43396C2.96504 3.71482 2.81667 4.09576 2.81667 4.49296V14.9765C2.81667 15.3737 2.96504 15.7547 3.22916 16.0355C3.49327 16.3164 3.85149 16.4742 4.225 16.4742H4.92917C5.48944 16.4742 6.02676 16.7109 6.42293 17.1322C6.8191 17.5535 7.04167 18.1249 7.04167 18.7207V19.4695L8.46408 18.3358C8.45477 18.2147 8.45007 18.0933 8.45 17.9718V11.9812C8.45 10.7896 8.89513 9.64682 9.68747 8.80422C10.4798 7.96163 11.5545 7.48827 12.675 7.48827H21.125V4.49296C21.125 4.09576 20.9766 3.71482 20.7125 3.43396C20.4484 3.15309 20.0902 2.99531 19.7167 2.99531Z" fill="#FF8800"/>
</svg>

