<svg width="31" height="34" viewBox="0 0 31 34" fill="none" xmlns="http://www.w3.org/2000/svg">
<path fill-rule="evenodd" clip-rule="evenodd" d="M15.5 16.7287C19.6264 16.7287 23.3792 17.7841 26.1399 19.2714C27.5177 20.0136 28.6957 20.8896 29.5464 21.8416C30.3834 22.7769 31 23.8962 31 25.093C31 26.3781 30.2922 27.3909 29.2726 28.1133C28.3082 28.7977 27.0354 29.2509 25.6835 29.5672C22.9658 30.2014 19.3388 30.4158 15.5 30.4158C11.6612 30.4158 8.03417 30.2029 5.3165 29.5672C3.96456 29.2509 2.69183 28.7977 1.72739 28.1133C0.706111 27.3894 0 26.3781 0 25.093C0 23.8962 0.616556 22.7769 1.45356 21.8401C2.30433 20.8896 3.48061 20.0151 4.86011 19.2699C7.62083 17.7856 11.3753 16.7287 15.5 16.7287ZM15.5 19.7703C12.0159 19.7703 8.8815 20.6675 6.65467 21.8674C5.54039 22.4666 4.69994 23.1175 4.15744 23.7258C3.59944 24.3494 3.44444 24.8208 3.44444 25.093C3.44444 25.2786 3.50817 25.4747 3.88361 25.7409C4.31244 26.045 5.05817 26.3598 6.19828 26.626C8.46817 27.1583 11.7301 27.3742 15.5 27.3742C19.2717 27.3742 22.5318 27.1567 24.8 26.626C25.9418 26.3598 26.6876 26.045 27.1164 25.7409C27.4918 25.4747 27.5556 25.2786 27.5556 25.093C27.5556 24.8193 27.4006 24.3494 26.8443 23.7258C26.3001 23.1175 25.4596 22.4666 24.3453 21.8674C22.1185 20.666 18.9841 19.7703 15.5 19.7703ZM15.5 0C17.7838 0 19.9741 0.801128 21.589 2.22714C23.2039 3.65316 24.1111 5.58726 24.1111 7.60395C24.1111 9.62064 23.2039 11.5547 21.589 12.9807C19.9741 14.4068 17.7838 15.2079 15.5 15.2079C13.2162 15.2079 11.0259 14.4068 9.41103 12.9807C7.79613 11.5547 6.88889 9.62064 6.88889 7.60395C6.88889 5.58726 7.79613 3.65316 9.41103 2.22714C11.0259 0.801128 13.2162 0 15.5 0ZM15.5 3.04158C14.8215 3.04158 14.1497 3.15959 13.5228 3.38887C12.896 3.61815 12.3264 3.95421 11.8466 4.37787C11.3668 4.80152 10.9863 5.30447 10.7266 5.858C10.467 6.41154 10.3333 7.00481 10.3333 7.60395C10.3333 8.20309 10.467 8.79636 10.7266 9.34989C10.9863 9.90342 11.3668 10.4064 11.8466 10.83C12.3264 11.2537 12.896 11.5897 13.5228 11.819C14.1497 12.0483 14.8215 12.1663 15.5 12.1663C16.8703 12.1663 18.1844 11.6856 19.1534 10.83C20.1223 9.97442 20.6667 8.81396 20.6667 7.60395C20.6667 6.39393 20.1223 5.23348 19.1534 4.37787C18.1844 3.52226 16.8703 3.04158 15.5 3.04158Z" fill="#FF8800"/>
</svg>

