<svg width="38" height="34" viewBox="0 0 38 34" fill="none" xmlns="http://www.w3.org/2000/svg">
<path fill-rule="evenodd" clip-rule="evenodd" d="M18.7917 14.4528C21.9914 14.4528 24.8904 15.4484 27.0173 16.8407C29.0383 18.1656 30.75 20.1344 30.75 22.2525C30.75 23.4151 30.2221 24.3787 29.3902 25.0949C28.6078 25.7709 27.5862 26.2093 26.5338 26.508C24.4309 27.107 21.6617 27.2997 18.7917 27.2997C15.9217 27.2997 13.1525 27.107 11.0495 26.508C9.99717 26.2093 8.97558 25.7709 8.19146 25.0949C7.36292 24.3803 6.83333 23.4167 6.83333 22.2541C6.83333 20.136 8.54508 18.1672 10.566 16.8423C12.6929 15.4484 15.592 14.4528 18.7917 14.4528ZM18.7917 17.6645C16.3317 17.6645 14.1057 18.4353 12.5221 19.4743C10.8325 20.5824 10.25 21.7097 10.25 22.2525C10.25 22.7407 10.8513 23.0458 11.398 23.2385L11.7482 23.3509L12.0386 23.4344C13.6445 23.8905 16.002 24.088 18.7917 24.088C21.3678 24.088 23.5733 23.9194 25.1603 23.5356L25.6797 23.3959L26.0043 23.2995C26.5902 23.1116 27.3333 22.7953 27.3333 22.2525C27.3333 21.7097 26.7508 20.5824 25.0613 19.4743C23.4793 18.437 21.2517 17.6645 18.7917 17.6645ZM30.75 16.0587C32.5335 16.0587 34.153 16.6127 35.3505 17.3964C36.4439 18.1142 37.5833 19.3073 37.5833 20.7622C37.5833 22.9061 35.3676 23.6737 33.3757 23.9419L32.8632 24.0013L32.3695 24.0414L32.1338 24.0543C32.3422 23.5002 32.4583 22.898 32.4583 22.2525C32.4573 21.772 32.396 21.2934 32.2755 20.8265C32.935 20.7783 33.4765 20.698 33.8797 20.584C34.0573 20.5326 33.8968 20.3752 33.7088 20.2387L33.526 20.1135L33.3962 20.0316C32.8834 19.7026 32.3053 19.4743 31.6964 19.3603C31.0473 18.1399 30.0496 17.0832 28.987 16.2401C29.566 16.1199 30.1571 16.0591 30.75 16.0587ZM6.83333 16.0587C7.44492 16.0608 8.03258 16.1213 8.59633 16.2401C7.53375 17.0832 6.53608 18.1399 5.88692 19.3603C5.27804 19.4743 4.69989 19.7026 4.18713 20.0316L3.96846 20.1729C3.7515 20.3206 3.49696 20.5262 3.70367 20.584C4.10683 20.698 4.64838 20.7799 5.3095 20.8265C5.18687 21.2931 5.12492 21.7719 5.125 22.2525C5.125 22.898 5.24117 23.5002 5.44958 24.0543L4.97125 24.0222L4.46558 23.974C2.41217 23.7379 0 22.9992 0 20.7622C0 19.3089 1.13775 18.1142 2.23279 17.3964C3.58746 16.5241 5.19132 16.0577 6.83333 16.0587ZM29.8958 6.42347C31.0285 6.42347 32.1148 6.84644 32.9158 7.59933C33.7167 8.35223 34.1667 9.37338 34.1667 10.4381C34.1667 11.5029 33.7167 12.524 32.9158 13.2769C32.1148 14.0298 31.0285 14.4528 29.8958 14.4528C28.7631 14.4528 27.6768 14.0298 26.8759 13.2769C26.075 12.524 25.625 11.5029 25.625 10.4381C25.625 9.37338 26.075 8.35223 26.8759 7.59933C27.6768 6.84644 28.7631 6.42347 29.8958 6.42347ZM7.6875 6.42347C8.8202 6.42347 9.9065 6.84644 10.7074 7.59933C11.5084 8.35223 11.9583 9.37338 11.9583 10.4381C11.9583 11.5029 11.5084 12.524 10.7074 13.2769C9.9065 14.0298 8.8202 14.4528 7.6875 14.4528C6.55481 14.4528 5.4685 14.0298 4.66757 13.2769C3.86663 12.524 3.41667 11.5029 3.41667 10.4381C3.41667 9.37338 3.86663 8.35223 4.66757 7.59933C5.4685 6.84644 6.55481 6.42347 7.6875 6.42347ZM18.7917 0C20.604 0 22.3421 0.676756 23.6236 1.88139C24.9051 3.08602 25.625 4.71986 25.625 6.42347C25.625 8.12708 24.9051 9.76091 23.6236 10.9655C22.3421 12.1702 20.604 12.8469 18.7917 12.8469C16.9794 12.8469 15.2413 12.1702 13.9598 10.9655C12.6783 9.76091 11.9583 8.12708 11.9583 6.42347C11.9583 4.71986 12.6783 3.08602 13.9598 1.88139C15.2413 0.676756 16.9794 0 18.7917 0ZM29.8958 9.6352C29.6693 9.6352 29.452 9.71979 29.2918 9.87037C29.1317 10.021 29.0417 10.2252 29.0417 10.4381C29.0417 10.6511 29.1317 10.8553 29.2918 11.0059C29.452 11.1565 29.6693 11.2411 29.8958 11.2411C30.1224 11.2411 30.3396 11.1565 30.4998 11.0059C30.66 10.8553 30.75 10.6511 30.75 10.4381C30.75 10.2252 30.66 10.021 30.4998 9.87037C30.3396 9.71979 30.1224 9.6352 29.8958 9.6352ZM7.6875 9.6352C7.46096 9.6352 7.2437 9.71979 7.08351 9.87037C6.92333 10.021 6.83333 10.2252 6.83333 10.4381C6.83333 10.6511 6.92333 10.8553 7.08351 11.0059C7.2437 11.1565 7.46096 11.2411 7.6875 11.2411C7.91404 11.2411 8.1313 11.1565 8.29149 11.0059C8.45168 10.8553 8.54167 10.6511 8.54167 10.4381C8.54167 10.2252 8.45168 10.021 8.29149 9.87037C8.1313 9.71979 7.91404 9.6352 7.6875 9.6352ZM18.7917 3.21173C17.8855 3.21173 17.0165 3.55011 16.3757 4.15243C15.735 4.75474 15.375 5.57166 15.375 6.42347C15.375 7.27527 15.735 8.09219 16.3757 8.6945C17.0165 9.29682 17.8855 9.6352 18.7917 9.6352C19.6978 9.6352 20.5669 9.29682 21.2076 8.6945C21.8484 8.09219 22.2083 7.27527 22.2083 6.42347C22.2083 5.57166 21.8484 4.75474 21.2076 4.15243C20.5669 3.55011 19.6978 3.21173 18.7917 3.21173Z" fill="#FF8800"/>
</svg>

