<svg width="39" height="38" viewBox="0 0 39 38" fill="none" xmlns="http://www.w3.org/2000/svg">
<path d="M19.5004 35.8149C29.1656 35.8149 37.0004 28.2454 37.0004 18.9074C37.0004 9.56946 29.1656 2 19.5004 2C9.83512 2 2.00037 9.56946 2.00037 18.9074C2.00037 21.239 2.49037 23.4606 3.37237 25.4811C3.86062 26.597 4.10387 27.1549 4.13537 27.5776C4.16512 28.0003 4.03562 28.4635 3.77837 29.3918L2.00037 35.8149L8.64862 34.0971C9.60937 33.8486 10.0889 33.7251 10.5264 33.7522C10.9639 33.7826 11.5414 34.0176 12.6964 34.4894C14.85 35.3657 17.1635 35.8164 19.5004 35.8149Z" stroke="#FF6B35" stroke-width="2.66667" stroke-linecap="round" stroke-linejoin="round"/>
<path d="M13.5286 19.5452L15.0528 17.7175C15.6951 16.9466 16.4878 16.2297 16.5526 15.2017C16.5666 14.943 16.3776 13.7798 16.0013 11.4516C15.8526 10.5369 14.9671 10.4541 14.2023 10.4541C13.2048 10.4541 12.7061 10.4541 12.2108 10.6739C11.5843 10.9495 10.9421 11.7255 10.8003 12.3765C10.6883 12.8922 10.7723 13.2472 10.9386 13.9573C11.6421 16.9719 13.2958 19.9493 15.8578 22.4263C18.4216 24.9015 21.5033 26.4993 24.6253 27.179C25.3603 27.3396 25.7261 27.4207 26.2598 27.3125C26.9336 27.1773 27.7368 26.5551 28.0238 25.9498C28.2496 25.4713 28.2496 24.9894 28.2496 24.0257C28.2496 23.2852 28.1638 22.4313 27.2171 22.2876C24.8073 21.9224 23.6033 21.7415 23.3356 21.755C22.2733 21.8159 21.5296 22.5835 20.7316 23.204L18.8398 24.675" stroke="#FF6B35" stroke-width="2.66667" stroke-linecap="round" stroke-linejoin="round"/>
</svg>
